G04 #@! TF.GenerationSoftware,KiCad,Pcbnew,(2017-06-12 revision 8590a2299)-makepkg*
G04 #@! TF.CreationDate,2017-06-16T20:28:46+02:00*
G04 #@! TF.ProjectId,phloggerV2,70686C6F6767657256322E6B69636164,C*
G04 #@! TF.FileFunction,Copper,L2,Bot,Signal*
G04 #@! TF.FilePolarity,Positive*
%FSLAX46Y46*%
G04 Gerber Fmt 4.6, Leading zero omitted, Abs format (unit mm)*
G04 Created by KiCad (PCBNEW (2017-06-12 revision 8590a2299)-makepkg) date 06/16/17 20:28:46*
%MOMM*%
%LPD*%
G01*
G04 APERTURE LIST*
%ADD10C,0.100000*%
%ADD11C,5.999480*%
%ADD12R,0.600000X1.950000*%
%ADD13R,1.700000X1.700000*%
%ADD14O,1.700000X1.700000*%
%ADD15C,2.000000*%
%ADD16R,2.000000X2.000000*%
%ADD17R,1.250000X1.500000*%
%ADD18R,1.500000X1.250000*%
%ADD19O,1.800000X3.600000*%
%ADD20R,1.800000X3.600000*%
%ADD21R,1.500000X1.300000*%
%ADD22R,1.300000X1.500000*%
%ADD23C,1.524000*%
%ADD24R,1.060000X0.650000*%
%ADD25R,0.600000X1.500000*%
%ADD26C,1.500000*%
%ADD27C,0.460000*%
%ADD28C,0.254000*%
G04 APERTURE END LIST*
D10*
D11*
X40140000Y74990000D03*
X74950000Y39960000D03*
X4826000Y39878000D03*
X39878000Y5080000D03*
D12*
X62480000Y44400000D03*
X61210000Y44400000D03*
X59940000Y44400000D03*
X58670000Y44400000D03*
X57400000Y44400000D03*
X56130000Y44400000D03*
X54860000Y44400000D03*
X53590000Y44400000D03*
X52320000Y44400000D03*
X51050000Y44400000D03*
X51050000Y35000000D03*
X52320000Y35000000D03*
X53590000Y35000000D03*
X54860000Y35000000D03*
X56130000Y35000000D03*
X57400000Y35000000D03*
X58670000Y35000000D03*
X59940000Y35000000D03*
X61210000Y35000000D03*
X62480000Y35000000D03*
D13*
X52220000Y54000000D03*
D14*
X54760000Y54000000D03*
X57300000Y54000000D03*
X59840000Y54000000D03*
X62380000Y54000000D03*
X64920000Y54000000D03*
X67460000Y54000000D03*
X70000000Y54000000D03*
X70000000Y56540000D03*
X67460000Y56540000D03*
X64920000Y56540000D03*
X62380000Y56540000D03*
X59840000Y56540000D03*
X57300000Y56540000D03*
X54760000Y56540000D03*
X52220000Y56540000D03*
D15*
X32700000Y61100000D03*
D16*
X28900000Y61100000D03*
D17*
X5610000Y68680000D03*
X5610000Y66180000D03*
D18*
X58150000Y77600000D03*
X55650000Y77600000D03*
X14950000Y23600000D03*
X17450000Y23600000D03*
X68950000Y44500000D03*
X66450000Y44500000D03*
X17650000Y53600000D03*
X20150000Y53600000D03*
X57820000Y68050000D03*
X55320000Y68050000D03*
D19*
X32400000Y72000000D03*
D20*
X28900000Y72000000D03*
D13*
X47400000Y73400000D03*
D19*
X19160000Y74400000D03*
X14080000Y74400000D03*
X9000000Y74400000D03*
D20*
X3920000Y74400000D03*
D19*
X78100000Y72900000D03*
X74600000Y72900000D03*
X71100000Y72900000D03*
D20*
X67600000Y72900000D03*
D21*
X20610000Y14690000D03*
X17910000Y14690000D03*
D22*
X8830000Y68590000D03*
X8830000Y65890000D03*
X9800000Y16950000D03*
X9800000Y14250000D03*
X42980000Y67040000D03*
X42980000Y64340000D03*
D23*
X14180000Y33200000D03*
X16720000Y33200000D03*
X19260000Y33200000D03*
X21800000Y33200000D03*
X24340000Y33200000D03*
X26880000Y33200000D03*
X29420000Y33200000D03*
X31960000Y33200000D03*
X34500000Y33200000D03*
X37040000Y33200000D03*
X39580000Y33200000D03*
X42120000Y33200000D03*
X42120000Y48320000D03*
X39580000Y48320000D03*
X37040000Y48320000D03*
X34500000Y48320000D03*
X31960000Y48320000D03*
X29420000Y48320000D03*
X26880000Y48320000D03*
X24340000Y48320000D03*
X25610000Y45780000D03*
X23120000Y45700000D03*
X21800000Y48320000D03*
X19260000Y48320000D03*
X16720000Y48320000D03*
X14180000Y48320000D03*
D24*
X50500000Y64650000D03*
X50500000Y66550000D03*
X48300000Y66550000D03*
X48300000Y65600000D03*
X48300000Y64650000D03*
D25*
X23640000Y19200000D03*
X22370000Y19200000D03*
X21100000Y19200000D03*
X19830000Y19200000D03*
X18560000Y19200000D03*
X17290000Y19200000D03*
X16020000Y19200000D03*
X14750000Y19200000D03*
X14750000Y9900000D03*
X16020000Y9900000D03*
X17290000Y9900000D03*
X18560000Y9900000D03*
X19830000Y9900000D03*
X21100000Y9900000D03*
X22370000Y9900000D03*
X23640000Y9900000D03*
D14*
X58180000Y73400000D03*
X55640000Y73400000D03*
D13*
X53100000Y73400000D03*
D26*
X34036000Y23622000D03*
X42130001Y26080000D03*
X75184000Y46482018D03*
X2870000Y62000000D03*
X67056000Y50292000D03*
X66300000Y38100000D03*
X74168000Y64770000D03*
X45466000Y32766000D03*
X43942000Y58420000D03*
X69570000Y34530000D03*
X56700150Y28734834D03*
X34544000Y43942000D03*
X42164000Y42926000D03*
X44958000Y45466000D03*
X34800000Y39900000D03*
D27*
X24312000Y23622000D02*
X34036000Y23622000D01*
X21100000Y20410000D02*
X24312000Y23622000D01*
X21100000Y19200000D02*
X21100000Y20410000D01*
X5460000Y66400000D02*
X5460000Y66500000D01*
X41069341Y26080000D02*
X42130001Y26080000D01*
X13280000Y26080000D02*
X41069341Y26080000D01*
X12600000Y25400000D02*
X13280000Y26080000D01*
X63240000Y44400000D02*
X65322018Y46482018D01*
X62480000Y44400000D02*
X63240000Y44400000D01*
X65322018Y46482018D02*
X75184000Y46482018D01*
X54760000Y56540000D02*
X54760000Y62640000D01*
X54760000Y62640000D02*
X52750000Y64650000D01*
X2870000Y62000000D02*
X2870000Y67025000D01*
X2870000Y67025000D02*
X4525000Y68680000D01*
X4525000Y68680000D02*
X5610000Y68680000D01*
X55320000Y68050000D02*
X55195000Y68050000D01*
X55195000Y68050000D02*
X52750000Y70495000D01*
X52750000Y70495000D02*
X52750000Y71740000D01*
X52750000Y71740000D02*
X52750000Y64650000D01*
X11650000Y16650000D02*
X11350000Y16950000D01*
X11350000Y16950000D02*
X9800000Y16950000D01*
X11650000Y13550000D02*
X11650000Y16650000D01*
X12350000Y12850000D02*
X11650000Y13550000D01*
X16350000Y12850000D02*
X12350000Y12850000D01*
X20630000Y12850000D02*
X16350000Y12850000D01*
X17910000Y14690000D02*
X17910000Y13580000D01*
X17910000Y13580000D02*
X17180000Y12850000D01*
X17180000Y12850000D02*
X16350000Y12850000D01*
X22370000Y9900000D02*
X22370000Y11110000D01*
X22370000Y11110000D02*
X20630000Y12850000D01*
X5610000Y68680000D02*
X8740000Y68680000D01*
X8740000Y68680000D02*
X8830000Y68590000D01*
X8750000Y69200000D02*
X8800000Y69250000D01*
X10700000Y23500000D02*
X12600000Y25400000D01*
X14950000Y23600000D02*
X13740000Y23600000D01*
X13740000Y23600000D02*
X12600000Y24740000D01*
X12600000Y24740000D02*
X12600000Y25400000D01*
X9800000Y16950000D02*
X9800000Y18160000D01*
X9800000Y18160000D02*
X10700000Y19060000D01*
X10700000Y19060000D02*
X10700000Y23500000D01*
X28900000Y61100000D02*
X28900000Y72000000D01*
X21800000Y48320000D02*
X21800000Y51100000D01*
X21800000Y51100000D02*
X21800000Y52075000D01*
X23600000Y54340000D02*
X23600000Y52900000D01*
X23600000Y52900000D02*
X21800000Y51100000D01*
X28900000Y61100000D02*
X28900000Y59640000D01*
X28900000Y59640000D02*
X23600000Y54340000D01*
X9000000Y74400000D02*
X9000000Y69450000D01*
X9000000Y69450000D02*
X8800000Y69250000D01*
X21800000Y52075000D02*
X20275000Y53600000D01*
X20275000Y53600000D02*
X20150000Y53600000D01*
X66450000Y44500000D02*
X62580000Y44500000D01*
X62580000Y44500000D02*
X62480000Y44400000D01*
X62480000Y44400000D02*
X62480000Y43725000D01*
X53100000Y73400000D02*
X53100000Y72090000D01*
X53100000Y72090000D02*
X52750000Y71740000D01*
X52750000Y64650000D02*
X50500000Y64650000D01*
X54760000Y56540000D02*
X54760000Y54000000D01*
X58180000Y73400000D02*
X58180000Y77570000D01*
X58180000Y77570000D02*
X58150000Y77600000D01*
X58180000Y73400000D02*
X67100000Y73400000D01*
X67100000Y73400000D02*
X67600000Y72900000D01*
X55900000Y49700000D02*
X53590000Y47390000D01*
X53590000Y47390000D02*
X53590000Y44400000D01*
X58100000Y49700000D02*
X55900000Y49700000D01*
X59900000Y51500000D02*
X58100000Y49700000D01*
X59900000Y52737919D02*
X59900000Y51500000D01*
X59840000Y54000000D02*
X59840000Y52797919D01*
X59840000Y52797919D02*
X59900000Y52737919D01*
X59840000Y56540000D02*
X59840000Y54000000D01*
X54860000Y46960000D02*
X54860000Y44400000D01*
X56639989Y48739989D02*
X54860000Y46960000D01*
X58497649Y48739989D02*
X56639989Y48739989D01*
X62380000Y52622340D02*
X58497649Y48739989D01*
X62380000Y54000000D02*
X62380000Y52622340D01*
X62380000Y54000000D02*
X62300000Y53920000D01*
X62380000Y56540000D02*
X62380000Y54000000D01*
X56130000Y45835000D02*
X56130000Y44400000D01*
X58074978Y47779978D02*
X56130000Y45835000D01*
X64070001Y52954681D02*
X58895298Y47779978D01*
X64070001Y53150001D02*
X64070001Y52954681D01*
X64920000Y54000000D02*
X64070001Y53150001D01*
X58895298Y47779978D02*
X58074978Y47779978D01*
X64920000Y56540000D02*
X64920000Y54000000D01*
X58670000Y35000000D02*
X58670000Y37190000D01*
X58670000Y37190000D02*
X59580000Y38100000D01*
X59580000Y38100000D02*
X66300000Y38100000D01*
X67460000Y50696000D02*
X67056000Y50292000D01*
X67460000Y54000000D02*
X67460000Y50696000D01*
X67460000Y56540000D02*
X67460000Y54000000D01*
X50435000Y67400000D02*
X49150000Y67400000D01*
X49150000Y67400000D02*
X48405001Y66655001D01*
X50500000Y66550000D02*
X50500000Y67335000D01*
X50500000Y67335000D02*
X50435000Y67400000D01*
X47400000Y73400000D02*
X47400000Y72090000D01*
X47400000Y72090000D02*
X48300000Y71190000D01*
X48300000Y71190000D02*
X48300000Y66655001D01*
X8830000Y65890000D02*
X8830000Y64680000D01*
X17800000Y74400000D02*
X19160000Y74400000D01*
X5100000Y24915320D02*
X9079978Y28895298D01*
X5100000Y8000000D02*
X5100000Y24915320D01*
X23640000Y19200000D02*
X23640000Y17990000D01*
X23640000Y17990000D02*
X26600000Y15030000D01*
X26600000Y15030000D02*
X26600000Y8000000D01*
X26600000Y8000000D02*
X24400000Y5800000D01*
X24400000Y5800000D02*
X7300000Y5800000D01*
X7300000Y5800000D02*
X5100000Y8000000D01*
X19160000Y66060000D02*
X19160000Y74400000D01*
X23120000Y45700000D02*
X14657660Y45700000D01*
X14657660Y45700000D02*
X12687999Y47669661D01*
X12687999Y59587999D02*
X19160000Y66060000D01*
X12687999Y47669661D02*
X12687999Y59587999D01*
X9800000Y38615320D02*
X9800000Y62000000D01*
X9079978Y28895298D02*
X9079978Y37895298D01*
X9079978Y37895298D02*
X9800000Y38615320D01*
X9800000Y62000000D02*
X10690000Y62890000D01*
X10690000Y62890000D02*
X11500000Y63700000D01*
X8830000Y64680000D02*
X10620000Y62890000D01*
X10620000Y62890000D02*
X10690000Y62890000D01*
X11500000Y75742340D02*
X13297649Y77539989D01*
X14660011Y77539989D02*
X17800000Y74400000D01*
X11500000Y63700000D02*
X11500000Y75742340D01*
X13297649Y77539989D02*
X14660011Y77539989D01*
X22370000Y16930000D02*
X22370000Y18170000D01*
X22370000Y18170000D02*
X22370000Y19200000D01*
X20610000Y14690000D02*
X21820000Y14690000D01*
X21820000Y14690000D02*
X22370000Y15240000D01*
X22370000Y15240000D02*
X22370000Y18170000D01*
X11727988Y42872012D02*
X11727988Y39185648D01*
X25639989Y13660011D02*
X22370000Y16930000D01*
X11727988Y39185648D02*
X10039989Y37497649D01*
X10039989Y37497649D02*
X10039989Y28497649D01*
X10039989Y28497649D02*
X6400000Y24857660D01*
X6400000Y24857660D02*
X6400000Y8500000D01*
X8139989Y6760011D02*
X22602351Y6760011D01*
X6400000Y8500000D02*
X8139989Y6760011D01*
X22602351Y6760011D02*
X25639989Y9797649D01*
X25639989Y9797649D02*
X25639989Y13660011D01*
X12800000Y41800000D02*
X11727988Y42872012D01*
X11727988Y42872012D02*
X11727988Y60827988D01*
X14080000Y63180000D02*
X14080000Y74400000D01*
X21630000Y41800000D02*
X12800000Y41800000D01*
X25610000Y45780000D02*
X21630000Y41800000D01*
X11727988Y60827988D02*
X14080000Y63180000D01*
X63500000Y29200000D02*
X61210000Y31490000D01*
X61210000Y31490000D02*
X61210000Y35000000D01*
X75800000Y29200000D02*
X63500000Y29200000D01*
X80300000Y33700000D02*
X75800000Y29200000D01*
X80300000Y46800000D02*
X80300000Y33700000D01*
X76940000Y50160000D02*
X80300000Y46800000D01*
X76940000Y68300000D02*
X76940000Y50160000D01*
X74600000Y72900000D02*
X74600000Y70640000D01*
X74600000Y70640000D02*
X76940000Y68300000D01*
X74168000Y53594000D02*
X74168000Y64770000D01*
X74168000Y64770000D02*
X74168000Y66040000D01*
X74168000Y66040000D02*
X71100000Y69108000D01*
X71100000Y69108000D02*
X71100000Y72900000D01*
X69088000Y48514000D02*
X74168000Y53594000D01*
X61349000Y48514000D02*
X69088000Y48514000D01*
X58670000Y44400000D02*
X58670000Y45835000D01*
X58670000Y45835000D02*
X61349000Y48514000D01*
X11689989Y11889989D02*
X11400000Y11600000D01*
X20204013Y11889989D02*
X11689989Y11889989D01*
X21100000Y9900000D02*
X21100000Y10994002D01*
X11400000Y11600000D02*
X9300000Y11600000D01*
X21100000Y10994002D02*
X20204013Y11889989D01*
X9300000Y11600000D02*
X8500000Y11600000D01*
X9800000Y14250000D02*
X9800000Y13040000D01*
X9800000Y13040000D02*
X9300000Y12540000D01*
X9300000Y12540000D02*
X9300000Y11600000D01*
X24600000Y38100000D02*
X26880000Y35820000D01*
X26880000Y35820000D02*
X26880000Y33200000D01*
X13000000Y38100000D02*
X24600000Y38100000D01*
X11100000Y36200000D02*
X13000000Y38100000D01*
X11100000Y28200000D02*
X11100000Y36200000D01*
X7500000Y24600000D02*
X11100000Y28200000D01*
X7500000Y12600000D02*
X7500000Y24600000D01*
X8500000Y11600000D02*
X7500000Y12600000D01*
X37040000Y33200000D02*
X39908000Y36068000D01*
X39908000Y36068000D02*
X43434000Y36068000D01*
X43434000Y36068000D02*
X44716001Y34785999D01*
X44716001Y34785999D02*
X44716001Y33515999D01*
X44716001Y33515999D02*
X45466000Y32766000D01*
X47522000Y62000000D02*
X43942000Y58420000D01*
X48194999Y62000000D02*
X47522000Y62000000D01*
X48194999Y64544999D02*
X48194999Y62000000D01*
X46430000Y62000000D02*
X48194999Y62000000D01*
X42980000Y64340000D02*
X44090000Y64340000D01*
X44090000Y64340000D02*
X46430000Y62000000D01*
X70319999Y39728063D02*
X70319999Y35279999D01*
X59940000Y44400000D02*
X59940000Y42965000D01*
X61715000Y41190000D02*
X68858062Y41190000D01*
X59940000Y42965000D02*
X61715000Y41190000D01*
X68858062Y41190000D02*
X70319999Y39728063D01*
X70319999Y35279999D02*
X69570000Y34530000D01*
X16720000Y33200000D02*
X21180011Y28739989D01*
X55518310Y28856014D02*
X55639490Y28734834D01*
X41701925Y28739989D02*
X41817950Y28856014D01*
X21180011Y28739989D02*
X41701925Y28739989D01*
X41817950Y28856014D02*
X55518310Y28856014D01*
X55639490Y28734834D02*
X56700150Y28734834D01*
X45600000Y51800000D02*
X46900000Y50500000D01*
X40520000Y51800000D02*
X45600000Y51800000D01*
X46900000Y50500000D02*
X46900000Y45960998D01*
X37040000Y48320000D02*
X40520000Y51800000D01*
X46900000Y45960998D02*
X51530998Y41330000D01*
X51530998Y41330000D02*
X55765000Y41330000D01*
X55765000Y41330000D02*
X57400000Y42965000D01*
X57400000Y42965000D02*
X57400000Y44400000D01*
X32920000Y29700000D02*
X29420000Y33200000D01*
X41420300Y29816024D02*
X41304276Y29700000D01*
X54860000Y35000000D02*
X54860000Y33565000D01*
X41304276Y29700000D02*
X32920000Y29700000D01*
X54860000Y33565000D02*
X51111025Y29816025D01*
X51111025Y29816025D02*
X41420300Y29816024D01*
X43224660Y42926000D02*
X42164000Y42926000D01*
X50735698Y39409980D02*
X47219678Y42926000D01*
X57400000Y37897660D02*
X55887680Y39409980D01*
X57400000Y35000000D02*
X57400000Y37897660D01*
X47219678Y42926000D02*
X43224660Y42926000D01*
X55887680Y39409980D02*
X50735698Y39409980D01*
X34544000Y43942000D02*
X34544000Y48276000D01*
X34544000Y48276000D02*
X34500000Y48320000D01*
X55490031Y38449969D02*
X50338049Y38449969D01*
X39580000Y39580340D02*
X39580000Y47242370D01*
X50338049Y38449969D02*
X50124029Y38663989D01*
X50124029Y38663989D02*
X40496351Y38663989D01*
X56130000Y35000000D02*
X56130000Y37810000D01*
X56130000Y37810000D02*
X55490031Y38449969D01*
X40496351Y38663989D02*
X39580000Y39580340D01*
X39580000Y47242370D02*
X39580000Y48320000D01*
X55989749Y27254833D02*
X57410551Y27254833D01*
X59940000Y33565000D02*
X59940000Y35000000D01*
X59940000Y29784282D02*
X59940000Y33565000D01*
X57410551Y27254833D02*
X59940000Y29784282D01*
X55984571Y27260011D02*
X55989749Y27254833D01*
X45034395Y27260011D02*
X55984571Y27260011D01*
X14180000Y33200000D02*
X19649999Y27730001D01*
X44564405Y27730001D02*
X45034395Y27260011D01*
X19649999Y27730001D02*
X44564405Y27730001D01*
X46018660Y45466000D02*
X44958000Y45466000D01*
X65690402Y35000000D02*
X68980001Y38289599D01*
X46037338Y45466000D02*
X46018660Y45466000D01*
X51133349Y40369989D02*
X46037338Y45466000D01*
X61177351Y40369989D02*
X51133349Y40369989D01*
X68460413Y40229989D02*
X61317351Y40229989D01*
X68980001Y39710401D02*
X68460413Y40229989D01*
X68980001Y38289599D02*
X68980001Y39710401D01*
X62480000Y35000000D02*
X65690402Y35000000D01*
X61317351Y40229989D02*
X61177351Y40369989D01*
X34800000Y39900000D02*
X33739340Y39900000D01*
X33739340Y39900000D02*
X31960000Y38120660D01*
X31960000Y38120660D02*
X31960000Y33200000D01*
X31960000Y33200000D02*
X31960000Y32868162D01*
D28*
G36*
X81307000Y735000D02*
X735000Y735000D01*
X735000Y4360177D01*
X36242630Y4360177D01*
X36794820Y3023775D01*
X37816397Y2000414D01*
X39151834Y1445892D01*
X40597823Y1444630D01*
X41934225Y1996820D01*
X42957586Y3018397D01*
X43512108Y4353834D01*
X43513370Y5799823D01*
X42961180Y7136225D01*
X41939603Y8159586D01*
X40604166Y8714108D01*
X39158177Y8715370D01*
X37821775Y8163180D01*
X36798414Y7141603D01*
X36243892Y5806166D01*
X36242630Y4360177D01*
X735000Y4360177D01*
X735000Y39158177D01*
X1190630Y39158177D01*
X1742820Y37821775D01*
X2764397Y36798414D01*
X4099834Y36243892D01*
X5545823Y36242630D01*
X6882225Y36794820D01*
X7905586Y37816397D01*
X8460108Y39151834D01*
X8461370Y40597823D01*
X7909180Y41934225D01*
X6887603Y42957586D01*
X5552166Y43512108D01*
X4106177Y43513370D01*
X2769775Y42961180D01*
X1746414Y41939603D01*
X1191892Y40604166D01*
X1190630Y39158177D01*
X735000Y39158177D01*
X735000Y61725715D01*
X1484760Y61725715D01*
X1695169Y61216485D01*
X2084436Y60826539D01*
X2593298Y60615241D01*
X3144285Y60614760D01*
X3653515Y60825169D01*
X4043461Y61214436D01*
X4254759Y61723298D01*
X4255240Y62274285D01*
X4044831Y62783515D01*
X3735000Y63093886D01*
X3735000Y65894250D01*
X4350000Y65894250D01*
X4350000Y65303691D01*
X4446673Y65070302D01*
X4625301Y64891673D01*
X4858690Y64795000D01*
X5324250Y64795000D01*
X5483000Y64953750D01*
X5483000Y66053000D01*
X5737000Y66053000D01*
X5737000Y64953750D01*
X5895750Y64795000D01*
X6361310Y64795000D01*
X6594699Y64891673D01*
X6773327Y65070302D01*
X6870000Y65303691D01*
X6870000Y65894250D01*
X6711250Y66053000D01*
X5737000Y66053000D01*
X5483000Y66053000D01*
X4508750Y66053000D01*
X4350000Y65894250D01*
X3735000Y65894250D01*
X3735000Y66666706D01*
X4535161Y67466866D01*
X4588320Y67431346D01*
X4446673Y67289698D01*
X4350000Y67056309D01*
X4350000Y66465750D01*
X4508750Y66307000D01*
X5483000Y66307000D01*
X5483000Y66327000D01*
X5737000Y66327000D01*
X5737000Y66307000D01*
X6711250Y66307000D01*
X6870000Y66465750D01*
X6870000Y67056309D01*
X6773327Y67289698D01*
X6631680Y67431346D01*
X6692809Y67472191D01*
X6833157Y67682235D01*
X6859565Y67815000D01*
X7537533Y67815000D01*
X7581843Y67592235D01*
X7722191Y67382191D01*
X7932235Y67241843D01*
X7941500Y67240000D01*
X7932235Y67238157D01*
X7722191Y67097809D01*
X7581843Y66887765D01*
X7532560Y66640000D01*
X7532560Y65140000D01*
X7581843Y64892235D01*
X7722191Y64682191D01*
X7932235Y64541843D01*
X7994963Y64529366D01*
X8002284Y64492560D01*
X8030844Y64348979D01*
X8218353Y64068353D01*
X9431706Y62855000D01*
X9188353Y62611647D01*
X9000844Y62331021D01*
X8935000Y62000000D01*
X8935000Y38973614D01*
X8468331Y38506945D01*
X8280822Y38226319D01*
X8214978Y37895298D01*
X8214978Y29253592D01*
X4488353Y25526967D01*
X4300844Y25246341D01*
X4235000Y24915320D01*
X4235000Y8000000D01*
X4294506Y7700844D01*
X4300844Y7668979D01*
X4488353Y7388353D01*
X6688353Y5188353D01*
X6968979Y5000844D01*
X7300000Y4935000D01*
X24400000Y4935000D01*
X24731021Y5000844D01*
X25011647Y5188353D01*
X27211647Y7388353D01*
X27399156Y7668979D01*
X27465000Y8000000D01*
X27465000Y15030000D01*
X27399156Y15361021D01*
X27399156Y15361022D01*
X27211647Y15641647D01*
X24556888Y18296406D01*
X24587440Y18450000D01*
X24587440Y19950000D01*
X24538157Y20197765D01*
X24397809Y20407809D01*
X24187765Y20548157D01*
X23940000Y20597440D01*
X23340000Y20597440D01*
X23092235Y20548157D01*
X23005000Y20489868D01*
X22917765Y20548157D01*
X22670000Y20597440D01*
X22510734Y20597440D01*
X24670294Y22757000D01*
X32942512Y22757000D01*
X33250436Y22448539D01*
X33759298Y22237241D01*
X34310285Y22236760D01*
X34819515Y22447169D01*
X35209461Y22836436D01*
X35420759Y23345298D01*
X35421240Y23896285D01*
X35210831Y24405515D01*
X34821564Y24795461D01*
X34312702Y25006759D01*
X33761715Y25007240D01*
X33252485Y24796831D01*
X32942114Y24487000D01*
X24312000Y24487000D01*
X23980979Y24421156D01*
X23700353Y24233647D01*
X20488353Y21021647D01*
X20300844Y20741021D01*
X20268782Y20579834D01*
X20256310Y20585000D01*
X20115750Y20585000D01*
X19957000Y20426250D01*
X19957000Y19327000D01*
X19977000Y19327000D01*
X19977000Y19073000D01*
X19957000Y19073000D01*
X19957000Y17973750D01*
X20115750Y17815000D01*
X20256310Y17815000D01*
X20473028Y17904768D01*
X20552235Y17851843D01*
X20800000Y17802560D01*
X21400000Y17802560D01*
X21505000Y17823446D01*
X21505000Y15958598D01*
X21360000Y15987440D01*
X19860000Y15987440D01*
X19612235Y15938157D01*
X19402191Y15797809D01*
X19261843Y15587765D01*
X19260000Y15578500D01*
X19258157Y15587765D01*
X19117809Y15797809D01*
X18907765Y15938157D01*
X18660000Y15987440D01*
X17160000Y15987440D01*
X16912235Y15938157D01*
X16702191Y15797809D01*
X16561843Y15587765D01*
X16512560Y15340000D01*
X16512560Y14040000D01*
X16561843Y13792235D01*
X16613450Y13715000D01*
X12708295Y13715000D01*
X12515000Y13908294D01*
X12515000Y16650000D01*
X12449156Y16981021D01*
X12261647Y17261647D01*
X11961647Y17561647D01*
X11681021Y17749156D01*
X11350000Y17815000D01*
X11074565Y17815000D01*
X11048157Y17947765D01*
X10953189Y18089894D01*
X11311647Y18448352D01*
X11499156Y18728978D01*
X11524223Y18854999D01*
X11565000Y19060000D01*
X11565000Y19950000D01*
X13802560Y19950000D01*
X13802560Y18450000D01*
X13851843Y18202235D01*
X13992191Y17992191D01*
X14202235Y17851843D01*
X14450000Y17802560D01*
X15050000Y17802560D01*
X15297765Y17851843D01*
X15385000Y17910132D01*
X15472235Y17851843D01*
X15720000Y17802560D01*
X16320000Y17802560D01*
X16567765Y17851843D01*
X16655000Y17910132D01*
X16742235Y17851843D01*
X16990000Y17802560D01*
X17590000Y17802560D01*
X17837765Y17851843D01*
X17925000Y17910132D01*
X18012235Y17851843D01*
X18260000Y17802560D01*
X18860000Y17802560D01*
X19107765Y17851843D01*
X19186972Y17904768D01*
X19403690Y17815000D01*
X19544250Y17815000D01*
X19703000Y17973750D01*
X19703000Y19073000D01*
X19683000Y19073000D01*
X19683000Y19327000D01*
X19703000Y19327000D01*
X19703000Y20426250D01*
X19544250Y20585000D01*
X19403690Y20585000D01*
X19186972Y20495232D01*
X19107765Y20548157D01*
X18860000Y20597440D01*
X18260000Y20597440D01*
X18012235Y20548157D01*
X17925000Y20489868D01*
X17837765Y20548157D01*
X17590000Y20597440D01*
X16990000Y20597440D01*
X16742235Y20548157D01*
X16655000Y20489868D01*
X16567765Y20548157D01*
X16320000Y20597440D01*
X15720000Y20597440D01*
X15472235Y20548157D01*
X15385000Y20489868D01*
X15297765Y20548157D01*
X15050000Y20597440D01*
X14450000Y20597440D01*
X14202235Y20548157D01*
X13992191Y20407809D01*
X13851843Y20197765D01*
X13802560Y19950000D01*
X11565000Y19950000D01*
X11565000Y23141706D01*
X12270000Y23846706D01*
X13128352Y22988353D01*
X13278013Y22888353D01*
X13408979Y22800844D01*
X13594543Y22763933D01*
X13601843Y22727235D01*
X13742191Y22517191D01*
X13952235Y22376843D01*
X14200000Y22327560D01*
X15700000Y22327560D01*
X15947765Y22376843D01*
X16157809Y22517191D01*
X16198654Y22578320D01*
X16340302Y22436673D01*
X16573691Y22340000D01*
X17164250Y22340000D01*
X17323000Y22498750D01*
X17323000Y23473000D01*
X17577000Y23473000D01*
X17577000Y22498750D01*
X17735750Y22340000D01*
X18326309Y22340000D01*
X18559698Y22436673D01*
X18738327Y22615301D01*
X18835000Y22848690D01*
X18835000Y23314250D01*
X18676250Y23473000D01*
X17577000Y23473000D01*
X17323000Y23473000D01*
X17303000Y23473000D01*
X17303000Y23727000D01*
X17323000Y23727000D01*
X17323000Y24701250D01*
X17577000Y24701250D01*
X17577000Y23727000D01*
X18676250Y23727000D01*
X18835000Y23885750D01*
X18835000Y24351310D01*
X18738327Y24584699D01*
X18559698Y24763327D01*
X18326309Y24860000D01*
X17735750Y24860000D01*
X17577000Y24701250D01*
X17323000Y24701250D01*
X17164250Y24860000D01*
X16573691Y24860000D01*
X16340302Y24763327D01*
X16198654Y24621680D01*
X16157809Y24682809D01*
X15947765Y24823157D01*
X15700000Y24872440D01*
X14200000Y24872440D01*
X13952235Y24823157D01*
X13825092Y24738202D01*
X13493294Y25070000D01*
X13638295Y25215000D01*
X41036513Y25215000D01*
X41344437Y24906539D01*
X41853299Y24695241D01*
X42404286Y24694760D01*
X42913516Y24905169D01*
X43303462Y25294436D01*
X43514760Y25803298D01*
X43515241Y26354285D01*
X43304832Y26863515D01*
X43303349Y26865001D01*
X44206110Y26865001D01*
X44422747Y26648364D01*
X44703373Y26460855D01*
X44758293Y26449931D01*
X45034395Y26395011D01*
X55963717Y26395011D01*
X55989749Y26389833D01*
X57410551Y26389833D01*
X57741572Y26455677D01*
X58022198Y26643186D01*
X60551647Y29172635D01*
X60739156Y29453261D01*
X60769336Y29604989D01*
X60805000Y29784282D01*
X60805000Y30671706D01*
X62888353Y28588353D01*
X63168979Y28400844D01*
X63500000Y28335000D01*
X75800000Y28335000D01*
X76131021Y28400844D01*
X76411647Y28588353D01*
X80911647Y33088353D01*
X81099156Y33368979D01*
X81121060Y33479100D01*
X81165000Y33700000D01*
X81165000Y46800000D01*
X81099156Y47131021D01*
X80998827Y47281174D01*
X80911648Y47411647D01*
X77805000Y50518294D01*
X77805000Y68300000D01*
X77739156Y68631021D01*
X77641630Y68776979D01*
X77551648Y68911647D01*
X75632056Y70831238D01*
X75685409Y70866887D01*
X76018155Y71364877D01*
X76135000Y71952296D01*
X76135000Y72773000D01*
X76565000Y72773000D01*
X76565000Y71873000D01*
X76730446Y71295248D01*
X77104394Y70824788D01*
X77629914Y70533244D01*
X77735260Y70508964D01*
X77973000Y70629622D01*
X77973000Y72773000D01*
X78227000Y72773000D01*
X78227000Y70629622D01*
X78464740Y70508964D01*
X78570086Y70533244D01*
X79095606Y70824788D01*
X79469554Y71295248D01*
X79635000Y71873000D01*
X79635000Y72773000D01*
X78227000Y72773000D01*
X77973000Y72773000D01*
X76565000Y72773000D01*
X76135000Y72773000D01*
X76135000Y73847704D01*
X76119228Y73927000D01*
X76565000Y73927000D01*
X76565000Y73027000D01*
X77973000Y73027000D01*
X77973000Y75170378D01*
X78227000Y75170378D01*
X78227000Y73027000D01*
X79635000Y73027000D01*
X79635000Y73927000D01*
X79469554Y74504752D01*
X79095606Y74975212D01*
X78570086Y75266756D01*
X78464740Y75291036D01*
X78227000Y75170378D01*
X77973000Y75170378D01*
X77735260Y75291036D01*
X77629914Y75266756D01*
X77104394Y74975212D01*
X76730446Y74504752D01*
X76565000Y73927000D01*
X76119228Y73927000D01*
X76018155Y74435123D01*
X75685409Y74933113D01*
X75187419Y75265859D01*
X74600000Y75382704D01*
X74012581Y75265859D01*
X73514591Y74933113D01*
X73181845Y74435123D01*
X73065000Y73847704D01*
X73065000Y71952296D01*
X73181845Y71364877D01*
X73514591Y70866887D01*
X73735000Y70719615D01*
X73735000Y70640000D01*
X73783684Y70395248D01*
X73800844Y70308979D01*
X73988353Y70028353D01*
X76075000Y67941705D01*
X76075000Y50160000D01*
X76114588Y49960979D01*
X76140844Y49828979D01*
X76328353Y49548353D01*
X79435000Y46441705D01*
X79435000Y34058294D01*
X75441706Y30065000D01*
X63858294Y30065000D01*
X62075000Y31848294D01*
X62075000Y33398446D01*
X62180000Y33377560D01*
X62780000Y33377560D01*
X63027765Y33426843D01*
X63237809Y33567191D01*
X63378157Y33777235D01*
X63427440Y34025000D01*
X63427440Y34135000D01*
X65690402Y34135000D01*
X66021423Y34200844D01*
X66302049Y34388353D01*
X69454999Y37541302D01*
X69454999Y35915101D01*
X69295715Y35915240D01*
X68786485Y35704831D01*
X68396539Y35315564D01*
X68185241Y34806702D01*
X68184760Y34255715D01*
X68395169Y33746485D01*
X68784436Y33356539D01*
X69293298Y33145241D01*
X69844285Y33144760D01*
X70353515Y33355169D01*
X70743461Y33744436D01*
X70954759Y34253298D01*
X70955152Y34703530D01*
X71119155Y34948978D01*
X71184999Y35279999D01*
X71184999Y39240177D01*
X71314630Y39240177D01*
X71866820Y37903775D01*
X72888397Y36880414D01*
X74223834Y36325892D01*
X75669823Y36324630D01*
X77006225Y36876820D01*
X78029586Y37898397D01*
X78584108Y39233834D01*
X78585370Y40679823D01*
X78033180Y42016225D01*
X77011603Y43039586D01*
X75676166Y43594108D01*
X74230177Y43595370D01*
X72893775Y43043180D01*
X71870414Y42021603D01*
X71315892Y40686166D01*
X71314630Y39240177D01*
X71184999Y39240177D01*
X71184999Y39728063D01*
X71119155Y40059084D01*
X71119155Y40059085D01*
X70931646Y40339710D01*
X69469709Y41801647D01*
X69189083Y41989156D01*
X68858062Y42055000D01*
X62073294Y42055000D01*
X61337002Y42791292D01*
X61337002Y42948748D01*
X61495750Y42790000D01*
X61636310Y42790000D01*
X61853028Y42879768D01*
X61932235Y42826843D01*
X62180000Y42777560D01*
X62780000Y42777560D01*
X63027765Y42826843D01*
X63237809Y42967191D01*
X63378157Y43177235D01*
X63427440Y43425000D01*
X63427440Y43572284D01*
X63571021Y43600844D01*
X63622139Y43635000D01*
X65100298Y43635000D01*
X65101843Y43627235D01*
X65242191Y43417191D01*
X65452235Y43276843D01*
X65700000Y43227560D01*
X67200000Y43227560D01*
X67447765Y43276843D01*
X67657809Y43417191D01*
X67698654Y43478320D01*
X67840302Y43336673D01*
X68073691Y43240000D01*
X68664250Y43240000D01*
X68823000Y43398750D01*
X68823000Y44373000D01*
X69077000Y44373000D01*
X69077000Y43398750D01*
X69235750Y43240000D01*
X69826309Y43240000D01*
X70059698Y43336673D01*
X70238327Y43515301D01*
X70335000Y43748690D01*
X70335000Y44214250D01*
X70176250Y44373000D01*
X69077000Y44373000D01*
X68823000Y44373000D01*
X68803000Y44373000D01*
X68803000Y44627000D01*
X68823000Y44627000D01*
X68823000Y44647000D01*
X69077000Y44647000D01*
X69077000Y44627000D01*
X70176250Y44627000D01*
X70335000Y44785750D01*
X70335000Y45251310D01*
X70238327Y45484699D01*
X70106007Y45617018D01*
X74090512Y45617018D01*
X74398436Y45308557D01*
X74907298Y45097259D01*
X75458285Y45096778D01*
X75967515Y45307187D01*
X76357461Y45696454D01*
X76568759Y46205316D01*
X76569240Y46756303D01*
X76358831Y47265533D01*
X75969564Y47655479D01*
X75460702Y47866777D01*
X74909715Y47867258D01*
X74400485Y47656849D01*
X74090114Y47347018D01*
X65322018Y47347018D01*
X64990997Y47281174D01*
X64710371Y47093665D01*
X63322607Y45705901D01*
X63237809Y45832809D01*
X63027765Y45973157D01*
X62780000Y46022440D01*
X62180000Y46022440D01*
X61932235Y45973157D01*
X61853028Y45920232D01*
X61636310Y46010000D01*
X61495750Y46010000D01*
X61337000Y45851250D01*
X61337000Y44527000D01*
X61357000Y44527000D01*
X61357000Y44273000D01*
X61337000Y44273000D01*
X61337000Y44253000D01*
X61083000Y44253000D01*
X61083000Y44273000D01*
X61063000Y44273000D01*
X61063000Y44527000D01*
X61083000Y44527000D01*
X61083000Y45851250D01*
X60924250Y46010000D01*
X60783690Y46010000D01*
X60566972Y45920232D01*
X60487765Y45973157D01*
X60240000Y46022440D01*
X60080734Y46022440D01*
X61707294Y47649000D01*
X69088000Y47649000D01*
X69419021Y47714844D01*
X69699647Y47902353D01*
X74779647Y52982353D01*
X74967156Y53262979D01*
X75033000Y53594000D01*
X75033000Y63676512D01*
X75341461Y63984436D01*
X75552759Y64493298D01*
X75553240Y65044285D01*
X75342831Y65553515D01*
X75033000Y65863886D01*
X75033000Y66040000D01*
X74967156Y66371021D01*
X74967156Y66371022D01*
X74779647Y66651648D01*
X71965000Y69466294D01*
X71965000Y70719615D01*
X72185409Y70866887D01*
X72518155Y71364877D01*
X72635000Y71952296D01*
X72635000Y73847704D01*
X72518155Y74435123D01*
X72185409Y74933113D01*
X71687419Y75265859D01*
X71100000Y75382704D01*
X70512581Y75265859D01*
X70014591Y74933113D01*
X69681845Y74435123D01*
X69565000Y73847704D01*
X69565000Y71952296D01*
X69681845Y71364877D01*
X70014591Y70866887D01*
X70235000Y70719615D01*
X70235000Y69108000D01*
X70272599Y68918979D01*
X70300844Y68776979D01*
X70488353Y68496353D01*
X73212029Y65772676D01*
X72994539Y65555564D01*
X72783241Y65046702D01*
X72782760Y64495715D01*
X72993169Y63986485D01*
X73303000Y63676114D01*
X73303000Y53952294D01*
X68729706Y49379000D01*
X68101803Y49379000D01*
X68229461Y49506436D01*
X68440759Y50015298D01*
X68441240Y50566285D01*
X68325000Y50847608D01*
X68325000Y52797204D01*
X68510054Y52920853D01*
X68737702Y53261553D01*
X68804817Y53118642D01*
X69233076Y52728355D01*
X69643110Y52558524D01*
X69873000Y52679845D01*
X69873000Y53873000D01*
X70127000Y53873000D01*
X70127000Y52679845D01*
X70356890Y52558524D01*
X70766924Y52728355D01*
X71195183Y53118642D01*
X71441486Y53643108D01*
X71320819Y53873000D01*
X70127000Y53873000D01*
X69873000Y53873000D01*
X69853000Y53873000D01*
X69853000Y54127000D01*
X69873000Y54127000D01*
X69873000Y56413000D01*
X70127000Y56413000D01*
X70127000Y54127000D01*
X71320819Y54127000D01*
X71441486Y54356892D01*
X71195183Y54881358D01*
X70768729Y55270000D01*
X71195183Y55658642D01*
X71441486Y56183108D01*
X71320819Y56413000D01*
X70127000Y56413000D01*
X69873000Y56413000D01*
X69853000Y56413000D01*
X69853000Y56667000D01*
X69873000Y56667000D01*
X69873000Y57860155D01*
X70127000Y57860155D01*
X70127000Y56667000D01*
X71320819Y56667000D01*
X71441486Y56896892D01*
X71195183Y57421358D01*
X70766924Y57811645D01*
X70356890Y57981476D01*
X70127000Y57860155D01*
X69873000Y57860155D01*
X69643110Y57981476D01*
X69233076Y57811645D01*
X68804817Y57421358D01*
X68737702Y57278447D01*
X68510054Y57619147D01*
X68028285Y57941054D01*
X67460000Y58054093D01*
X66891715Y57941054D01*
X66409946Y57619147D01*
X66190000Y57289974D01*
X65970054Y57619147D01*
X65488285Y57941054D01*
X64920000Y58054093D01*
X64351715Y57941054D01*
X63869946Y57619147D01*
X63650000Y57289974D01*
X63430054Y57619147D01*
X62948285Y57941054D01*
X62380000Y58054093D01*
X61811715Y57941054D01*
X61329946Y57619147D01*
X61110000Y57289974D01*
X60890054Y57619147D01*
X60408285Y57941054D01*
X59840000Y58054093D01*
X59271715Y57941054D01*
X58789946Y57619147D01*
X58570000Y57289974D01*
X58350054Y57619147D01*
X57868285Y57941054D01*
X57300000Y58054093D01*
X56731715Y57941054D01*
X56249946Y57619147D01*
X56030000Y57289974D01*
X55810054Y57619147D01*
X55625000Y57742796D01*
X55625000Y62640000D01*
X55559156Y62971021D01*
X55559156Y62971022D01*
X55371647Y63251648D01*
X53615000Y65008294D01*
X53615000Y68406706D01*
X53922560Y68099146D01*
X53922560Y67425000D01*
X53971843Y67177235D01*
X54112191Y66967191D01*
X54322235Y66826843D01*
X54570000Y66777560D01*
X56070000Y66777560D01*
X56317765Y66826843D01*
X56527809Y66967191D01*
X56568654Y67028320D01*
X56710302Y66886673D01*
X56943691Y66790000D01*
X57534250Y66790000D01*
X57693000Y66948750D01*
X57693000Y67923000D01*
X57947000Y67923000D01*
X57947000Y66948750D01*
X58105750Y66790000D01*
X58696309Y66790000D01*
X58929698Y66886673D01*
X59108327Y67065301D01*
X59205000Y67298690D01*
X59205000Y67764250D01*
X59046250Y67923000D01*
X57947000Y67923000D01*
X57693000Y67923000D01*
X57673000Y67923000D01*
X57673000Y68177000D01*
X57693000Y68177000D01*
X57693000Y69151250D01*
X57947000Y69151250D01*
X57947000Y68177000D01*
X59046250Y68177000D01*
X59205000Y68335750D01*
X59205000Y68801310D01*
X59108327Y69034699D01*
X58929698Y69213327D01*
X58696309Y69310000D01*
X58105750Y69310000D01*
X57947000Y69151250D01*
X57693000Y69151250D01*
X57534250Y69310000D01*
X56943691Y69310000D01*
X56710302Y69213327D01*
X56568654Y69071680D01*
X56527809Y69132809D01*
X56317765Y69273157D01*
X56070000Y69322440D01*
X55145854Y69322440D01*
X53615000Y70853294D01*
X53615000Y71381705D01*
X53711648Y71478353D01*
X53899156Y71758979D01*
X53927716Y71902560D01*
X53950000Y71902560D01*
X54197765Y71951843D01*
X54407809Y72092191D01*
X54548157Y72302235D01*
X54568739Y72405708D01*
X54873076Y72128355D01*
X55283110Y71958524D01*
X55513000Y72079845D01*
X55513000Y73273000D01*
X55493000Y73273000D01*
X55493000Y73527000D01*
X55513000Y73527000D01*
X55513000Y74720155D01*
X55767000Y74720155D01*
X55767000Y73527000D01*
X55787000Y73527000D01*
X55787000Y73273000D01*
X55767000Y73273000D01*
X55767000Y72079845D01*
X55996890Y71958524D01*
X56406924Y72128355D01*
X56835183Y72518642D01*
X56902298Y72661553D01*
X57129946Y72320853D01*
X57611715Y71998946D01*
X58180000Y71885907D01*
X58748285Y71998946D01*
X59230054Y72320853D01*
X59373142Y72535000D01*
X66052560Y72535000D01*
X66052560Y71100000D01*
X66101843Y70852235D01*
X66242191Y70642191D01*
X66452235Y70501843D01*
X66700000Y70452560D01*
X68500000Y70452560D01*
X68747765Y70501843D01*
X68957809Y70642191D01*
X69098157Y70852235D01*
X69147440Y71100000D01*
X69147440Y74700000D01*
X69098157Y74947765D01*
X68957809Y75157809D01*
X68747765Y75298157D01*
X68500000Y75347440D01*
X66700000Y75347440D01*
X66452235Y75298157D01*
X66242191Y75157809D01*
X66101843Y74947765D01*
X66052560Y74700000D01*
X66052560Y74265000D01*
X59373142Y74265000D01*
X59230054Y74479147D01*
X59045000Y74602796D01*
X59045000Y76356402D01*
X59147765Y76376843D01*
X59357809Y76517191D01*
X59498157Y76727235D01*
X59547440Y76975000D01*
X59547440Y78225000D01*
X59498157Y78472765D01*
X59357809Y78682809D01*
X59147765Y78823157D01*
X58900000Y78872440D01*
X57400000Y78872440D01*
X57152235Y78823157D01*
X56942191Y78682809D01*
X56901346Y78621680D01*
X56759698Y78763327D01*
X56526309Y78860000D01*
X55935750Y78860000D01*
X55777000Y78701250D01*
X55777000Y77727000D01*
X55797000Y77727000D01*
X55797000Y77473000D01*
X55777000Y77473000D01*
X55777000Y76498750D01*
X55935750Y76340000D01*
X56526309Y76340000D01*
X56759698Y76436673D01*
X56901346Y76578320D01*
X56942191Y76517191D01*
X57152235Y76376843D01*
X57315000Y76344467D01*
X57315000Y74602796D01*
X57129946Y74479147D01*
X56902298Y74138447D01*
X56835183Y74281358D01*
X56406924Y74671645D01*
X55996890Y74841476D01*
X55767000Y74720155D01*
X55513000Y74720155D01*
X55283110Y74841476D01*
X54873076Y74671645D01*
X54568739Y74394292D01*
X54548157Y74497765D01*
X54407809Y74707809D01*
X54197765Y74848157D01*
X53950000Y74897440D01*
X52250000Y74897440D01*
X52002235Y74848157D01*
X51792191Y74707809D01*
X51651843Y74497765D01*
X51602560Y74250000D01*
X51602560Y72550000D01*
X51651843Y72302235D01*
X51792191Y72092191D01*
X51935948Y71996135D01*
X51885000Y71740000D01*
X51885000Y65515000D01*
X51364802Y65515000D01*
X51277765Y65573157D01*
X51142815Y65600000D01*
X51277765Y65626843D01*
X51487809Y65767191D01*
X51628157Y65977235D01*
X51677440Y66225000D01*
X51677440Y66875000D01*
X51628157Y67122765D01*
X51487809Y67332809D01*
X51346678Y67427110D01*
X51299156Y67666021D01*
X51111647Y67946647D01*
X51046647Y68011647D01*
X50766021Y68199156D01*
X50761778Y68200000D01*
X50435000Y68265000D01*
X49165000Y68265000D01*
X49165000Y71190000D01*
X49099156Y71521021D01*
X49099156Y71521022D01*
X48911647Y71801648D01*
X48655833Y72057462D01*
X48707809Y72092191D01*
X48848157Y72302235D01*
X48897440Y72550000D01*
X48897440Y74250000D01*
X48848157Y74497765D01*
X48707809Y74707809D01*
X48497765Y74848157D01*
X48250000Y74897440D01*
X46550000Y74897440D01*
X46302235Y74848157D01*
X46092191Y74707809D01*
X45951843Y74497765D01*
X45902560Y74250000D01*
X45902560Y72550000D01*
X45951843Y72302235D01*
X46092191Y72092191D01*
X46302235Y71951843D01*
X46550000Y71902560D01*
X46572284Y71902560D01*
X46600844Y71758979D01*
X46788353Y71478353D01*
X47435000Y70831705D01*
X47435000Y67414868D01*
X47312191Y67332809D01*
X47171843Y67122765D01*
X47122560Y66875000D01*
X47122560Y66225000D01*
X47149936Y66087369D01*
X47135000Y66051310D01*
X47135000Y65885750D01*
X47293750Y65727000D01*
X47372341Y65727000D01*
X47522235Y65626843D01*
X47657185Y65600000D01*
X47522235Y65573157D01*
X47372341Y65473000D01*
X47293750Y65473000D01*
X47135000Y65314250D01*
X47135000Y65148690D01*
X47149936Y65112631D01*
X47122560Y64975000D01*
X47122560Y64325000D01*
X47171843Y64077235D01*
X47312191Y63867191D01*
X47329999Y63855292D01*
X47329999Y62865000D01*
X46788295Y62865000D01*
X44701647Y64951647D01*
X44421021Y65139156D01*
X44416778Y65140000D01*
X44261345Y65170918D01*
X44228157Y65337765D01*
X44087809Y65547809D01*
X43877765Y65688157D01*
X43849791Y65693721D01*
X43989699Y65751673D01*
X44168327Y65930302D01*
X44265000Y66163691D01*
X44265000Y66754250D01*
X44106250Y66913000D01*
X43107000Y66913000D01*
X43107000Y66893000D01*
X42853000Y66893000D01*
X42853000Y66913000D01*
X41853750Y66913000D01*
X41695000Y66754250D01*
X41695000Y66163691D01*
X41791673Y65930302D01*
X41970301Y65751673D01*
X42110209Y65693721D01*
X42082235Y65688157D01*
X41872191Y65547809D01*
X41731843Y65337765D01*
X41682560Y65090000D01*
X41682560Y63590000D01*
X41731843Y63342235D01*
X41872191Y63132191D01*
X42082235Y62991843D01*
X42330000Y62942560D01*
X43630000Y62942560D01*
X43877765Y62991843D01*
X44079840Y63126866D01*
X45752705Y61454000D01*
X44103565Y59804860D01*
X43667715Y59805240D01*
X43158485Y59594831D01*
X42768539Y59205564D01*
X42557241Y58696702D01*
X42556760Y58145715D01*
X42767169Y57636485D01*
X43156436Y57246539D01*
X43665298Y57035241D01*
X44216285Y57034760D01*
X44725515Y57245169D01*
X45115461Y57634436D01*
X45326759Y58143298D01*
X45327142Y58581848D01*
X47880295Y61135000D01*
X48194999Y61135000D01*
X48526020Y61200844D01*
X48806646Y61388353D01*
X48994155Y61668979D01*
X49059999Y62000000D01*
X49059999Y63723309D01*
X49077765Y63726843D01*
X49287809Y63867191D01*
X49400000Y64035095D01*
X49512191Y63867191D01*
X49722235Y63726843D01*
X49970000Y63677560D01*
X51030000Y63677560D01*
X51277765Y63726843D01*
X51364802Y63785000D01*
X52391706Y63785000D01*
X53895000Y62281705D01*
X53895000Y57742796D01*
X53709946Y57619147D01*
X53482298Y57278447D01*
X53415183Y57421358D01*
X52986924Y57811645D01*
X52576890Y57981476D01*
X52347000Y57860155D01*
X52347000Y56667000D01*
X52367000Y56667000D01*
X52367000Y56413000D01*
X52347000Y56413000D01*
X52347000Y54127000D01*
X52367000Y54127000D01*
X52367000Y53873000D01*
X52347000Y53873000D01*
X52347000Y52673750D01*
X52505750Y52515000D01*
X53196310Y52515000D01*
X53429699Y52611673D01*
X53608327Y52790302D01*
X53680597Y52964777D01*
X53709946Y52920853D01*
X54191715Y52598946D01*
X54760000Y52485907D01*
X55328285Y52598946D01*
X55810054Y52920853D01*
X56030000Y53250026D01*
X56249946Y52920853D01*
X56731715Y52598946D01*
X57300000Y52485907D01*
X57868285Y52598946D01*
X58350054Y52920853D01*
X58570000Y53250026D01*
X58789946Y52920853D01*
X58975164Y52797095D01*
X59014578Y52598946D01*
X59035000Y52496278D01*
X59035000Y51858295D01*
X57741706Y50565000D01*
X55900000Y50565000D01*
X55623898Y50510080D01*
X55568978Y50499156D01*
X55288352Y50311647D01*
X52978353Y48001647D01*
X52790844Y47721021D01*
X52725000Y47390000D01*
X52725000Y46001554D01*
X52620000Y46022440D01*
X52020000Y46022440D01*
X51772235Y45973157D01*
X51685000Y45914868D01*
X51597765Y45973157D01*
X51350000Y46022440D01*
X50750000Y46022440D01*
X50502235Y45973157D01*
X50292191Y45832809D01*
X50151843Y45622765D01*
X50102560Y45375000D01*
X50102560Y43981732D01*
X47765000Y46319292D01*
X47765000Y50500000D01*
X47699156Y50831021D01*
X47650629Y50903647D01*
X47511648Y51111647D01*
X46211647Y52411647D01*
X45931021Y52599156D01*
X45600000Y52665000D01*
X40520000Y52665000D01*
X40243898Y52610080D01*
X40188978Y52599156D01*
X39908352Y52411647D01*
X37213555Y49716849D01*
X36763339Y49717242D01*
X36249697Y49505010D01*
X35856371Y49112370D01*
X35770051Y48904488D01*
X35685010Y49110303D01*
X35292370Y49503629D01*
X34779100Y49716757D01*
X34223339Y49717242D01*
X33709697Y49505010D01*
X33316371Y49112370D01*
X33230051Y48904488D01*
X33145010Y49110303D01*
X32752370Y49503629D01*
X32239100Y49716757D01*
X31683339Y49717242D01*
X31169697Y49505010D01*
X30776371Y49112370D01*
X30690051Y48904488D01*
X30605010Y49110303D01*
X30212370Y49503629D01*
X29699100Y49716757D01*
X29143339Y49717242D01*
X28629697Y49505010D01*
X28236371Y49112370D01*
X28150051Y48904488D01*
X28065010Y49110303D01*
X27672370Y49503629D01*
X27159100Y49716757D01*
X26603339Y49717242D01*
X26089697Y49505010D01*
X25696371Y49112370D01*
X25610051Y48904488D01*
X25525010Y49110303D01*
X25132370Y49503629D01*
X24619100Y49716757D01*
X24063339Y49717242D01*
X23549697Y49505010D01*
X23156371Y49112370D01*
X23070051Y48904488D01*
X22985010Y49110303D01*
X22665000Y49430872D01*
X22665000Y50741706D01*
X24211647Y52288352D01*
X24399156Y52568978D01*
X24410080Y52623898D01*
X24465000Y52900000D01*
X24465000Y53714250D01*
X50735000Y53714250D01*
X50735000Y53023691D01*
X50831673Y52790302D01*
X51010301Y52611673D01*
X51243690Y52515000D01*
X51934250Y52515000D01*
X52093000Y52673750D01*
X52093000Y53873000D01*
X50893750Y53873000D01*
X50735000Y53714250D01*
X24465000Y53714250D01*
X24465000Y53981706D01*
X25459603Y54976309D01*
X50735000Y54976309D01*
X50735000Y54285750D01*
X50893750Y54127000D01*
X52093000Y54127000D01*
X52093000Y56413000D01*
X50899181Y56413000D01*
X50778514Y56183108D01*
X51024817Y55658642D01*
X51224208Y55476930D01*
X51010301Y55388327D01*
X50831673Y55209698D01*
X50735000Y54976309D01*
X25459603Y54976309D01*
X27380186Y56896892D01*
X50778514Y56896892D01*
X50899181Y56667000D01*
X52093000Y56667000D01*
X52093000Y57860155D01*
X51863110Y57981476D01*
X51453076Y57811645D01*
X51024817Y57421358D01*
X50778514Y56896892D01*
X27380186Y56896892D01*
X29511647Y59028353D01*
X29699156Y59308979D01*
X29727716Y59452560D01*
X29900000Y59452560D01*
X30147765Y59501843D01*
X30357809Y59642191D01*
X30498157Y59852235D01*
X30517099Y59947468D01*
X31727073Y59947468D01*
X31825736Y59680613D01*
X32435461Y59454092D01*
X33085460Y59478144D01*
X33574264Y59680613D01*
X33672927Y59947468D01*
X32700000Y60920395D01*
X31727073Y59947468D01*
X30517099Y59947468D01*
X30547440Y60100000D01*
X30547440Y61364539D01*
X31054092Y61364539D01*
X31078144Y60714540D01*
X31280613Y60225736D01*
X31547468Y60127073D01*
X32520395Y61100000D01*
X32879605Y61100000D01*
X33852532Y60127073D01*
X34119387Y60225736D01*
X34345908Y60835461D01*
X34321856Y61485460D01*
X34119387Y61974264D01*
X33852532Y62072927D01*
X32879605Y61100000D01*
X32520395Y61100000D01*
X31547468Y62072927D01*
X31280613Y61974264D01*
X31054092Y61364539D01*
X30547440Y61364539D01*
X30547440Y62100000D01*
X30517100Y62252532D01*
X31727073Y62252532D01*
X32700000Y61279605D01*
X33672927Y62252532D01*
X33574264Y62519387D01*
X32964539Y62745908D01*
X32314540Y62721856D01*
X31825736Y62519387D01*
X31727073Y62252532D01*
X30517100Y62252532D01*
X30498157Y62347765D01*
X30357809Y62557809D01*
X30147765Y62698157D01*
X29900000Y62747440D01*
X29765000Y62747440D01*
X29765000Y67916309D01*
X41695000Y67916309D01*
X41695000Y67325750D01*
X41853750Y67167000D01*
X42853000Y67167000D01*
X42853000Y68266250D01*
X43107000Y68266250D01*
X43107000Y67167000D01*
X44106250Y67167000D01*
X44265000Y67325750D01*
X44265000Y67916309D01*
X44168327Y68149698D01*
X43989699Y68328327D01*
X43756310Y68425000D01*
X43265750Y68425000D01*
X43107000Y68266250D01*
X42853000Y68266250D01*
X42694250Y68425000D01*
X42203690Y68425000D01*
X41970301Y68328327D01*
X41791673Y68149698D01*
X41695000Y67916309D01*
X29765000Y67916309D01*
X29765000Y69552560D01*
X29800000Y69552560D01*
X30047765Y69601843D01*
X30257809Y69742191D01*
X30398157Y69952235D01*
X30447440Y70200000D01*
X30447440Y71873000D01*
X30865000Y71873000D01*
X30865000Y70973000D01*
X31030446Y70395248D01*
X31404394Y69924788D01*
X31929914Y69633244D01*
X32035260Y69608964D01*
X32273000Y69729622D01*
X32273000Y71873000D01*
X32527000Y71873000D01*
X32527000Y69729622D01*
X32764740Y69608964D01*
X32870086Y69633244D01*
X33395606Y69924788D01*
X33769554Y70395248D01*
X33935000Y70973000D01*
X33935000Y71873000D01*
X32527000Y71873000D01*
X32273000Y71873000D01*
X30865000Y71873000D01*
X30447440Y71873000D01*
X30447440Y73027000D01*
X30865000Y73027000D01*
X30865000Y72127000D01*
X32273000Y72127000D01*
X32273000Y74270378D01*
X32527000Y74270378D01*
X32527000Y72127000D01*
X33935000Y72127000D01*
X33935000Y73027000D01*
X33769554Y73604752D01*
X33395606Y74075212D01*
X33044174Y74270177D01*
X36504630Y74270177D01*
X37056820Y72933775D01*
X38078397Y71910414D01*
X39413834Y71355892D01*
X40859823Y71354630D01*
X42196225Y71906820D01*
X43219586Y72928397D01*
X43774108Y74263834D01*
X43775370Y75709823D01*
X43223180Y77046225D01*
X42955623Y77314250D01*
X54265000Y77314250D01*
X54265000Y76848690D01*
X54361673Y76615301D01*
X54540302Y76436673D01*
X54773691Y76340000D01*
X55364250Y76340000D01*
X55523000Y76498750D01*
X55523000Y77473000D01*
X54423750Y77473000D01*
X54265000Y77314250D01*
X42955623Y77314250D01*
X42201603Y78069586D01*
X41523137Y78351310D01*
X54265000Y78351310D01*
X54265000Y77885750D01*
X54423750Y77727000D01*
X55523000Y77727000D01*
X55523000Y78701250D01*
X55364250Y78860000D01*
X54773691Y78860000D01*
X54540302Y78763327D01*
X54361673Y78584699D01*
X54265000Y78351310D01*
X41523137Y78351310D01*
X40866166Y78624108D01*
X39420177Y78625370D01*
X38083775Y78073180D01*
X37060414Y77051603D01*
X36505892Y75716166D01*
X36504630Y74270177D01*
X33044174Y74270177D01*
X32870086Y74366756D01*
X32764740Y74391036D01*
X32527000Y74270378D01*
X32273000Y74270378D01*
X32035260Y74391036D01*
X31929914Y74366756D01*
X31404394Y74075212D01*
X31030446Y73604752D01*
X30865000Y73027000D01*
X30447440Y73027000D01*
X30447440Y73800000D01*
X30398157Y74047765D01*
X30257809Y74257809D01*
X30047765Y74398157D01*
X29800000Y74447440D01*
X28000000Y74447440D01*
X27752235Y74398157D01*
X27542191Y74257809D01*
X27401843Y74047765D01*
X27352560Y73800000D01*
X27352560Y70200000D01*
X27401843Y69952235D01*
X27542191Y69742191D01*
X27752235Y69601843D01*
X28000000Y69552560D01*
X28035000Y69552560D01*
X28035000Y62747440D01*
X27900000Y62747440D01*
X27652235Y62698157D01*
X27442191Y62557809D01*
X27301843Y62347765D01*
X27252560Y62100000D01*
X27252560Y60100000D01*
X27301843Y59852235D01*
X27442191Y59642191D01*
X27584085Y59547379D01*
X22988353Y54951647D01*
X22800844Y54671021D01*
X22735000Y54340000D01*
X22735000Y53258295D01*
X22287500Y52810795D01*
X21547440Y53550854D01*
X21547440Y54225000D01*
X21498157Y54472765D01*
X21357809Y54682809D01*
X21147765Y54823157D01*
X20900000Y54872440D01*
X19400000Y54872440D01*
X19152235Y54823157D01*
X18942191Y54682809D01*
X18901346Y54621680D01*
X18759698Y54763327D01*
X18526309Y54860000D01*
X17935750Y54860000D01*
X17777000Y54701250D01*
X17777000Y53727000D01*
X17797000Y53727000D01*
X17797000Y53473000D01*
X17777000Y53473000D01*
X17777000Y52498750D01*
X17935750Y52340000D01*
X18526309Y52340000D01*
X18759698Y52436673D01*
X18901346Y52578320D01*
X18942191Y52517191D01*
X19152235Y52376843D01*
X19400000Y52327560D01*
X20324146Y52327560D01*
X20935000Y51716705D01*
X20935000Y49430443D01*
X20616371Y49112370D01*
X20530051Y48904488D01*
X20445010Y49110303D01*
X20052370Y49503629D01*
X19539100Y49716757D01*
X18983339Y49717242D01*
X18469697Y49505010D01*
X18076371Y49112370D01*
X17996605Y48920273D01*
X17942397Y49051143D01*
X17700213Y49120608D01*
X16899605Y48320000D01*
X17700213Y47519392D01*
X17942397Y47588857D01*
X17992509Y47729318D01*
X18074990Y47529697D01*
X18467630Y47136371D01*
X18980900Y46923243D01*
X19536661Y46922758D01*
X20050303Y47134990D01*
X20443629Y47527630D01*
X20529949Y47735512D01*
X20614990Y47529697D01*
X21007630Y47136371D01*
X21520900Y46923243D01*
X22076661Y46922758D01*
X22590303Y47134990D01*
X22983629Y47527630D01*
X23069949Y47735512D01*
X23154990Y47529697D01*
X23547630Y47136371D01*
X24060900Y46923243D01*
X24616661Y46922758D01*
X25130303Y47134990D01*
X25523629Y47527630D01*
X25609949Y47735512D01*
X25694990Y47529697D01*
X26087630Y47136371D01*
X26600900Y46923243D01*
X27156661Y46922758D01*
X27670303Y47134990D01*
X28063629Y47527630D01*
X28149949Y47735512D01*
X28234990Y47529697D01*
X28627630Y47136371D01*
X29140900Y46923243D01*
X29696661Y46922758D01*
X30210303Y47134990D01*
X30603629Y47527630D01*
X30689949Y47735512D01*
X30774990Y47529697D01*
X31167630Y47136371D01*
X31680900Y46923243D01*
X32236661Y46922758D01*
X32750303Y47134990D01*
X33143629Y47527630D01*
X33229949Y47735512D01*
X33314990Y47529697D01*
X33679000Y47165051D01*
X33679000Y45035488D01*
X33370539Y44727564D01*
X33159241Y44218702D01*
X33158760Y43667715D01*
X33369169Y43158485D01*
X33758436Y42768539D01*
X34267298Y42557241D01*
X34818285Y42556760D01*
X35327515Y42767169D01*
X35717461Y43156436D01*
X35928759Y43665298D01*
X35929240Y44216285D01*
X35718831Y44725515D01*
X35409000Y45035886D01*
X35409000Y47253480D01*
X35683629Y47527630D01*
X35769949Y47735512D01*
X35854990Y47529697D01*
X36247630Y47136371D01*
X36760900Y46923243D01*
X37316661Y46922758D01*
X37830303Y47134990D01*
X38223629Y47527630D01*
X38309949Y47735512D01*
X38394990Y47529697D01*
X38715000Y47209128D01*
X38715000Y39580340D01*
X38767786Y39314968D01*
X38780844Y39249319D01*
X38968353Y38968693D01*
X39884704Y38052342D01*
X40165330Y37864833D01*
X40496351Y37798989D01*
X49785268Y37798989D01*
X50007028Y37650813D01*
X50338049Y37584969D01*
X55131737Y37584969D01*
X55265000Y37451706D01*
X55265000Y36601554D01*
X55160000Y36622440D01*
X54560000Y36622440D01*
X54312235Y36573157D01*
X54225000Y36514868D01*
X54137765Y36573157D01*
X53890000Y36622440D01*
X53290000Y36622440D01*
X53042235Y36573157D01*
X52955000Y36514868D01*
X52867765Y36573157D01*
X52620000Y36622440D01*
X52020000Y36622440D01*
X51772235Y36573157D01*
X51693028Y36520232D01*
X51476310Y36610000D01*
X51335750Y36610000D01*
X51177000Y36451250D01*
X51177000Y35127000D01*
X51197000Y35127000D01*
X51197000Y34873000D01*
X51177000Y34873000D01*
X51177000Y33548750D01*
X51335750Y33390000D01*
X51476310Y33390000D01*
X51693028Y33479768D01*
X51772235Y33426843D01*
X52020000Y33377560D01*
X52620000Y33377560D01*
X52867765Y33426843D01*
X52955000Y33485132D01*
X53042235Y33426843D01*
X53290000Y33377560D01*
X53449265Y33377560D01*
X50752731Y30681025D01*
X41420300Y30681024D01*
X41089279Y30615180D01*
X41014179Y30565000D01*
X33278295Y30565000D01*
X32040365Y31802929D01*
X32236661Y31802758D01*
X32750303Y32014990D01*
X33143629Y32407630D01*
X33229949Y32615512D01*
X33314990Y32409697D01*
X33707630Y32016371D01*
X34220900Y31803243D01*
X34776661Y31802758D01*
X35290303Y32014990D01*
X35683629Y32407630D01*
X35769949Y32615512D01*
X35854990Y32409697D01*
X36247630Y32016371D01*
X36760900Y31803243D01*
X37316661Y31802758D01*
X37830303Y32014990D01*
X38223629Y32407630D01*
X38309949Y32615512D01*
X38394990Y32409697D01*
X38787630Y32016371D01*
X39300900Y31803243D01*
X39856661Y31802758D01*
X40370303Y32014990D01*
X40763629Y32407630D01*
X40849949Y32615512D01*
X40934990Y32409697D01*
X41327630Y32016371D01*
X41840900Y31803243D01*
X42396661Y31802758D01*
X42910303Y32014990D01*
X43303629Y32407630D01*
X43516757Y32920900D01*
X43517242Y33476661D01*
X43305010Y33990303D01*
X42912370Y34383629D01*
X42399100Y34596757D01*
X41843339Y34597242D01*
X41329697Y34385010D01*
X40936371Y33992370D01*
X40850051Y33784488D01*
X40765010Y33990303D01*
X40372370Y34383629D01*
X39859100Y34596757D01*
X39660225Y34596931D01*
X40266295Y35203000D01*
X43075706Y35203000D01*
X43851001Y34427704D01*
X43851001Y33515999D01*
X43907098Y33233979D01*
X43916845Y33184978D01*
X44081151Y32939078D01*
X44080760Y32491715D01*
X44291169Y31982485D01*
X44680436Y31592539D01*
X45189298Y31381241D01*
X45740285Y31380760D01*
X46249515Y31591169D01*
X46639461Y31980436D01*
X46850759Y32489298D01*
X46851240Y33040285D01*
X46640831Y33549515D01*
X46251564Y33939461D01*
X45742702Y34150759D01*
X45581001Y34150900D01*
X45581001Y34714250D01*
X50115000Y34714250D01*
X50115000Y33898691D01*
X50211673Y33665302D01*
X50390301Y33486673D01*
X50623690Y33390000D01*
X50764250Y33390000D01*
X50923000Y33548750D01*
X50923000Y34873000D01*
X50273750Y34873000D01*
X50115000Y34714250D01*
X45581001Y34714250D01*
X45581001Y34785999D01*
X45515157Y35117020D01*
X45515157Y35117021D01*
X45327648Y35397647D01*
X44623986Y36101309D01*
X50115000Y36101309D01*
X50115000Y35285750D01*
X50273750Y35127000D01*
X50923000Y35127000D01*
X50923000Y36451250D01*
X50764250Y36610000D01*
X50623690Y36610000D01*
X50390301Y36513327D01*
X50211673Y36334698D01*
X50115000Y36101309D01*
X44623986Y36101309D01*
X44045647Y36679647D01*
X43765021Y36867156D01*
X43434000Y36933000D01*
X39908000Y36933000D01*
X39576979Y36867156D01*
X39493904Y36811647D01*
X39296352Y36679647D01*
X37213555Y34596849D01*
X36763339Y34597242D01*
X36249697Y34385010D01*
X35856371Y33992370D01*
X35770051Y33784488D01*
X35685010Y33990303D01*
X35292370Y34383629D01*
X34779100Y34596757D01*
X34223339Y34597242D01*
X33709697Y34385010D01*
X33316371Y33992370D01*
X33230051Y33784488D01*
X33145010Y33990303D01*
X32825000Y34310872D01*
X32825000Y37762366D01*
X33901903Y38839268D01*
X34014436Y38726539D01*
X34523298Y38515241D01*
X35074285Y38514760D01*
X35583515Y38725169D01*
X35973461Y39114436D01*
X36184759Y39623298D01*
X36185240Y40174285D01*
X35974831Y40683515D01*
X35585564Y41073461D01*
X35076702Y41284759D01*
X34525715Y41285240D01*
X34016485Y41074831D01*
X33697845Y40756746D01*
X33408319Y40699156D01*
X33127693Y40511648D01*
X31348353Y38732307D01*
X31160844Y38451681D01*
X31095000Y38120660D01*
X31095000Y34310443D01*
X30776371Y33992370D01*
X30690051Y33784488D01*
X30605010Y33990303D01*
X30212370Y34383629D01*
X29699100Y34596757D01*
X29143339Y34597242D01*
X28629697Y34385010D01*
X28236371Y33992370D01*
X28150051Y33784488D01*
X28065010Y33990303D01*
X27745000Y34310872D01*
X27745000Y35820000D01*
X27679156Y36151021D01*
X27491647Y36431647D01*
X25211647Y38711647D01*
X24931021Y38899156D01*
X24920509Y38901247D01*
X24600000Y38965000D01*
X13000000Y38965000D01*
X12668979Y38899156D01*
X12466496Y38763862D01*
X12527144Y38854627D01*
X12553208Y38985660D01*
X12592988Y39185648D01*
X12592988Y40976177D01*
X12800000Y40935000D01*
X21630000Y40935000D01*
X21961021Y41000844D01*
X22241647Y41188353D01*
X25436445Y44383151D01*
X25886661Y44382758D01*
X26400303Y44594990D01*
X26793629Y44987630D01*
X27006757Y45500900D01*
X27007242Y46056661D01*
X26795010Y46570303D01*
X26402370Y46963629D01*
X25889100Y47176757D01*
X25333339Y47177242D01*
X24819697Y46965010D01*
X24426371Y46572370D01*
X24348544Y46384942D01*
X24305010Y46490303D01*
X23912370Y46883629D01*
X23399100Y47096757D01*
X22843339Y47097242D01*
X22329697Y46885010D01*
X22009128Y46565000D01*
X15015955Y46565000D01*
X14599271Y46981683D01*
X14970303Y47134990D01*
X15175457Y47339787D01*
X15919392Y47339787D01*
X15988857Y47097603D01*
X16512302Y46910856D01*
X17067368Y46938638D01*
X17451143Y47097603D01*
X17520608Y47339787D01*
X16720000Y48140395D01*
X15919392Y47339787D01*
X15175457Y47339787D01*
X15363629Y47527630D01*
X15443395Y47719727D01*
X15497603Y47588857D01*
X15739787Y47519392D01*
X16540395Y48320000D01*
X15739787Y49120608D01*
X15497603Y49051143D01*
X15447491Y48910682D01*
X15365010Y49110303D01*
X15175432Y49300213D01*
X15919392Y49300213D01*
X16720000Y48499605D01*
X17520608Y49300213D01*
X17451143Y49542397D01*
X16927698Y49729144D01*
X16372632Y49701362D01*
X15988857Y49542397D01*
X15919392Y49300213D01*
X15175432Y49300213D01*
X14972370Y49503629D01*
X14459100Y49716757D01*
X13903339Y49717242D01*
X13552999Y49572485D01*
X13552999Y53314250D01*
X16265000Y53314250D01*
X16265000Y52848690D01*
X16361673Y52615301D01*
X16540302Y52436673D01*
X16773691Y52340000D01*
X17364250Y52340000D01*
X17523000Y52498750D01*
X17523000Y53473000D01*
X16423750Y53473000D01*
X16265000Y53314250D01*
X13552999Y53314250D01*
X13552999Y54351310D01*
X16265000Y54351310D01*
X16265000Y53885750D01*
X16423750Y53727000D01*
X17523000Y53727000D01*
X17523000Y54701250D01*
X17364250Y54860000D01*
X16773691Y54860000D01*
X16540302Y54763327D01*
X16361673Y54584699D01*
X16265000Y54351310D01*
X13552999Y54351310D01*
X13552999Y59229705D01*
X19771648Y65448353D01*
X19959156Y65728979D01*
X20025000Y66060000D01*
X20025000Y72219615D01*
X20245409Y72366887D01*
X20578155Y72864877D01*
X20695000Y73452296D01*
X20695000Y75347704D01*
X20578155Y75935123D01*
X20245409Y76433113D01*
X19747419Y76765859D01*
X19160000Y76882704D01*
X18572581Y76765859D01*
X18074591Y76433113D01*
X17741845Y75935123D01*
X17699758Y75723536D01*
X15271658Y78151636D01*
X14991032Y78339145D01*
X14660011Y78404989D01*
X13297649Y78404989D01*
X12966628Y78339145D01*
X12686002Y78151637D01*
X10888353Y76353987D01*
X10700844Y76073361D01*
X10635000Y75742340D01*
X10635000Y64098295D01*
X9983189Y64750106D01*
X10078157Y64892235D01*
X10127440Y65140000D01*
X10127440Y66640000D01*
X10078157Y66887765D01*
X9937809Y67097809D01*
X9727765Y67238157D01*
X9718500Y67240000D01*
X9727765Y67241843D01*
X9937809Y67382191D01*
X10078157Y67592235D01*
X10127440Y67840000D01*
X10127440Y69340000D01*
X10078157Y69587765D01*
X9937809Y69797809D01*
X9865000Y69846459D01*
X9865000Y72219615D01*
X10085409Y72366887D01*
X10418155Y72864877D01*
X10535000Y73452296D01*
X10535000Y75347704D01*
X10418155Y75935123D01*
X10085409Y76433113D01*
X9587419Y76765859D01*
X9000000Y76882704D01*
X8412581Y76765859D01*
X7914591Y76433113D01*
X7581845Y75935123D01*
X7465000Y75347704D01*
X7465000Y73452296D01*
X7581845Y72864877D01*
X7914591Y72366887D01*
X8135000Y72219615D01*
X8135000Y69978489D01*
X7932235Y69938157D01*
X7722191Y69797809D01*
X7581843Y69587765D01*
X7573337Y69545000D01*
X6859565Y69545000D01*
X6833157Y69677765D01*
X6692809Y69887809D01*
X6482765Y70028157D01*
X6235000Y70077440D01*
X4985000Y70077440D01*
X4737235Y70028157D01*
X4527191Y69887809D01*
X4386843Y69677765D01*
X4353655Y69510918D01*
X4248898Y69490080D01*
X4193978Y69479156D01*
X3913352Y69291647D01*
X2258353Y67636647D01*
X2070844Y67356021D01*
X2005000Y67025000D01*
X2005000Y63093488D01*
X1696539Y62785564D01*
X1485241Y62276702D01*
X1484760Y61725715D01*
X735000Y61725715D01*
X735000Y74114250D01*
X2385000Y74114250D01*
X2385000Y72473690D01*
X2481673Y72240301D01*
X2660302Y72061673D01*
X2893691Y71965000D01*
X3634250Y71965000D01*
X3793000Y72123750D01*
X3793000Y74273000D01*
X4047000Y74273000D01*
X4047000Y72123750D01*
X4205750Y71965000D01*
X4946309Y71965000D01*
X5179698Y72061673D01*
X5358327Y72240301D01*
X5455000Y72473690D01*
X5455000Y74114250D01*
X5296250Y74273000D01*
X4047000Y74273000D01*
X3793000Y74273000D01*
X2543750Y74273000D01*
X2385000Y74114250D01*
X735000Y74114250D01*
X735000Y76326310D01*
X2385000Y76326310D01*
X2385000Y74685750D01*
X2543750Y74527000D01*
X3793000Y74527000D01*
X3793000Y76676250D01*
X4047000Y76676250D01*
X4047000Y74527000D01*
X5296250Y74527000D01*
X5455000Y74685750D01*
X5455000Y76326310D01*
X5358327Y76559699D01*
X5179698Y76738327D01*
X4946309Y76835000D01*
X4205750Y76835000D01*
X4047000Y76676250D01*
X3793000Y76676250D01*
X3634250Y76835000D01*
X2893691Y76835000D01*
X2660302Y76738327D01*
X2481673Y76559699D01*
X2385000Y76326310D01*
X735000Y76326310D01*
X735000Y79275000D01*
X81307000Y79275000D01*
X81307000Y735000D01*
X81307000Y735000D01*
G37*
X81307000Y735000D02*
X735000Y735000D01*
X735000Y4360177D01*
X36242630Y4360177D01*
X36794820Y3023775D01*
X37816397Y2000414D01*
X39151834Y1445892D01*
X40597823Y1444630D01*
X41934225Y1996820D01*
X42957586Y3018397D01*
X43512108Y4353834D01*
X43513370Y5799823D01*
X42961180Y7136225D01*
X41939603Y8159586D01*
X40604166Y8714108D01*
X39158177Y8715370D01*
X37821775Y8163180D01*
X36798414Y7141603D01*
X36243892Y5806166D01*
X36242630Y4360177D01*
X735000Y4360177D01*
X735000Y39158177D01*
X1190630Y39158177D01*
X1742820Y37821775D01*
X2764397Y36798414D01*
X4099834Y36243892D01*
X5545823Y36242630D01*
X6882225Y36794820D01*
X7905586Y37816397D01*
X8460108Y39151834D01*
X8461370Y40597823D01*
X7909180Y41934225D01*
X6887603Y42957586D01*
X5552166Y43512108D01*
X4106177Y43513370D01*
X2769775Y42961180D01*
X1746414Y41939603D01*
X1191892Y40604166D01*
X1190630Y39158177D01*
X735000Y39158177D01*
X735000Y61725715D01*
X1484760Y61725715D01*
X1695169Y61216485D01*
X2084436Y60826539D01*
X2593298Y60615241D01*
X3144285Y60614760D01*
X3653515Y60825169D01*
X4043461Y61214436D01*
X4254759Y61723298D01*
X4255240Y62274285D01*
X4044831Y62783515D01*
X3735000Y63093886D01*
X3735000Y65894250D01*
X4350000Y65894250D01*
X4350000Y65303691D01*
X4446673Y65070302D01*
X4625301Y64891673D01*
X4858690Y64795000D01*
X5324250Y64795000D01*
X5483000Y64953750D01*
X5483000Y66053000D01*
X5737000Y66053000D01*
X5737000Y64953750D01*
X5895750Y64795000D01*
X6361310Y64795000D01*
X6594699Y64891673D01*
X6773327Y65070302D01*
X6870000Y65303691D01*
X6870000Y65894250D01*
X6711250Y66053000D01*
X5737000Y66053000D01*
X5483000Y66053000D01*
X4508750Y66053000D01*
X4350000Y65894250D01*
X3735000Y65894250D01*
X3735000Y66666706D01*
X4535161Y67466866D01*
X4588320Y67431346D01*
X4446673Y67289698D01*
X4350000Y67056309D01*
X4350000Y66465750D01*
X4508750Y66307000D01*
X5483000Y66307000D01*
X5483000Y66327000D01*
X5737000Y66327000D01*
X5737000Y66307000D01*
X6711250Y66307000D01*
X6870000Y66465750D01*
X6870000Y67056309D01*
X6773327Y67289698D01*
X6631680Y67431346D01*
X6692809Y67472191D01*
X6833157Y67682235D01*
X6859565Y67815000D01*
X7537533Y67815000D01*
X7581843Y67592235D01*
X7722191Y67382191D01*
X7932235Y67241843D01*
X7941500Y67240000D01*
X7932235Y67238157D01*
X7722191Y67097809D01*
X7581843Y66887765D01*
X7532560Y66640000D01*
X7532560Y65140000D01*
X7581843Y64892235D01*
X7722191Y64682191D01*
X7932235Y64541843D01*
X7994963Y64529366D01*
X8002284Y64492560D01*
X8030844Y64348979D01*
X8218353Y64068353D01*
X9431706Y62855000D01*
X9188353Y62611647D01*
X9000844Y62331021D01*
X8935000Y62000000D01*
X8935000Y38973614D01*
X8468331Y38506945D01*
X8280822Y38226319D01*
X8214978Y37895298D01*
X8214978Y29253592D01*
X4488353Y25526967D01*
X4300844Y25246341D01*
X4235000Y24915320D01*
X4235000Y8000000D01*
X4294506Y7700844D01*
X4300844Y7668979D01*
X4488353Y7388353D01*
X6688353Y5188353D01*
X6968979Y5000844D01*
X7300000Y4935000D01*
X24400000Y4935000D01*
X24731021Y5000844D01*
X25011647Y5188353D01*
X27211647Y7388353D01*
X27399156Y7668979D01*
X27465000Y8000000D01*
X27465000Y15030000D01*
X27399156Y15361021D01*
X27399156Y15361022D01*
X27211647Y15641647D01*
X24556888Y18296406D01*
X24587440Y18450000D01*
X24587440Y19950000D01*
X24538157Y20197765D01*
X24397809Y20407809D01*
X24187765Y20548157D01*
X23940000Y20597440D01*
X23340000Y20597440D01*
X23092235Y20548157D01*
X23005000Y20489868D01*
X22917765Y20548157D01*
X22670000Y20597440D01*
X22510734Y20597440D01*
X24670294Y22757000D01*
X32942512Y22757000D01*
X33250436Y22448539D01*
X33759298Y22237241D01*
X34310285Y22236760D01*
X34819515Y22447169D01*
X35209461Y22836436D01*
X35420759Y23345298D01*
X35421240Y23896285D01*
X35210831Y24405515D01*
X34821564Y24795461D01*
X34312702Y25006759D01*
X33761715Y25007240D01*
X33252485Y24796831D01*
X32942114Y24487000D01*
X24312000Y24487000D01*
X23980979Y24421156D01*
X23700353Y24233647D01*
X20488353Y21021647D01*
X20300844Y20741021D01*
X20268782Y20579834D01*
X20256310Y20585000D01*
X20115750Y20585000D01*
X19957000Y20426250D01*
X19957000Y19327000D01*
X19977000Y19327000D01*
X19977000Y19073000D01*
X19957000Y19073000D01*
X19957000Y17973750D01*
X20115750Y17815000D01*
X20256310Y17815000D01*
X20473028Y17904768D01*
X20552235Y17851843D01*
X20800000Y17802560D01*
X21400000Y17802560D01*
X21505000Y17823446D01*
X21505000Y15958598D01*
X21360000Y15987440D01*
X19860000Y15987440D01*
X19612235Y15938157D01*
X19402191Y15797809D01*
X19261843Y15587765D01*
X19260000Y15578500D01*
X19258157Y15587765D01*
X19117809Y15797809D01*
X18907765Y15938157D01*
X18660000Y15987440D01*
X17160000Y15987440D01*
X16912235Y15938157D01*
X16702191Y15797809D01*
X16561843Y15587765D01*
X16512560Y15340000D01*
X16512560Y14040000D01*
X16561843Y13792235D01*
X16613450Y13715000D01*
X12708295Y13715000D01*
X12515000Y13908294D01*
X12515000Y16650000D01*
X12449156Y16981021D01*
X12261647Y17261647D01*
X11961647Y17561647D01*
X11681021Y17749156D01*
X11350000Y17815000D01*
X11074565Y17815000D01*
X11048157Y17947765D01*
X10953189Y18089894D01*
X11311647Y18448352D01*
X11499156Y18728978D01*
X11524223Y18854999D01*
X11565000Y19060000D01*
X11565000Y19950000D01*
X13802560Y19950000D01*
X13802560Y18450000D01*
X13851843Y18202235D01*
X13992191Y17992191D01*
X14202235Y17851843D01*
X14450000Y17802560D01*
X15050000Y17802560D01*
X15297765Y17851843D01*
X15385000Y17910132D01*
X15472235Y17851843D01*
X15720000Y17802560D01*
X16320000Y17802560D01*
X16567765Y17851843D01*
X16655000Y17910132D01*
X16742235Y17851843D01*
X16990000Y17802560D01*
X17590000Y17802560D01*
X17837765Y17851843D01*
X17925000Y17910132D01*
X18012235Y17851843D01*
X18260000Y17802560D01*
X18860000Y17802560D01*
X19107765Y17851843D01*
X19186972Y17904768D01*
X19403690Y17815000D01*
X19544250Y17815000D01*
X19703000Y17973750D01*
X19703000Y19073000D01*
X19683000Y19073000D01*
X19683000Y19327000D01*
X19703000Y19327000D01*
X19703000Y20426250D01*
X19544250Y20585000D01*
X19403690Y20585000D01*
X19186972Y20495232D01*
X19107765Y20548157D01*
X18860000Y20597440D01*
X18260000Y20597440D01*
X18012235Y20548157D01*
X17925000Y20489868D01*
X17837765Y20548157D01*
X17590000Y20597440D01*
X16990000Y20597440D01*
X16742235Y20548157D01*
X16655000Y20489868D01*
X16567765Y20548157D01*
X16320000Y20597440D01*
X15720000Y20597440D01*
X15472235Y20548157D01*
X15385000Y20489868D01*
X15297765Y20548157D01*
X15050000Y20597440D01*
X14450000Y20597440D01*
X14202235Y20548157D01*
X13992191Y20407809D01*
X13851843Y20197765D01*
X13802560Y19950000D01*
X11565000Y19950000D01*
X11565000Y23141706D01*
X12270000Y23846706D01*
X13128352Y22988353D01*
X13278013Y22888353D01*
X13408979Y22800844D01*
X13594543Y22763933D01*
X13601843Y22727235D01*
X13742191Y22517191D01*
X13952235Y22376843D01*
X14200000Y22327560D01*
X15700000Y22327560D01*
X15947765Y22376843D01*
X16157809Y22517191D01*
X16198654Y22578320D01*
X16340302Y22436673D01*
X16573691Y22340000D01*
X17164250Y22340000D01*
X17323000Y22498750D01*
X17323000Y23473000D01*
X17577000Y23473000D01*
X17577000Y22498750D01*
X17735750Y22340000D01*
X18326309Y22340000D01*
X18559698Y22436673D01*
X18738327Y22615301D01*
X18835000Y22848690D01*
X18835000Y23314250D01*
X18676250Y23473000D01*
X17577000Y23473000D01*
X17323000Y23473000D01*
X17303000Y23473000D01*
X17303000Y23727000D01*
X17323000Y23727000D01*
X17323000Y24701250D01*
X17577000Y24701250D01*
X17577000Y23727000D01*
X18676250Y23727000D01*
X18835000Y23885750D01*
X18835000Y24351310D01*
X18738327Y24584699D01*
X18559698Y24763327D01*
X18326309Y24860000D01*
X17735750Y24860000D01*
X17577000Y24701250D01*
X17323000Y24701250D01*
X17164250Y24860000D01*
X16573691Y24860000D01*
X16340302Y24763327D01*
X16198654Y24621680D01*
X16157809Y24682809D01*
X15947765Y24823157D01*
X15700000Y24872440D01*
X14200000Y24872440D01*
X13952235Y24823157D01*
X13825092Y24738202D01*
X13493294Y25070000D01*
X13638295Y25215000D01*
X41036513Y25215000D01*
X41344437Y24906539D01*
X41853299Y24695241D01*
X42404286Y24694760D01*
X42913516Y24905169D01*
X43303462Y25294436D01*
X43514760Y25803298D01*
X43515241Y26354285D01*
X43304832Y26863515D01*
X43303349Y26865001D01*
X44206110Y26865001D01*
X44422747Y26648364D01*
X44703373Y26460855D01*
X44758293Y26449931D01*
X45034395Y26395011D01*
X55963717Y26395011D01*
X55989749Y26389833D01*
X57410551Y26389833D01*
X57741572Y26455677D01*
X58022198Y26643186D01*
X60551647Y29172635D01*
X60739156Y29453261D01*
X60769336Y29604989D01*
X60805000Y29784282D01*
X60805000Y30671706D01*
X62888353Y28588353D01*
X63168979Y28400844D01*
X63500000Y28335000D01*
X75800000Y28335000D01*
X76131021Y28400844D01*
X76411647Y28588353D01*
X80911647Y33088353D01*
X81099156Y33368979D01*
X81121060Y33479100D01*
X81165000Y33700000D01*
X81165000Y46800000D01*
X81099156Y47131021D01*
X80998827Y47281174D01*
X80911648Y47411647D01*
X77805000Y50518294D01*
X77805000Y68300000D01*
X77739156Y68631021D01*
X77641630Y68776979D01*
X77551648Y68911647D01*
X75632056Y70831238D01*
X75685409Y70866887D01*
X76018155Y71364877D01*
X76135000Y71952296D01*
X76135000Y72773000D01*
X76565000Y72773000D01*
X76565000Y71873000D01*
X76730446Y71295248D01*
X77104394Y70824788D01*
X77629914Y70533244D01*
X77735260Y70508964D01*
X77973000Y70629622D01*
X77973000Y72773000D01*
X78227000Y72773000D01*
X78227000Y70629622D01*
X78464740Y70508964D01*
X78570086Y70533244D01*
X79095606Y70824788D01*
X79469554Y71295248D01*
X79635000Y71873000D01*
X79635000Y72773000D01*
X78227000Y72773000D01*
X77973000Y72773000D01*
X76565000Y72773000D01*
X76135000Y72773000D01*
X76135000Y73847704D01*
X76119228Y73927000D01*
X76565000Y73927000D01*
X76565000Y73027000D01*
X77973000Y73027000D01*
X77973000Y75170378D01*
X78227000Y75170378D01*
X78227000Y73027000D01*
X79635000Y73027000D01*
X79635000Y73927000D01*
X79469554Y74504752D01*
X79095606Y74975212D01*
X78570086Y75266756D01*
X78464740Y75291036D01*
X78227000Y75170378D01*
X77973000Y75170378D01*
X77735260Y75291036D01*
X77629914Y75266756D01*
X77104394Y74975212D01*
X76730446Y74504752D01*
X76565000Y73927000D01*
X76119228Y73927000D01*
X76018155Y74435123D01*
X75685409Y74933113D01*
X75187419Y75265859D01*
X74600000Y75382704D01*
X74012581Y75265859D01*
X73514591Y74933113D01*
X73181845Y74435123D01*
X73065000Y73847704D01*
X73065000Y71952296D01*
X73181845Y71364877D01*
X73514591Y70866887D01*
X73735000Y70719615D01*
X73735000Y70640000D01*
X73783684Y70395248D01*
X73800844Y70308979D01*
X73988353Y70028353D01*
X76075000Y67941705D01*
X76075000Y50160000D01*
X76114588Y49960979D01*
X76140844Y49828979D01*
X76328353Y49548353D01*
X79435000Y46441705D01*
X79435000Y34058294D01*
X75441706Y30065000D01*
X63858294Y30065000D01*
X62075000Y31848294D01*
X62075000Y33398446D01*
X62180000Y33377560D01*
X62780000Y33377560D01*
X63027765Y33426843D01*
X63237809Y33567191D01*
X63378157Y33777235D01*
X63427440Y34025000D01*
X63427440Y34135000D01*
X65690402Y34135000D01*
X66021423Y34200844D01*
X66302049Y34388353D01*
X69454999Y37541302D01*
X69454999Y35915101D01*
X69295715Y35915240D01*
X68786485Y35704831D01*
X68396539Y35315564D01*
X68185241Y34806702D01*
X68184760Y34255715D01*
X68395169Y33746485D01*
X68784436Y33356539D01*
X69293298Y33145241D01*
X69844285Y33144760D01*
X70353515Y33355169D01*
X70743461Y33744436D01*
X70954759Y34253298D01*
X70955152Y34703530D01*
X71119155Y34948978D01*
X71184999Y35279999D01*
X71184999Y39240177D01*
X71314630Y39240177D01*
X71866820Y37903775D01*
X72888397Y36880414D01*
X74223834Y36325892D01*
X75669823Y36324630D01*
X77006225Y36876820D01*
X78029586Y37898397D01*
X78584108Y39233834D01*
X78585370Y40679823D01*
X78033180Y42016225D01*
X77011603Y43039586D01*
X75676166Y43594108D01*
X74230177Y43595370D01*
X72893775Y43043180D01*
X71870414Y42021603D01*
X71315892Y40686166D01*
X71314630Y39240177D01*
X71184999Y39240177D01*
X71184999Y39728063D01*
X71119155Y40059084D01*
X71119155Y40059085D01*
X70931646Y40339710D01*
X69469709Y41801647D01*
X69189083Y41989156D01*
X68858062Y42055000D01*
X62073294Y42055000D01*
X61337002Y42791292D01*
X61337002Y42948748D01*
X61495750Y42790000D01*
X61636310Y42790000D01*
X61853028Y42879768D01*
X61932235Y42826843D01*
X62180000Y42777560D01*
X62780000Y42777560D01*
X63027765Y42826843D01*
X63237809Y42967191D01*
X63378157Y43177235D01*
X63427440Y43425000D01*
X63427440Y43572284D01*
X63571021Y43600844D01*
X63622139Y43635000D01*
X65100298Y43635000D01*
X65101843Y43627235D01*
X65242191Y43417191D01*
X65452235Y43276843D01*
X65700000Y43227560D01*
X67200000Y43227560D01*
X67447765Y43276843D01*
X67657809Y43417191D01*
X67698654Y43478320D01*
X67840302Y43336673D01*
X68073691Y43240000D01*
X68664250Y43240000D01*
X68823000Y43398750D01*
X68823000Y44373000D01*
X69077000Y44373000D01*
X69077000Y43398750D01*
X69235750Y43240000D01*
X69826309Y43240000D01*
X70059698Y43336673D01*
X70238327Y43515301D01*
X70335000Y43748690D01*
X70335000Y44214250D01*
X70176250Y44373000D01*
X69077000Y44373000D01*
X68823000Y44373000D01*
X68803000Y44373000D01*
X68803000Y44627000D01*
X68823000Y44627000D01*
X68823000Y44647000D01*
X69077000Y44647000D01*
X69077000Y44627000D01*
X70176250Y44627000D01*
X70335000Y44785750D01*
X70335000Y45251310D01*
X70238327Y45484699D01*
X70106007Y45617018D01*
X74090512Y45617018D01*
X74398436Y45308557D01*
X74907298Y45097259D01*
X75458285Y45096778D01*
X75967515Y45307187D01*
X76357461Y45696454D01*
X76568759Y46205316D01*
X76569240Y46756303D01*
X76358831Y47265533D01*
X75969564Y47655479D01*
X75460702Y47866777D01*
X74909715Y47867258D01*
X74400485Y47656849D01*
X74090114Y47347018D01*
X65322018Y47347018D01*
X64990997Y47281174D01*
X64710371Y47093665D01*
X63322607Y45705901D01*
X63237809Y45832809D01*
X63027765Y45973157D01*
X62780000Y46022440D01*
X62180000Y46022440D01*
X61932235Y45973157D01*
X61853028Y45920232D01*
X61636310Y46010000D01*
X61495750Y46010000D01*
X61337000Y45851250D01*
X61337000Y44527000D01*
X61357000Y44527000D01*
X61357000Y44273000D01*
X61337000Y44273000D01*
X61337000Y44253000D01*
X61083000Y44253000D01*
X61083000Y44273000D01*
X61063000Y44273000D01*
X61063000Y44527000D01*
X61083000Y44527000D01*
X61083000Y45851250D01*
X60924250Y46010000D01*
X60783690Y46010000D01*
X60566972Y45920232D01*
X60487765Y45973157D01*
X60240000Y46022440D01*
X60080734Y46022440D01*
X61707294Y47649000D01*
X69088000Y47649000D01*
X69419021Y47714844D01*
X69699647Y47902353D01*
X74779647Y52982353D01*
X74967156Y53262979D01*
X75033000Y53594000D01*
X75033000Y63676512D01*
X75341461Y63984436D01*
X75552759Y64493298D01*
X75553240Y65044285D01*
X75342831Y65553515D01*
X75033000Y65863886D01*
X75033000Y66040000D01*
X74967156Y66371021D01*
X74967156Y66371022D01*
X74779647Y66651648D01*
X71965000Y69466294D01*
X71965000Y70719615D01*
X72185409Y70866887D01*
X72518155Y71364877D01*
X72635000Y71952296D01*
X72635000Y73847704D01*
X72518155Y74435123D01*
X72185409Y74933113D01*
X71687419Y75265859D01*
X71100000Y75382704D01*
X70512581Y75265859D01*
X70014591Y74933113D01*
X69681845Y74435123D01*
X69565000Y73847704D01*
X69565000Y71952296D01*
X69681845Y71364877D01*
X70014591Y70866887D01*
X70235000Y70719615D01*
X70235000Y69108000D01*
X70272599Y68918979D01*
X70300844Y68776979D01*
X70488353Y68496353D01*
X73212029Y65772676D01*
X72994539Y65555564D01*
X72783241Y65046702D01*
X72782760Y64495715D01*
X72993169Y63986485D01*
X73303000Y63676114D01*
X73303000Y53952294D01*
X68729706Y49379000D01*
X68101803Y49379000D01*
X68229461Y49506436D01*
X68440759Y50015298D01*
X68441240Y50566285D01*
X68325000Y50847608D01*
X68325000Y52797204D01*
X68510054Y52920853D01*
X68737702Y53261553D01*
X68804817Y53118642D01*
X69233076Y52728355D01*
X69643110Y52558524D01*
X69873000Y52679845D01*
X69873000Y53873000D01*
X70127000Y53873000D01*
X70127000Y52679845D01*
X70356890Y52558524D01*
X70766924Y52728355D01*
X71195183Y53118642D01*
X71441486Y53643108D01*
X71320819Y53873000D01*
X70127000Y53873000D01*
X69873000Y53873000D01*
X69853000Y53873000D01*
X69853000Y54127000D01*
X69873000Y54127000D01*
X69873000Y56413000D01*
X70127000Y56413000D01*
X70127000Y54127000D01*
X71320819Y54127000D01*
X71441486Y54356892D01*
X71195183Y54881358D01*
X70768729Y55270000D01*
X71195183Y55658642D01*
X71441486Y56183108D01*
X71320819Y56413000D01*
X70127000Y56413000D01*
X69873000Y56413000D01*
X69853000Y56413000D01*
X69853000Y56667000D01*
X69873000Y56667000D01*
X69873000Y57860155D01*
X70127000Y57860155D01*
X70127000Y56667000D01*
X71320819Y56667000D01*
X71441486Y56896892D01*
X71195183Y57421358D01*
X70766924Y57811645D01*
X70356890Y57981476D01*
X70127000Y57860155D01*
X69873000Y57860155D01*
X69643110Y57981476D01*
X69233076Y57811645D01*
X68804817Y57421358D01*
X68737702Y57278447D01*
X68510054Y57619147D01*
X68028285Y57941054D01*
X67460000Y58054093D01*
X66891715Y57941054D01*
X66409946Y57619147D01*
X66190000Y57289974D01*
X65970054Y57619147D01*
X65488285Y57941054D01*
X64920000Y58054093D01*
X64351715Y57941054D01*
X63869946Y57619147D01*
X63650000Y57289974D01*
X63430054Y57619147D01*
X62948285Y57941054D01*
X62380000Y58054093D01*
X61811715Y57941054D01*
X61329946Y57619147D01*
X61110000Y57289974D01*
X60890054Y57619147D01*
X60408285Y57941054D01*
X59840000Y58054093D01*
X59271715Y57941054D01*
X58789946Y57619147D01*
X58570000Y57289974D01*
X58350054Y57619147D01*
X57868285Y57941054D01*
X57300000Y58054093D01*
X56731715Y57941054D01*
X56249946Y57619147D01*
X56030000Y57289974D01*
X55810054Y57619147D01*
X55625000Y57742796D01*
X55625000Y62640000D01*
X55559156Y62971021D01*
X55559156Y62971022D01*
X55371647Y63251648D01*
X53615000Y65008294D01*
X53615000Y68406706D01*
X53922560Y68099146D01*
X53922560Y67425000D01*
X53971843Y67177235D01*
X54112191Y66967191D01*
X54322235Y66826843D01*
X54570000Y66777560D01*
X56070000Y66777560D01*
X56317765Y66826843D01*
X56527809Y66967191D01*
X56568654Y67028320D01*
X56710302Y66886673D01*
X56943691Y66790000D01*
X57534250Y66790000D01*
X57693000Y66948750D01*
X57693000Y67923000D01*
X57947000Y67923000D01*
X57947000Y66948750D01*
X58105750Y66790000D01*
X58696309Y66790000D01*
X58929698Y66886673D01*
X59108327Y67065301D01*
X59205000Y67298690D01*
X59205000Y67764250D01*
X59046250Y67923000D01*
X57947000Y67923000D01*
X57693000Y67923000D01*
X57673000Y67923000D01*
X57673000Y68177000D01*
X57693000Y68177000D01*
X57693000Y69151250D01*
X57947000Y69151250D01*
X57947000Y68177000D01*
X59046250Y68177000D01*
X59205000Y68335750D01*
X59205000Y68801310D01*
X59108327Y69034699D01*
X58929698Y69213327D01*
X58696309Y69310000D01*
X58105750Y69310000D01*
X57947000Y69151250D01*
X57693000Y69151250D01*
X57534250Y69310000D01*
X56943691Y69310000D01*
X56710302Y69213327D01*
X56568654Y69071680D01*
X56527809Y69132809D01*
X56317765Y69273157D01*
X56070000Y69322440D01*
X55145854Y69322440D01*
X53615000Y70853294D01*
X53615000Y71381705D01*
X53711648Y71478353D01*
X53899156Y71758979D01*
X53927716Y71902560D01*
X53950000Y71902560D01*
X54197765Y71951843D01*
X54407809Y72092191D01*
X54548157Y72302235D01*
X54568739Y72405708D01*
X54873076Y72128355D01*
X55283110Y71958524D01*
X55513000Y72079845D01*
X55513000Y73273000D01*
X55493000Y73273000D01*
X55493000Y73527000D01*
X55513000Y73527000D01*
X55513000Y74720155D01*
X55767000Y74720155D01*
X55767000Y73527000D01*
X55787000Y73527000D01*
X55787000Y73273000D01*
X55767000Y73273000D01*
X55767000Y72079845D01*
X55996890Y71958524D01*
X56406924Y72128355D01*
X56835183Y72518642D01*
X56902298Y72661553D01*
X57129946Y72320853D01*
X57611715Y71998946D01*
X58180000Y71885907D01*
X58748285Y71998946D01*
X59230054Y72320853D01*
X59373142Y72535000D01*
X66052560Y72535000D01*
X66052560Y71100000D01*
X66101843Y70852235D01*
X66242191Y70642191D01*
X66452235Y70501843D01*
X66700000Y70452560D01*
X68500000Y70452560D01*
X68747765Y70501843D01*
X68957809Y70642191D01*
X69098157Y70852235D01*
X69147440Y71100000D01*
X69147440Y74700000D01*
X69098157Y74947765D01*
X68957809Y75157809D01*
X68747765Y75298157D01*
X68500000Y75347440D01*
X66700000Y75347440D01*
X66452235Y75298157D01*
X66242191Y75157809D01*
X66101843Y74947765D01*
X66052560Y74700000D01*
X66052560Y74265000D01*
X59373142Y74265000D01*
X59230054Y74479147D01*
X59045000Y74602796D01*
X59045000Y76356402D01*
X59147765Y76376843D01*
X59357809Y76517191D01*
X59498157Y76727235D01*
X59547440Y76975000D01*
X59547440Y78225000D01*
X59498157Y78472765D01*
X59357809Y78682809D01*
X59147765Y78823157D01*
X58900000Y78872440D01*
X57400000Y78872440D01*
X57152235Y78823157D01*
X56942191Y78682809D01*
X56901346Y78621680D01*
X56759698Y78763327D01*
X56526309Y78860000D01*
X55935750Y78860000D01*
X55777000Y78701250D01*
X55777000Y77727000D01*
X55797000Y77727000D01*
X55797000Y77473000D01*
X55777000Y77473000D01*
X55777000Y76498750D01*
X55935750Y76340000D01*
X56526309Y76340000D01*
X56759698Y76436673D01*
X56901346Y76578320D01*
X56942191Y76517191D01*
X57152235Y76376843D01*
X57315000Y76344467D01*
X57315000Y74602796D01*
X57129946Y74479147D01*
X56902298Y74138447D01*
X56835183Y74281358D01*
X56406924Y74671645D01*
X55996890Y74841476D01*
X55767000Y74720155D01*
X55513000Y74720155D01*
X55283110Y74841476D01*
X54873076Y74671645D01*
X54568739Y74394292D01*
X54548157Y74497765D01*
X54407809Y74707809D01*
X54197765Y74848157D01*
X53950000Y74897440D01*
X52250000Y74897440D01*
X52002235Y74848157D01*
X51792191Y74707809D01*
X51651843Y74497765D01*
X51602560Y74250000D01*
X51602560Y72550000D01*
X51651843Y72302235D01*
X51792191Y72092191D01*
X51935948Y71996135D01*
X51885000Y71740000D01*
X51885000Y65515000D01*
X51364802Y65515000D01*
X51277765Y65573157D01*
X51142815Y65600000D01*
X51277765Y65626843D01*
X51487809Y65767191D01*
X51628157Y65977235D01*
X51677440Y66225000D01*
X51677440Y66875000D01*
X51628157Y67122765D01*
X51487809Y67332809D01*
X51346678Y67427110D01*
X51299156Y67666021D01*
X51111647Y67946647D01*
X51046647Y68011647D01*
X50766021Y68199156D01*
X50761778Y68200000D01*
X50435000Y68265000D01*
X49165000Y68265000D01*
X49165000Y71190000D01*
X49099156Y71521021D01*
X49099156Y71521022D01*
X48911647Y71801648D01*
X48655833Y72057462D01*
X48707809Y72092191D01*
X48848157Y72302235D01*
X48897440Y72550000D01*
X48897440Y74250000D01*
X48848157Y74497765D01*
X48707809Y74707809D01*
X48497765Y74848157D01*
X48250000Y74897440D01*
X46550000Y74897440D01*
X46302235Y74848157D01*
X46092191Y74707809D01*
X45951843Y74497765D01*
X45902560Y74250000D01*
X45902560Y72550000D01*
X45951843Y72302235D01*
X46092191Y72092191D01*
X46302235Y71951843D01*
X46550000Y71902560D01*
X46572284Y71902560D01*
X46600844Y71758979D01*
X46788353Y71478353D01*
X47435000Y70831705D01*
X47435000Y67414868D01*
X47312191Y67332809D01*
X47171843Y67122765D01*
X47122560Y66875000D01*
X47122560Y66225000D01*
X47149936Y66087369D01*
X47135000Y66051310D01*
X47135000Y65885750D01*
X47293750Y65727000D01*
X47372341Y65727000D01*
X47522235Y65626843D01*
X47657185Y65600000D01*
X47522235Y65573157D01*
X47372341Y65473000D01*
X47293750Y65473000D01*
X47135000Y65314250D01*
X47135000Y65148690D01*
X47149936Y65112631D01*
X47122560Y64975000D01*
X47122560Y64325000D01*
X47171843Y64077235D01*
X47312191Y63867191D01*
X47329999Y63855292D01*
X47329999Y62865000D01*
X46788295Y62865000D01*
X44701647Y64951647D01*
X44421021Y65139156D01*
X44416778Y65140000D01*
X44261345Y65170918D01*
X44228157Y65337765D01*
X44087809Y65547809D01*
X43877765Y65688157D01*
X43849791Y65693721D01*
X43989699Y65751673D01*
X44168327Y65930302D01*
X44265000Y66163691D01*
X44265000Y66754250D01*
X44106250Y66913000D01*
X43107000Y66913000D01*
X43107000Y66893000D01*
X42853000Y66893000D01*
X42853000Y66913000D01*
X41853750Y66913000D01*
X41695000Y66754250D01*
X41695000Y66163691D01*
X41791673Y65930302D01*
X41970301Y65751673D01*
X42110209Y65693721D01*
X42082235Y65688157D01*
X41872191Y65547809D01*
X41731843Y65337765D01*
X41682560Y65090000D01*
X41682560Y63590000D01*
X41731843Y63342235D01*
X41872191Y63132191D01*
X42082235Y62991843D01*
X42330000Y62942560D01*
X43630000Y62942560D01*
X43877765Y62991843D01*
X44079840Y63126866D01*
X45752705Y61454000D01*
X44103565Y59804860D01*
X43667715Y59805240D01*
X43158485Y59594831D01*
X42768539Y59205564D01*
X42557241Y58696702D01*
X42556760Y58145715D01*
X42767169Y57636485D01*
X43156436Y57246539D01*
X43665298Y57035241D01*
X44216285Y57034760D01*
X44725515Y57245169D01*
X45115461Y57634436D01*
X45326759Y58143298D01*
X45327142Y58581848D01*
X47880295Y61135000D01*
X48194999Y61135000D01*
X48526020Y61200844D01*
X48806646Y61388353D01*
X48994155Y61668979D01*
X49059999Y62000000D01*
X49059999Y63723309D01*
X49077765Y63726843D01*
X49287809Y63867191D01*
X49400000Y64035095D01*
X49512191Y63867191D01*
X49722235Y63726843D01*
X49970000Y63677560D01*
X51030000Y63677560D01*
X51277765Y63726843D01*
X51364802Y63785000D01*
X52391706Y63785000D01*
X53895000Y62281705D01*
X53895000Y57742796D01*
X53709946Y57619147D01*
X53482298Y57278447D01*
X53415183Y57421358D01*
X52986924Y57811645D01*
X52576890Y57981476D01*
X52347000Y57860155D01*
X52347000Y56667000D01*
X52367000Y56667000D01*
X52367000Y56413000D01*
X52347000Y56413000D01*
X52347000Y54127000D01*
X52367000Y54127000D01*
X52367000Y53873000D01*
X52347000Y53873000D01*
X52347000Y52673750D01*
X52505750Y52515000D01*
X53196310Y52515000D01*
X53429699Y52611673D01*
X53608327Y52790302D01*
X53680597Y52964777D01*
X53709946Y52920853D01*
X54191715Y52598946D01*
X54760000Y52485907D01*
X55328285Y52598946D01*
X55810054Y52920853D01*
X56030000Y53250026D01*
X56249946Y52920853D01*
X56731715Y52598946D01*
X57300000Y52485907D01*
X57868285Y52598946D01*
X58350054Y52920853D01*
X58570000Y53250026D01*
X58789946Y52920853D01*
X58975164Y52797095D01*
X59014578Y52598946D01*
X59035000Y52496278D01*
X59035000Y51858295D01*
X57741706Y50565000D01*
X55900000Y50565000D01*
X55623898Y50510080D01*
X55568978Y50499156D01*
X55288352Y50311647D01*
X52978353Y48001647D01*
X52790844Y47721021D01*
X52725000Y47390000D01*
X52725000Y46001554D01*
X52620000Y46022440D01*
X52020000Y46022440D01*
X51772235Y45973157D01*
X51685000Y45914868D01*
X51597765Y45973157D01*
X51350000Y46022440D01*
X50750000Y46022440D01*
X50502235Y45973157D01*
X50292191Y45832809D01*
X50151843Y45622765D01*
X50102560Y45375000D01*
X50102560Y43981732D01*
X47765000Y46319292D01*
X47765000Y50500000D01*
X47699156Y50831021D01*
X47650629Y50903647D01*
X47511648Y51111647D01*
X46211647Y52411647D01*
X45931021Y52599156D01*
X45600000Y52665000D01*
X40520000Y52665000D01*
X40243898Y52610080D01*
X40188978Y52599156D01*
X39908352Y52411647D01*
X37213555Y49716849D01*
X36763339Y49717242D01*
X36249697Y49505010D01*
X35856371Y49112370D01*
X35770051Y48904488D01*
X35685010Y49110303D01*
X35292370Y49503629D01*
X34779100Y49716757D01*
X34223339Y49717242D01*
X33709697Y49505010D01*
X33316371Y49112370D01*
X33230051Y48904488D01*
X33145010Y49110303D01*
X32752370Y49503629D01*
X32239100Y49716757D01*
X31683339Y49717242D01*
X31169697Y49505010D01*
X30776371Y49112370D01*
X30690051Y48904488D01*
X30605010Y49110303D01*
X30212370Y49503629D01*
X29699100Y49716757D01*
X29143339Y49717242D01*
X28629697Y49505010D01*
X28236371Y49112370D01*
X28150051Y48904488D01*
X28065010Y49110303D01*
X27672370Y49503629D01*
X27159100Y49716757D01*
X26603339Y49717242D01*
X26089697Y49505010D01*
X25696371Y49112370D01*
X25610051Y48904488D01*
X25525010Y49110303D01*
X25132370Y49503629D01*
X24619100Y49716757D01*
X24063339Y49717242D01*
X23549697Y49505010D01*
X23156371Y49112370D01*
X23070051Y48904488D01*
X22985010Y49110303D01*
X22665000Y49430872D01*
X22665000Y50741706D01*
X24211647Y52288352D01*
X24399156Y52568978D01*
X24410080Y52623898D01*
X24465000Y52900000D01*
X24465000Y53714250D01*
X50735000Y53714250D01*
X50735000Y53023691D01*
X50831673Y52790302D01*
X51010301Y52611673D01*
X51243690Y52515000D01*
X51934250Y52515000D01*
X52093000Y52673750D01*
X52093000Y53873000D01*
X50893750Y53873000D01*
X50735000Y53714250D01*
X24465000Y53714250D01*
X24465000Y53981706D01*
X25459603Y54976309D01*
X50735000Y54976309D01*
X50735000Y54285750D01*
X50893750Y54127000D01*
X52093000Y54127000D01*
X52093000Y56413000D01*
X50899181Y56413000D01*
X50778514Y56183108D01*
X51024817Y55658642D01*
X51224208Y55476930D01*
X51010301Y55388327D01*
X50831673Y55209698D01*
X50735000Y54976309D01*
X25459603Y54976309D01*
X27380186Y56896892D01*
X50778514Y56896892D01*
X50899181Y56667000D01*
X52093000Y56667000D01*
X52093000Y57860155D01*
X51863110Y57981476D01*
X51453076Y57811645D01*
X51024817Y57421358D01*
X50778514Y56896892D01*
X27380186Y56896892D01*
X29511647Y59028353D01*
X29699156Y59308979D01*
X29727716Y59452560D01*
X29900000Y59452560D01*
X30147765Y59501843D01*
X30357809Y59642191D01*
X30498157Y59852235D01*
X30517099Y59947468D01*
X31727073Y59947468D01*
X31825736Y59680613D01*
X32435461Y59454092D01*
X33085460Y59478144D01*
X33574264Y59680613D01*
X33672927Y59947468D01*
X32700000Y60920395D01*
X31727073Y59947468D01*
X30517099Y59947468D01*
X30547440Y60100000D01*
X30547440Y61364539D01*
X31054092Y61364539D01*
X31078144Y60714540D01*
X31280613Y60225736D01*
X31547468Y60127073D01*
X32520395Y61100000D01*
X32879605Y61100000D01*
X33852532Y60127073D01*
X34119387Y60225736D01*
X34345908Y60835461D01*
X34321856Y61485460D01*
X34119387Y61974264D01*
X33852532Y62072927D01*
X32879605Y61100000D01*
X32520395Y61100000D01*
X31547468Y62072927D01*
X31280613Y61974264D01*
X31054092Y61364539D01*
X30547440Y61364539D01*
X30547440Y62100000D01*
X30517100Y62252532D01*
X31727073Y62252532D01*
X32700000Y61279605D01*
X33672927Y62252532D01*
X33574264Y62519387D01*
X32964539Y62745908D01*
X32314540Y62721856D01*
X31825736Y62519387D01*
X31727073Y62252532D01*
X30517100Y62252532D01*
X30498157Y62347765D01*
X30357809Y62557809D01*
X30147765Y62698157D01*
X29900000Y62747440D01*
X29765000Y62747440D01*
X29765000Y67916309D01*
X41695000Y67916309D01*
X41695000Y67325750D01*
X41853750Y67167000D01*
X42853000Y67167000D01*
X42853000Y68266250D01*
X43107000Y68266250D01*
X43107000Y67167000D01*
X44106250Y67167000D01*
X44265000Y67325750D01*
X44265000Y67916309D01*
X44168327Y68149698D01*
X43989699Y68328327D01*
X43756310Y68425000D01*
X43265750Y68425000D01*
X43107000Y68266250D01*
X42853000Y68266250D01*
X42694250Y68425000D01*
X42203690Y68425000D01*
X41970301Y68328327D01*
X41791673Y68149698D01*
X41695000Y67916309D01*
X29765000Y67916309D01*
X29765000Y69552560D01*
X29800000Y69552560D01*
X30047765Y69601843D01*
X30257809Y69742191D01*
X30398157Y69952235D01*
X30447440Y70200000D01*
X30447440Y71873000D01*
X30865000Y71873000D01*
X30865000Y70973000D01*
X31030446Y70395248D01*
X31404394Y69924788D01*
X31929914Y69633244D01*
X32035260Y69608964D01*
X32273000Y69729622D01*
X32273000Y71873000D01*
X32527000Y71873000D01*
X32527000Y69729622D01*
X32764740Y69608964D01*
X32870086Y69633244D01*
X33395606Y69924788D01*
X33769554Y70395248D01*
X33935000Y70973000D01*
X33935000Y71873000D01*
X32527000Y71873000D01*
X32273000Y71873000D01*
X30865000Y71873000D01*
X30447440Y71873000D01*
X30447440Y73027000D01*
X30865000Y73027000D01*
X30865000Y72127000D01*
X32273000Y72127000D01*
X32273000Y74270378D01*
X32527000Y74270378D01*
X32527000Y72127000D01*
X33935000Y72127000D01*
X33935000Y73027000D01*
X33769554Y73604752D01*
X33395606Y74075212D01*
X33044174Y74270177D01*
X36504630Y74270177D01*
X37056820Y72933775D01*
X38078397Y71910414D01*
X39413834Y71355892D01*
X40859823Y71354630D01*
X42196225Y71906820D01*
X43219586Y72928397D01*
X43774108Y74263834D01*
X43775370Y75709823D01*
X43223180Y77046225D01*
X42955623Y77314250D01*
X54265000Y77314250D01*
X54265000Y76848690D01*
X54361673Y76615301D01*
X54540302Y76436673D01*
X54773691Y76340000D01*
X55364250Y76340000D01*
X55523000Y76498750D01*
X55523000Y77473000D01*
X54423750Y77473000D01*
X54265000Y77314250D01*
X42955623Y77314250D01*
X42201603Y78069586D01*
X41523137Y78351310D01*
X54265000Y78351310D01*
X54265000Y77885750D01*
X54423750Y77727000D01*
X55523000Y77727000D01*
X55523000Y78701250D01*
X55364250Y78860000D01*
X54773691Y78860000D01*
X54540302Y78763327D01*
X54361673Y78584699D01*
X54265000Y78351310D01*
X41523137Y78351310D01*
X40866166Y78624108D01*
X39420177Y78625370D01*
X38083775Y78073180D01*
X37060414Y77051603D01*
X36505892Y75716166D01*
X36504630Y74270177D01*
X33044174Y74270177D01*
X32870086Y74366756D01*
X32764740Y74391036D01*
X32527000Y74270378D01*
X32273000Y74270378D01*
X32035260Y74391036D01*
X31929914Y74366756D01*
X31404394Y74075212D01*
X31030446Y73604752D01*
X30865000Y73027000D01*
X30447440Y73027000D01*
X30447440Y73800000D01*
X30398157Y74047765D01*
X30257809Y74257809D01*
X30047765Y74398157D01*
X29800000Y74447440D01*
X28000000Y74447440D01*
X27752235Y74398157D01*
X27542191Y74257809D01*
X27401843Y74047765D01*
X27352560Y73800000D01*
X27352560Y70200000D01*
X27401843Y69952235D01*
X27542191Y69742191D01*
X27752235Y69601843D01*
X28000000Y69552560D01*
X28035000Y69552560D01*
X28035000Y62747440D01*
X27900000Y62747440D01*
X27652235Y62698157D01*
X27442191Y62557809D01*
X27301843Y62347765D01*
X27252560Y62100000D01*
X27252560Y60100000D01*
X27301843Y59852235D01*
X27442191Y59642191D01*
X27584085Y59547379D01*
X22988353Y54951647D01*
X22800844Y54671021D01*
X22735000Y54340000D01*
X22735000Y53258295D01*
X22287500Y52810795D01*
X21547440Y53550854D01*
X21547440Y54225000D01*
X21498157Y54472765D01*
X21357809Y54682809D01*
X21147765Y54823157D01*
X20900000Y54872440D01*
X19400000Y54872440D01*
X19152235Y54823157D01*
X18942191Y54682809D01*
X18901346Y54621680D01*
X18759698Y54763327D01*
X18526309Y54860000D01*
X17935750Y54860000D01*
X17777000Y54701250D01*
X17777000Y53727000D01*
X17797000Y53727000D01*
X17797000Y53473000D01*
X17777000Y53473000D01*
X17777000Y52498750D01*
X17935750Y52340000D01*
X18526309Y52340000D01*
X18759698Y52436673D01*
X18901346Y52578320D01*
X18942191Y52517191D01*
X19152235Y52376843D01*
X19400000Y52327560D01*
X20324146Y52327560D01*
X20935000Y51716705D01*
X20935000Y49430443D01*
X20616371Y49112370D01*
X20530051Y48904488D01*
X20445010Y49110303D01*
X20052370Y49503629D01*
X19539100Y49716757D01*
X18983339Y49717242D01*
X18469697Y49505010D01*
X18076371Y49112370D01*
X17996605Y48920273D01*
X17942397Y49051143D01*
X17700213Y49120608D01*
X16899605Y48320000D01*
X17700213Y47519392D01*
X17942397Y47588857D01*
X17992509Y47729318D01*
X18074990Y47529697D01*
X18467630Y47136371D01*
X18980900Y46923243D01*
X19536661Y46922758D01*
X20050303Y47134990D01*
X20443629Y47527630D01*
X20529949Y47735512D01*
X20614990Y47529697D01*
X21007630Y47136371D01*
X21520900Y46923243D01*
X22076661Y46922758D01*
X22590303Y47134990D01*
X22983629Y47527630D01*
X23069949Y47735512D01*
X23154990Y47529697D01*
X23547630Y47136371D01*
X24060900Y46923243D01*
X24616661Y46922758D01*
X25130303Y47134990D01*
X25523629Y47527630D01*
X25609949Y47735512D01*
X25694990Y47529697D01*
X26087630Y47136371D01*
X26600900Y46923243D01*
X27156661Y46922758D01*
X27670303Y47134990D01*
X28063629Y47527630D01*
X28149949Y47735512D01*
X28234990Y47529697D01*
X28627630Y47136371D01*
X29140900Y46923243D01*
X29696661Y46922758D01*
X30210303Y47134990D01*
X30603629Y47527630D01*
X30689949Y47735512D01*
X30774990Y47529697D01*
X31167630Y47136371D01*
X31680900Y46923243D01*
X32236661Y46922758D01*
X32750303Y47134990D01*
X33143629Y47527630D01*
X33229949Y47735512D01*
X33314990Y47529697D01*
X33679000Y47165051D01*
X33679000Y45035488D01*
X33370539Y44727564D01*
X33159241Y44218702D01*
X33158760Y43667715D01*
X33369169Y43158485D01*
X33758436Y42768539D01*
X34267298Y42557241D01*
X34818285Y42556760D01*
X35327515Y42767169D01*
X35717461Y43156436D01*
X35928759Y43665298D01*
X35929240Y44216285D01*
X35718831Y44725515D01*
X35409000Y45035886D01*
X35409000Y47253480D01*
X35683629Y47527630D01*
X35769949Y47735512D01*
X35854990Y47529697D01*
X36247630Y47136371D01*
X36760900Y46923243D01*
X37316661Y46922758D01*
X37830303Y47134990D01*
X38223629Y47527630D01*
X38309949Y47735512D01*
X38394990Y47529697D01*
X38715000Y47209128D01*
X38715000Y39580340D01*
X38767786Y39314968D01*
X38780844Y39249319D01*
X38968353Y38968693D01*
X39884704Y38052342D01*
X40165330Y37864833D01*
X40496351Y37798989D01*
X49785268Y37798989D01*
X50007028Y37650813D01*
X50338049Y37584969D01*
X55131737Y37584969D01*
X55265000Y37451706D01*
X55265000Y36601554D01*
X55160000Y36622440D01*
X54560000Y36622440D01*
X54312235Y36573157D01*
X54225000Y36514868D01*
X54137765Y36573157D01*
X53890000Y36622440D01*
X53290000Y36622440D01*
X53042235Y36573157D01*
X52955000Y36514868D01*
X52867765Y36573157D01*
X52620000Y36622440D01*
X52020000Y36622440D01*
X51772235Y36573157D01*
X51693028Y36520232D01*
X51476310Y36610000D01*
X51335750Y36610000D01*
X51177000Y36451250D01*
X51177000Y35127000D01*
X51197000Y35127000D01*
X51197000Y34873000D01*
X51177000Y34873000D01*
X51177000Y33548750D01*
X51335750Y33390000D01*
X51476310Y33390000D01*
X51693028Y33479768D01*
X51772235Y33426843D01*
X52020000Y33377560D01*
X52620000Y33377560D01*
X52867765Y33426843D01*
X52955000Y33485132D01*
X53042235Y33426843D01*
X53290000Y33377560D01*
X53449265Y33377560D01*
X50752731Y30681025D01*
X41420300Y30681024D01*
X41089279Y30615180D01*
X41014179Y30565000D01*
X33278295Y30565000D01*
X32040365Y31802929D01*
X32236661Y31802758D01*
X32750303Y32014990D01*
X33143629Y32407630D01*
X33229949Y32615512D01*
X33314990Y32409697D01*
X33707630Y32016371D01*
X34220900Y31803243D01*
X34776661Y31802758D01*
X35290303Y32014990D01*
X35683629Y32407630D01*
X35769949Y32615512D01*
X35854990Y32409697D01*
X36247630Y32016371D01*
X36760900Y31803243D01*
X37316661Y31802758D01*
X37830303Y32014990D01*
X38223629Y32407630D01*
X38309949Y32615512D01*
X38394990Y32409697D01*
X38787630Y32016371D01*
X39300900Y31803243D01*
X39856661Y31802758D01*
X40370303Y32014990D01*
X40763629Y32407630D01*
X40849949Y32615512D01*
X40934990Y32409697D01*
X41327630Y32016371D01*
X41840900Y31803243D01*
X42396661Y31802758D01*
X42910303Y32014990D01*
X43303629Y32407630D01*
X43516757Y32920900D01*
X43517242Y33476661D01*
X43305010Y33990303D01*
X42912370Y34383629D01*
X42399100Y34596757D01*
X41843339Y34597242D01*
X41329697Y34385010D01*
X40936371Y33992370D01*
X40850051Y33784488D01*
X40765010Y33990303D01*
X40372370Y34383629D01*
X39859100Y34596757D01*
X39660225Y34596931D01*
X40266295Y35203000D01*
X43075706Y35203000D01*
X43851001Y34427704D01*
X43851001Y33515999D01*
X43907098Y33233979D01*
X43916845Y33184978D01*
X44081151Y32939078D01*
X44080760Y32491715D01*
X44291169Y31982485D01*
X44680436Y31592539D01*
X45189298Y31381241D01*
X45740285Y31380760D01*
X46249515Y31591169D01*
X46639461Y31980436D01*
X46850759Y32489298D01*
X46851240Y33040285D01*
X46640831Y33549515D01*
X46251564Y33939461D01*
X45742702Y34150759D01*
X45581001Y34150900D01*
X45581001Y34714250D01*
X50115000Y34714250D01*
X50115000Y33898691D01*
X50211673Y33665302D01*
X50390301Y33486673D01*
X50623690Y33390000D01*
X50764250Y33390000D01*
X50923000Y33548750D01*
X50923000Y34873000D01*
X50273750Y34873000D01*
X50115000Y34714250D01*
X45581001Y34714250D01*
X45581001Y34785999D01*
X45515157Y35117020D01*
X45515157Y35117021D01*
X45327648Y35397647D01*
X44623986Y36101309D01*
X50115000Y36101309D01*
X50115000Y35285750D01*
X50273750Y35127000D01*
X50923000Y35127000D01*
X50923000Y36451250D01*
X50764250Y36610000D01*
X50623690Y36610000D01*
X50390301Y36513327D01*
X50211673Y36334698D01*
X50115000Y36101309D01*
X44623986Y36101309D01*
X44045647Y36679647D01*
X43765021Y36867156D01*
X43434000Y36933000D01*
X39908000Y36933000D01*
X39576979Y36867156D01*
X39493904Y36811647D01*
X39296352Y36679647D01*
X37213555Y34596849D01*
X36763339Y34597242D01*
X36249697Y34385010D01*
X35856371Y33992370D01*
X35770051Y33784488D01*
X35685010Y33990303D01*
X35292370Y34383629D01*
X34779100Y34596757D01*
X34223339Y34597242D01*
X33709697Y34385010D01*
X33316371Y33992370D01*
X33230051Y33784488D01*
X33145010Y33990303D01*
X32825000Y34310872D01*
X32825000Y37762366D01*
X33901903Y38839268D01*
X34014436Y38726539D01*
X34523298Y38515241D01*
X35074285Y38514760D01*
X35583515Y38725169D01*
X35973461Y39114436D01*
X36184759Y39623298D01*
X36185240Y40174285D01*
X35974831Y40683515D01*
X35585564Y41073461D01*
X35076702Y41284759D01*
X34525715Y41285240D01*
X34016485Y41074831D01*
X33697845Y40756746D01*
X33408319Y40699156D01*
X33127693Y40511648D01*
X31348353Y38732307D01*
X31160844Y38451681D01*
X31095000Y38120660D01*
X31095000Y34310443D01*
X30776371Y33992370D01*
X30690051Y33784488D01*
X30605010Y33990303D01*
X30212370Y34383629D01*
X29699100Y34596757D01*
X29143339Y34597242D01*
X28629697Y34385010D01*
X28236371Y33992370D01*
X28150051Y33784488D01*
X28065010Y33990303D01*
X27745000Y34310872D01*
X27745000Y35820000D01*
X27679156Y36151021D01*
X27491647Y36431647D01*
X25211647Y38711647D01*
X24931021Y38899156D01*
X24920509Y38901247D01*
X24600000Y38965000D01*
X13000000Y38965000D01*
X12668979Y38899156D01*
X12466496Y38763862D01*
X12527144Y38854627D01*
X12553208Y38985660D01*
X12592988Y39185648D01*
X12592988Y40976177D01*
X12800000Y40935000D01*
X21630000Y40935000D01*
X21961021Y41000844D01*
X22241647Y41188353D01*
X25436445Y44383151D01*
X25886661Y44382758D01*
X26400303Y44594990D01*
X26793629Y44987630D01*
X27006757Y45500900D01*
X27007242Y46056661D01*
X26795010Y46570303D01*
X26402370Y46963629D01*
X25889100Y47176757D01*
X25333339Y47177242D01*
X24819697Y46965010D01*
X24426371Y46572370D01*
X24348544Y46384942D01*
X24305010Y46490303D01*
X23912370Y46883629D01*
X23399100Y47096757D01*
X22843339Y47097242D01*
X22329697Y46885010D01*
X22009128Y46565000D01*
X15015955Y46565000D01*
X14599271Y46981683D01*
X14970303Y47134990D01*
X15175457Y47339787D01*
X15919392Y47339787D01*
X15988857Y47097603D01*
X16512302Y46910856D01*
X17067368Y46938638D01*
X17451143Y47097603D01*
X17520608Y47339787D01*
X16720000Y48140395D01*
X15919392Y47339787D01*
X15175457Y47339787D01*
X15363629Y47527630D01*
X15443395Y47719727D01*
X15497603Y47588857D01*
X15739787Y47519392D01*
X16540395Y48320000D01*
X15739787Y49120608D01*
X15497603Y49051143D01*
X15447491Y48910682D01*
X15365010Y49110303D01*
X15175432Y49300213D01*
X15919392Y49300213D01*
X16720000Y48499605D01*
X17520608Y49300213D01*
X17451143Y49542397D01*
X16927698Y49729144D01*
X16372632Y49701362D01*
X15988857Y49542397D01*
X15919392Y49300213D01*
X15175432Y49300213D01*
X14972370Y49503629D01*
X14459100Y49716757D01*
X13903339Y49717242D01*
X13552999Y49572485D01*
X13552999Y53314250D01*
X16265000Y53314250D01*
X16265000Y52848690D01*
X16361673Y52615301D01*
X16540302Y52436673D01*
X16773691Y52340000D01*
X17364250Y52340000D01*
X17523000Y52498750D01*
X17523000Y53473000D01*
X16423750Y53473000D01*
X16265000Y53314250D01*
X13552999Y53314250D01*
X13552999Y54351310D01*
X16265000Y54351310D01*
X16265000Y53885750D01*
X16423750Y53727000D01*
X17523000Y53727000D01*
X17523000Y54701250D01*
X17364250Y54860000D01*
X16773691Y54860000D01*
X16540302Y54763327D01*
X16361673Y54584699D01*
X16265000Y54351310D01*
X13552999Y54351310D01*
X13552999Y59229705D01*
X19771648Y65448353D01*
X19959156Y65728979D01*
X20025000Y66060000D01*
X20025000Y72219615D01*
X20245409Y72366887D01*
X20578155Y72864877D01*
X20695000Y73452296D01*
X20695000Y75347704D01*
X20578155Y75935123D01*
X20245409Y76433113D01*
X19747419Y76765859D01*
X19160000Y76882704D01*
X18572581Y76765859D01*
X18074591Y76433113D01*
X17741845Y75935123D01*
X17699758Y75723536D01*
X15271658Y78151636D01*
X14991032Y78339145D01*
X14660011Y78404989D01*
X13297649Y78404989D01*
X12966628Y78339145D01*
X12686002Y78151637D01*
X10888353Y76353987D01*
X10700844Y76073361D01*
X10635000Y75742340D01*
X10635000Y64098295D01*
X9983189Y64750106D01*
X10078157Y64892235D01*
X10127440Y65140000D01*
X10127440Y66640000D01*
X10078157Y66887765D01*
X9937809Y67097809D01*
X9727765Y67238157D01*
X9718500Y67240000D01*
X9727765Y67241843D01*
X9937809Y67382191D01*
X10078157Y67592235D01*
X10127440Y67840000D01*
X10127440Y69340000D01*
X10078157Y69587765D01*
X9937809Y69797809D01*
X9865000Y69846459D01*
X9865000Y72219615D01*
X10085409Y72366887D01*
X10418155Y72864877D01*
X10535000Y73452296D01*
X10535000Y75347704D01*
X10418155Y75935123D01*
X10085409Y76433113D01*
X9587419Y76765859D01*
X9000000Y76882704D01*
X8412581Y76765859D01*
X7914591Y76433113D01*
X7581845Y75935123D01*
X7465000Y75347704D01*
X7465000Y73452296D01*
X7581845Y72864877D01*
X7914591Y72366887D01*
X8135000Y72219615D01*
X8135000Y69978489D01*
X7932235Y69938157D01*
X7722191Y69797809D01*
X7581843Y69587765D01*
X7573337Y69545000D01*
X6859565Y69545000D01*
X6833157Y69677765D01*
X6692809Y69887809D01*
X6482765Y70028157D01*
X6235000Y70077440D01*
X4985000Y70077440D01*
X4737235Y70028157D01*
X4527191Y69887809D01*
X4386843Y69677765D01*
X4353655Y69510918D01*
X4248898Y69490080D01*
X4193978Y69479156D01*
X3913352Y69291647D01*
X2258353Y67636647D01*
X2070844Y67356021D01*
X2005000Y67025000D01*
X2005000Y63093488D01*
X1696539Y62785564D01*
X1485241Y62276702D01*
X1484760Y61725715D01*
X735000Y61725715D01*
X735000Y74114250D01*
X2385000Y74114250D01*
X2385000Y72473690D01*
X2481673Y72240301D01*
X2660302Y72061673D01*
X2893691Y71965000D01*
X3634250Y71965000D01*
X3793000Y72123750D01*
X3793000Y74273000D01*
X4047000Y74273000D01*
X4047000Y72123750D01*
X4205750Y71965000D01*
X4946309Y71965000D01*
X5179698Y72061673D01*
X5358327Y72240301D01*
X5455000Y72473690D01*
X5455000Y74114250D01*
X5296250Y74273000D01*
X4047000Y74273000D01*
X3793000Y74273000D01*
X2543750Y74273000D01*
X2385000Y74114250D01*
X735000Y74114250D01*
X735000Y76326310D01*
X2385000Y76326310D01*
X2385000Y74685750D01*
X2543750Y74527000D01*
X3793000Y74527000D01*
X3793000Y76676250D01*
X4047000Y76676250D01*
X4047000Y74527000D01*
X5296250Y74527000D01*
X5455000Y74685750D01*
X5455000Y76326310D01*
X5358327Y76559699D01*
X5179698Y76738327D01*
X4946309Y76835000D01*
X4205750Y76835000D01*
X4047000Y76676250D01*
X3793000Y76676250D01*
X3634250Y76835000D01*
X2893691Y76835000D01*
X2660302Y76738327D01*
X2481673Y76559699D01*
X2385000Y76326310D01*
X735000Y76326310D01*
X735000Y79275000D01*
X81307000Y79275000D01*
X81307000Y735000D01*
G36*
X26015000Y35461706D02*
X26015000Y34310443D01*
X25696371Y33992370D01*
X25610051Y33784488D01*
X25525010Y33990303D01*
X25132370Y34383629D01*
X24619100Y34596757D01*
X24063339Y34597242D01*
X23549697Y34385010D01*
X23156371Y33992370D01*
X23076605Y33800273D01*
X23022397Y33931143D01*
X22780213Y34000608D01*
X21979605Y33200000D01*
X22780213Y32399392D01*
X23022397Y32468857D01*
X23072509Y32609318D01*
X23154990Y32409697D01*
X23547630Y32016371D01*
X24060900Y31803243D01*
X24616661Y31802758D01*
X25130303Y32014990D01*
X25523629Y32407630D01*
X25609949Y32615512D01*
X25694990Y32409697D01*
X26087630Y32016371D01*
X26600900Y31803243D01*
X27156661Y31802758D01*
X27670303Y32014990D01*
X28063629Y32407630D01*
X28149949Y32615512D01*
X28234990Y32409697D01*
X28627630Y32016371D01*
X29140900Y31803243D01*
X29593858Y31802848D01*
X31791716Y29604989D01*
X21538305Y29604989D01*
X19340365Y31802929D01*
X19536661Y31802758D01*
X20050303Y32014990D01*
X20255457Y32219787D01*
X20999392Y32219787D01*
X21068857Y31977603D01*
X21592302Y31790856D01*
X22147368Y31818638D01*
X22531143Y31977603D01*
X22600608Y32219787D01*
X21800000Y33020395D01*
X20999392Y32219787D01*
X20255457Y32219787D01*
X20443629Y32407630D01*
X20523395Y32599727D01*
X20577603Y32468857D01*
X20819787Y32399392D01*
X21620395Y33200000D01*
X20819787Y34000608D01*
X20577603Y33931143D01*
X20527491Y33790682D01*
X20445010Y33990303D01*
X20255432Y34180213D01*
X20999392Y34180213D01*
X21800000Y33379605D01*
X22600608Y34180213D01*
X22531143Y34422397D01*
X22007698Y34609144D01*
X21452632Y34581362D01*
X21068857Y34422397D01*
X20999392Y34180213D01*
X20255432Y34180213D01*
X20052370Y34383629D01*
X19539100Y34596757D01*
X18983339Y34597242D01*
X18469697Y34385010D01*
X18076371Y33992370D01*
X17990051Y33784488D01*
X17905010Y33990303D01*
X17512370Y34383629D01*
X16999100Y34596757D01*
X16443339Y34597242D01*
X15929697Y34385010D01*
X15536371Y33992370D01*
X15450051Y33784488D01*
X15365010Y33990303D01*
X14972370Y34383629D01*
X14459100Y34596757D01*
X13903339Y34597242D01*
X13389697Y34385010D01*
X12996371Y33992370D01*
X12783243Y33479100D01*
X12782758Y32923339D01*
X12994990Y32409697D01*
X13387630Y32016371D01*
X13900900Y31803243D01*
X14353858Y31802848D01*
X19038352Y27118353D01*
X19297794Y26945000D01*
X13280000Y26945000D01*
X13003898Y26890080D01*
X12948978Y26879156D01*
X12668352Y26691647D01*
X11988356Y26011650D01*
X11988353Y26011648D01*
X10088353Y24111647D01*
X9900844Y23831021D01*
X9835000Y23500000D01*
X9835000Y19418295D01*
X9188353Y18771647D01*
X9000844Y18491021D01*
X8964963Y18310634D01*
X8902235Y18298157D01*
X8692191Y18157809D01*
X8551843Y17947765D01*
X8502560Y17700000D01*
X8502560Y16200000D01*
X8551843Y15952235D01*
X8692191Y15742191D01*
X8902235Y15601843D01*
X8911500Y15600000D01*
X8902235Y15598157D01*
X8692191Y15457809D01*
X8551843Y15247765D01*
X8502560Y15000000D01*
X8502560Y13500000D01*
X8551843Y13252235D01*
X8653704Y13099791D01*
X8500844Y12871021D01*
X8492786Y12830509D01*
X8365000Y12958294D01*
X8365000Y24241706D01*
X11711647Y27588353D01*
X11899156Y27868979D01*
X11965000Y28200000D01*
X11965000Y35841706D01*
X13358295Y37235000D01*
X24241706Y37235000D01*
X26015000Y35461706D01*
X26015000Y35461706D01*
G37*
X26015000Y35461706D02*
X26015000Y34310443D01*
X25696371Y33992370D01*
X25610051Y33784488D01*
X25525010Y33990303D01*
X25132370Y34383629D01*
X24619100Y34596757D01*
X24063339Y34597242D01*
X23549697Y34385010D01*
X23156371Y33992370D01*
X23076605Y33800273D01*
X23022397Y33931143D01*
X22780213Y34000608D01*
X21979605Y33200000D01*
X22780213Y32399392D01*
X23022397Y32468857D01*
X23072509Y32609318D01*
X23154990Y32409697D01*
X23547630Y32016371D01*
X24060900Y31803243D01*
X24616661Y31802758D01*
X25130303Y32014990D01*
X25523629Y32407630D01*
X25609949Y32615512D01*
X25694990Y32409697D01*
X26087630Y32016371D01*
X26600900Y31803243D01*
X27156661Y31802758D01*
X27670303Y32014990D01*
X28063629Y32407630D01*
X28149949Y32615512D01*
X28234990Y32409697D01*
X28627630Y32016371D01*
X29140900Y31803243D01*
X29593858Y31802848D01*
X31791716Y29604989D01*
X21538305Y29604989D01*
X19340365Y31802929D01*
X19536661Y31802758D01*
X20050303Y32014990D01*
X20255457Y32219787D01*
X20999392Y32219787D01*
X21068857Y31977603D01*
X21592302Y31790856D01*
X22147368Y31818638D01*
X22531143Y31977603D01*
X22600608Y32219787D01*
X21800000Y33020395D01*
X20999392Y32219787D01*
X20255457Y32219787D01*
X20443629Y32407630D01*
X20523395Y32599727D01*
X20577603Y32468857D01*
X20819787Y32399392D01*
X21620395Y33200000D01*
X20819787Y34000608D01*
X20577603Y33931143D01*
X20527491Y33790682D01*
X20445010Y33990303D01*
X20255432Y34180213D01*
X20999392Y34180213D01*
X21800000Y33379605D01*
X22600608Y34180213D01*
X22531143Y34422397D01*
X22007698Y34609144D01*
X21452632Y34581362D01*
X21068857Y34422397D01*
X20999392Y34180213D01*
X20255432Y34180213D01*
X20052370Y34383629D01*
X19539100Y34596757D01*
X18983339Y34597242D01*
X18469697Y34385010D01*
X18076371Y33992370D01*
X17990051Y33784488D01*
X17905010Y33990303D01*
X17512370Y34383629D01*
X16999100Y34596757D01*
X16443339Y34597242D01*
X15929697Y34385010D01*
X15536371Y33992370D01*
X15450051Y33784488D01*
X15365010Y33990303D01*
X14972370Y34383629D01*
X14459100Y34596757D01*
X13903339Y34597242D01*
X13389697Y34385010D01*
X12996371Y33992370D01*
X12783243Y33479100D01*
X12782758Y32923339D01*
X12994990Y32409697D01*
X13387630Y32016371D01*
X13900900Y31803243D01*
X14353858Y31802848D01*
X19038352Y27118353D01*
X19297794Y26945000D01*
X13280000Y26945000D01*
X13003898Y26890080D01*
X12948978Y26879156D01*
X12668352Y26691647D01*
X11988356Y26011650D01*
X11988353Y26011648D01*
X10088353Y24111647D01*
X9900844Y23831021D01*
X9835000Y23500000D01*
X9835000Y19418295D01*
X9188353Y18771647D01*
X9000844Y18491021D01*
X8964963Y18310634D01*
X8902235Y18298157D01*
X8692191Y18157809D01*
X8551843Y17947765D01*
X8502560Y17700000D01*
X8502560Y16200000D01*
X8551843Y15952235D01*
X8692191Y15742191D01*
X8902235Y15601843D01*
X8911500Y15600000D01*
X8902235Y15598157D01*
X8692191Y15457809D01*
X8551843Y15247765D01*
X8502560Y15000000D01*
X8502560Y13500000D01*
X8551843Y13252235D01*
X8653704Y13099791D01*
X8500844Y12871021D01*
X8492786Y12830509D01*
X8365000Y12958294D01*
X8365000Y24241706D01*
X11711647Y27588353D01*
X11899156Y27868979D01*
X11965000Y28200000D01*
X11965000Y35841706D01*
X13358295Y37235000D01*
X24241706Y37235000D01*
X26015000Y35461706D01*
M02*
