M48
METRIC,TZ
T1C0.762
T2C0.800
T3C1.000
T4C1.200
T5C2.499
%
G90
G05
T1
X14180Y48320
X14180Y33200
X16720Y48320
X16720Y33200
X19260Y48320
X19260Y33200
X21800Y48320
X21800Y33200
X23120Y45700
X24340Y48320
X24340Y33200
X25610Y45780
X26880Y48320
X26880Y33200
X29420Y48320
X29420Y33200
X31960Y48320
X31960Y33200
X34500Y48320
X34500Y33200
X37040Y48320
X37040Y33200
X39580Y48320
X39580Y33200
X42120Y48320
X42120Y33200
T2
X2870Y62000
X34036Y23622
X34544Y43942
X34800Y39900
X42130Y26080
X42164Y42926
X43942Y58420
X44958Y45466
X45466Y32766
X56700Y28735
X66300Y38100
X67056Y50292
X69570Y34530
X74168Y64770
X75184Y46482
T3
X52220Y56540
X52220Y54000
X54760Y56540
X54760Y54000
X57300Y56540
X57300Y54000
X59840Y56540
X59840Y54000
X62380Y56540
X62380Y54000
X64920Y56540
X64920Y54000
X67460Y56540
X67460Y54000
X70000Y56540
X70000Y54000
X53100Y73400
X55640Y73400
X58180Y73400
X47400Y73400
X28900Y61100
X32700Y61100
T4
X28900Y72000
X32400Y72000
X67600Y72900
X71100Y72900
X74600Y72900
X78100Y72900
X3920Y74400
X9000Y74400
X14080Y74400
X19160Y74400
T5
X74950Y39960
X39878Y5080
X4826Y39878
X40140Y74990
T0
M30
