G04 #@! TF.GenerationSoftware,KiCad,Pcbnew,(2017-06-12 revision 8590a2299)-makepkg*
G04 #@! TF.CreationDate,2017-06-16T20:28:46+02:00*
G04 #@! TF.ProjectId,phloggerV2,70686C6F6767657256322E6B69636164,C*
G04 #@! TF.FileFunction,Copper,L1,Top,Signal*
G04 #@! TF.FilePolarity,Positive*
%FSLAX46Y46*%
G04 Gerber Fmt 4.6, Leading zero omitted, Abs format (unit mm)*
G04 Created by KiCad (PCBNEW (2017-06-12 revision 8590a2299)-makepkg) date 06/16/17 20:28:46*
%MOMM*%
%LPD*%
G01*
G04 APERTURE LIST*
%ADD10C,0.100000*%
%ADD11C,5.999480*%
%ADD12R,1.700000X1.700000*%
%ADD13O,1.700000X1.700000*%
%ADD14C,2.000000*%
%ADD15R,2.000000X2.000000*%
%ADD16R,2.540000X3.510000*%
%ADD17O,1.800000X3.600000*%
%ADD18R,1.800000X3.600000*%
%ADD19C,1.524000*%
%ADD20C,1.500000*%
%ADD21C,0.460000*%
%ADD22C,0.254000*%
G04 APERTURE END LIST*
D10*
D11*
X40140000Y74990000D03*
X74950000Y39960000D03*
X4826000Y39878000D03*
X39878000Y5080000D03*
D12*
X52220000Y54000000D03*
D13*
X54760000Y54000000D03*
X57300000Y54000000D03*
X59840000Y54000000D03*
X62380000Y54000000D03*
X64920000Y54000000D03*
X67460000Y54000000D03*
X70000000Y54000000D03*
X70000000Y56540000D03*
X67460000Y56540000D03*
X64920000Y56540000D03*
X62380000Y56540000D03*
X59840000Y56540000D03*
X57300000Y56540000D03*
X54760000Y56540000D03*
X52220000Y56540000D03*
D14*
X32700000Y61100000D03*
D15*
X28900000Y61100000D03*
D16*
X4220000Y14600000D03*
X33580000Y14600000D03*
D17*
X32400000Y72000000D03*
D18*
X28900000Y72000000D03*
D12*
X47400000Y73400000D03*
D17*
X19160000Y74400000D03*
X14080000Y74400000D03*
X9000000Y74400000D03*
D18*
X3920000Y74400000D03*
D17*
X78100000Y72900000D03*
X74600000Y72900000D03*
X71100000Y72900000D03*
D18*
X67600000Y72900000D03*
D19*
X14180000Y33200000D03*
X16720000Y33200000D03*
X19260000Y33200000D03*
X21800000Y33200000D03*
X24340000Y33200000D03*
X26880000Y33200000D03*
X29420000Y33200000D03*
X31960000Y33200000D03*
X34500000Y33200000D03*
X37040000Y33200000D03*
X39580000Y33200000D03*
X42120000Y33200000D03*
X42120000Y48320000D03*
X39580000Y48320000D03*
X37040000Y48320000D03*
X34500000Y48320000D03*
X31960000Y48320000D03*
X29420000Y48320000D03*
X26880000Y48320000D03*
X24340000Y48320000D03*
X25610000Y45780000D03*
X23120000Y45700000D03*
X21800000Y48320000D03*
X19260000Y48320000D03*
X16720000Y48320000D03*
X14180000Y48320000D03*
D13*
X58180000Y73400000D03*
X55640000Y73400000D03*
D12*
X53100000Y73400000D03*
D20*
X34036000Y23622000D03*
X42130001Y26080000D03*
X75184000Y46482018D03*
X2870000Y62000000D03*
X67056000Y50292000D03*
X66300000Y38100000D03*
X74168000Y64770000D03*
X45466000Y32766000D03*
X43942000Y58420000D03*
X69570000Y34530000D03*
X56700150Y28734834D03*
X34544000Y43942000D03*
X42164000Y42926000D03*
X44958000Y45466000D03*
X34800000Y39900000D03*
D21*
X4220000Y14600000D02*
X4220000Y16815000D01*
X4220000Y16815000D02*
X3302000Y17733000D01*
X3302000Y17733000D02*
X3302000Y21844000D01*
X33782000Y26416000D02*
X34036000Y26162000D01*
X3302000Y21844000D02*
X7874000Y26416000D01*
X7874000Y26416000D02*
X33782000Y26416000D01*
X34036000Y26162000D02*
X34036000Y23622000D01*
X42880000Y26829999D02*
X42130001Y26080000D01*
X51850001Y35800000D02*
X42880000Y26829999D01*
X66350000Y35800000D02*
X51850001Y35800000D01*
X69060000Y40358018D02*
X69060000Y38510000D01*
X75184000Y46482018D02*
X69060000Y40358018D01*
X69060000Y38510000D02*
X66350000Y35800000D01*
X48960000Y67020000D02*
X53100000Y71160000D01*
X53100000Y71160000D02*
X53100000Y73400000D01*
X31620000Y67020000D02*
X48960000Y67020000D01*
X28900000Y72000000D02*
X28900000Y69740000D01*
X28900000Y69740000D02*
X31620000Y67020000D01*
X68500000Y65800000D02*
X75184000Y59116000D01*
X53100000Y72090000D02*
X59390000Y65800000D01*
X53100000Y73400000D02*
X53100000Y72090000D01*
X75184000Y59116000D02*
X75184000Y46482018D01*
X59390000Y65800000D02*
X68500000Y65800000D01*
X6400000Y56750000D02*
X2870000Y60280000D01*
X2870000Y60280000D02*
X2870000Y62000000D01*
X14550000Y56750000D02*
X6400000Y56750000D01*
X28900000Y72000000D02*
X28900000Y71100000D01*
X28900000Y71100000D02*
X14550000Y56750000D01*
X66300000Y49536000D02*
X67056000Y50292000D01*
X66300000Y38100000D02*
X66300000Y49536000D01*
X48216001Y41707599D02*
X47739999Y41231597D01*
X47739999Y35039999D02*
X45466000Y32766000D01*
X48216001Y54145999D02*
X48216001Y41707599D01*
X47739999Y41231597D02*
X47739999Y35039999D01*
X43942000Y58420000D02*
X48216001Y54145999D01*
X68509340Y34530000D02*
X69570000Y34530000D01*
X62495316Y34530000D02*
X68509340Y34530000D01*
X56700150Y28734834D02*
X62495316Y34530000D01*
X40849340Y43180000D02*
X35306000Y43180000D01*
X35306000Y43180000D02*
X34544000Y43942000D01*
X42164000Y42926000D02*
X41103340Y42926000D01*
X41103340Y42926000D02*
X40849340Y43180000D01*
X46723999Y43700001D02*
X44958000Y45466000D01*
X46723999Y39633597D02*
X46723999Y43700001D01*
X34800000Y39900000D02*
X35680001Y39019999D01*
X35680001Y39019999D02*
X46110401Y39019999D01*
X46110401Y39019999D02*
X46723999Y39633597D01*
D22*
G36*
X81307000Y735000D02*
X735000Y735000D01*
X735000Y4360177D01*
X36242630Y4360177D01*
X36794820Y3023775D01*
X37816397Y2000414D01*
X39151834Y1445892D01*
X40597823Y1444630D01*
X41934225Y1996820D01*
X42957586Y3018397D01*
X43512108Y4353834D01*
X43513370Y5799823D01*
X42961180Y7136225D01*
X41939603Y8159586D01*
X40604166Y8714108D01*
X39158177Y8715370D01*
X37821775Y8163180D01*
X36798414Y7141603D01*
X36243892Y5806166D01*
X36242630Y4360177D01*
X735000Y4360177D01*
X735000Y16355000D01*
X2302560Y16355000D01*
X2302560Y12845000D01*
X2351843Y12597235D01*
X2492191Y12387191D01*
X2702235Y12246843D01*
X2950000Y12197560D01*
X5490000Y12197560D01*
X5737765Y12246843D01*
X5947809Y12387191D01*
X6088157Y12597235D01*
X6137440Y12845000D01*
X6137440Y14314250D01*
X31675000Y14314250D01*
X31675000Y12718690D01*
X31771673Y12485301D01*
X31950302Y12306673D01*
X32183691Y12210000D01*
X33294250Y12210000D01*
X33453000Y12368750D01*
X33453000Y14473000D01*
X33707000Y14473000D01*
X33707000Y12368750D01*
X33865750Y12210000D01*
X34976309Y12210000D01*
X35209698Y12306673D01*
X35388327Y12485301D01*
X35485000Y12718690D01*
X35485000Y14314250D01*
X35326250Y14473000D01*
X33707000Y14473000D01*
X33453000Y14473000D01*
X31833750Y14473000D01*
X31675000Y14314250D01*
X6137440Y14314250D01*
X6137440Y16355000D01*
X6112316Y16481310D01*
X31675000Y16481310D01*
X31675000Y14885750D01*
X31833750Y14727000D01*
X33453000Y14727000D01*
X33453000Y16831250D01*
X33707000Y16831250D01*
X33707000Y14727000D01*
X35326250Y14727000D01*
X35485000Y14885750D01*
X35485000Y16481310D01*
X35388327Y16714699D01*
X35209698Y16893327D01*
X34976309Y16990000D01*
X33865750Y16990000D01*
X33707000Y16831250D01*
X33453000Y16831250D01*
X33294250Y16990000D01*
X32183691Y16990000D01*
X31950302Y16893327D01*
X31771673Y16714699D01*
X31675000Y16481310D01*
X6112316Y16481310D01*
X6088157Y16602765D01*
X5947809Y16812809D01*
X5737765Y16953157D01*
X5490000Y17002440D01*
X5047716Y17002440D01*
X5019156Y17146021D01*
X4831647Y17426647D01*
X4167000Y18091294D01*
X4167000Y21485706D01*
X8232295Y25551000D01*
X33171000Y25551000D01*
X33171000Y24715488D01*
X32862539Y24407564D01*
X32651241Y23898702D01*
X32650760Y23347715D01*
X32861169Y22838485D01*
X33250436Y22448539D01*
X33759298Y22237241D01*
X34310285Y22236760D01*
X34819515Y22447169D01*
X35209461Y22836436D01*
X35420759Y23345298D01*
X35421240Y23896285D01*
X35210831Y24405515D01*
X34901000Y24715886D01*
X34901000Y26162000D01*
X34835156Y26493021D01*
X34835156Y26493022D01*
X34647647Y26773648D01*
X34393647Y27027647D01*
X34113021Y27215156D01*
X33782000Y27281000D01*
X7874000Y27281000D01*
X7597898Y27226080D01*
X7542978Y27215156D01*
X7262352Y27027647D01*
X2690353Y22455647D01*
X2502844Y22175021D01*
X2437000Y21844000D01*
X2437000Y17733000D01*
X2497937Y17426647D01*
X2502844Y17401979D01*
X2690353Y17121353D01*
X2832615Y16979091D01*
X2702235Y16953157D01*
X2492191Y16812809D01*
X2351843Y16602765D01*
X2302560Y16355000D01*
X735000Y16355000D01*
X735000Y32923339D01*
X12782758Y32923339D01*
X12994990Y32409697D01*
X13387630Y32016371D01*
X13900900Y31803243D01*
X14456661Y31802758D01*
X14970303Y32014990D01*
X15363629Y32407630D01*
X15449949Y32615512D01*
X15534990Y32409697D01*
X15927630Y32016371D01*
X16440900Y31803243D01*
X16996661Y31802758D01*
X17510303Y32014990D01*
X17903629Y32407630D01*
X17989949Y32615512D01*
X18074990Y32409697D01*
X18467630Y32016371D01*
X18980900Y31803243D01*
X19536661Y31802758D01*
X20050303Y32014990D01*
X20255457Y32219787D01*
X20999392Y32219787D01*
X21068857Y31977603D01*
X21592302Y31790856D01*
X22147368Y31818638D01*
X22531143Y31977603D01*
X22600608Y32219787D01*
X21800000Y33020395D01*
X20999392Y32219787D01*
X20255457Y32219787D01*
X20443629Y32407630D01*
X20523395Y32599727D01*
X20577603Y32468857D01*
X20819787Y32399392D01*
X21620395Y33200000D01*
X21979605Y33200000D01*
X22780213Y32399392D01*
X23022397Y32468857D01*
X23072509Y32609318D01*
X23154990Y32409697D01*
X23547630Y32016371D01*
X24060900Y31803243D01*
X24616661Y31802758D01*
X25130303Y32014990D01*
X25523629Y32407630D01*
X25609949Y32615512D01*
X25694990Y32409697D01*
X26087630Y32016371D01*
X26600900Y31803243D01*
X27156661Y31802758D01*
X27670303Y32014990D01*
X28063629Y32407630D01*
X28149949Y32615512D01*
X28234990Y32409697D01*
X28627630Y32016371D01*
X29140900Y31803243D01*
X29696661Y31802758D01*
X30210303Y32014990D01*
X30603629Y32407630D01*
X30689949Y32615512D01*
X30774990Y32409697D01*
X31167630Y32016371D01*
X31680900Y31803243D01*
X32236661Y31802758D01*
X32750303Y32014990D01*
X33143629Y32407630D01*
X33229949Y32615512D01*
X33314990Y32409697D01*
X33707630Y32016371D01*
X34220900Y31803243D01*
X34776661Y31802758D01*
X35290303Y32014990D01*
X35683629Y32407630D01*
X35769949Y32615512D01*
X35854990Y32409697D01*
X36247630Y32016371D01*
X36760900Y31803243D01*
X37316661Y31802758D01*
X37830303Y32014990D01*
X38223629Y32407630D01*
X38309949Y32615512D01*
X38394990Y32409697D01*
X38787630Y32016371D01*
X39300900Y31803243D01*
X39856661Y31802758D01*
X40370303Y32014990D01*
X40763629Y32407630D01*
X40849949Y32615512D01*
X40934990Y32409697D01*
X41327630Y32016371D01*
X41840900Y31803243D01*
X42396661Y31802758D01*
X42910303Y32014990D01*
X43303629Y32407630D01*
X43516757Y32920900D01*
X43517242Y33476661D01*
X43305010Y33990303D01*
X42912370Y34383629D01*
X42399100Y34596757D01*
X41843339Y34597242D01*
X41329697Y34385010D01*
X40936371Y33992370D01*
X40850051Y33784488D01*
X40765010Y33990303D01*
X40372370Y34383629D01*
X39859100Y34596757D01*
X39303339Y34597242D01*
X38789697Y34385010D01*
X38396371Y33992370D01*
X38310051Y33784488D01*
X38225010Y33990303D01*
X37832370Y34383629D01*
X37319100Y34596757D01*
X36763339Y34597242D01*
X36249697Y34385010D01*
X35856371Y33992370D01*
X35770051Y33784488D01*
X35685010Y33990303D01*
X35292370Y34383629D01*
X34779100Y34596757D01*
X34223339Y34597242D01*
X33709697Y34385010D01*
X33316371Y33992370D01*
X33230051Y33784488D01*
X33145010Y33990303D01*
X32752370Y34383629D01*
X32239100Y34596757D01*
X31683339Y34597242D01*
X31169697Y34385010D01*
X30776371Y33992370D01*
X30690051Y33784488D01*
X30605010Y33990303D01*
X30212370Y34383629D01*
X29699100Y34596757D01*
X29143339Y34597242D01*
X28629697Y34385010D01*
X28236371Y33992370D01*
X28150051Y33784488D01*
X28065010Y33990303D01*
X27672370Y34383629D01*
X27159100Y34596757D01*
X26603339Y34597242D01*
X26089697Y34385010D01*
X25696371Y33992370D01*
X25610051Y33784488D01*
X25525010Y33990303D01*
X25132370Y34383629D01*
X24619100Y34596757D01*
X24063339Y34597242D01*
X23549697Y34385010D01*
X23156371Y33992370D01*
X23076605Y33800273D01*
X23022397Y33931143D01*
X22780213Y34000608D01*
X21979605Y33200000D01*
X21620395Y33200000D01*
X20819787Y34000608D01*
X20577603Y33931143D01*
X20527491Y33790682D01*
X20445010Y33990303D01*
X20255432Y34180213D01*
X20999392Y34180213D01*
X21800000Y33379605D01*
X22600608Y34180213D01*
X22531143Y34422397D01*
X22007698Y34609144D01*
X21452632Y34581362D01*
X21068857Y34422397D01*
X20999392Y34180213D01*
X20255432Y34180213D01*
X20052370Y34383629D01*
X19539100Y34596757D01*
X18983339Y34597242D01*
X18469697Y34385010D01*
X18076371Y33992370D01*
X17990051Y33784488D01*
X17905010Y33990303D01*
X17512370Y34383629D01*
X16999100Y34596757D01*
X16443339Y34597242D01*
X15929697Y34385010D01*
X15536371Y33992370D01*
X15450051Y33784488D01*
X15365010Y33990303D01*
X14972370Y34383629D01*
X14459100Y34596757D01*
X13903339Y34597242D01*
X13389697Y34385010D01*
X12996371Y33992370D01*
X12783243Y33479100D01*
X12782758Y32923339D01*
X735000Y32923339D01*
X735000Y39158177D01*
X1190630Y39158177D01*
X1742820Y37821775D01*
X2764397Y36798414D01*
X4099834Y36243892D01*
X5545823Y36242630D01*
X6882225Y36794820D01*
X7905586Y37816397D01*
X8460108Y39151834D01*
X8460521Y39625715D01*
X33414760Y39625715D01*
X33625169Y39116485D01*
X34014436Y38726539D01*
X34523298Y38515241D01*
X34961847Y38514858D01*
X35068353Y38408352D01*
X35348979Y38220843D01*
X35403899Y38209919D01*
X35680001Y38154999D01*
X46110401Y38154999D01*
X46441422Y38220843D01*
X46722048Y38408352D01*
X46874999Y38561303D01*
X46874999Y35398294D01*
X45627565Y34150860D01*
X45191715Y34151240D01*
X44682485Y33940831D01*
X44292539Y33551564D01*
X44081241Y33042702D01*
X44080760Y32491715D01*
X44291169Y31982485D01*
X44680436Y31592539D01*
X45189298Y31381241D01*
X45740285Y31380760D01*
X46249515Y31591169D01*
X46639461Y31980436D01*
X46850759Y32489298D01*
X46851142Y32927848D01*
X48351646Y34428351D01*
X48539155Y34708977D01*
X48584113Y34935000D01*
X48604999Y35039999D01*
X48604999Y40873302D01*
X48827648Y41095951D01*
X49015156Y41376577D01*
X49015157Y41376578D01*
X49081001Y41707599D01*
X49081001Y53714250D01*
X50735000Y53714250D01*
X50735000Y53023691D01*
X50831673Y52790302D01*
X51010301Y52611673D01*
X51243690Y52515000D01*
X51934250Y52515000D01*
X52093000Y52673750D01*
X52093000Y53873000D01*
X50893750Y53873000D01*
X50735000Y53714250D01*
X49081001Y53714250D01*
X49081001Y54145999D01*
X49015157Y54477020D01*
X49015157Y54477021D01*
X48827648Y54757646D01*
X48608985Y54976309D01*
X50735000Y54976309D01*
X50735000Y54285750D01*
X50893750Y54127000D01*
X52093000Y54127000D01*
X52093000Y56413000D01*
X50899181Y56413000D01*
X50778514Y56183108D01*
X51024817Y55658642D01*
X51224208Y55476930D01*
X51010301Y55388327D01*
X50831673Y55209698D01*
X50735000Y54976309D01*
X48608985Y54976309D01*
X46688402Y56896892D01*
X50778514Y56896892D01*
X50899181Y56667000D01*
X52093000Y56667000D01*
X52093000Y57860155D01*
X52347000Y57860155D01*
X52347000Y56667000D01*
X52367000Y56667000D01*
X52367000Y56413000D01*
X52347000Y56413000D01*
X52347000Y54127000D01*
X52367000Y54127000D01*
X52367000Y53873000D01*
X52347000Y53873000D01*
X52347000Y52673750D01*
X52505750Y52515000D01*
X53196310Y52515000D01*
X53429699Y52611673D01*
X53608327Y52790302D01*
X53680597Y52964777D01*
X53709946Y52920853D01*
X54191715Y52598946D01*
X54760000Y52485907D01*
X55328285Y52598946D01*
X55810054Y52920853D01*
X56030000Y53250026D01*
X56249946Y52920853D01*
X56731715Y52598946D01*
X57300000Y52485907D01*
X57868285Y52598946D01*
X58350054Y52920853D01*
X58570000Y53250026D01*
X58789946Y52920853D01*
X59271715Y52598946D01*
X59840000Y52485907D01*
X60408285Y52598946D01*
X60890054Y52920853D01*
X61110000Y53250026D01*
X61329946Y52920853D01*
X61811715Y52598946D01*
X62380000Y52485907D01*
X62948285Y52598946D01*
X63430054Y52920853D01*
X63650000Y53250026D01*
X63869946Y52920853D01*
X64351715Y52598946D01*
X64920000Y52485907D01*
X65488285Y52598946D01*
X65970054Y52920853D01*
X66190000Y53250026D01*
X66409946Y52920853D01*
X66891715Y52598946D01*
X67460000Y52485907D01*
X68028285Y52598946D01*
X68510054Y52920853D01*
X68737702Y53261553D01*
X68804817Y53118642D01*
X69233076Y52728355D01*
X69643110Y52558524D01*
X69873000Y52679845D01*
X69873000Y53873000D01*
X70127000Y53873000D01*
X70127000Y52679845D01*
X70356890Y52558524D01*
X70766924Y52728355D01*
X71195183Y53118642D01*
X71441486Y53643108D01*
X71320819Y53873000D01*
X70127000Y53873000D01*
X69873000Y53873000D01*
X69853000Y53873000D01*
X69853000Y54127000D01*
X69873000Y54127000D01*
X69873000Y56413000D01*
X70127000Y56413000D01*
X70127000Y54127000D01*
X71320819Y54127000D01*
X71441486Y54356892D01*
X71195183Y54881358D01*
X70768729Y55270000D01*
X71195183Y55658642D01*
X71441486Y56183108D01*
X71320819Y56413000D01*
X70127000Y56413000D01*
X69873000Y56413000D01*
X69853000Y56413000D01*
X69853000Y56667000D01*
X69873000Y56667000D01*
X69873000Y57860155D01*
X70127000Y57860155D01*
X70127000Y56667000D01*
X71320819Y56667000D01*
X71441486Y56896892D01*
X71195183Y57421358D01*
X70766924Y57811645D01*
X70356890Y57981476D01*
X70127000Y57860155D01*
X69873000Y57860155D01*
X69643110Y57981476D01*
X69233076Y57811645D01*
X68804817Y57421358D01*
X68737702Y57278447D01*
X68510054Y57619147D01*
X68028285Y57941054D01*
X67460000Y58054093D01*
X66891715Y57941054D01*
X66409946Y57619147D01*
X66190000Y57289974D01*
X65970054Y57619147D01*
X65488285Y57941054D01*
X64920000Y58054093D01*
X64351715Y57941054D01*
X63869946Y57619147D01*
X63650000Y57289974D01*
X63430054Y57619147D01*
X62948285Y57941054D01*
X62380000Y58054093D01*
X61811715Y57941054D01*
X61329946Y57619147D01*
X61110000Y57289974D01*
X60890054Y57619147D01*
X60408285Y57941054D01*
X59840000Y58054093D01*
X59271715Y57941054D01*
X58789946Y57619147D01*
X58570000Y57289974D01*
X58350054Y57619147D01*
X57868285Y57941054D01*
X57300000Y58054093D01*
X56731715Y57941054D01*
X56249946Y57619147D01*
X56030000Y57289974D01*
X55810054Y57619147D01*
X55328285Y57941054D01*
X54760000Y58054093D01*
X54191715Y57941054D01*
X53709946Y57619147D01*
X53482298Y57278447D01*
X53415183Y57421358D01*
X52986924Y57811645D01*
X52576890Y57981476D01*
X52347000Y57860155D01*
X52093000Y57860155D01*
X51863110Y57981476D01*
X51453076Y57811645D01*
X51024817Y57421358D01*
X50778514Y56896892D01*
X46688402Y56896892D01*
X45326860Y58258434D01*
X45327240Y58694285D01*
X45116831Y59203515D01*
X44727564Y59593461D01*
X44218702Y59804759D01*
X43667715Y59805240D01*
X43158485Y59594831D01*
X42768539Y59205564D01*
X42557241Y58696702D01*
X42556760Y58145715D01*
X42767169Y57636485D01*
X43156436Y57246539D01*
X43665298Y57035241D01*
X44103848Y57034858D01*
X47351001Y53787705D01*
X47351001Y44288669D01*
X47335647Y44311648D01*
X46342860Y45304435D01*
X46343240Y45740285D01*
X46132831Y46249515D01*
X45743564Y46639461D01*
X45234702Y46850759D01*
X44683715Y46851240D01*
X44174485Y46640831D01*
X43784539Y46251564D01*
X43573241Y45742702D01*
X43572760Y45191715D01*
X43783169Y44682485D01*
X44172436Y44292539D01*
X44681298Y44081241D01*
X45119847Y44080858D01*
X45858999Y43341706D01*
X45858999Y39991892D01*
X45752107Y39884999D01*
X36184987Y39884999D01*
X36185240Y40174285D01*
X35974831Y40683515D01*
X35585564Y41073461D01*
X35076702Y41284759D01*
X34525715Y41285240D01*
X34016485Y41074831D01*
X33626539Y40685564D01*
X33415241Y40176702D01*
X33414760Y39625715D01*
X8460521Y39625715D01*
X8461370Y40597823D01*
X7909180Y41934225D01*
X6887603Y42957586D01*
X5552166Y43512108D01*
X4106177Y43513370D01*
X2769775Y42961180D01*
X1746414Y41939603D01*
X1191892Y40604166D01*
X1190630Y39158177D01*
X735000Y39158177D01*
X735000Y43667715D01*
X33158760Y43667715D01*
X33369169Y43158485D01*
X33758436Y42768539D01*
X34267298Y42557241D01*
X34711562Y42556853D01*
X34974979Y42380844D01*
X35306000Y42315000D01*
X40491045Y42315000D01*
X40491692Y42314353D01*
X40772318Y42126844D01*
X40827238Y42115920D01*
X41062379Y42069148D01*
X41378436Y41752539D01*
X41887298Y41541241D01*
X42438285Y41540760D01*
X42947515Y41751169D01*
X43337461Y42140436D01*
X43548759Y42649298D01*
X43549240Y43200285D01*
X43338831Y43709515D01*
X42949564Y44099461D01*
X42440702Y44310759D01*
X41889715Y44311240D01*
X41380485Y44100831D01*
X41227228Y43947841D01*
X41180361Y43979156D01*
X40849340Y44045000D01*
X35929090Y44045000D01*
X35929240Y44216285D01*
X35718831Y44725515D01*
X35329564Y45115461D01*
X34820702Y45326759D01*
X34269715Y45327240D01*
X33760485Y45116831D01*
X33370539Y44727564D01*
X33159241Y44218702D01*
X33158760Y43667715D01*
X735000Y43667715D01*
X735000Y45423339D01*
X21722758Y45423339D01*
X21934990Y44909697D01*
X22327630Y44516371D01*
X22840900Y44303243D01*
X23396661Y44302758D01*
X23910303Y44514990D01*
X24303629Y44907630D01*
X24381456Y45095058D01*
X24424990Y44989697D01*
X24817630Y44596371D01*
X25330900Y44383243D01*
X25886661Y44382758D01*
X26400303Y44594990D01*
X26793629Y44987630D01*
X27006757Y45500900D01*
X27007242Y46056661D01*
X26795010Y46570303D01*
X26402370Y46963629D01*
X25889100Y47176757D01*
X25333339Y47177242D01*
X24819697Y46965010D01*
X24426371Y46572370D01*
X24348544Y46384942D01*
X24305010Y46490303D01*
X23912370Y46883629D01*
X23399100Y47096757D01*
X22843339Y47097242D01*
X22329697Y46885010D01*
X21936371Y46492370D01*
X21723243Y45979100D01*
X21722758Y45423339D01*
X735000Y45423339D01*
X735000Y48043339D01*
X12782758Y48043339D01*
X12994990Y47529697D01*
X13387630Y47136371D01*
X13900900Y46923243D01*
X14456661Y46922758D01*
X14970303Y47134990D01*
X15175457Y47339787D01*
X15919392Y47339787D01*
X15988857Y47097603D01*
X16512302Y46910856D01*
X17067368Y46938638D01*
X17451143Y47097603D01*
X17520608Y47339787D01*
X16720000Y48140395D01*
X15919392Y47339787D01*
X15175457Y47339787D01*
X15363629Y47527630D01*
X15443395Y47719727D01*
X15497603Y47588857D01*
X15739787Y47519392D01*
X16540395Y48320000D01*
X16899605Y48320000D01*
X17700213Y47519392D01*
X17942397Y47588857D01*
X17992509Y47729318D01*
X18074990Y47529697D01*
X18467630Y47136371D01*
X18980900Y46923243D01*
X19536661Y46922758D01*
X20050303Y47134990D01*
X20443629Y47527630D01*
X20529949Y47735512D01*
X20614990Y47529697D01*
X21007630Y47136371D01*
X21520900Y46923243D01*
X22076661Y46922758D01*
X22590303Y47134990D01*
X22983629Y47527630D01*
X23069949Y47735512D01*
X23154990Y47529697D01*
X23547630Y47136371D01*
X24060900Y46923243D01*
X24616661Y46922758D01*
X25130303Y47134990D01*
X25523629Y47527630D01*
X25609949Y47735512D01*
X25694990Y47529697D01*
X26087630Y47136371D01*
X26600900Y46923243D01*
X27156661Y46922758D01*
X27670303Y47134990D01*
X28063629Y47527630D01*
X28149949Y47735512D01*
X28234990Y47529697D01*
X28627630Y47136371D01*
X29140900Y46923243D01*
X29696661Y46922758D01*
X30210303Y47134990D01*
X30603629Y47527630D01*
X30689949Y47735512D01*
X30774990Y47529697D01*
X31167630Y47136371D01*
X31680900Y46923243D01*
X32236661Y46922758D01*
X32750303Y47134990D01*
X33143629Y47527630D01*
X33229949Y47735512D01*
X33314990Y47529697D01*
X33707630Y47136371D01*
X34220900Y46923243D01*
X34776661Y46922758D01*
X35290303Y47134990D01*
X35683629Y47527630D01*
X35769949Y47735512D01*
X35854990Y47529697D01*
X36247630Y47136371D01*
X36760900Y46923243D01*
X37316661Y46922758D01*
X37830303Y47134990D01*
X38223629Y47527630D01*
X38309949Y47735512D01*
X38394990Y47529697D01*
X38787630Y47136371D01*
X39300900Y46923243D01*
X39856661Y46922758D01*
X40370303Y47134990D01*
X40763629Y47527630D01*
X40849949Y47735512D01*
X40934990Y47529697D01*
X41327630Y47136371D01*
X41840900Y46923243D01*
X42396661Y46922758D01*
X42910303Y47134990D01*
X43303629Y47527630D01*
X43516757Y48040900D01*
X43517242Y48596661D01*
X43305010Y49110303D01*
X42912370Y49503629D01*
X42399100Y49716757D01*
X41843339Y49717242D01*
X41329697Y49505010D01*
X40936371Y49112370D01*
X40850051Y48904488D01*
X40765010Y49110303D01*
X40372370Y49503629D01*
X39859100Y49716757D01*
X39303339Y49717242D01*
X38789697Y49505010D01*
X38396371Y49112370D01*
X38310051Y48904488D01*
X38225010Y49110303D01*
X37832370Y49503629D01*
X37319100Y49716757D01*
X36763339Y49717242D01*
X36249697Y49505010D01*
X35856371Y49112370D01*
X35770051Y48904488D01*
X35685010Y49110303D01*
X35292370Y49503629D01*
X34779100Y49716757D01*
X34223339Y49717242D01*
X33709697Y49505010D01*
X33316371Y49112370D01*
X33230051Y48904488D01*
X33145010Y49110303D01*
X32752370Y49503629D01*
X32239100Y49716757D01*
X31683339Y49717242D01*
X31169697Y49505010D01*
X30776371Y49112370D01*
X30690051Y48904488D01*
X30605010Y49110303D01*
X30212370Y49503629D01*
X29699100Y49716757D01*
X29143339Y49717242D01*
X28629697Y49505010D01*
X28236371Y49112370D01*
X28150051Y48904488D01*
X28065010Y49110303D01*
X27672370Y49503629D01*
X27159100Y49716757D01*
X26603339Y49717242D01*
X26089697Y49505010D01*
X25696371Y49112370D01*
X25610051Y48904488D01*
X25525010Y49110303D01*
X25132370Y49503629D01*
X24619100Y49716757D01*
X24063339Y49717242D01*
X23549697Y49505010D01*
X23156371Y49112370D01*
X23070051Y48904488D01*
X22985010Y49110303D01*
X22592370Y49503629D01*
X22079100Y49716757D01*
X21523339Y49717242D01*
X21009697Y49505010D01*
X20616371Y49112370D01*
X20530051Y48904488D01*
X20445010Y49110303D01*
X20052370Y49503629D01*
X19539100Y49716757D01*
X18983339Y49717242D01*
X18469697Y49505010D01*
X18076371Y49112370D01*
X17996605Y48920273D01*
X17942397Y49051143D01*
X17700213Y49120608D01*
X16899605Y48320000D01*
X16540395Y48320000D01*
X15739787Y49120608D01*
X15497603Y49051143D01*
X15447491Y48910682D01*
X15365010Y49110303D01*
X15175432Y49300213D01*
X15919392Y49300213D01*
X16720000Y48499605D01*
X17520608Y49300213D01*
X17451143Y49542397D01*
X16927698Y49729144D01*
X16372632Y49701362D01*
X15988857Y49542397D01*
X15919392Y49300213D01*
X15175432Y49300213D01*
X14972370Y49503629D01*
X14459100Y49716757D01*
X13903339Y49717242D01*
X13389697Y49505010D01*
X12996371Y49112370D01*
X12783243Y48599100D01*
X12782758Y48043339D01*
X735000Y48043339D01*
X735000Y61725715D01*
X1484760Y61725715D01*
X1695169Y61216485D01*
X2005000Y60906114D01*
X2005000Y60280000D01*
X2064475Y59981000D01*
X2070844Y59948979D01*
X2258353Y59668353D01*
X5788353Y56138353D01*
X6068979Y55950844D01*
X6400000Y55885000D01*
X14550000Y55885000D01*
X14881021Y55950844D01*
X15161647Y56138353D01*
X21123294Y62100000D01*
X27252560Y62100000D01*
X27252560Y60100000D01*
X27301843Y59852235D01*
X27442191Y59642191D01*
X27652235Y59501843D01*
X27900000Y59452560D01*
X29900000Y59452560D01*
X30147765Y59501843D01*
X30357809Y59642191D01*
X30498157Y59852235D01*
X30517099Y59947468D01*
X31727073Y59947468D01*
X31825736Y59680613D01*
X32435461Y59454092D01*
X33085460Y59478144D01*
X33574264Y59680613D01*
X33672927Y59947468D01*
X32700000Y60920395D01*
X31727073Y59947468D01*
X30517099Y59947468D01*
X30547440Y60100000D01*
X30547440Y61364539D01*
X31054092Y61364539D01*
X31078144Y60714540D01*
X31280613Y60225736D01*
X31547468Y60127073D01*
X32520395Y61100000D01*
X32879605Y61100000D01*
X33852532Y60127073D01*
X34119387Y60225736D01*
X34345908Y60835461D01*
X34321856Y61485460D01*
X34119387Y61974264D01*
X33852532Y62072927D01*
X32879605Y61100000D01*
X32520395Y61100000D01*
X31547468Y62072927D01*
X31280613Y61974264D01*
X31054092Y61364539D01*
X30547440Y61364539D01*
X30547440Y62100000D01*
X30517100Y62252532D01*
X31727073Y62252532D01*
X32700000Y61279605D01*
X33672927Y62252532D01*
X33574264Y62519387D01*
X32964539Y62745908D01*
X32314540Y62721856D01*
X31825736Y62519387D01*
X31727073Y62252532D01*
X30517100Y62252532D01*
X30498157Y62347765D01*
X30357809Y62557809D01*
X30147765Y62698157D01*
X29900000Y62747440D01*
X27900000Y62747440D01*
X27652235Y62698157D01*
X27442191Y62557809D01*
X27301843Y62347765D01*
X27252560Y62100000D01*
X21123294Y62100000D01*
X28233596Y69210302D01*
X28288353Y69128353D01*
X31008353Y66408353D01*
X31288979Y66220844D01*
X31620000Y66155000D01*
X48960000Y66155000D01*
X49291021Y66220844D01*
X49571647Y66408353D01*
X53565000Y70401706D01*
X58778352Y65188353D01*
X59058978Y65000844D01*
X59113898Y64989920D01*
X59390000Y64935000D01*
X68141706Y64935000D01*
X74319000Y58757705D01*
X74319000Y47575506D01*
X74010539Y47267582D01*
X73799241Y46758720D01*
X73798858Y46320170D01*
X68448353Y40969665D01*
X68260844Y40689039D01*
X68195000Y40358018D01*
X68195000Y38868295D01*
X67685226Y38358521D01*
X67685240Y38374285D01*
X67474831Y38883515D01*
X67165000Y39193886D01*
X67165000Y48906904D01*
X67330285Y48906760D01*
X67839515Y49117169D01*
X68229461Y49506436D01*
X68440759Y50015298D01*
X68441240Y50566285D01*
X68230831Y51075515D01*
X67841564Y51465461D01*
X67332702Y51676759D01*
X66781715Y51677240D01*
X66272485Y51466831D01*
X65882539Y51077564D01*
X65671241Y50568702D01*
X65670851Y50121453D01*
X65500844Y49867021D01*
X65435000Y49536000D01*
X65435000Y39193488D01*
X65126539Y38885564D01*
X64915241Y38376702D01*
X64914760Y37825715D01*
X65125169Y37316485D01*
X65514436Y36926539D01*
X66023298Y36715241D01*
X66041931Y36715225D01*
X65991706Y36665000D01*
X51850001Y36665000D01*
X51518980Y36599156D01*
X51238354Y36411647D01*
X42291567Y27464860D01*
X41855716Y27465240D01*
X41346486Y27254831D01*
X40956540Y26865564D01*
X40745242Y26356702D01*
X40744761Y25805715D01*
X40955170Y25296485D01*
X41344437Y24906539D01*
X41853299Y24695241D01*
X42404286Y24694760D01*
X42913516Y24905169D01*
X43303462Y25294436D01*
X43514760Y25803298D01*
X43515143Y26241848D01*
X52208295Y34935000D01*
X61677021Y34935000D01*
X56861715Y30119694D01*
X56425865Y30120074D01*
X55916635Y29909665D01*
X55526689Y29520398D01*
X55315391Y29011536D01*
X55314910Y28460549D01*
X55525319Y27951319D01*
X55914586Y27561373D01*
X56423448Y27350075D01*
X56974435Y27349594D01*
X57483665Y27560003D01*
X57873611Y27949270D01*
X58084909Y28458132D01*
X58085292Y28896682D01*
X62853611Y33665000D01*
X68476512Y33665000D01*
X68784436Y33356539D01*
X69293298Y33145241D01*
X69844285Y33144760D01*
X70353515Y33355169D01*
X70743461Y33744436D01*
X70954759Y34253298D01*
X70955240Y34804285D01*
X70744831Y35313515D01*
X70355564Y35703461D01*
X69846702Y35914759D01*
X69295715Y35915240D01*
X68786485Y35704831D01*
X68476114Y35395000D01*
X67168294Y35395000D01*
X69671648Y37898353D01*
X69859156Y38178979D01*
X69925000Y38510000D01*
X69925000Y39999724D01*
X71816117Y41890841D01*
X71315892Y40686166D01*
X71314630Y39240177D01*
X71866820Y37903775D01*
X72888397Y36880414D01*
X74223834Y36325892D01*
X75669823Y36324630D01*
X77006225Y36876820D01*
X78029586Y37898397D01*
X78584108Y39233834D01*
X78585370Y40679823D01*
X78033180Y42016225D01*
X77011603Y43039586D01*
X75676166Y43594108D01*
X74230177Y43595370D01*
X73021041Y43095765D01*
X75022434Y45097158D01*
X75458285Y45096778D01*
X75967515Y45307187D01*
X76357461Y45696454D01*
X76568759Y46205316D01*
X76569240Y46756303D01*
X76358831Y47265533D01*
X76049000Y47575904D01*
X76049000Y59116000D01*
X75983156Y59447021D01*
X75983156Y59447022D01*
X75795647Y59727648D01*
X71027580Y64495715D01*
X72782760Y64495715D01*
X72993169Y63986485D01*
X73382436Y63596539D01*
X73891298Y63385241D01*
X74442285Y63384760D01*
X74951515Y63595169D01*
X75341461Y63984436D01*
X75552759Y64493298D01*
X75553240Y65044285D01*
X75342831Y65553515D01*
X74953564Y65943461D01*
X74444702Y66154759D01*
X73893715Y66155240D01*
X73384485Y65944831D01*
X72994539Y65555564D01*
X72783241Y65046702D01*
X72782760Y64495715D01*
X71027580Y64495715D01*
X69111647Y66411647D01*
X68831021Y66599156D01*
X68500000Y66665000D01*
X59748295Y66665000D01*
X54355833Y72057461D01*
X54407809Y72092191D01*
X54548157Y72302235D01*
X54568739Y72405708D01*
X54873076Y72128355D01*
X55283110Y71958524D01*
X55513000Y72079845D01*
X55513000Y73273000D01*
X55493000Y73273000D01*
X55493000Y73527000D01*
X55513000Y73527000D01*
X55513000Y74720155D01*
X55767000Y74720155D01*
X55767000Y73527000D01*
X55787000Y73527000D01*
X55787000Y73273000D01*
X55767000Y73273000D01*
X55767000Y72079845D01*
X55996890Y71958524D01*
X56406924Y72128355D01*
X56835183Y72518642D01*
X56902298Y72661553D01*
X57129946Y72320853D01*
X57611715Y71998946D01*
X58180000Y71885907D01*
X58748285Y71998946D01*
X59230054Y72320853D01*
X59551961Y72802622D01*
X59665000Y73370907D01*
X59665000Y73429093D01*
X59551961Y73997378D01*
X59230054Y74479147D01*
X58899524Y74700000D01*
X66052560Y74700000D01*
X66052560Y71100000D01*
X66101843Y70852235D01*
X66242191Y70642191D01*
X66452235Y70501843D01*
X66700000Y70452560D01*
X68500000Y70452560D01*
X68747765Y70501843D01*
X68957809Y70642191D01*
X69098157Y70852235D01*
X69147440Y71100000D01*
X69147440Y73847704D01*
X69565000Y73847704D01*
X69565000Y71952296D01*
X69681845Y71364877D01*
X70014591Y70866887D01*
X70512581Y70534141D01*
X71100000Y70417296D01*
X71687419Y70534141D01*
X72185409Y70866887D01*
X72518155Y71364877D01*
X72635000Y71952296D01*
X72635000Y73847704D01*
X73065000Y73847704D01*
X73065000Y71952296D01*
X73181845Y71364877D01*
X73514591Y70866887D01*
X74012581Y70534141D01*
X74600000Y70417296D01*
X75187419Y70534141D01*
X75685409Y70866887D01*
X76018155Y71364877D01*
X76135000Y71952296D01*
X76135000Y72773000D01*
X76565000Y72773000D01*
X76565000Y71873000D01*
X76730446Y71295248D01*
X77104394Y70824788D01*
X77629914Y70533244D01*
X77735260Y70508964D01*
X77973000Y70629622D01*
X77973000Y72773000D01*
X78227000Y72773000D01*
X78227000Y70629622D01*
X78464740Y70508964D01*
X78570086Y70533244D01*
X79095606Y70824788D01*
X79469554Y71295248D01*
X79635000Y71873000D01*
X79635000Y72773000D01*
X78227000Y72773000D01*
X77973000Y72773000D01*
X76565000Y72773000D01*
X76135000Y72773000D01*
X76135000Y73847704D01*
X76119228Y73927000D01*
X76565000Y73927000D01*
X76565000Y73027000D01*
X77973000Y73027000D01*
X77973000Y75170378D01*
X78227000Y75170378D01*
X78227000Y73027000D01*
X79635000Y73027000D01*
X79635000Y73927000D01*
X79469554Y74504752D01*
X79095606Y74975212D01*
X78570086Y75266756D01*
X78464740Y75291036D01*
X78227000Y75170378D01*
X77973000Y75170378D01*
X77735260Y75291036D01*
X77629914Y75266756D01*
X77104394Y74975212D01*
X76730446Y74504752D01*
X76565000Y73927000D01*
X76119228Y73927000D01*
X76018155Y74435123D01*
X75685409Y74933113D01*
X75187419Y75265859D01*
X74600000Y75382704D01*
X74012581Y75265859D01*
X73514591Y74933113D01*
X73181845Y74435123D01*
X73065000Y73847704D01*
X72635000Y73847704D01*
X72518155Y74435123D01*
X72185409Y74933113D01*
X71687419Y75265859D01*
X71100000Y75382704D01*
X70512581Y75265859D01*
X70014591Y74933113D01*
X69681845Y74435123D01*
X69565000Y73847704D01*
X69147440Y73847704D01*
X69147440Y74700000D01*
X69098157Y74947765D01*
X68957809Y75157809D01*
X68747765Y75298157D01*
X68500000Y75347440D01*
X66700000Y75347440D01*
X66452235Y75298157D01*
X66242191Y75157809D01*
X66101843Y74947765D01*
X66052560Y74700000D01*
X58899524Y74700000D01*
X58748285Y74801054D01*
X58180000Y74914093D01*
X57611715Y74801054D01*
X57129946Y74479147D01*
X56902298Y74138447D01*
X56835183Y74281358D01*
X56406924Y74671645D01*
X55996890Y74841476D01*
X55767000Y74720155D01*
X55513000Y74720155D01*
X55283110Y74841476D01*
X54873076Y74671645D01*
X54568739Y74394292D01*
X54548157Y74497765D01*
X54407809Y74707809D01*
X54197765Y74848157D01*
X53950000Y74897440D01*
X52250000Y74897440D01*
X52002235Y74848157D01*
X51792191Y74707809D01*
X51651843Y74497765D01*
X51602560Y74250000D01*
X51602560Y72550000D01*
X51651843Y72302235D01*
X51792191Y72092191D01*
X52002235Y71951843D01*
X52235000Y71905544D01*
X52235000Y71518294D01*
X48601706Y67885000D01*
X31978294Y67885000D01*
X30175860Y69687434D01*
X30257809Y69742191D01*
X30398157Y69952235D01*
X30447440Y70200000D01*
X30447440Y71873000D01*
X30865000Y71873000D01*
X30865000Y70973000D01*
X31030446Y70395248D01*
X31404394Y69924788D01*
X31929914Y69633244D01*
X32035260Y69608964D01*
X32273000Y69729622D01*
X32273000Y71873000D01*
X32527000Y71873000D01*
X32527000Y69729622D01*
X32764740Y69608964D01*
X32870086Y69633244D01*
X33395606Y69924788D01*
X33769554Y70395248D01*
X33935000Y70973000D01*
X33935000Y71873000D01*
X32527000Y71873000D01*
X32273000Y71873000D01*
X30865000Y71873000D01*
X30447440Y71873000D01*
X30447440Y73027000D01*
X30865000Y73027000D01*
X30865000Y72127000D01*
X32273000Y72127000D01*
X32273000Y74270378D01*
X32527000Y74270378D01*
X32527000Y72127000D01*
X33935000Y72127000D01*
X33935000Y73027000D01*
X33769554Y73604752D01*
X33395606Y74075212D01*
X33044174Y74270177D01*
X36504630Y74270177D01*
X37056820Y72933775D01*
X38078397Y71910414D01*
X39413834Y71355892D01*
X40859823Y71354630D01*
X42196225Y71906820D01*
X43219586Y72928397D01*
X43768363Y74250000D01*
X45902560Y74250000D01*
X45902560Y72550000D01*
X45951843Y72302235D01*
X46092191Y72092191D01*
X46302235Y71951843D01*
X46550000Y71902560D01*
X48250000Y71902560D01*
X48497765Y71951843D01*
X48707809Y72092191D01*
X48848157Y72302235D01*
X48897440Y72550000D01*
X48897440Y74250000D01*
X48848157Y74497765D01*
X48707809Y74707809D01*
X48497765Y74848157D01*
X48250000Y74897440D01*
X46550000Y74897440D01*
X46302235Y74848157D01*
X46092191Y74707809D01*
X45951843Y74497765D01*
X45902560Y74250000D01*
X43768363Y74250000D01*
X43774108Y74263834D01*
X43775370Y75709823D01*
X43223180Y77046225D01*
X42201603Y78069586D01*
X40866166Y78624108D01*
X39420177Y78625370D01*
X38083775Y78073180D01*
X37060414Y77051603D01*
X36505892Y75716166D01*
X36504630Y74270177D01*
X33044174Y74270177D01*
X32870086Y74366756D01*
X32764740Y74391036D01*
X32527000Y74270378D01*
X32273000Y74270378D01*
X32035260Y74391036D01*
X31929914Y74366756D01*
X31404394Y74075212D01*
X31030446Y73604752D01*
X30865000Y73027000D01*
X30447440Y73027000D01*
X30447440Y73800000D01*
X30398157Y74047765D01*
X30257809Y74257809D01*
X30047765Y74398157D01*
X29800000Y74447440D01*
X28000000Y74447440D01*
X27752235Y74398157D01*
X27542191Y74257809D01*
X27401843Y74047765D01*
X27352560Y73800000D01*
X27352560Y70775855D01*
X14191706Y57615000D01*
X6758294Y57615000D01*
X3735000Y60638294D01*
X3735000Y60906512D01*
X4043461Y61214436D01*
X4254759Y61723298D01*
X4255240Y62274285D01*
X4044831Y62783515D01*
X3655564Y63173461D01*
X3146702Y63384759D01*
X2595715Y63385240D01*
X2086485Y63174831D01*
X1696539Y62785564D01*
X1485241Y62276702D01*
X1484760Y61725715D01*
X735000Y61725715D01*
X735000Y74114250D01*
X2385000Y74114250D01*
X2385000Y72473690D01*
X2481673Y72240301D01*
X2660302Y72061673D01*
X2893691Y71965000D01*
X3634250Y71965000D01*
X3793000Y72123750D01*
X3793000Y74273000D01*
X4047000Y74273000D01*
X4047000Y72123750D01*
X4205750Y71965000D01*
X4946309Y71965000D01*
X5179698Y72061673D01*
X5358327Y72240301D01*
X5455000Y72473690D01*
X5455000Y74114250D01*
X5296250Y74273000D01*
X4047000Y74273000D01*
X3793000Y74273000D01*
X2543750Y74273000D01*
X2385000Y74114250D01*
X735000Y74114250D01*
X735000Y76326310D01*
X2385000Y76326310D01*
X2385000Y74685750D01*
X2543750Y74527000D01*
X3793000Y74527000D01*
X3793000Y76676250D01*
X4047000Y76676250D01*
X4047000Y74527000D01*
X5296250Y74527000D01*
X5455000Y74685750D01*
X5455000Y75347704D01*
X7465000Y75347704D01*
X7465000Y73452296D01*
X7581845Y72864877D01*
X7914591Y72366887D01*
X8412581Y72034141D01*
X9000000Y71917296D01*
X9587419Y72034141D01*
X10085409Y72366887D01*
X10418155Y72864877D01*
X10535000Y73452296D01*
X10535000Y75347704D01*
X12545000Y75347704D01*
X12545000Y73452296D01*
X12661845Y72864877D01*
X12994591Y72366887D01*
X13492581Y72034141D01*
X14080000Y71917296D01*
X14667419Y72034141D01*
X15165409Y72366887D01*
X15498155Y72864877D01*
X15615000Y73452296D01*
X15615000Y75347704D01*
X17625000Y75347704D01*
X17625000Y73452296D01*
X17741845Y72864877D01*
X18074591Y72366887D01*
X18572581Y72034141D01*
X19160000Y71917296D01*
X19747419Y72034141D01*
X20245409Y72366887D01*
X20578155Y72864877D01*
X20695000Y73452296D01*
X20695000Y75347704D01*
X20578155Y75935123D01*
X20245409Y76433113D01*
X19747419Y76765859D01*
X19160000Y76882704D01*
X18572581Y76765859D01*
X18074591Y76433113D01*
X17741845Y75935123D01*
X17625000Y75347704D01*
X15615000Y75347704D01*
X15498155Y75935123D01*
X15165409Y76433113D01*
X14667419Y76765859D01*
X14080000Y76882704D01*
X13492581Y76765859D01*
X12994591Y76433113D01*
X12661845Y75935123D01*
X12545000Y75347704D01*
X10535000Y75347704D01*
X10418155Y75935123D01*
X10085409Y76433113D01*
X9587419Y76765859D01*
X9000000Y76882704D01*
X8412581Y76765859D01*
X7914591Y76433113D01*
X7581845Y75935123D01*
X7465000Y75347704D01*
X5455000Y75347704D01*
X5455000Y76326310D01*
X5358327Y76559699D01*
X5179698Y76738327D01*
X4946309Y76835000D01*
X4205750Y76835000D01*
X4047000Y76676250D01*
X3793000Y76676250D01*
X3634250Y76835000D01*
X2893691Y76835000D01*
X2660302Y76738327D01*
X2481673Y76559699D01*
X2385000Y76326310D01*
X735000Y76326310D01*
X735000Y79275000D01*
X81307000Y79275000D01*
X81307000Y735000D01*
X81307000Y735000D01*
G37*
X81307000Y735000D02*
X735000Y735000D01*
X735000Y4360177D01*
X36242630Y4360177D01*
X36794820Y3023775D01*
X37816397Y2000414D01*
X39151834Y1445892D01*
X40597823Y1444630D01*
X41934225Y1996820D01*
X42957586Y3018397D01*
X43512108Y4353834D01*
X43513370Y5799823D01*
X42961180Y7136225D01*
X41939603Y8159586D01*
X40604166Y8714108D01*
X39158177Y8715370D01*
X37821775Y8163180D01*
X36798414Y7141603D01*
X36243892Y5806166D01*
X36242630Y4360177D01*
X735000Y4360177D01*
X735000Y16355000D01*
X2302560Y16355000D01*
X2302560Y12845000D01*
X2351843Y12597235D01*
X2492191Y12387191D01*
X2702235Y12246843D01*
X2950000Y12197560D01*
X5490000Y12197560D01*
X5737765Y12246843D01*
X5947809Y12387191D01*
X6088157Y12597235D01*
X6137440Y12845000D01*
X6137440Y14314250D01*
X31675000Y14314250D01*
X31675000Y12718690D01*
X31771673Y12485301D01*
X31950302Y12306673D01*
X32183691Y12210000D01*
X33294250Y12210000D01*
X33453000Y12368750D01*
X33453000Y14473000D01*
X33707000Y14473000D01*
X33707000Y12368750D01*
X33865750Y12210000D01*
X34976309Y12210000D01*
X35209698Y12306673D01*
X35388327Y12485301D01*
X35485000Y12718690D01*
X35485000Y14314250D01*
X35326250Y14473000D01*
X33707000Y14473000D01*
X33453000Y14473000D01*
X31833750Y14473000D01*
X31675000Y14314250D01*
X6137440Y14314250D01*
X6137440Y16355000D01*
X6112316Y16481310D01*
X31675000Y16481310D01*
X31675000Y14885750D01*
X31833750Y14727000D01*
X33453000Y14727000D01*
X33453000Y16831250D01*
X33707000Y16831250D01*
X33707000Y14727000D01*
X35326250Y14727000D01*
X35485000Y14885750D01*
X35485000Y16481310D01*
X35388327Y16714699D01*
X35209698Y16893327D01*
X34976309Y16990000D01*
X33865750Y16990000D01*
X33707000Y16831250D01*
X33453000Y16831250D01*
X33294250Y16990000D01*
X32183691Y16990000D01*
X31950302Y16893327D01*
X31771673Y16714699D01*
X31675000Y16481310D01*
X6112316Y16481310D01*
X6088157Y16602765D01*
X5947809Y16812809D01*
X5737765Y16953157D01*
X5490000Y17002440D01*
X5047716Y17002440D01*
X5019156Y17146021D01*
X4831647Y17426647D01*
X4167000Y18091294D01*
X4167000Y21485706D01*
X8232295Y25551000D01*
X33171000Y25551000D01*
X33171000Y24715488D01*
X32862539Y24407564D01*
X32651241Y23898702D01*
X32650760Y23347715D01*
X32861169Y22838485D01*
X33250436Y22448539D01*
X33759298Y22237241D01*
X34310285Y22236760D01*
X34819515Y22447169D01*
X35209461Y22836436D01*
X35420759Y23345298D01*
X35421240Y23896285D01*
X35210831Y24405515D01*
X34901000Y24715886D01*
X34901000Y26162000D01*
X34835156Y26493021D01*
X34835156Y26493022D01*
X34647647Y26773648D01*
X34393647Y27027647D01*
X34113021Y27215156D01*
X33782000Y27281000D01*
X7874000Y27281000D01*
X7597898Y27226080D01*
X7542978Y27215156D01*
X7262352Y27027647D01*
X2690353Y22455647D01*
X2502844Y22175021D01*
X2437000Y21844000D01*
X2437000Y17733000D01*
X2497937Y17426647D01*
X2502844Y17401979D01*
X2690353Y17121353D01*
X2832615Y16979091D01*
X2702235Y16953157D01*
X2492191Y16812809D01*
X2351843Y16602765D01*
X2302560Y16355000D01*
X735000Y16355000D01*
X735000Y32923339D01*
X12782758Y32923339D01*
X12994990Y32409697D01*
X13387630Y32016371D01*
X13900900Y31803243D01*
X14456661Y31802758D01*
X14970303Y32014990D01*
X15363629Y32407630D01*
X15449949Y32615512D01*
X15534990Y32409697D01*
X15927630Y32016371D01*
X16440900Y31803243D01*
X16996661Y31802758D01*
X17510303Y32014990D01*
X17903629Y32407630D01*
X17989949Y32615512D01*
X18074990Y32409697D01*
X18467630Y32016371D01*
X18980900Y31803243D01*
X19536661Y31802758D01*
X20050303Y32014990D01*
X20255457Y32219787D01*
X20999392Y32219787D01*
X21068857Y31977603D01*
X21592302Y31790856D01*
X22147368Y31818638D01*
X22531143Y31977603D01*
X22600608Y32219787D01*
X21800000Y33020395D01*
X20999392Y32219787D01*
X20255457Y32219787D01*
X20443629Y32407630D01*
X20523395Y32599727D01*
X20577603Y32468857D01*
X20819787Y32399392D01*
X21620395Y33200000D01*
X21979605Y33200000D01*
X22780213Y32399392D01*
X23022397Y32468857D01*
X23072509Y32609318D01*
X23154990Y32409697D01*
X23547630Y32016371D01*
X24060900Y31803243D01*
X24616661Y31802758D01*
X25130303Y32014990D01*
X25523629Y32407630D01*
X25609949Y32615512D01*
X25694990Y32409697D01*
X26087630Y32016371D01*
X26600900Y31803243D01*
X27156661Y31802758D01*
X27670303Y32014990D01*
X28063629Y32407630D01*
X28149949Y32615512D01*
X28234990Y32409697D01*
X28627630Y32016371D01*
X29140900Y31803243D01*
X29696661Y31802758D01*
X30210303Y32014990D01*
X30603629Y32407630D01*
X30689949Y32615512D01*
X30774990Y32409697D01*
X31167630Y32016371D01*
X31680900Y31803243D01*
X32236661Y31802758D01*
X32750303Y32014990D01*
X33143629Y32407630D01*
X33229949Y32615512D01*
X33314990Y32409697D01*
X33707630Y32016371D01*
X34220900Y31803243D01*
X34776661Y31802758D01*
X35290303Y32014990D01*
X35683629Y32407630D01*
X35769949Y32615512D01*
X35854990Y32409697D01*
X36247630Y32016371D01*
X36760900Y31803243D01*
X37316661Y31802758D01*
X37830303Y32014990D01*
X38223629Y32407630D01*
X38309949Y32615512D01*
X38394990Y32409697D01*
X38787630Y32016371D01*
X39300900Y31803243D01*
X39856661Y31802758D01*
X40370303Y32014990D01*
X40763629Y32407630D01*
X40849949Y32615512D01*
X40934990Y32409697D01*
X41327630Y32016371D01*
X41840900Y31803243D01*
X42396661Y31802758D01*
X42910303Y32014990D01*
X43303629Y32407630D01*
X43516757Y32920900D01*
X43517242Y33476661D01*
X43305010Y33990303D01*
X42912370Y34383629D01*
X42399100Y34596757D01*
X41843339Y34597242D01*
X41329697Y34385010D01*
X40936371Y33992370D01*
X40850051Y33784488D01*
X40765010Y33990303D01*
X40372370Y34383629D01*
X39859100Y34596757D01*
X39303339Y34597242D01*
X38789697Y34385010D01*
X38396371Y33992370D01*
X38310051Y33784488D01*
X38225010Y33990303D01*
X37832370Y34383629D01*
X37319100Y34596757D01*
X36763339Y34597242D01*
X36249697Y34385010D01*
X35856371Y33992370D01*
X35770051Y33784488D01*
X35685010Y33990303D01*
X35292370Y34383629D01*
X34779100Y34596757D01*
X34223339Y34597242D01*
X33709697Y34385010D01*
X33316371Y33992370D01*
X33230051Y33784488D01*
X33145010Y33990303D01*
X32752370Y34383629D01*
X32239100Y34596757D01*
X31683339Y34597242D01*
X31169697Y34385010D01*
X30776371Y33992370D01*
X30690051Y33784488D01*
X30605010Y33990303D01*
X30212370Y34383629D01*
X29699100Y34596757D01*
X29143339Y34597242D01*
X28629697Y34385010D01*
X28236371Y33992370D01*
X28150051Y33784488D01*
X28065010Y33990303D01*
X27672370Y34383629D01*
X27159100Y34596757D01*
X26603339Y34597242D01*
X26089697Y34385010D01*
X25696371Y33992370D01*
X25610051Y33784488D01*
X25525010Y33990303D01*
X25132370Y34383629D01*
X24619100Y34596757D01*
X24063339Y34597242D01*
X23549697Y34385010D01*
X23156371Y33992370D01*
X23076605Y33800273D01*
X23022397Y33931143D01*
X22780213Y34000608D01*
X21979605Y33200000D01*
X21620395Y33200000D01*
X20819787Y34000608D01*
X20577603Y33931143D01*
X20527491Y33790682D01*
X20445010Y33990303D01*
X20255432Y34180213D01*
X20999392Y34180213D01*
X21800000Y33379605D01*
X22600608Y34180213D01*
X22531143Y34422397D01*
X22007698Y34609144D01*
X21452632Y34581362D01*
X21068857Y34422397D01*
X20999392Y34180213D01*
X20255432Y34180213D01*
X20052370Y34383629D01*
X19539100Y34596757D01*
X18983339Y34597242D01*
X18469697Y34385010D01*
X18076371Y33992370D01*
X17990051Y33784488D01*
X17905010Y33990303D01*
X17512370Y34383629D01*
X16999100Y34596757D01*
X16443339Y34597242D01*
X15929697Y34385010D01*
X15536371Y33992370D01*
X15450051Y33784488D01*
X15365010Y33990303D01*
X14972370Y34383629D01*
X14459100Y34596757D01*
X13903339Y34597242D01*
X13389697Y34385010D01*
X12996371Y33992370D01*
X12783243Y33479100D01*
X12782758Y32923339D01*
X735000Y32923339D01*
X735000Y39158177D01*
X1190630Y39158177D01*
X1742820Y37821775D01*
X2764397Y36798414D01*
X4099834Y36243892D01*
X5545823Y36242630D01*
X6882225Y36794820D01*
X7905586Y37816397D01*
X8460108Y39151834D01*
X8460521Y39625715D01*
X33414760Y39625715D01*
X33625169Y39116485D01*
X34014436Y38726539D01*
X34523298Y38515241D01*
X34961847Y38514858D01*
X35068353Y38408352D01*
X35348979Y38220843D01*
X35403899Y38209919D01*
X35680001Y38154999D01*
X46110401Y38154999D01*
X46441422Y38220843D01*
X46722048Y38408352D01*
X46874999Y38561303D01*
X46874999Y35398294D01*
X45627565Y34150860D01*
X45191715Y34151240D01*
X44682485Y33940831D01*
X44292539Y33551564D01*
X44081241Y33042702D01*
X44080760Y32491715D01*
X44291169Y31982485D01*
X44680436Y31592539D01*
X45189298Y31381241D01*
X45740285Y31380760D01*
X46249515Y31591169D01*
X46639461Y31980436D01*
X46850759Y32489298D01*
X46851142Y32927848D01*
X48351646Y34428351D01*
X48539155Y34708977D01*
X48584113Y34935000D01*
X48604999Y35039999D01*
X48604999Y40873302D01*
X48827648Y41095951D01*
X49015156Y41376577D01*
X49015157Y41376578D01*
X49081001Y41707599D01*
X49081001Y53714250D01*
X50735000Y53714250D01*
X50735000Y53023691D01*
X50831673Y52790302D01*
X51010301Y52611673D01*
X51243690Y52515000D01*
X51934250Y52515000D01*
X52093000Y52673750D01*
X52093000Y53873000D01*
X50893750Y53873000D01*
X50735000Y53714250D01*
X49081001Y53714250D01*
X49081001Y54145999D01*
X49015157Y54477020D01*
X49015157Y54477021D01*
X48827648Y54757646D01*
X48608985Y54976309D01*
X50735000Y54976309D01*
X50735000Y54285750D01*
X50893750Y54127000D01*
X52093000Y54127000D01*
X52093000Y56413000D01*
X50899181Y56413000D01*
X50778514Y56183108D01*
X51024817Y55658642D01*
X51224208Y55476930D01*
X51010301Y55388327D01*
X50831673Y55209698D01*
X50735000Y54976309D01*
X48608985Y54976309D01*
X46688402Y56896892D01*
X50778514Y56896892D01*
X50899181Y56667000D01*
X52093000Y56667000D01*
X52093000Y57860155D01*
X52347000Y57860155D01*
X52347000Y56667000D01*
X52367000Y56667000D01*
X52367000Y56413000D01*
X52347000Y56413000D01*
X52347000Y54127000D01*
X52367000Y54127000D01*
X52367000Y53873000D01*
X52347000Y53873000D01*
X52347000Y52673750D01*
X52505750Y52515000D01*
X53196310Y52515000D01*
X53429699Y52611673D01*
X53608327Y52790302D01*
X53680597Y52964777D01*
X53709946Y52920853D01*
X54191715Y52598946D01*
X54760000Y52485907D01*
X55328285Y52598946D01*
X55810054Y52920853D01*
X56030000Y53250026D01*
X56249946Y52920853D01*
X56731715Y52598946D01*
X57300000Y52485907D01*
X57868285Y52598946D01*
X58350054Y52920853D01*
X58570000Y53250026D01*
X58789946Y52920853D01*
X59271715Y52598946D01*
X59840000Y52485907D01*
X60408285Y52598946D01*
X60890054Y52920853D01*
X61110000Y53250026D01*
X61329946Y52920853D01*
X61811715Y52598946D01*
X62380000Y52485907D01*
X62948285Y52598946D01*
X63430054Y52920853D01*
X63650000Y53250026D01*
X63869946Y52920853D01*
X64351715Y52598946D01*
X64920000Y52485907D01*
X65488285Y52598946D01*
X65970054Y52920853D01*
X66190000Y53250026D01*
X66409946Y52920853D01*
X66891715Y52598946D01*
X67460000Y52485907D01*
X68028285Y52598946D01*
X68510054Y52920853D01*
X68737702Y53261553D01*
X68804817Y53118642D01*
X69233076Y52728355D01*
X69643110Y52558524D01*
X69873000Y52679845D01*
X69873000Y53873000D01*
X70127000Y53873000D01*
X70127000Y52679845D01*
X70356890Y52558524D01*
X70766924Y52728355D01*
X71195183Y53118642D01*
X71441486Y53643108D01*
X71320819Y53873000D01*
X70127000Y53873000D01*
X69873000Y53873000D01*
X69853000Y53873000D01*
X69853000Y54127000D01*
X69873000Y54127000D01*
X69873000Y56413000D01*
X70127000Y56413000D01*
X70127000Y54127000D01*
X71320819Y54127000D01*
X71441486Y54356892D01*
X71195183Y54881358D01*
X70768729Y55270000D01*
X71195183Y55658642D01*
X71441486Y56183108D01*
X71320819Y56413000D01*
X70127000Y56413000D01*
X69873000Y56413000D01*
X69853000Y56413000D01*
X69853000Y56667000D01*
X69873000Y56667000D01*
X69873000Y57860155D01*
X70127000Y57860155D01*
X70127000Y56667000D01*
X71320819Y56667000D01*
X71441486Y56896892D01*
X71195183Y57421358D01*
X70766924Y57811645D01*
X70356890Y57981476D01*
X70127000Y57860155D01*
X69873000Y57860155D01*
X69643110Y57981476D01*
X69233076Y57811645D01*
X68804817Y57421358D01*
X68737702Y57278447D01*
X68510054Y57619147D01*
X68028285Y57941054D01*
X67460000Y58054093D01*
X66891715Y57941054D01*
X66409946Y57619147D01*
X66190000Y57289974D01*
X65970054Y57619147D01*
X65488285Y57941054D01*
X64920000Y58054093D01*
X64351715Y57941054D01*
X63869946Y57619147D01*
X63650000Y57289974D01*
X63430054Y57619147D01*
X62948285Y57941054D01*
X62380000Y58054093D01*
X61811715Y57941054D01*
X61329946Y57619147D01*
X61110000Y57289974D01*
X60890054Y57619147D01*
X60408285Y57941054D01*
X59840000Y58054093D01*
X59271715Y57941054D01*
X58789946Y57619147D01*
X58570000Y57289974D01*
X58350054Y57619147D01*
X57868285Y57941054D01*
X57300000Y58054093D01*
X56731715Y57941054D01*
X56249946Y57619147D01*
X56030000Y57289974D01*
X55810054Y57619147D01*
X55328285Y57941054D01*
X54760000Y58054093D01*
X54191715Y57941054D01*
X53709946Y57619147D01*
X53482298Y57278447D01*
X53415183Y57421358D01*
X52986924Y57811645D01*
X52576890Y57981476D01*
X52347000Y57860155D01*
X52093000Y57860155D01*
X51863110Y57981476D01*
X51453076Y57811645D01*
X51024817Y57421358D01*
X50778514Y56896892D01*
X46688402Y56896892D01*
X45326860Y58258434D01*
X45327240Y58694285D01*
X45116831Y59203515D01*
X44727564Y59593461D01*
X44218702Y59804759D01*
X43667715Y59805240D01*
X43158485Y59594831D01*
X42768539Y59205564D01*
X42557241Y58696702D01*
X42556760Y58145715D01*
X42767169Y57636485D01*
X43156436Y57246539D01*
X43665298Y57035241D01*
X44103848Y57034858D01*
X47351001Y53787705D01*
X47351001Y44288669D01*
X47335647Y44311648D01*
X46342860Y45304435D01*
X46343240Y45740285D01*
X46132831Y46249515D01*
X45743564Y46639461D01*
X45234702Y46850759D01*
X44683715Y46851240D01*
X44174485Y46640831D01*
X43784539Y46251564D01*
X43573241Y45742702D01*
X43572760Y45191715D01*
X43783169Y44682485D01*
X44172436Y44292539D01*
X44681298Y44081241D01*
X45119847Y44080858D01*
X45858999Y43341706D01*
X45858999Y39991892D01*
X45752107Y39884999D01*
X36184987Y39884999D01*
X36185240Y40174285D01*
X35974831Y40683515D01*
X35585564Y41073461D01*
X35076702Y41284759D01*
X34525715Y41285240D01*
X34016485Y41074831D01*
X33626539Y40685564D01*
X33415241Y40176702D01*
X33414760Y39625715D01*
X8460521Y39625715D01*
X8461370Y40597823D01*
X7909180Y41934225D01*
X6887603Y42957586D01*
X5552166Y43512108D01*
X4106177Y43513370D01*
X2769775Y42961180D01*
X1746414Y41939603D01*
X1191892Y40604166D01*
X1190630Y39158177D01*
X735000Y39158177D01*
X735000Y43667715D01*
X33158760Y43667715D01*
X33369169Y43158485D01*
X33758436Y42768539D01*
X34267298Y42557241D01*
X34711562Y42556853D01*
X34974979Y42380844D01*
X35306000Y42315000D01*
X40491045Y42315000D01*
X40491692Y42314353D01*
X40772318Y42126844D01*
X40827238Y42115920D01*
X41062379Y42069148D01*
X41378436Y41752539D01*
X41887298Y41541241D01*
X42438285Y41540760D01*
X42947515Y41751169D01*
X43337461Y42140436D01*
X43548759Y42649298D01*
X43549240Y43200285D01*
X43338831Y43709515D01*
X42949564Y44099461D01*
X42440702Y44310759D01*
X41889715Y44311240D01*
X41380485Y44100831D01*
X41227228Y43947841D01*
X41180361Y43979156D01*
X40849340Y44045000D01*
X35929090Y44045000D01*
X35929240Y44216285D01*
X35718831Y44725515D01*
X35329564Y45115461D01*
X34820702Y45326759D01*
X34269715Y45327240D01*
X33760485Y45116831D01*
X33370539Y44727564D01*
X33159241Y44218702D01*
X33158760Y43667715D01*
X735000Y43667715D01*
X735000Y45423339D01*
X21722758Y45423339D01*
X21934990Y44909697D01*
X22327630Y44516371D01*
X22840900Y44303243D01*
X23396661Y44302758D01*
X23910303Y44514990D01*
X24303629Y44907630D01*
X24381456Y45095058D01*
X24424990Y44989697D01*
X24817630Y44596371D01*
X25330900Y44383243D01*
X25886661Y44382758D01*
X26400303Y44594990D01*
X26793629Y44987630D01*
X27006757Y45500900D01*
X27007242Y46056661D01*
X26795010Y46570303D01*
X26402370Y46963629D01*
X25889100Y47176757D01*
X25333339Y47177242D01*
X24819697Y46965010D01*
X24426371Y46572370D01*
X24348544Y46384942D01*
X24305010Y46490303D01*
X23912370Y46883629D01*
X23399100Y47096757D01*
X22843339Y47097242D01*
X22329697Y46885010D01*
X21936371Y46492370D01*
X21723243Y45979100D01*
X21722758Y45423339D01*
X735000Y45423339D01*
X735000Y48043339D01*
X12782758Y48043339D01*
X12994990Y47529697D01*
X13387630Y47136371D01*
X13900900Y46923243D01*
X14456661Y46922758D01*
X14970303Y47134990D01*
X15175457Y47339787D01*
X15919392Y47339787D01*
X15988857Y47097603D01*
X16512302Y46910856D01*
X17067368Y46938638D01*
X17451143Y47097603D01*
X17520608Y47339787D01*
X16720000Y48140395D01*
X15919392Y47339787D01*
X15175457Y47339787D01*
X15363629Y47527630D01*
X15443395Y47719727D01*
X15497603Y47588857D01*
X15739787Y47519392D01*
X16540395Y48320000D01*
X16899605Y48320000D01*
X17700213Y47519392D01*
X17942397Y47588857D01*
X17992509Y47729318D01*
X18074990Y47529697D01*
X18467630Y47136371D01*
X18980900Y46923243D01*
X19536661Y46922758D01*
X20050303Y47134990D01*
X20443629Y47527630D01*
X20529949Y47735512D01*
X20614990Y47529697D01*
X21007630Y47136371D01*
X21520900Y46923243D01*
X22076661Y46922758D01*
X22590303Y47134990D01*
X22983629Y47527630D01*
X23069949Y47735512D01*
X23154990Y47529697D01*
X23547630Y47136371D01*
X24060900Y46923243D01*
X24616661Y46922758D01*
X25130303Y47134990D01*
X25523629Y47527630D01*
X25609949Y47735512D01*
X25694990Y47529697D01*
X26087630Y47136371D01*
X26600900Y46923243D01*
X27156661Y46922758D01*
X27670303Y47134990D01*
X28063629Y47527630D01*
X28149949Y47735512D01*
X28234990Y47529697D01*
X28627630Y47136371D01*
X29140900Y46923243D01*
X29696661Y46922758D01*
X30210303Y47134990D01*
X30603629Y47527630D01*
X30689949Y47735512D01*
X30774990Y47529697D01*
X31167630Y47136371D01*
X31680900Y46923243D01*
X32236661Y46922758D01*
X32750303Y47134990D01*
X33143629Y47527630D01*
X33229949Y47735512D01*
X33314990Y47529697D01*
X33707630Y47136371D01*
X34220900Y46923243D01*
X34776661Y46922758D01*
X35290303Y47134990D01*
X35683629Y47527630D01*
X35769949Y47735512D01*
X35854990Y47529697D01*
X36247630Y47136371D01*
X36760900Y46923243D01*
X37316661Y46922758D01*
X37830303Y47134990D01*
X38223629Y47527630D01*
X38309949Y47735512D01*
X38394990Y47529697D01*
X38787630Y47136371D01*
X39300900Y46923243D01*
X39856661Y46922758D01*
X40370303Y47134990D01*
X40763629Y47527630D01*
X40849949Y47735512D01*
X40934990Y47529697D01*
X41327630Y47136371D01*
X41840900Y46923243D01*
X42396661Y46922758D01*
X42910303Y47134990D01*
X43303629Y47527630D01*
X43516757Y48040900D01*
X43517242Y48596661D01*
X43305010Y49110303D01*
X42912370Y49503629D01*
X42399100Y49716757D01*
X41843339Y49717242D01*
X41329697Y49505010D01*
X40936371Y49112370D01*
X40850051Y48904488D01*
X40765010Y49110303D01*
X40372370Y49503629D01*
X39859100Y49716757D01*
X39303339Y49717242D01*
X38789697Y49505010D01*
X38396371Y49112370D01*
X38310051Y48904488D01*
X38225010Y49110303D01*
X37832370Y49503629D01*
X37319100Y49716757D01*
X36763339Y49717242D01*
X36249697Y49505010D01*
X35856371Y49112370D01*
X35770051Y48904488D01*
X35685010Y49110303D01*
X35292370Y49503629D01*
X34779100Y49716757D01*
X34223339Y49717242D01*
X33709697Y49505010D01*
X33316371Y49112370D01*
X33230051Y48904488D01*
X33145010Y49110303D01*
X32752370Y49503629D01*
X32239100Y49716757D01*
X31683339Y49717242D01*
X31169697Y49505010D01*
X30776371Y49112370D01*
X30690051Y48904488D01*
X30605010Y49110303D01*
X30212370Y49503629D01*
X29699100Y49716757D01*
X29143339Y49717242D01*
X28629697Y49505010D01*
X28236371Y49112370D01*
X28150051Y48904488D01*
X28065010Y49110303D01*
X27672370Y49503629D01*
X27159100Y49716757D01*
X26603339Y49717242D01*
X26089697Y49505010D01*
X25696371Y49112370D01*
X25610051Y48904488D01*
X25525010Y49110303D01*
X25132370Y49503629D01*
X24619100Y49716757D01*
X24063339Y49717242D01*
X23549697Y49505010D01*
X23156371Y49112370D01*
X23070051Y48904488D01*
X22985010Y49110303D01*
X22592370Y49503629D01*
X22079100Y49716757D01*
X21523339Y49717242D01*
X21009697Y49505010D01*
X20616371Y49112370D01*
X20530051Y48904488D01*
X20445010Y49110303D01*
X20052370Y49503629D01*
X19539100Y49716757D01*
X18983339Y49717242D01*
X18469697Y49505010D01*
X18076371Y49112370D01*
X17996605Y48920273D01*
X17942397Y49051143D01*
X17700213Y49120608D01*
X16899605Y48320000D01*
X16540395Y48320000D01*
X15739787Y49120608D01*
X15497603Y49051143D01*
X15447491Y48910682D01*
X15365010Y49110303D01*
X15175432Y49300213D01*
X15919392Y49300213D01*
X16720000Y48499605D01*
X17520608Y49300213D01*
X17451143Y49542397D01*
X16927698Y49729144D01*
X16372632Y49701362D01*
X15988857Y49542397D01*
X15919392Y49300213D01*
X15175432Y49300213D01*
X14972370Y49503629D01*
X14459100Y49716757D01*
X13903339Y49717242D01*
X13389697Y49505010D01*
X12996371Y49112370D01*
X12783243Y48599100D01*
X12782758Y48043339D01*
X735000Y48043339D01*
X735000Y61725715D01*
X1484760Y61725715D01*
X1695169Y61216485D01*
X2005000Y60906114D01*
X2005000Y60280000D01*
X2064475Y59981000D01*
X2070844Y59948979D01*
X2258353Y59668353D01*
X5788353Y56138353D01*
X6068979Y55950844D01*
X6400000Y55885000D01*
X14550000Y55885000D01*
X14881021Y55950844D01*
X15161647Y56138353D01*
X21123294Y62100000D01*
X27252560Y62100000D01*
X27252560Y60100000D01*
X27301843Y59852235D01*
X27442191Y59642191D01*
X27652235Y59501843D01*
X27900000Y59452560D01*
X29900000Y59452560D01*
X30147765Y59501843D01*
X30357809Y59642191D01*
X30498157Y59852235D01*
X30517099Y59947468D01*
X31727073Y59947468D01*
X31825736Y59680613D01*
X32435461Y59454092D01*
X33085460Y59478144D01*
X33574264Y59680613D01*
X33672927Y59947468D01*
X32700000Y60920395D01*
X31727073Y59947468D01*
X30517099Y59947468D01*
X30547440Y60100000D01*
X30547440Y61364539D01*
X31054092Y61364539D01*
X31078144Y60714540D01*
X31280613Y60225736D01*
X31547468Y60127073D01*
X32520395Y61100000D01*
X32879605Y61100000D01*
X33852532Y60127073D01*
X34119387Y60225736D01*
X34345908Y60835461D01*
X34321856Y61485460D01*
X34119387Y61974264D01*
X33852532Y62072927D01*
X32879605Y61100000D01*
X32520395Y61100000D01*
X31547468Y62072927D01*
X31280613Y61974264D01*
X31054092Y61364539D01*
X30547440Y61364539D01*
X30547440Y62100000D01*
X30517100Y62252532D01*
X31727073Y62252532D01*
X32700000Y61279605D01*
X33672927Y62252532D01*
X33574264Y62519387D01*
X32964539Y62745908D01*
X32314540Y62721856D01*
X31825736Y62519387D01*
X31727073Y62252532D01*
X30517100Y62252532D01*
X30498157Y62347765D01*
X30357809Y62557809D01*
X30147765Y62698157D01*
X29900000Y62747440D01*
X27900000Y62747440D01*
X27652235Y62698157D01*
X27442191Y62557809D01*
X27301843Y62347765D01*
X27252560Y62100000D01*
X21123294Y62100000D01*
X28233596Y69210302D01*
X28288353Y69128353D01*
X31008353Y66408353D01*
X31288979Y66220844D01*
X31620000Y66155000D01*
X48960000Y66155000D01*
X49291021Y66220844D01*
X49571647Y66408353D01*
X53565000Y70401706D01*
X58778352Y65188353D01*
X59058978Y65000844D01*
X59113898Y64989920D01*
X59390000Y64935000D01*
X68141706Y64935000D01*
X74319000Y58757705D01*
X74319000Y47575506D01*
X74010539Y47267582D01*
X73799241Y46758720D01*
X73798858Y46320170D01*
X68448353Y40969665D01*
X68260844Y40689039D01*
X68195000Y40358018D01*
X68195000Y38868295D01*
X67685226Y38358521D01*
X67685240Y38374285D01*
X67474831Y38883515D01*
X67165000Y39193886D01*
X67165000Y48906904D01*
X67330285Y48906760D01*
X67839515Y49117169D01*
X68229461Y49506436D01*
X68440759Y50015298D01*
X68441240Y50566285D01*
X68230831Y51075515D01*
X67841564Y51465461D01*
X67332702Y51676759D01*
X66781715Y51677240D01*
X66272485Y51466831D01*
X65882539Y51077564D01*
X65671241Y50568702D01*
X65670851Y50121453D01*
X65500844Y49867021D01*
X65435000Y49536000D01*
X65435000Y39193488D01*
X65126539Y38885564D01*
X64915241Y38376702D01*
X64914760Y37825715D01*
X65125169Y37316485D01*
X65514436Y36926539D01*
X66023298Y36715241D01*
X66041931Y36715225D01*
X65991706Y36665000D01*
X51850001Y36665000D01*
X51518980Y36599156D01*
X51238354Y36411647D01*
X42291567Y27464860D01*
X41855716Y27465240D01*
X41346486Y27254831D01*
X40956540Y26865564D01*
X40745242Y26356702D01*
X40744761Y25805715D01*
X40955170Y25296485D01*
X41344437Y24906539D01*
X41853299Y24695241D01*
X42404286Y24694760D01*
X42913516Y24905169D01*
X43303462Y25294436D01*
X43514760Y25803298D01*
X43515143Y26241848D01*
X52208295Y34935000D01*
X61677021Y34935000D01*
X56861715Y30119694D01*
X56425865Y30120074D01*
X55916635Y29909665D01*
X55526689Y29520398D01*
X55315391Y29011536D01*
X55314910Y28460549D01*
X55525319Y27951319D01*
X55914586Y27561373D01*
X56423448Y27350075D01*
X56974435Y27349594D01*
X57483665Y27560003D01*
X57873611Y27949270D01*
X58084909Y28458132D01*
X58085292Y28896682D01*
X62853611Y33665000D01*
X68476512Y33665000D01*
X68784436Y33356539D01*
X69293298Y33145241D01*
X69844285Y33144760D01*
X70353515Y33355169D01*
X70743461Y33744436D01*
X70954759Y34253298D01*
X70955240Y34804285D01*
X70744831Y35313515D01*
X70355564Y35703461D01*
X69846702Y35914759D01*
X69295715Y35915240D01*
X68786485Y35704831D01*
X68476114Y35395000D01*
X67168294Y35395000D01*
X69671648Y37898353D01*
X69859156Y38178979D01*
X69925000Y38510000D01*
X69925000Y39999724D01*
X71816117Y41890841D01*
X71315892Y40686166D01*
X71314630Y39240177D01*
X71866820Y37903775D01*
X72888397Y36880414D01*
X74223834Y36325892D01*
X75669823Y36324630D01*
X77006225Y36876820D01*
X78029586Y37898397D01*
X78584108Y39233834D01*
X78585370Y40679823D01*
X78033180Y42016225D01*
X77011603Y43039586D01*
X75676166Y43594108D01*
X74230177Y43595370D01*
X73021041Y43095765D01*
X75022434Y45097158D01*
X75458285Y45096778D01*
X75967515Y45307187D01*
X76357461Y45696454D01*
X76568759Y46205316D01*
X76569240Y46756303D01*
X76358831Y47265533D01*
X76049000Y47575904D01*
X76049000Y59116000D01*
X75983156Y59447021D01*
X75983156Y59447022D01*
X75795647Y59727648D01*
X71027580Y64495715D01*
X72782760Y64495715D01*
X72993169Y63986485D01*
X73382436Y63596539D01*
X73891298Y63385241D01*
X74442285Y63384760D01*
X74951515Y63595169D01*
X75341461Y63984436D01*
X75552759Y64493298D01*
X75553240Y65044285D01*
X75342831Y65553515D01*
X74953564Y65943461D01*
X74444702Y66154759D01*
X73893715Y66155240D01*
X73384485Y65944831D01*
X72994539Y65555564D01*
X72783241Y65046702D01*
X72782760Y64495715D01*
X71027580Y64495715D01*
X69111647Y66411647D01*
X68831021Y66599156D01*
X68500000Y66665000D01*
X59748295Y66665000D01*
X54355833Y72057461D01*
X54407809Y72092191D01*
X54548157Y72302235D01*
X54568739Y72405708D01*
X54873076Y72128355D01*
X55283110Y71958524D01*
X55513000Y72079845D01*
X55513000Y73273000D01*
X55493000Y73273000D01*
X55493000Y73527000D01*
X55513000Y73527000D01*
X55513000Y74720155D01*
X55767000Y74720155D01*
X55767000Y73527000D01*
X55787000Y73527000D01*
X55787000Y73273000D01*
X55767000Y73273000D01*
X55767000Y72079845D01*
X55996890Y71958524D01*
X56406924Y72128355D01*
X56835183Y72518642D01*
X56902298Y72661553D01*
X57129946Y72320853D01*
X57611715Y71998946D01*
X58180000Y71885907D01*
X58748285Y71998946D01*
X59230054Y72320853D01*
X59551961Y72802622D01*
X59665000Y73370907D01*
X59665000Y73429093D01*
X59551961Y73997378D01*
X59230054Y74479147D01*
X58899524Y74700000D01*
X66052560Y74700000D01*
X66052560Y71100000D01*
X66101843Y70852235D01*
X66242191Y70642191D01*
X66452235Y70501843D01*
X66700000Y70452560D01*
X68500000Y70452560D01*
X68747765Y70501843D01*
X68957809Y70642191D01*
X69098157Y70852235D01*
X69147440Y71100000D01*
X69147440Y73847704D01*
X69565000Y73847704D01*
X69565000Y71952296D01*
X69681845Y71364877D01*
X70014591Y70866887D01*
X70512581Y70534141D01*
X71100000Y70417296D01*
X71687419Y70534141D01*
X72185409Y70866887D01*
X72518155Y71364877D01*
X72635000Y71952296D01*
X72635000Y73847704D01*
X73065000Y73847704D01*
X73065000Y71952296D01*
X73181845Y71364877D01*
X73514591Y70866887D01*
X74012581Y70534141D01*
X74600000Y70417296D01*
X75187419Y70534141D01*
X75685409Y70866887D01*
X76018155Y71364877D01*
X76135000Y71952296D01*
X76135000Y72773000D01*
X76565000Y72773000D01*
X76565000Y71873000D01*
X76730446Y71295248D01*
X77104394Y70824788D01*
X77629914Y70533244D01*
X77735260Y70508964D01*
X77973000Y70629622D01*
X77973000Y72773000D01*
X78227000Y72773000D01*
X78227000Y70629622D01*
X78464740Y70508964D01*
X78570086Y70533244D01*
X79095606Y70824788D01*
X79469554Y71295248D01*
X79635000Y71873000D01*
X79635000Y72773000D01*
X78227000Y72773000D01*
X77973000Y72773000D01*
X76565000Y72773000D01*
X76135000Y72773000D01*
X76135000Y73847704D01*
X76119228Y73927000D01*
X76565000Y73927000D01*
X76565000Y73027000D01*
X77973000Y73027000D01*
X77973000Y75170378D01*
X78227000Y75170378D01*
X78227000Y73027000D01*
X79635000Y73027000D01*
X79635000Y73927000D01*
X79469554Y74504752D01*
X79095606Y74975212D01*
X78570086Y75266756D01*
X78464740Y75291036D01*
X78227000Y75170378D01*
X77973000Y75170378D01*
X77735260Y75291036D01*
X77629914Y75266756D01*
X77104394Y74975212D01*
X76730446Y74504752D01*
X76565000Y73927000D01*
X76119228Y73927000D01*
X76018155Y74435123D01*
X75685409Y74933113D01*
X75187419Y75265859D01*
X74600000Y75382704D01*
X74012581Y75265859D01*
X73514591Y74933113D01*
X73181845Y74435123D01*
X73065000Y73847704D01*
X72635000Y73847704D01*
X72518155Y74435123D01*
X72185409Y74933113D01*
X71687419Y75265859D01*
X71100000Y75382704D01*
X70512581Y75265859D01*
X70014591Y74933113D01*
X69681845Y74435123D01*
X69565000Y73847704D01*
X69147440Y73847704D01*
X69147440Y74700000D01*
X69098157Y74947765D01*
X68957809Y75157809D01*
X68747765Y75298157D01*
X68500000Y75347440D01*
X66700000Y75347440D01*
X66452235Y75298157D01*
X66242191Y75157809D01*
X66101843Y74947765D01*
X66052560Y74700000D01*
X58899524Y74700000D01*
X58748285Y74801054D01*
X58180000Y74914093D01*
X57611715Y74801054D01*
X57129946Y74479147D01*
X56902298Y74138447D01*
X56835183Y74281358D01*
X56406924Y74671645D01*
X55996890Y74841476D01*
X55767000Y74720155D01*
X55513000Y74720155D01*
X55283110Y74841476D01*
X54873076Y74671645D01*
X54568739Y74394292D01*
X54548157Y74497765D01*
X54407809Y74707809D01*
X54197765Y74848157D01*
X53950000Y74897440D01*
X52250000Y74897440D01*
X52002235Y74848157D01*
X51792191Y74707809D01*
X51651843Y74497765D01*
X51602560Y74250000D01*
X51602560Y72550000D01*
X51651843Y72302235D01*
X51792191Y72092191D01*
X52002235Y71951843D01*
X52235000Y71905544D01*
X52235000Y71518294D01*
X48601706Y67885000D01*
X31978294Y67885000D01*
X30175860Y69687434D01*
X30257809Y69742191D01*
X30398157Y69952235D01*
X30447440Y70200000D01*
X30447440Y71873000D01*
X30865000Y71873000D01*
X30865000Y70973000D01*
X31030446Y70395248D01*
X31404394Y69924788D01*
X31929914Y69633244D01*
X32035260Y69608964D01*
X32273000Y69729622D01*
X32273000Y71873000D01*
X32527000Y71873000D01*
X32527000Y69729622D01*
X32764740Y69608964D01*
X32870086Y69633244D01*
X33395606Y69924788D01*
X33769554Y70395248D01*
X33935000Y70973000D01*
X33935000Y71873000D01*
X32527000Y71873000D01*
X32273000Y71873000D01*
X30865000Y71873000D01*
X30447440Y71873000D01*
X30447440Y73027000D01*
X30865000Y73027000D01*
X30865000Y72127000D01*
X32273000Y72127000D01*
X32273000Y74270378D01*
X32527000Y74270378D01*
X32527000Y72127000D01*
X33935000Y72127000D01*
X33935000Y73027000D01*
X33769554Y73604752D01*
X33395606Y74075212D01*
X33044174Y74270177D01*
X36504630Y74270177D01*
X37056820Y72933775D01*
X38078397Y71910414D01*
X39413834Y71355892D01*
X40859823Y71354630D01*
X42196225Y71906820D01*
X43219586Y72928397D01*
X43768363Y74250000D01*
X45902560Y74250000D01*
X45902560Y72550000D01*
X45951843Y72302235D01*
X46092191Y72092191D01*
X46302235Y71951843D01*
X46550000Y71902560D01*
X48250000Y71902560D01*
X48497765Y71951843D01*
X48707809Y72092191D01*
X48848157Y72302235D01*
X48897440Y72550000D01*
X48897440Y74250000D01*
X48848157Y74497765D01*
X48707809Y74707809D01*
X48497765Y74848157D01*
X48250000Y74897440D01*
X46550000Y74897440D01*
X46302235Y74848157D01*
X46092191Y74707809D01*
X45951843Y74497765D01*
X45902560Y74250000D01*
X43768363Y74250000D01*
X43774108Y74263834D01*
X43775370Y75709823D01*
X43223180Y77046225D01*
X42201603Y78069586D01*
X40866166Y78624108D01*
X39420177Y78625370D01*
X38083775Y78073180D01*
X37060414Y77051603D01*
X36505892Y75716166D01*
X36504630Y74270177D01*
X33044174Y74270177D01*
X32870086Y74366756D01*
X32764740Y74391036D01*
X32527000Y74270378D01*
X32273000Y74270378D01*
X32035260Y74391036D01*
X31929914Y74366756D01*
X31404394Y74075212D01*
X31030446Y73604752D01*
X30865000Y73027000D01*
X30447440Y73027000D01*
X30447440Y73800000D01*
X30398157Y74047765D01*
X30257809Y74257809D01*
X30047765Y74398157D01*
X29800000Y74447440D01*
X28000000Y74447440D01*
X27752235Y74398157D01*
X27542191Y74257809D01*
X27401843Y74047765D01*
X27352560Y73800000D01*
X27352560Y70775855D01*
X14191706Y57615000D01*
X6758294Y57615000D01*
X3735000Y60638294D01*
X3735000Y60906512D01*
X4043461Y61214436D01*
X4254759Y61723298D01*
X4255240Y62274285D01*
X4044831Y62783515D01*
X3655564Y63173461D01*
X3146702Y63384759D01*
X2595715Y63385240D01*
X2086485Y63174831D01*
X1696539Y62785564D01*
X1485241Y62276702D01*
X1484760Y61725715D01*
X735000Y61725715D01*
X735000Y74114250D01*
X2385000Y74114250D01*
X2385000Y72473690D01*
X2481673Y72240301D01*
X2660302Y72061673D01*
X2893691Y71965000D01*
X3634250Y71965000D01*
X3793000Y72123750D01*
X3793000Y74273000D01*
X4047000Y74273000D01*
X4047000Y72123750D01*
X4205750Y71965000D01*
X4946309Y71965000D01*
X5179698Y72061673D01*
X5358327Y72240301D01*
X5455000Y72473690D01*
X5455000Y74114250D01*
X5296250Y74273000D01*
X4047000Y74273000D01*
X3793000Y74273000D01*
X2543750Y74273000D01*
X2385000Y74114250D01*
X735000Y74114250D01*
X735000Y76326310D01*
X2385000Y76326310D01*
X2385000Y74685750D01*
X2543750Y74527000D01*
X3793000Y74527000D01*
X3793000Y76676250D01*
X4047000Y76676250D01*
X4047000Y74527000D01*
X5296250Y74527000D01*
X5455000Y74685750D01*
X5455000Y75347704D01*
X7465000Y75347704D01*
X7465000Y73452296D01*
X7581845Y72864877D01*
X7914591Y72366887D01*
X8412581Y72034141D01*
X9000000Y71917296D01*
X9587419Y72034141D01*
X10085409Y72366887D01*
X10418155Y72864877D01*
X10535000Y73452296D01*
X10535000Y75347704D01*
X12545000Y75347704D01*
X12545000Y73452296D01*
X12661845Y72864877D01*
X12994591Y72366887D01*
X13492581Y72034141D01*
X14080000Y71917296D01*
X14667419Y72034141D01*
X15165409Y72366887D01*
X15498155Y72864877D01*
X15615000Y73452296D01*
X15615000Y75347704D01*
X17625000Y75347704D01*
X17625000Y73452296D01*
X17741845Y72864877D01*
X18074591Y72366887D01*
X18572581Y72034141D01*
X19160000Y71917296D01*
X19747419Y72034141D01*
X20245409Y72366887D01*
X20578155Y72864877D01*
X20695000Y73452296D01*
X20695000Y75347704D01*
X20578155Y75935123D01*
X20245409Y76433113D01*
X19747419Y76765859D01*
X19160000Y76882704D01*
X18572581Y76765859D01*
X18074591Y76433113D01*
X17741845Y75935123D01*
X17625000Y75347704D01*
X15615000Y75347704D01*
X15498155Y75935123D01*
X15165409Y76433113D01*
X14667419Y76765859D01*
X14080000Y76882704D01*
X13492581Y76765859D01*
X12994591Y76433113D01*
X12661845Y75935123D01*
X12545000Y75347704D01*
X10535000Y75347704D01*
X10418155Y75935123D01*
X10085409Y76433113D01*
X9587419Y76765859D01*
X9000000Y76882704D01*
X8412581Y76765859D01*
X7914591Y76433113D01*
X7581845Y75935123D01*
X7465000Y75347704D01*
X5455000Y75347704D01*
X5455000Y76326310D01*
X5358327Y76559699D01*
X5179698Y76738327D01*
X4946309Y76835000D01*
X4205750Y76835000D01*
X4047000Y76676250D01*
X3793000Y76676250D01*
X3634250Y76835000D01*
X2893691Y76835000D01*
X2660302Y76738327D01*
X2481673Y76559699D01*
X2385000Y76326310D01*
X735000Y76326310D01*
X735000Y79275000D01*
X81307000Y79275000D01*
X81307000Y735000D01*
M02*
