M48
METRIC,TZ
T1C0.762
T2C1.000
T3C1.001
%
G90
G05
T1
X24638Y24892
X28448Y14732
X35052Y14732
X35052Y12192
X35052Y9652
X6858Y24892
X9398Y24892
X11938Y24892
X14478Y24892
X17018Y24892
X19558Y24892
X22098Y24892
X27178Y24892
X29718Y24892
X10668Y14732
X10668Y12192
X10668Y9652
X28448Y12192
X28448Y9652
T2
X34798Y24892
X34798Y22352
X4318Y17018
X4318Y14478
X4318Y11938
X4318Y9398
T3
X10668Y5588
X20828Y5588
T0
M30
