G04 #@! TF.FileFunction,Copper,L1,Top,Signal*
%FSLAX46Y46*%
G04 Gerber Fmt 4.6, Leading zero omitted, Abs format (unit mm)*
G04 Created by KiCad (PCBNEW 4.0.6) date 05/28/17 14:00:10*
%MOMM*%
%LPD*%
G01*
G04 APERTURE LIST*
%ADD10C,0.100000*%
%ADD11R,1.500000X1.250000*%
%ADD12R,1.250000X1.500000*%
%ADD13R,1.700000X1.700000*%
%ADD14O,1.700000X1.700000*%
%ADD15R,1.500000X1.300000*%
%ADD16C,1.524000*%
%ADD17C,0.600000*%
%ADD18C,0.254000*%
G04 APERTURE END LIST*
D10*
D11*
X18562000Y30988000D03*
X21062000Y30988000D03*
D12*
X9652000Y6584000D03*
X9652000Y4084000D03*
X45466000Y4298000D03*
X45466000Y1798000D03*
D13*
X4826000Y6350000D03*
D14*
X4826000Y8890000D03*
X4826000Y11430000D03*
X4826000Y13970000D03*
D13*
X52070000Y23368000D03*
D14*
X52070000Y20828000D03*
D15*
X37926000Y34290000D03*
X35226000Y34290000D03*
X37926000Y38100000D03*
X35226000Y38100000D03*
D16*
X18796000Y25654000D03*
X21336000Y25654000D03*
X23876000Y25654000D03*
X26416000Y25654000D03*
X28956000Y25654000D03*
X31496000Y25654000D03*
X34036000Y25654000D03*
X36576000Y25654000D03*
X39116000Y25654000D03*
X41656000Y25654000D03*
X42672000Y12446000D03*
X42672000Y9906000D03*
X42672000Y7366000D03*
X19812000Y12446000D03*
X19812000Y9906000D03*
X19812000Y7366000D03*
X50546000Y12192000D03*
X50546000Y9652000D03*
X50546000Y7112000D03*
D17*
X39116000Y23622000D02*
X41910000Y20828000D01*
X41910000Y20828000D02*
X52070000Y20828000D01*
X39116000Y25654000D02*
X39116000Y23622000D01*
X2794000Y16764000D02*
X11684000Y25654000D01*
X11684000Y25654000D02*
X18796000Y25654000D01*
X2794000Y6932000D02*
X2794000Y16764000D01*
X4826000Y6350000D02*
X3376000Y6350000D01*
X3376000Y6350000D02*
X2794000Y6932000D01*
X18562000Y30988000D02*
X18562000Y25888000D01*
X18562000Y25888000D02*
X18796000Y25654000D01*
X42672000Y7366000D02*
X40132000Y7366000D01*
X40132000Y7366000D02*
X36576000Y7366000D01*
X40132000Y16256000D02*
X40132000Y7366000D01*
X42672000Y18796000D02*
X40132000Y16256000D01*
X48835919Y18796000D02*
X42672000Y18796000D01*
X52070000Y20828000D02*
X50867919Y20828000D01*
X50867919Y20828000D02*
X48835919Y18796000D01*
X16002000Y3556000D02*
X12974000Y6584000D01*
X12974000Y6584000D02*
X9652000Y6584000D01*
X32766000Y3556000D02*
X16002000Y3556000D01*
X36576000Y7366000D02*
X32766000Y3556000D01*
X42672000Y7366000D02*
X42672000Y7092000D01*
X42672000Y7092000D02*
X45466000Y4298000D01*
X4826000Y6350000D02*
X9418000Y6350000D01*
X9418000Y6350000D02*
X9652000Y6584000D01*
X21336000Y9906000D02*
X26416000Y14986000D01*
X26416000Y14986000D02*
X26416000Y25654000D01*
X19812000Y9906000D02*
X21336000Y9906000D01*
X14224000Y8890000D02*
X15240000Y9906000D01*
X15240000Y9906000D02*
X19812000Y9906000D01*
X4826000Y8890000D02*
X14224000Y8890000D01*
X20573999Y17271999D02*
X23876000Y20574000D01*
X23876000Y20574000D02*
X23876000Y25654000D01*
X19812000Y12446000D02*
X20573999Y13207999D01*
X20573999Y13207999D02*
X20573999Y17271999D01*
X4826000Y11430000D02*
X13970000Y11430000D01*
X13970000Y11430000D02*
X14986000Y12446000D01*
X14986000Y12446000D02*
X19812000Y12446000D01*
X52070000Y23368000D02*
X52070000Y24818000D01*
X52070000Y24818000D02*
X51234000Y25654000D01*
X51234000Y25654000D02*
X42733630Y25654000D01*
X42733630Y25654000D02*
X41656000Y25654000D01*
X35226000Y38100000D02*
X35226000Y34290000D01*
X34036000Y25654000D02*
X34036000Y33100000D01*
X34036000Y33100000D02*
X35226000Y34290000D01*
X42672000Y12446000D02*
X50292000Y12446000D01*
X50292000Y12446000D02*
X50546000Y12192000D01*
X42672000Y9906000D02*
X50292000Y9906000D01*
X50292000Y9906000D02*
X50546000Y9652000D01*
D18*
G36*
X53468496Y42037596D02*
X53973465Y-379788D01*
X127756Y125806D01*
X136057Y1512250D01*
X44206000Y1512250D01*
X44206000Y921691D01*
X44302673Y688302D01*
X44481301Y509673D01*
X44714690Y413000D01*
X45180250Y413000D01*
X45339000Y571750D01*
X45339000Y1671000D01*
X45593000Y1671000D01*
X45593000Y571750D01*
X45751750Y413000D01*
X46217310Y413000D01*
X46450699Y509673D01*
X46629327Y688302D01*
X46726000Y921691D01*
X46726000Y1512250D01*
X46567250Y1671000D01*
X45593000Y1671000D01*
X45339000Y1671000D01*
X44364750Y1671000D01*
X44206000Y1512250D01*
X136057Y1512250D01*
X149746Y3798250D01*
X8392000Y3798250D01*
X8392000Y3207691D01*
X8488673Y2974302D01*
X8667301Y2795673D01*
X8900690Y2699000D01*
X9366250Y2699000D01*
X9525000Y2857750D01*
X9525000Y3957000D01*
X9779000Y3957000D01*
X9779000Y2857750D01*
X9937750Y2699000D01*
X10403310Y2699000D01*
X10636699Y2795673D01*
X10815327Y2974302D01*
X10912000Y3207691D01*
X10912000Y3798250D01*
X10753250Y3957000D01*
X9779000Y3957000D01*
X9525000Y3957000D01*
X8550750Y3957000D01*
X8392000Y3798250D01*
X149746Y3798250D01*
X227385Y16764000D01*
X1859000Y16764000D01*
X1859000Y6932000D01*
X1930173Y6574191D01*
X2132855Y6270855D01*
X2714855Y5688855D01*
X3018191Y5486173D01*
X3343331Y5421498D01*
X3372838Y5264683D01*
X3511910Y5048559D01*
X3724110Y4903569D01*
X3976000Y4852560D01*
X5676000Y4852560D01*
X5911317Y4896838D01*
X6127441Y5035910D01*
X6272431Y5248110D01*
X6306227Y5415000D01*
X8542035Y5415000D01*
X8562910Y5382559D01*
X8631006Y5336031D01*
X8488673Y5193698D01*
X8392000Y4960309D01*
X8392000Y4369750D01*
X8550750Y4211000D01*
X9525000Y4211000D01*
X9525000Y4231000D01*
X9779000Y4231000D01*
X9779000Y4211000D01*
X10753250Y4211000D01*
X10912000Y4369750D01*
X10912000Y4960309D01*
X10815327Y5193698D01*
X10674090Y5334936D01*
X10728441Y5369910D01*
X10873431Y5582110D01*
X10886977Y5649000D01*
X12586710Y5649000D01*
X15340855Y2894855D01*
X15644191Y2692173D01*
X16002000Y2621000D01*
X32766000Y2621000D01*
X33123809Y2692173D01*
X33427145Y2894855D01*
X36963290Y6431000D01*
X41631435Y6431000D01*
X41879630Y6182371D01*
X42392900Y5969243D01*
X42472536Y5969174D01*
X44193560Y4248150D01*
X44193560Y3548000D01*
X44237838Y3312683D01*
X44376910Y3096559D01*
X44445006Y3050031D01*
X44302673Y2907698D01*
X44206000Y2674309D01*
X44206000Y2083750D01*
X44364750Y1925000D01*
X45339000Y1925000D01*
X45339000Y1945000D01*
X45593000Y1945000D01*
X45593000Y1925000D01*
X46567250Y1925000D01*
X46726000Y2083750D01*
X46726000Y2674309D01*
X46629327Y2907698D01*
X46488090Y3048936D01*
X46542441Y3083910D01*
X46687431Y3296110D01*
X46738440Y3548000D01*
X46738440Y5048000D01*
X46694162Y5283317D01*
X46555090Y5499441D01*
X46342890Y5644431D01*
X46091000Y5695440D01*
X45390850Y5695440D01*
X44048404Y7037886D01*
X44068757Y7086900D01*
X44069242Y7642661D01*
X43857010Y8156303D01*
X43464370Y8549629D01*
X43256488Y8635949D01*
X43462303Y8720990D01*
X43712750Y8971000D01*
X49315827Y8971000D01*
X49360990Y8861697D01*
X49753630Y8468371D01*
X49961512Y8382051D01*
X49755697Y8297010D01*
X49362371Y7904370D01*
X49149243Y7391100D01*
X49148758Y6835339D01*
X49360990Y6321697D01*
X49753630Y5928371D01*
X50266900Y5715243D01*
X50822661Y5714758D01*
X51336303Y5926990D01*
X51729629Y6319630D01*
X51942757Y6832900D01*
X51943242Y7388661D01*
X51731010Y7902303D01*
X51338370Y8295629D01*
X51130488Y8381949D01*
X51336303Y8466990D01*
X51729629Y8859630D01*
X51942757Y9372900D01*
X51943242Y9928661D01*
X51731010Y10442303D01*
X51338370Y10835629D01*
X51130488Y10921949D01*
X51336303Y11006990D01*
X51729629Y11399630D01*
X51942757Y11912900D01*
X51943242Y12468661D01*
X51731010Y12982303D01*
X51338370Y13375629D01*
X50825100Y13588757D01*
X50269339Y13589242D01*
X49765354Y13381000D01*
X43712565Y13381000D01*
X43464370Y13629629D01*
X42951100Y13842757D01*
X42395339Y13843242D01*
X41881697Y13631010D01*
X41488371Y13238370D01*
X41275243Y12725100D01*
X41274758Y12169339D01*
X41486990Y11655697D01*
X41879630Y11262371D01*
X42087512Y11176051D01*
X41881697Y11091010D01*
X41488371Y10698370D01*
X41275243Y10185100D01*
X41274758Y9629339D01*
X41486990Y9115697D01*
X41879630Y8722371D01*
X42087512Y8636051D01*
X41881697Y8551010D01*
X41631250Y8301000D01*
X41067000Y8301000D01*
X41067000Y15868710D01*
X43059290Y17861000D01*
X48835919Y17861000D01*
X49193728Y17932173D01*
X49497064Y18134855D01*
X51080353Y19718144D01*
X51472622Y19456039D01*
X52040907Y19343000D01*
X52099093Y19343000D01*
X52667378Y19456039D01*
X53149147Y19777946D01*
X53471054Y20259715D01*
X53584093Y20828000D01*
X53471054Y21396285D01*
X53149147Y21878054D01*
X53107548Y21905850D01*
X53155317Y21914838D01*
X53371441Y22053910D01*
X53516431Y22266110D01*
X53567440Y22518000D01*
X53567440Y24218000D01*
X53523162Y24453317D01*
X53384090Y24669441D01*
X53171890Y24814431D01*
X52998736Y24849496D01*
X52933827Y25175808D01*
X52933827Y25175809D01*
X52731145Y25479145D01*
X51895145Y26315145D01*
X51591809Y26517827D01*
X51234000Y26589000D01*
X42696565Y26589000D01*
X42448370Y26837629D01*
X41935100Y27050757D01*
X41379339Y27051242D01*
X40865697Y26839010D01*
X40472371Y26446370D01*
X40386051Y26238488D01*
X40301010Y26444303D01*
X39908370Y26837629D01*
X39395100Y27050757D01*
X38839339Y27051242D01*
X38325697Y26839010D01*
X37932371Y26446370D01*
X37852605Y26254273D01*
X37798397Y26385143D01*
X37556213Y26454608D01*
X36755605Y25654000D01*
X37556213Y24853392D01*
X37798397Y24922857D01*
X37848509Y25063318D01*
X37930990Y24863697D01*
X38181000Y24613250D01*
X38181000Y23622000D01*
X38252173Y23264191D01*
X38454855Y22960855D01*
X41248855Y20166855D01*
X41552191Y19964173D01*
X41910000Y19893000D01*
X48610629Y19893000D01*
X48448629Y19731000D01*
X42672000Y19731000D01*
X42314191Y19659827D01*
X42010855Y19457145D01*
X39470855Y16917145D01*
X39268173Y16613809D01*
X39197000Y16256000D01*
X39197000Y8301000D01*
X36576000Y8301000D01*
X36218191Y8229827D01*
X35914855Y8027145D01*
X32378710Y4491000D01*
X16389290Y4491000D01*
X14494503Y6385787D01*
X19011392Y6385787D01*
X19080857Y6143603D01*
X19604302Y5956856D01*
X20159368Y5984638D01*
X20543143Y6143603D01*
X20612608Y6385787D01*
X19812000Y7186395D01*
X19011392Y6385787D01*
X14494503Y6385787D01*
X13635145Y7245145D01*
X13331809Y7447827D01*
X12974000Y7519000D01*
X10889630Y7519000D01*
X10880162Y7569317D01*
X10877343Y7573698D01*
X18402856Y7573698D01*
X18430638Y7018632D01*
X18589603Y6634857D01*
X18831787Y6565392D01*
X19632395Y7366000D01*
X19991605Y7366000D01*
X20792213Y6565392D01*
X21034397Y6634857D01*
X21221144Y7158302D01*
X21193362Y7713368D01*
X21034397Y8097143D01*
X20792213Y8166608D01*
X19991605Y7366000D01*
X19632395Y7366000D01*
X18831787Y8166608D01*
X18589603Y8097143D01*
X18402856Y7573698D01*
X10877343Y7573698D01*
X10741090Y7785441D01*
X10528890Y7930431D01*
X10407565Y7955000D01*
X14224000Y7955000D01*
X14581809Y8026173D01*
X14885145Y8228855D01*
X15627290Y8971000D01*
X18771435Y8971000D01*
X19019630Y8722371D01*
X19211727Y8642605D01*
X19080857Y8588397D01*
X19011392Y8346213D01*
X19812000Y7545605D01*
X20612608Y8346213D01*
X20543143Y8588397D01*
X20402682Y8638509D01*
X20602303Y8720990D01*
X20852750Y8971000D01*
X21336000Y8971000D01*
X21693809Y9042173D01*
X21997145Y9244855D01*
X27077145Y14324855D01*
X27279827Y14628191D01*
X27351000Y14986000D01*
X27351000Y24613435D01*
X27599629Y24861630D01*
X27685949Y25069512D01*
X27770990Y24863697D01*
X28163630Y24470371D01*
X28676900Y24257243D01*
X29232661Y24256758D01*
X29746303Y24468990D01*
X30139629Y24861630D01*
X30225949Y25069512D01*
X30310990Y24863697D01*
X30703630Y24470371D01*
X31216900Y24257243D01*
X31772661Y24256758D01*
X32286303Y24468990D01*
X32679629Y24861630D01*
X32765949Y25069512D01*
X32850990Y24863697D01*
X33243630Y24470371D01*
X33756900Y24257243D01*
X34312661Y24256758D01*
X34826303Y24468990D01*
X35031457Y24673787D01*
X35775392Y24673787D01*
X35844857Y24431603D01*
X36368302Y24244856D01*
X36923368Y24272638D01*
X37307143Y24431603D01*
X37376608Y24673787D01*
X36576000Y25474395D01*
X35775392Y24673787D01*
X35031457Y24673787D01*
X35219629Y24861630D01*
X35299395Y25053727D01*
X35353603Y24922857D01*
X35595787Y24853392D01*
X36396395Y25654000D01*
X35595787Y26454608D01*
X35353603Y26385143D01*
X35303491Y26244682D01*
X35221010Y26444303D01*
X35031432Y26634213D01*
X35775392Y26634213D01*
X36576000Y25833605D01*
X37376608Y26634213D01*
X37307143Y26876397D01*
X36783698Y27063144D01*
X36228632Y27035362D01*
X35844857Y26876397D01*
X35775392Y26634213D01*
X35031432Y26634213D01*
X34971000Y26694750D01*
X34971000Y32712710D01*
X35250850Y32992560D01*
X35976000Y32992560D01*
X36211317Y33036838D01*
X36427441Y33175910D01*
X36572431Y33388110D01*
X36579191Y33421490D01*
X36637673Y33280301D01*
X36816302Y33101673D01*
X37049691Y33005000D01*
X37640250Y33005000D01*
X37799000Y33163750D01*
X37799000Y34163000D01*
X38053000Y34163000D01*
X38053000Y33163750D01*
X38211750Y33005000D01*
X38802309Y33005000D01*
X39035698Y33101673D01*
X39214327Y33280301D01*
X39311000Y33513690D01*
X39311000Y34004250D01*
X39152250Y34163000D01*
X38053000Y34163000D01*
X37799000Y34163000D01*
X37779000Y34163000D01*
X37779000Y34417000D01*
X37799000Y34417000D01*
X37799000Y35416250D01*
X38053000Y35416250D01*
X38053000Y34417000D01*
X39152250Y34417000D01*
X39311000Y34575750D01*
X39311000Y35066310D01*
X39214327Y35299699D01*
X39035698Y35478327D01*
X38802309Y35575000D01*
X38211750Y35575000D01*
X38053000Y35416250D01*
X37799000Y35416250D01*
X37640250Y35575000D01*
X37049691Y35575000D01*
X36816302Y35478327D01*
X36637673Y35299699D01*
X36581346Y35163713D01*
X36579162Y35175317D01*
X36440090Y35391441D01*
X36227890Y35536431D01*
X36161000Y35549977D01*
X36161000Y36837370D01*
X36211317Y36846838D01*
X36427441Y36985910D01*
X36572431Y37198110D01*
X36579191Y37231490D01*
X36637673Y37090301D01*
X36816302Y36911673D01*
X37049691Y36815000D01*
X37640250Y36815000D01*
X37799000Y36973750D01*
X37799000Y37973000D01*
X38053000Y37973000D01*
X38053000Y36973750D01*
X38211750Y36815000D01*
X38802309Y36815000D01*
X39035698Y36911673D01*
X39214327Y37090301D01*
X39311000Y37323690D01*
X39311000Y37814250D01*
X39152250Y37973000D01*
X38053000Y37973000D01*
X37799000Y37973000D01*
X37779000Y37973000D01*
X37779000Y38227000D01*
X37799000Y38227000D01*
X37799000Y39226250D01*
X38053000Y39226250D01*
X38053000Y38227000D01*
X39152250Y38227000D01*
X39311000Y38385750D01*
X39311000Y38876310D01*
X39214327Y39109699D01*
X39035698Y39288327D01*
X38802309Y39385000D01*
X38211750Y39385000D01*
X38053000Y39226250D01*
X37799000Y39226250D01*
X37640250Y39385000D01*
X37049691Y39385000D01*
X36816302Y39288327D01*
X36637673Y39109699D01*
X36581346Y38973713D01*
X36579162Y38985317D01*
X36440090Y39201441D01*
X36227890Y39346431D01*
X35976000Y39397440D01*
X34476000Y39397440D01*
X34240683Y39353162D01*
X34024559Y39214090D01*
X33879569Y39001890D01*
X33828560Y38750000D01*
X33828560Y37450000D01*
X33872838Y37214683D01*
X34011910Y36998559D01*
X34224110Y36853569D01*
X34291000Y36840023D01*
X34291000Y35552630D01*
X34240683Y35543162D01*
X34024559Y35404090D01*
X33879569Y35191890D01*
X33828560Y34940000D01*
X33828560Y34214850D01*
X33374855Y33761145D01*
X33172173Y33457809D01*
X33101000Y33100000D01*
X33101000Y26694565D01*
X32852371Y26446370D01*
X32766051Y26238488D01*
X32681010Y26444303D01*
X32288370Y26837629D01*
X31775100Y27050757D01*
X31219339Y27051242D01*
X30705697Y26839010D01*
X30312371Y26446370D01*
X30226051Y26238488D01*
X30141010Y26444303D01*
X29748370Y26837629D01*
X29235100Y27050757D01*
X28679339Y27051242D01*
X28165697Y26839010D01*
X27772371Y26446370D01*
X27686051Y26238488D01*
X27601010Y26444303D01*
X27208370Y26837629D01*
X26695100Y27050757D01*
X26139339Y27051242D01*
X25625697Y26839010D01*
X25232371Y26446370D01*
X25146051Y26238488D01*
X25061010Y26444303D01*
X24668370Y26837629D01*
X24155100Y27050757D01*
X23599339Y27051242D01*
X23085697Y26839010D01*
X22692371Y26446370D01*
X22612605Y26254273D01*
X22558397Y26385143D01*
X22316213Y26454608D01*
X21515605Y25654000D01*
X22316213Y24853392D01*
X22558397Y24922857D01*
X22608509Y25063318D01*
X22690990Y24863697D01*
X22941000Y24613250D01*
X22941000Y20961290D01*
X19912854Y17933144D01*
X19710172Y17629808D01*
X19638999Y17271999D01*
X19638999Y13843152D01*
X19535339Y13843242D01*
X19021697Y13631010D01*
X18771250Y13381000D01*
X14986000Y13381000D01*
X14628191Y13309827D01*
X14324855Y13107145D01*
X13582710Y12365000D01*
X5982023Y12365000D01*
X5905147Y12480054D01*
X5564447Y12707702D01*
X5707358Y12774817D01*
X6097645Y13203076D01*
X6267476Y13613110D01*
X6146155Y13843000D01*
X4953000Y13843000D01*
X4953000Y13823000D01*
X4699000Y13823000D01*
X4699000Y13843000D01*
X4679000Y13843000D01*
X4679000Y14097000D01*
X4699000Y14097000D01*
X4699000Y15290819D01*
X4953000Y15290819D01*
X4953000Y14097000D01*
X6146155Y14097000D01*
X6267476Y14326890D01*
X6097645Y14736924D01*
X5707358Y15165183D01*
X5182892Y15411486D01*
X4953000Y15290819D01*
X4699000Y15290819D01*
X4469108Y15411486D01*
X3944642Y15165183D01*
X3729000Y14928561D01*
X3729000Y16376710D01*
X12071290Y24719000D01*
X17755435Y24719000D01*
X18003630Y24470371D01*
X18516900Y24257243D01*
X19072661Y24256758D01*
X19586303Y24468990D01*
X19791457Y24673787D01*
X20535392Y24673787D01*
X20604857Y24431603D01*
X21128302Y24244856D01*
X21683368Y24272638D01*
X22067143Y24431603D01*
X22136608Y24673787D01*
X21336000Y25474395D01*
X20535392Y24673787D01*
X19791457Y24673787D01*
X19979629Y24861630D01*
X20059395Y25053727D01*
X20113603Y24922857D01*
X20355787Y24853392D01*
X21156395Y25654000D01*
X20355787Y26454608D01*
X20113603Y26385143D01*
X20063491Y26244682D01*
X19981010Y26444303D01*
X19791432Y26634213D01*
X20535392Y26634213D01*
X21336000Y25833605D01*
X22136608Y26634213D01*
X22067143Y26876397D01*
X21543698Y27063144D01*
X20988632Y27035362D01*
X20604857Y26876397D01*
X20535392Y26634213D01*
X19791432Y26634213D01*
X19588370Y26837629D01*
X19497000Y26875569D01*
X19497000Y29750370D01*
X19547317Y29759838D01*
X19763441Y29898910D01*
X19809969Y29967006D01*
X19952302Y29824673D01*
X20185691Y29728000D01*
X20776250Y29728000D01*
X20935000Y29886750D01*
X20935000Y30861000D01*
X21189000Y30861000D01*
X21189000Y29886750D01*
X21347750Y29728000D01*
X21938309Y29728000D01*
X22171698Y29824673D01*
X22350327Y30003301D01*
X22447000Y30236690D01*
X22447000Y30702250D01*
X22288250Y30861000D01*
X21189000Y30861000D01*
X20935000Y30861000D01*
X20915000Y30861000D01*
X20915000Y31115000D01*
X20935000Y31115000D01*
X20935000Y32089250D01*
X21189000Y32089250D01*
X21189000Y31115000D01*
X22288250Y31115000D01*
X22447000Y31273750D01*
X22447000Y31739310D01*
X22350327Y31972699D01*
X22171698Y32151327D01*
X21938309Y32248000D01*
X21347750Y32248000D01*
X21189000Y32089250D01*
X20935000Y32089250D01*
X20776250Y32248000D01*
X20185691Y32248000D01*
X19952302Y32151327D01*
X19811064Y32010090D01*
X19776090Y32064441D01*
X19563890Y32209431D01*
X19312000Y32260440D01*
X17812000Y32260440D01*
X17576683Y32216162D01*
X17360559Y32077090D01*
X17215569Y31864890D01*
X17164560Y31613000D01*
X17164560Y30363000D01*
X17208838Y30127683D01*
X17347910Y29911559D01*
X17560110Y29766569D01*
X17627000Y29753023D01*
X17627000Y26589000D01*
X11684005Y26589000D01*
X11684000Y26589001D01*
X11385556Y26529636D01*
X11326191Y26517827D01*
X11127615Y26385143D01*
X11022855Y26315145D01*
X2132855Y17425145D01*
X1930173Y17121809D01*
X1859000Y16764000D01*
X227385Y16764000D01*
X380238Y42290397D01*
X53468496Y42037596D01*
X53468496Y42037596D01*
G37*
X53468496Y42037596D02*
X53973465Y-379788D01*
X127756Y125806D01*
X136057Y1512250D01*
X44206000Y1512250D01*
X44206000Y921691D01*
X44302673Y688302D01*
X44481301Y509673D01*
X44714690Y413000D01*
X45180250Y413000D01*
X45339000Y571750D01*
X45339000Y1671000D01*
X45593000Y1671000D01*
X45593000Y571750D01*
X45751750Y413000D01*
X46217310Y413000D01*
X46450699Y509673D01*
X46629327Y688302D01*
X46726000Y921691D01*
X46726000Y1512250D01*
X46567250Y1671000D01*
X45593000Y1671000D01*
X45339000Y1671000D01*
X44364750Y1671000D01*
X44206000Y1512250D01*
X136057Y1512250D01*
X149746Y3798250D01*
X8392000Y3798250D01*
X8392000Y3207691D01*
X8488673Y2974302D01*
X8667301Y2795673D01*
X8900690Y2699000D01*
X9366250Y2699000D01*
X9525000Y2857750D01*
X9525000Y3957000D01*
X9779000Y3957000D01*
X9779000Y2857750D01*
X9937750Y2699000D01*
X10403310Y2699000D01*
X10636699Y2795673D01*
X10815327Y2974302D01*
X10912000Y3207691D01*
X10912000Y3798250D01*
X10753250Y3957000D01*
X9779000Y3957000D01*
X9525000Y3957000D01*
X8550750Y3957000D01*
X8392000Y3798250D01*
X149746Y3798250D01*
X227385Y16764000D01*
X1859000Y16764000D01*
X1859000Y6932000D01*
X1930173Y6574191D01*
X2132855Y6270855D01*
X2714855Y5688855D01*
X3018191Y5486173D01*
X3343331Y5421498D01*
X3372838Y5264683D01*
X3511910Y5048559D01*
X3724110Y4903569D01*
X3976000Y4852560D01*
X5676000Y4852560D01*
X5911317Y4896838D01*
X6127441Y5035910D01*
X6272431Y5248110D01*
X6306227Y5415000D01*
X8542035Y5415000D01*
X8562910Y5382559D01*
X8631006Y5336031D01*
X8488673Y5193698D01*
X8392000Y4960309D01*
X8392000Y4369750D01*
X8550750Y4211000D01*
X9525000Y4211000D01*
X9525000Y4231000D01*
X9779000Y4231000D01*
X9779000Y4211000D01*
X10753250Y4211000D01*
X10912000Y4369750D01*
X10912000Y4960309D01*
X10815327Y5193698D01*
X10674090Y5334936D01*
X10728441Y5369910D01*
X10873431Y5582110D01*
X10886977Y5649000D01*
X12586710Y5649000D01*
X15340855Y2894855D01*
X15644191Y2692173D01*
X16002000Y2621000D01*
X32766000Y2621000D01*
X33123809Y2692173D01*
X33427145Y2894855D01*
X36963290Y6431000D01*
X41631435Y6431000D01*
X41879630Y6182371D01*
X42392900Y5969243D01*
X42472536Y5969174D01*
X44193560Y4248150D01*
X44193560Y3548000D01*
X44237838Y3312683D01*
X44376910Y3096559D01*
X44445006Y3050031D01*
X44302673Y2907698D01*
X44206000Y2674309D01*
X44206000Y2083750D01*
X44364750Y1925000D01*
X45339000Y1925000D01*
X45339000Y1945000D01*
X45593000Y1945000D01*
X45593000Y1925000D01*
X46567250Y1925000D01*
X46726000Y2083750D01*
X46726000Y2674309D01*
X46629327Y2907698D01*
X46488090Y3048936D01*
X46542441Y3083910D01*
X46687431Y3296110D01*
X46738440Y3548000D01*
X46738440Y5048000D01*
X46694162Y5283317D01*
X46555090Y5499441D01*
X46342890Y5644431D01*
X46091000Y5695440D01*
X45390850Y5695440D01*
X44048404Y7037886D01*
X44068757Y7086900D01*
X44069242Y7642661D01*
X43857010Y8156303D01*
X43464370Y8549629D01*
X43256488Y8635949D01*
X43462303Y8720990D01*
X43712750Y8971000D01*
X49315827Y8971000D01*
X49360990Y8861697D01*
X49753630Y8468371D01*
X49961512Y8382051D01*
X49755697Y8297010D01*
X49362371Y7904370D01*
X49149243Y7391100D01*
X49148758Y6835339D01*
X49360990Y6321697D01*
X49753630Y5928371D01*
X50266900Y5715243D01*
X50822661Y5714758D01*
X51336303Y5926990D01*
X51729629Y6319630D01*
X51942757Y6832900D01*
X51943242Y7388661D01*
X51731010Y7902303D01*
X51338370Y8295629D01*
X51130488Y8381949D01*
X51336303Y8466990D01*
X51729629Y8859630D01*
X51942757Y9372900D01*
X51943242Y9928661D01*
X51731010Y10442303D01*
X51338370Y10835629D01*
X51130488Y10921949D01*
X51336303Y11006990D01*
X51729629Y11399630D01*
X51942757Y11912900D01*
X51943242Y12468661D01*
X51731010Y12982303D01*
X51338370Y13375629D01*
X50825100Y13588757D01*
X50269339Y13589242D01*
X49765354Y13381000D01*
X43712565Y13381000D01*
X43464370Y13629629D01*
X42951100Y13842757D01*
X42395339Y13843242D01*
X41881697Y13631010D01*
X41488371Y13238370D01*
X41275243Y12725100D01*
X41274758Y12169339D01*
X41486990Y11655697D01*
X41879630Y11262371D01*
X42087512Y11176051D01*
X41881697Y11091010D01*
X41488371Y10698370D01*
X41275243Y10185100D01*
X41274758Y9629339D01*
X41486990Y9115697D01*
X41879630Y8722371D01*
X42087512Y8636051D01*
X41881697Y8551010D01*
X41631250Y8301000D01*
X41067000Y8301000D01*
X41067000Y15868710D01*
X43059290Y17861000D01*
X48835919Y17861000D01*
X49193728Y17932173D01*
X49497064Y18134855D01*
X51080353Y19718144D01*
X51472622Y19456039D01*
X52040907Y19343000D01*
X52099093Y19343000D01*
X52667378Y19456039D01*
X53149147Y19777946D01*
X53471054Y20259715D01*
X53584093Y20828000D01*
X53471054Y21396285D01*
X53149147Y21878054D01*
X53107548Y21905850D01*
X53155317Y21914838D01*
X53371441Y22053910D01*
X53516431Y22266110D01*
X53567440Y22518000D01*
X53567440Y24218000D01*
X53523162Y24453317D01*
X53384090Y24669441D01*
X53171890Y24814431D01*
X52998736Y24849496D01*
X52933827Y25175808D01*
X52933827Y25175809D01*
X52731145Y25479145D01*
X51895145Y26315145D01*
X51591809Y26517827D01*
X51234000Y26589000D01*
X42696565Y26589000D01*
X42448370Y26837629D01*
X41935100Y27050757D01*
X41379339Y27051242D01*
X40865697Y26839010D01*
X40472371Y26446370D01*
X40386051Y26238488D01*
X40301010Y26444303D01*
X39908370Y26837629D01*
X39395100Y27050757D01*
X38839339Y27051242D01*
X38325697Y26839010D01*
X37932371Y26446370D01*
X37852605Y26254273D01*
X37798397Y26385143D01*
X37556213Y26454608D01*
X36755605Y25654000D01*
X37556213Y24853392D01*
X37798397Y24922857D01*
X37848509Y25063318D01*
X37930990Y24863697D01*
X38181000Y24613250D01*
X38181000Y23622000D01*
X38252173Y23264191D01*
X38454855Y22960855D01*
X41248855Y20166855D01*
X41552191Y19964173D01*
X41910000Y19893000D01*
X48610629Y19893000D01*
X48448629Y19731000D01*
X42672000Y19731000D01*
X42314191Y19659827D01*
X42010855Y19457145D01*
X39470855Y16917145D01*
X39268173Y16613809D01*
X39197000Y16256000D01*
X39197000Y8301000D01*
X36576000Y8301000D01*
X36218191Y8229827D01*
X35914855Y8027145D01*
X32378710Y4491000D01*
X16389290Y4491000D01*
X14494503Y6385787D01*
X19011392Y6385787D01*
X19080857Y6143603D01*
X19604302Y5956856D01*
X20159368Y5984638D01*
X20543143Y6143603D01*
X20612608Y6385787D01*
X19812000Y7186395D01*
X19011392Y6385787D01*
X14494503Y6385787D01*
X13635145Y7245145D01*
X13331809Y7447827D01*
X12974000Y7519000D01*
X10889630Y7519000D01*
X10880162Y7569317D01*
X10877343Y7573698D01*
X18402856Y7573698D01*
X18430638Y7018632D01*
X18589603Y6634857D01*
X18831787Y6565392D01*
X19632395Y7366000D01*
X19991605Y7366000D01*
X20792213Y6565392D01*
X21034397Y6634857D01*
X21221144Y7158302D01*
X21193362Y7713368D01*
X21034397Y8097143D01*
X20792213Y8166608D01*
X19991605Y7366000D01*
X19632395Y7366000D01*
X18831787Y8166608D01*
X18589603Y8097143D01*
X18402856Y7573698D01*
X10877343Y7573698D01*
X10741090Y7785441D01*
X10528890Y7930431D01*
X10407565Y7955000D01*
X14224000Y7955000D01*
X14581809Y8026173D01*
X14885145Y8228855D01*
X15627290Y8971000D01*
X18771435Y8971000D01*
X19019630Y8722371D01*
X19211727Y8642605D01*
X19080857Y8588397D01*
X19011392Y8346213D01*
X19812000Y7545605D01*
X20612608Y8346213D01*
X20543143Y8588397D01*
X20402682Y8638509D01*
X20602303Y8720990D01*
X20852750Y8971000D01*
X21336000Y8971000D01*
X21693809Y9042173D01*
X21997145Y9244855D01*
X27077145Y14324855D01*
X27279827Y14628191D01*
X27351000Y14986000D01*
X27351000Y24613435D01*
X27599629Y24861630D01*
X27685949Y25069512D01*
X27770990Y24863697D01*
X28163630Y24470371D01*
X28676900Y24257243D01*
X29232661Y24256758D01*
X29746303Y24468990D01*
X30139629Y24861630D01*
X30225949Y25069512D01*
X30310990Y24863697D01*
X30703630Y24470371D01*
X31216900Y24257243D01*
X31772661Y24256758D01*
X32286303Y24468990D01*
X32679629Y24861630D01*
X32765949Y25069512D01*
X32850990Y24863697D01*
X33243630Y24470371D01*
X33756900Y24257243D01*
X34312661Y24256758D01*
X34826303Y24468990D01*
X35031457Y24673787D01*
X35775392Y24673787D01*
X35844857Y24431603D01*
X36368302Y24244856D01*
X36923368Y24272638D01*
X37307143Y24431603D01*
X37376608Y24673787D01*
X36576000Y25474395D01*
X35775392Y24673787D01*
X35031457Y24673787D01*
X35219629Y24861630D01*
X35299395Y25053727D01*
X35353603Y24922857D01*
X35595787Y24853392D01*
X36396395Y25654000D01*
X35595787Y26454608D01*
X35353603Y26385143D01*
X35303491Y26244682D01*
X35221010Y26444303D01*
X35031432Y26634213D01*
X35775392Y26634213D01*
X36576000Y25833605D01*
X37376608Y26634213D01*
X37307143Y26876397D01*
X36783698Y27063144D01*
X36228632Y27035362D01*
X35844857Y26876397D01*
X35775392Y26634213D01*
X35031432Y26634213D01*
X34971000Y26694750D01*
X34971000Y32712710D01*
X35250850Y32992560D01*
X35976000Y32992560D01*
X36211317Y33036838D01*
X36427441Y33175910D01*
X36572431Y33388110D01*
X36579191Y33421490D01*
X36637673Y33280301D01*
X36816302Y33101673D01*
X37049691Y33005000D01*
X37640250Y33005000D01*
X37799000Y33163750D01*
X37799000Y34163000D01*
X38053000Y34163000D01*
X38053000Y33163750D01*
X38211750Y33005000D01*
X38802309Y33005000D01*
X39035698Y33101673D01*
X39214327Y33280301D01*
X39311000Y33513690D01*
X39311000Y34004250D01*
X39152250Y34163000D01*
X38053000Y34163000D01*
X37799000Y34163000D01*
X37779000Y34163000D01*
X37779000Y34417000D01*
X37799000Y34417000D01*
X37799000Y35416250D01*
X38053000Y35416250D01*
X38053000Y34417000D01*
X39152250Y34417000D01*
X39311000Y34575750D01*
X39311000Y35066310D01*
X39214327Y35299699D01*
X39035698Y35478327D01*
X38802309Y35575000D01*
X38211750Y35575000D01*
X38053000Y35416250D01*
X37799000Y35416250D01*
X37640250Y35575000D01*
X37049691Y35575000D01*
X36816302Y35478327D01*
X36637673Y35299699D01*
X36581346Y35163713D01*
X36579162Y35175317D01*
X36440090Y35391441D01*
X36227890Y35536431D01*
X36161000Y35549977D01*
X36161000Y36837370D01*
X36211317Y36846838D01*
X36427441Y36985910D01*
X36572431Y37198110D01*
X36579191Y37231490D01*
X36637673Y37090301D01*
X36816302Y36911673D01*
X37049691Y36815000D01*
X37640250Y36815000D01*
X37799000Y36973750D01*
X37799000Y37973000D01*
X38053000Y37973000D01*
X38053000Y36973750D01*
X38211750Y36815000D01*
X38802309Y36815000D01*
X39035698Y36911673D01*
X39214327Y37090301D01*
X39311000Y37323690D01*
X39311000Y37814250D01*
X39152250Y37973000D01*
X38053000Y37973000D01*
X37799000Y37973000D01*
X37779000Y37973000D01*
X37779000Y38227000D01*
X37799000Y38227000D01*
X37799000Y39226250D01*
X38053000Y39226250D01*
X38053000Y38227000D01*
X39152250Y38227000D01*
X39311000Y38385750D01*
X39311000Y38876310D01*
X39214327Y39109699D01*
X39035698Y39288327D01*
X38802309Y39385000D01*
X38211750Y39385000D01*
X38053000Y39226250D01*
X37799000Y39226250D01*
X37640250Y39385000D01*
X37049691Y39385000D01*
X36816302Y39288327D01*
X36637673Y39109699D01*
X36581346Y38973713D01*
X36579162Y38985317D01*
X36440090Y39201441D01*
X36227890Y39346431D01*
X35976000Y39397440D01*
X34476000Y39397440D01*
X34240683Y39353162D01*
X34024559Y39214090D01*
X33879569Y39001890D01*
X33828560Y38750000D01*
X33828560Y37450000D01*
X33872838Y37214683D01*
X34011910Y36998559D01*
X34224110Y36853569D01*
X34291000Y36840023D01*
X34291000Y35552630D01*
X34240683Y35543162D01*
X34024559Y35404090D01*
X33879569Y35191890D01*
X33828560Y34940000D01*
X33828560Y34214850D01*
X33374855Y33761145D01*
X33172173Y33457809D01*
X33101000Y33100000D01*
X33101000Y26694565D01*
X32852371Y26446370D01*
X32766051Y26238488D01*
X32681010Y26444303D01*
X32288370Y26837629D01*
X31775100Y27050757D01*
X31219339Y27051242D01*
X30705697Y26839010D01*
X30312371Y26446370D01*
X30226051Y26238488D01*
X30141010Y26444303D01*
X29748370Y26837629D01*
X29235100Y27050757D01*
X28679339Y27051242D01*
X28165697Y26839010D01*
X27772371Y26446370D01*
X27686051Y26238488D01*
X27601010Y26444303D01*
X27208370Y26837629D01*
X26695100Y27050757D01*
X26139339Y27051242D01*
X25625697Y26839010D01*
X25232371Y26446370D01*
X25146051Y26238488D01*
X25061010Y26444303D01*
X24668370Y26837629D01*
X24155100Y27050757D01*
X23599339Y27051242D01*
X23085697Y26839010D01*
X22692371Y26446370D01*
X22612605Y26254273D01*
X22558397Y26385143D01*
X22316213Y26454608D01*
X21515605Y25654000D01*
X22316213Y24853392D01*
X22558397Y24922857D01*
X22608509Y25063318D01*
X22690990Y24863697D01*
X22941000Y24613250D01*
X22941000Y20961290D01*
X19912854Y17933144D01*
X19710172Y17629808D01*
X19638999Y17271999D01*
X19638999Y13843152D01*
X19535339Y13843242D01*
X19021697Y13631010D01*
X18771250Y13381000D01*
X14986000Y13381000D01*
X14628191Y13309827D01*
X14324855Y13107145D01*
X13582710Y12365000D01*
X5982023Y12365000D01*
X5905147Y12480054D01*
X5564447Y12707702D01*
X5707358Y12774817D01*
X6097645Y13203076D01*
X6267476Y13613110D01*
X6146155Y13843000D01*
X4953000Y13843000D01*
X4953000Y13823000D01*
X4699000Y13823000D01*
X4699000Y13843000D01*
X4679000Y13843000D01*
X4679000Y14097000D01*
X4699000Y14097000D01*
X4699000Y15290819D01*
X4953000Y15290819D01*
X4953000Y14097000D01*
X6146155Y14097000D01*
X6267476Y14326890D01*
X6097645Y14736924D01*
X5707358Y15165183D01*
X5182892Y15411486D01*
X4953000Y15290819D01*
X4699000Y15290819D01*
X4469108Y15411486D01*
X3944642Y15165183D01*
X3729000Y14928561D01*
X3729000Y16376710D01*
X12071290Y24719000D01*
X17755435Y24719000D01*
X18003630Y24470371D01*
X18516900Y24257243D01*
X19072661Y24256758D01*
X19586303Y24468990D01*
X19791457Y24673787D01*
X20535392Y24673787D01*
X20604857Y24431603D01*
X21128302Y24244856D01*
X21683368Y24272638D01*
X22067143Y24431603D01*
X22136608Y24673787D01*
X21336000Y25474395D01*
X20535392Y24673787D01*
X19791457Y24673787D01*
X19979629Y24861630D01*
X20059395Y25053727D01*
X20113603Y24922857D01*
X20355787Y24853392D01*
X21156395Y25654000D01*
X20355787Y26454608D01*
X20113603Y26385143D01*
X20063491Y26244682D01*
X19981010Y26444303D01*
X19791432Y26634213D01*
X20535392Y26634213D01*
X21336000Y25833605D01*
X22136608Y26634213D01*
X22067143Y26876397D01*
X21543698Y27063144D01*
X20988632Y27035362D01*
X20604857Y26876397D01*
X20535392Y26634213D01*
X19791432Y26634213D01*
X19588370Y26837629D01*
X19497000Y26875569D01*
X19497000Y29750370D01*
X19547317Y29759838D01*
X19763441Y29898910D01*
X19809969Y29967006D01*
X19952302Y29824673D01*
X20185691Y29728000D01*
X20776250Y29728000D01*
X20935000Y29886750D01*
X20935000Y30861000D01*
X21189000Y30861000D01*
X21189000Y29886750D01*
X21347750Y29728000D01*
X21938309Y29728000D01*
X22171698Y29824673D01*
X22350327Y30003301D01*
X22447000Y30236690D01*
X22447000Y30702250D01*
X22288250Y30861000D01*
X21189000Y30861000D01*
X20935000Y30861000D01*
X20915000Y30861000D01*
X20915000Y31115000D01*
X20935000Y31115000D01*
X20935000Y32089250D01*
X21189000Y32089250D01*
X21189000Y31115000D01*
X22288250Y31115000D01*
X22447000Y31273750D01*
X22447000Y31739310D01*
X22350327Y31972699D01*
X22171698Y32151327D01*
X21938309Y32248000D01*
X21347750Y32248000D01*
X21189000Y32089250D01*
X20935000Y32089250D01*
X20776250Y32248000D01*
X20185691Y32248000D01*
X19952302Y32151327D01*
X19811064Y32010090D01*
X19776090Y32064441D01*
X19563890Y32209431D01*
X19312000Y32260440D01*
X17812000Y32260440D01*
X17576683Y32216162D01*
X17360559Y32077090D01*
X17215569Y31864890D01*
X17164560Y31613000D01*
X17164560Y30363000D01*
X17208838Y30127683D01*
X17347910Y29911559D01*
X17560110Y29766569D01*
X17627000Y29753023D01*
X17627000Y26589000D01*
X11684005Y26589000D01*
X11684000Y26589001D01*
X11385556Y26529636D01*
X11326191Y26517827D01*
X11127615Y26385143D01*
X11022855Y26315145D01*
X2132855Y17425145D01*
X1930173Y17121809D01*
X1859000Y16764000D01*
X227385Y16764000D01*
X380238Y42290397D01*
X53468496Y42037596D01*
M02*
