G04 #@! TF.GenerationSoftware,KiCad,Pcbnew,(2017-06-12 revision 8590a2299)-makepkg*
G04 #@! TF.CreationDate,2017-07-02T14:06:08+02:00*
G04 #@! TF.ProjectId,sensor board,73656E736F7220626F6172642E6B6963,rev?*
G04 #@! TF.FileFunction,Copper,L2,Bot,Signal*
G04 #@! TF.FilePolarity,Positive*
%FSLAX46Y46*%
G04 Gerber Fmt 4.6, Leading zero omitted, Abs format (unit mm)*
G04 Created by KiCad (PCBNEW (2017-06-12 revision 8590a2299)-makepkg) date 07/02/17 14:06:08*
%MOMM*%
%LPD*%
G01*
G04 APERTURE LIST*
%ADD10C,0.100000*%
%ADD11C,1.524000*%
%ADD12C,2.499360*%
%ADD13R,1.250000X1.500000*%
%ADD14R,1.500000X1.250000*%
%ADD15O,1.700000X1.700000*%
%ADD16R,1.700000X1.700000*%
%ADD17R,1.300000X1.500000*%
%ADD18C,0.600000*%
%ADD19C,2.000000*%
%ADD20C,0.254000*%
G04 APERTURE END LIST*
D10*
D11*
X6858000Y24892000D03*
X9398000Y24892000D03*
X11938000Y24892000D03*
X14478000Y24892000D03*
X17018000Y24892000D03*
X19558000Y24892000D03*
X22098000Y24892000D03*
X24638000Y24892000D03*
X27178000Y24892000D03*
X29718000Y24892000D03*
D12*
X10668000Y5588000D03*
X20828000Y5588000D03*
D13*
X4318000Y2814000D03*
X4318000Y5314000D03*
D14*
X6624000Y20828000D03*
X9124000Y20828000D03*
D13*
X22098000Y12680000D03*
X22098000Y10180000D03*
D15*
X4318000Y17018000D03*
X4318000Y14478000D03*
X4318000Y11938000D03*
D16*
X4318000Y9398000D03*
D15*
X34798000Y22352000D03*
D16*
X34798000Y24892000D03*
D17*
X17780000Y20654000D03*
X17780000Y17954000D03*
X21082000Y17954000D03*
X21082000Y20654000D03*
D11*
X28448000Y14732000D03*
X28448000Y12192000D03*
X28448000Y9652000D03*
X10668000Y14732000D03*
X10668000Y12192000D03*
X10668000Y9652000D03*
X35052000Y14732000D03*
X35052000Y12192000D03*
X35052000Y9652000D03*
D18*
X6858000Y24892000D02*
X6858000Y25969630D01*
X6858000Y25969630D02*
X7112000Y26223630D01*
X7112000Y26223630D02*
X7112000Y28194000D01*
X7112000Y28194000D02*
X8890000Y29972000D01*
X36234001Y21502001D02*
X35647999Y21502001D01*
X8890000Y29972000D02*
X35052000Y29972000D01*
X35052000Y29972000D02*
X37592000Y27432000D01*
X37592000Y27432000D02*
X37592000Y22860000D01*
X37592000Y22860000D02*
X36234001Y21502001D01*
X35647999Y21502001D02*
X34798000Y22352000D01*
X6858000Y24892000D02*
X6858000Y21062000D01*
X6858000Y21062000D02*
X6624000Y20828000D01*
X25146000Y21782370D02*
X25146000Y17272000D01*
X25146000Y17272000D02*
X25146000Y10414000D01*
X34798000Y22352000D02*
X34798000Y21149919D01*
X34798000Y21149919D02*
X30920081Y17272000D01*
X30920081Y17272000D02*
X25146000Y17272000D01*
X25146000Y10414000D02*
X25654000Y9906000D01*
X25654000Y9906000D02*
X26162000Y9398000D01*
X22098000Y10180000D02*
X23323000Y10180000D01*
X23323000Y10180000D02*
X23597000Y9906000D01*
X23597000Y9906000D02*
X25654000Y9906000D01*
X20828000Y5588000D02*
X20828000Y8910000D01*
X20828000Y8910000D02*
X22098000Y10180000D01*
X4318000Y5314000D02*
X10394000Y5314000D01*
X10394000Y5314000D02*
X10668000Y5588000D01*
X26162000Y9398000D02*
X28194000Y9398000D01*
X27178000Y24892000D02*
X27178000Y23814370D01*
X27178000Y23814370D02*
X25146000Y21782370D01*
X28194000Y9398000D02*
X28448000Y9652000D01*
X4318000Y5314000D02*
X4318000Y9398000D01*
X5842000Y11938000D02*
X6096000Y12192000D01*
X6096000Y12192000D02*
X10668000Y12192000D01*
X4318000Y11938000D02*
X5842000Y11938000D01*
X10668000Y12192000D02*
X13716000Y12192000D01*
X13716000Y12192000D02*
X14478000Y12954000D01*
X14478000Y12954000D02*
X14478000Y24892000D01*
X5774081Y14732000D02*
X10668000Y14732000D01*
X4318000Y14478000D02*
X5520081Y14478000D01*
X5520081Y14478000D02*
X5774081Y14732000D01*
X11938000Y19304000D02*
X11938000Y24892000D01*
X10668000Y18034000D02*
X11938000Y19304000D01*
X10668000Y14732000D02*
X10668000Y18034000D01*
X21082000Y20654000D02*
X21082000Y22004000D01*
X21082000Y22004000D02*
X22098000Y23020000D01*
X22098000Y23020000D02*
X22098000Y24892000D01*
X17780000Y20654000D02*
X21082000Y20654000D01*
X29718000Y24892000D02*
X34798000Y24892000D01*
X23114000Y28448000D02*
X22098000Y27432000D01*
X22098000Y27432000D02*
X22098000Y24892000D01*
X33020000Y28448000D02*
X23114000Y28448000D01*
X33962000Y27506000D02*
X33020000Y28448000D01*
X33962000Y27178000D02*
X33962000Y27506000D01*
X34798000Y24892000D02*
X34798000Y26342000D01*
X34798000Y26342000D02*
X33962000Y27178000D01*
D19*
X28448000Y14732000D02*
X35052000Y14732000D01*
X28448000Y12192000D02*
X35052000Y12192000D01*
D20*
G36*
X39750020Y127000D02*
X127980Y127000D01*
X146451Y2528250D01*
X3058000Y2528250D01*
X3058000Y1937691D01*
X3154673Y1704302D01*
X3333301Y1525673D01*
X3566690Y1429000D01*
X4032250Y1429000D01*
X4191000Y1587750D01*
X4191000Y2687000D01*
X4445000Y2687000D01*
X4445000Y1587750D01*
X4603750Y1429000D01*
X5069310Y1429000D01*
X5302699Y1525673D01*
X5481327Y1704302D01*
X5578000Y1937691D01*
X5578000Y2528250D01*
X5419250Y2687000D01*
X4445000Y2687000D01*
X4191000Y2687000D01*
X3216750Y2687000D01*
X3058000Y2528250D01*
X146451Y2528250D01*
X238372Y14478000D01*
X2803907Y14478000D01*
X2916946Y13909715D01*
X3238853Y13427946D01*
X3568026Y13208000D01*
X3238853Y12988054D01*
X2916946Y12506285D01*
X2803907Y11938000D01*
X2916946Y11369715D01*
X3238853Y10887946D01*
X3282777Y10858597D01*
X3220235Y10846157D01*
X3010191Y10705809D01*
X2869843Y10495765D01*
X2820560Y10248000D01*
X2820560Y8548000D01*
X2869843Y8300235D01*
X3010191Y8090191D01*
X3220235Y7949843D01*
X3383000Y7917467D01*
X3383000Y6620573D01*
X3235191Y6521809D01*
X3094843Y6311765D01*
X3045560Y6064000D01*
X3045560Y4564000D01*
X3094843Y4316235D01*
X3235191Y4106191D01*
X3296320Y4065346D01*
X3154673Y3923698D01*
X3058000Y3690309D01*
X3058000Y3099750D01*
X3216750Y2941000D01*
X4191000Y2941000D01*
X4191000Y2961000D01*
X4445000Y2961000D01*
X4445000Y2941000D01*
X5419250Y2941000D01*
X5578000Y3099750D01*
X5578000Y3690309D01*
X5481327Y3923698D01*
X5339680Y4065346D01*
X5400809Y4106191D01*
X5541157Y4316235D01*
X5553642Y4379000D01*
X9211874Y4379000D01*
X9599021Y3991178D01*
X10291469Y3703648D01*
X11041241Y3702994D01*
X11734191Y3989314D01*
X12264822Y4519021D01*
X12552352Y5211469D01*
X12553006Y5961241D01*
X12266686Y6654191D01*
X11736979Y7184822D01*
X11044531Y7472352D01*
X10294759Y7473006D01*
X9601809Y7186686D01*
X9071178Y6656979D01*
X8901770Y6249000D01*
X5553642Y6249000D01*
X5541157Y6311765D01*
X5400809Y6521809D01*
X5253000Y6620573D01*
X5253000Y7917467D01*
X5415765Y7949843D01*
X5625809Y8090191D01*
X5766157Y8300235D01*
X5815440Y8548000D01*
X5815440Y8671787D01*
X9867392Y8671787D01*
X9936857Y8429603D01*
X10460302Y8242856D01*
X11015368Y8270638D01*
X11399143Y8429603D01*
X11468608Y8671787D01*
X10668000Y9472395D01*
X9867392Y8671787D01*
X5815440Y8671787D01*
X5815440Y9859698D01*
X9258856Y9859698D01*
X9286638Y9304632D01*
X9445603Y8920857D01*
X9687787Y8851392D01*
X10488395Y9652000D01*
X10847605Y9652000D01*
X11648213Y8851392D01*
X11890397Y8920857D01*
X12077144Y9444302D01*
X12049362Y9999368D01*
X11890397Y10383143D01*
X11648213Y10452608D01*
X10847605Y9652000D01*
X10488395Y9652000D01*
X9687787Y10452608D01*
X9445603Y10383143D01*
X9258856Y9859698D01*
X5815440Y9859698D01*
X5815440Y10248000D01*
X5766157Y10495765D01*
X5625809Y10705809D01*
X5415765Y10846157D01*
X5353223Y10858597D01*
X5397147Y10887946D01*
X5474023Y11003000D01*
X5842000Y11003000D01*
X6199809Y11074173D01*
X6473430Y11257000D01*
X9627435Y11257000D01*
X9875630Y11008371D01*
X10067727Y10928605D01*
X9936857Y10874397D01*
X9867392Y10632213D01*
X10668000Y9831605D01*
X11468608Y10632213D01*
X11399143Y10874397D01*
X11258682Y10924509D01*
X11458303Y11006990D01*
X11708750Y11257000D01*
X13716000Y11257000D01*
X14073809Y11328173D01*
X14377145Y11530855D01*
X15139145Y12292855D01*
X15341827Y12596191D01*
X15413000Y12954000D01*
X15413000Y13556309D01*
X20838000Y13556309D01*
X20838000Y12965750D01*
X20996750Y12807000D01*
X21971000Y12807000D01*
X21971000Y13906250D01*
X22225000Y13906250D01*
X22225000Y12807000D01*
X23199250Y12807000D01*
X23358000Y12965750D01*
X23358000Y13556309D01*
X23261327Y13789698D01*
X23082699Y13968327D01*
X22849310Y14065000D01*
X22383750Y14065000D01*
X22225000Y13906250D01*
X21971000Y13906250D01*
X21812250Y14065000D01*
X21346690Y14065000D01*
X21113301Y13968327D01*
X20934673Y13789698D01*
X20838000Y13556309D01*
X15413000Y13556309D01*
X15413000Y17668250D01*
X16495000Y17668250D01*
X16495000Y17077691D01*
X16591673Y16844302D01*
X16770301Y16665673D01*
X17003690Y16569000D01*
X17494250Y16569000D01*
X17653000Y16727750D01*
X17653000Y17827000D01*
X17907000Y17827000D01*
X17907000Y16727750D01*
X18065750Y16569000D01*
X18556310Y16569000D01*
X18789699Y16665673D01*
X18968327Y16844302D01*
X19065000Y17077691D01*
X19065000Y17668250D01*
X19797000Y17668250D01*
X19797000Y17077691D01*
X19893673Y16844302D01*
X20072301Y16665673D01*
X20305690Y16569000D01*
X20796250Y16569000D01*
X20955000Y16727750D01*
X20955000Y17827000D01*
X21209000Y17827000D01*
X21209000Y16727750D01*
X21367750Y16569000D01*
X21858310Y16569000D01*
X22091699Y16665673D01*
X22270327Y16844302D01*
X22367000Y17077691D01*
X22367000Y17668250D01*
X22208250Y17827000D01*
X21209000Y17827000D01*
X20955000Y17827000D01*
X19955750Y17827000D01*
X19797000Y17668250D01*
X19065000Y17668250D01*
X18906250Y17827000D01*
X17907000Y17827000D01*
X17653000Y17827000D01*
X16653750Y17827000D01*
X16495000Y17668250D01*
X15413000Y17668250D01*
X15413000Y23851435D01*
X15661629Y24099630D01*
X15747949Y24307512D01*
X15832990Y24101697D01*
X16225630Y23708371D01*
X16738900Y23495243D01*
X17294661Y23494758D01*
X17808303Y23706990D01*
X18201629Y24099630D01*
X18287949Y24307512D01*
X18372990Y24101697D01*
X18765630Y23708371D01*
X19278900Y23495243D01*
X19834661Y23494758D01*
X20348303Y23706990D01*
X20741629Y24099630D01*
X20827949Y24307512D01*
X20912990Y24101697D01*
X21163000Y23851250D01*
X21163000Y23407290D01*
X20420855Y22665145D01*
X20218173Y22361809D01*
X20147000Y22004000D01*
X20147000Y21977277D01*
X19974191Y21861809D01*
X19833843Y21651765D01*
X19821358Y21589000D01*
X19040642Y21589000D01*
X19028157Y21651765D01*
X18887809Y21861809D01*
X18677765Y22002157D01*
X18430000Y22051440D01*
X17130000Y22051440D01*
X16882235Y22002157D01*
X16672191Y21861809D01*
X16531843Y21651765D01*
X16482560Y21404000D01*
X16482560Y19904000D01*
X16531843Y19656235D01*
X16672191Y19446191D01*
X16882235Y19305843D01*
X16910209Y19300279D01*
X16770301Y19242327D01*
X16591673Y19063698D01*
X16495000Y18830309D01*
X16495000Y18239750D01*
X16653750Y18081000D01*
X17653000Y18081000D01*
X17653000Y18101000D01*
X17907000Y18101000D01*
X17907000Y18081000D01*
X18906250Y18081000D01*
X19065000Y18239750D01*
X19065000Y18830309D01*
X18968327Y19063698D01*
X18789699Y19242327D01*
X18649791Y19300279D01*
X18677765Y19305843D01*
X18887809Y19446191D01*
X19028157Y19656235D01*
X19040642Y19719000D01*
X19821358Y19719000D01*
X19833843Y19656235D01*
X19974191Y19446191D01*
X20184235Y19305843D01*
X20212209Y19300279D01*
X20072301Y19242327D01*
X19893673Y19063698D01*
X19797000Y18830309D01*
X19797000Y18239750D01*
X19955750Y18081000D01*
X20955000Y18081000D01*
X20955000Y18101000D01*
X21209000Y18101000D01*
X21209000Y18081000D01*
X22208250Y18081000D01*
X22367000Y18239750D01*
X22367000Y18830309D01*
X22270327Y19063698D01*
X22091699Y19242327D01*
X21951791Y19300279D01*
X21979765Y19305843D01*
X22189809Y19446191D01*
X22330157Y19656235D01*
X22379440Y19904000D01*
X22379440Y21404000D01*
X22330157Y21651765D01*
X22218764Y21818474D01*
X22759145Y22358855D01*
X22961827Y22662191D01*
X23033000Y23020000D01*
X23033000Y23851435D01*
X23093457Y23911787D01*
X23837392Y23911787D01*
X23906857Y23669603D01*
X24430302Y23482856D01*
X24985368Y23510638D01*
X25369143Y23669603D01*
X25438608Y23911787D01*
X24638000Y24712395D01*
X23837392Y23911787D01*
X23093457Y23911787D01*
X23281629Y24099630D01*
X23361395Y24291727D01*
X23415603Y24160857D01*
X23657787Y24091392D01*
X24458395Y24892000D01*
X23657787Y25692608D01*
X23415603Y25623143D01*
X23365491Y25482682D01*
X23283010Y25682303D01*
X23093432Y25872213D01*
X23837392Y25872213D01*
X24638000Y25071605D01*
X25438608Y25872213D01*
X25369143Y26114397D01*
X24845698Y26301144D01*
X24290632Y26273362D01*
X23906857Y26114397D01*
X23837392Y25872213D01*
X23093432Y25872213D01*
X23033000Y25932750D01*
X23033000Y27044710D01*
X23501290Y27513000D01*
X32632710Y27513000D01*
X33041722Y27103988D01*
X33098173Y26820191D01*
X33300855Y26516855D01*
X33566747Y26250963D01*
X33490191Y26199809D01*
X33349843Y25989765D01*
X33317467Y25827000D01*
X30758565Y25827000D01*
X30510370Y26075629D01*
X29997100Y26288757D01*
X29441339Y26289242D01*
X28927697Y26077010D01*
X28534371Y25684370D01*
X28448051Y25476488D01*
X28363010Y25682303D01*
X27970370Y26075629D01*
X27457100Y26288757D01*
X26901339Y26289242D01*
X26387697Y26077010D01*
X25994371Y25684370D01*
X25914605Y25492273D01*
X25860397Y25623143D01*
X25618213Y25692608D01*
X24817605Y24892000D01*
X25618213Y24091392D01*
X25860397Y24160857D01*
X25910509Y24301318D01*
X25992990Y24101697D01*
X26067948Y24026608D01*
X24484855Y22443515D01*
X24282173Y22140179D01*
X24211000Y21782370D01*
X24211000Y10841000D01*
X23984290Y10841000D01*
X23984145Y10841145D01*
X23680809Y11043827D01*
X23334080Y11112796D01*
X23321157Y11177765D01*
X23180809Y11387809D01*
X23119680Y11428654D01*
X23261327Y11570302D01*
X23358000Y11803691D01*
X23358000Y12394250D01*
X23199250Y12553000D01*
X22225000Y12553000D01*
X22225000Y12533000D01*
X21971000Y12533000D01*
X21971000Y12553000D01*
X20996750Y12553000D01*
X20838000Y12394250D01*
X20838000Y11803691D01*
X20934673Y11570302D01*
X21076320Y11428654D01*
X21015191Y11387809D01*
X20874843Y11177765D01*
X20825560Y10930000D01*
X20825560Y10229850D01*
X20166855Y9571145D01*
X19964173Y9267809D01*
X19893000Y8910000D01*
X19893000Y7240893D01*
X19761809Y7186686D01*
X19231178Y6656979D01*
X18943648Y5964531D01*
X18942994Y5214759D01*
X19229314Y4521809D01*
X19759021Y3991178D01*
X20451469Y3703648D01*
X21201241Y3702994D01*
X21894191Y3989314D01*
X22424822Y4519021D01*
X22712352Y5211469D01*
X22713006Y5961241D01*
X22426686Y6654191D01*
X21896979Y7184822D01*
X21763000Y7240455D01*
X21763000Y8522710D01*
X22022850Y8782560D01*
X22723000Y8782560D01*
X22970765Y8831843D01*
X23180809Y8972191D01*
X23231157Y9047541D01*
X23239191Y9042173D01*
X23298556Y9030364D01*
X23597000Y8970999D01*
X23597005Y8971000D01*
X25266711Y8971000D01*
X25500853Y8736858D01*
X25500855Y8736855D01*
X25777225Y8552191D01*
X25804191Y8534173D01*
X26162000Y8463000D01*
X27668565Y8463000D01*
X28168900Y8255243D01*
X28724661Y8254758D01*
X29238303Y8466990D01*
X29443457Y8671787D01*
X34251392Y8671787D01*
X34320857Y8429603D01*
X34844302Y8242856D01*
X35399368Y8270638D01*
X35783143Y8429603D01*
X35852608Y8671787D01*
X35052000Y9472395D01*
X34251392Y8671787D01*
X29443457Y8671787D01*
X29631629Y8859630D01*
X29844757Y9372900D01*
X29845242Y9928661D01*
X29633010Y10442303D01*
X29518513Y10557000D01*
X33967392Y10557000D01*
X34071785Y10452607D01*
X33829603Y10383143D01*
X33642856Y9859698D01*
X33670638Y9304632D01*
X33829603Y8920857D01*
X34071787Y8851392D01*
X34872395Y9652000D01*
X35231605Y9652000D01*
X36032213Y8851392D01*
X36274397Y8920857D01*
X36461144Y9444302D01*
X36433362Y9999368D01*
X36274397Y10383143D01*
X36032213Y10452608D01*
X35231605Y9652000D01*
X34872395Y9652000D01*
X34858253Y9666142D01*
X35037858Y9845747D01*
X35052000Y9831605D01*
X35852608Y10632213D01*
X35812623Y10771618D01*
X36208120Y11035880D01*
X36562543Y11566313D01*
X36687000Y12192000D01*
X36562543Y12817687D01*
X36208120Y13348120D01*
X36037686Y13462000D01*
X36208120Y13575880D01*
X36562543Y14106313D01*
X36687000Y14732000D01*
X36562543Y15357687D01*
X36208120Y15888120D01*
X35677687Y16242543D01*
X35052000Y16367000D01*
X31070900Y16367000D01*
X31277890Y16408173D01*
X31581226Y16610855D01*
X35459145Y20488774D01*
X35527438Y20590982D01*
X35647999Y20567001D01*
X36234001Y20567001D01*
X36591810Y20638174D01*
X36895146Y20840856D01*
X38253145Y22198855D01*
X38364712Y22365828D01*
X38455827Y22502191D01*
X38497125Y22709809D01*
X38527001Y22860000D01*
X38527000Y22860005D01*
X38527000Y27432000D01*
X38455827Y27789809D01*
X38253145Y28093145D01*
X35713145Y30633145D01*
X35409809Y30835827D01*
X35052000Y30907000D01*
X8890000Y30907000D01*
X8532191Y30835827D01*
X8228855Y30633145D01*
X6450855Y28855145D01*
X6248173Y28551809D01*
X6177000Y28194000D01*
X6177000Y26601060D01*
X5994173Y26327439D01*
X5923000Y25969630D01*
X5923000Y25932565D01*
X5674371Y25684370D01*
X5461243Y25171100D01*
X5460758Y24615339D01*
X5672990Y24101697D01*
X5923000Y23851250D01*
X5923000Y22100440D01*
X5874000Y22100440D01*
X5626235Y22051157D01*
X5416191Y21910809D01*
X5275843Y21700765D01*
X5226560Y21453000D01*
X5226560Y20203000D01*
X5275843Y19955235D01*
X5416191Y19745191D01*
X5626235Y19604843D01*
X5874000Y19555560D01*
X7374000Y19555560D01*
X7621765Y19604843D01*
X7831809Y19745191D01*
X7872654Y19806320D01*
X8014302Y19664673D01*
X8247691Y19568000D01*
X8838250Y19568000D01*
X8997000Y19726750D01*
X8997000Y20701000D01*
X9251000Y20701000D01*
X9251000Y19726750D01*
X9409750Y19568000D01*
X10000309Y19568000D01*
X10233698Y19664673D01*
X10412327Y19843301D01*
X10509000Y20076690D01*
X10509000Y20542250D01*
X10350250Y20701000D01*
X9251000Y20701000D01*
X8997000Y20701000D01*
X8977000Y20701000D01*
X8977000Y20955000D01*
X8997000Y20955000D01*
X8997000Y21929250D01*
X9251000Y21929250D01*
X9251000Y20955000D01*
X10350250Y20955000D01*
X10509000Y21113750D01*
X10509000Y21579310D01*
X10412327Y21812699D01*
X10233698Y21991327D01*
X10000309Y22088000D01*
X9409750Y22088000D01*
X9251000Y21929250D01*
X8997000Y21929250D01*
X8838250Y22088000D01*
X8247691Y22088000D01*
X8014302Y21991327D01*
X7872654Y21849680D01*
X7831809Y21910809D01*
X7793000Y21936741D01*
X7793000Y23851435D01*
X7853457Y23911787D01*
X8597392Y23911787D01*
X8666857Y23669603D01*
X9190302Y23482856D01*
X9745368Y23510638D01*
X10129143Y23669603D01*
X10198608Y23911787D01*
X9398000Y24712395D01*
X8597392Y23911787D01*
X7853457Y23911787D01*
X8041629Y24099630D01*
X8121395Y24291727D01*
X8175603Y24160857D01*
X8417787Y24091392D01*
X9218395Y24892000D01*
X8417787Y25692608D01*
X8175603Y25623143D01*
X8125491Y25482682D01*
X8043010Y25682303D01*
X7929309Y25796202D01*
X7975827Y25865821D01*
X7977098Y25872213D01*
X8597392Y25872213D01*
X9398000Y25071605D01*
X10198608Y25872213D01*
X10129143Y26114397D01*
X9605698Y26301144D01*
X9050632Y26273362D01*
X8666857Y26114397D01*
X8597392Y25872213D01*
X7977098Y25872213D01*
X8047000Y26223630D01*
X8047000Y27806710D01*
X9277290Y29037000D01*
X22380710Y29037000D01*
X21436855Y28093145D01*
X21234173Y27789809D01*
X21163000Y27432000D01*
X21163000Y25932565D01*
X20914371Y25684370D01*
X20828051Y25476488D01*
X20743010Y25682303D01*
X20350370Y26075629D01*
X19837100Y26288757D01*
X19281339Y26289242D01*
X18767697Y26077010D01*
X18374371Y25684370D01*
X18288051Y25476488D01*
X18203010Y25682303D01*
X17810370Y26075629D01*
X17297100Y26288757D01*
X16741339Y26289242D01*
X16227697Y26077010D01*
X15834371Y25684370D01*
X15748051Y25476488D01*
X15663010Y25682303D01*
X15270370Y26075629D01*
X14757100Y26288757D01*
X14201339Y26289242D01*
X13687697Y26077010D01*
X13294371Y25684370D01*
X13208051Y25476488D01*
X13123010Y25682303D01*
X12730370Y26075629D01*
X12217100Y26288757D01*
X11661339Y26289242D01*
X11147697Y26077010D01*
X10754371Y25684370D01*
X10674605Y25492273D01*
X10620397Y25623143D01*
X10378213Y25692608D01*
X9577605Y24892000D01*
X10378213Y24091392D01*
X10620397Y24160857D01*
X10670509Y24301318D01*
X10752990Y24101697D01*
X11003000Y23851250D01*
X11003000Y19691290D01*
X10006855Y18695145D01*
X9804173Y18391809D01*
X9733000Y18034000D01*
X9733000Y15772565D01*
X9627250Y15667000D01*
X5774081Y15667000D01*
X5416272Y15595827D01*
X5355995Y15555551D01*
X5056447Y15755702D01*
X5199358Y15822817D01*
X5589645Y16251076D01*
X5759476Y16661110D01*
X5638155Y16891000D01*
X4445000Y16891000D01*
X4445000Y16871000D01*
X4191000Y16871000D01*
X4191000Y16891000D01*
X2997845Y16891000D01*
X2876524Y16661110D01*
X3046355Y16251076D01*
X3436642Y15822817D01*
X3579553Y15755702D01*
X3238853Y15528054D01*
X2916946Y15046285D01*
X2803907Y14478000D01*
X238372Y14478000D01*
X260655Y17374890D01*
X2876524Y17374890D01*
X2997845Y17145000D01*
X4191000Y17145000D01*
X4191000Y18338819D01*
X4445000Y18338819D01*
X4445000Y17145000D01*
X5638155Y17145000D01*
X5759476Y17374890D01*
X5589645Y17784924D01*
X5199358Y18213183D01*
X4674892Y18459486D01*
X4445000Y18338819D01*
X4191000Y18338819D01*
X3961108Y18459486D01*
X3436642Y18213183D01*
X3046355Y17784924D01*
X2876524Y17374890D01*
X260655Y17374890D01*
X380027Y32893000D01*
X39497973Y32893000D01*
X39750020Y127000D01*
X39750020Y127000D01*
G37*
X39750020Y127000D02*
X127980Y127000D01*
X146451Y2528250D01*
X3058000Y2528250D01*
X3058000Y1937691D01*
X3154673Y1704302D01*
X3333301Y1525673D01*
X3566690Y1429000D01*
X4032250Y1429000D01*
X4191000Y1587750D01*
X4191000Y2687000D01*
X4445000Y2687000D01*
X4445000Y1587750D01*
X4603750Y1429000D01*
X5069310Y1429000D01*
X5302699Y1525673D01*
X5481327Y1704302D01*
X5578000Y1937691D01*
X5578000Y2528250D01*
X5419250Y2687000D01*
X4445000Y2687000D01*
X4191000Y2687000D01*
X3216750Y2687000D01*
X3058000Y2528250D01*
X146451Y2528250D01*
X238372Y14478000D01*
X2803907Y14478000D01*
X2916946Y13909715D01*
X3238853Y13427946D01*
X3568026Y13208000D01*
X3238853Y12988054D01*
X2916946Y12506285D01*
X2803907Y11938000D01*
X2916946Y11369715D01*
X3238853Y10887946D01*
X3282777Y10858597D01*
X3220235Y10846157D01*
X3010191Y10705809D01*
X2869843Y10495765D01*
X2820560Y10248000D01*
X2820560Y8548000D01*
X2869843Y8300235D01*
X3010191Y8090191D01*
X3220235Y7949843D01*
X3383000Y7917467D01*
X3383000Y6620573D01*
X3235191Y6521809D01*
X3094843Y6311765D01*
X3045560Y6064000D01*
X3045560Y4564000D01*
X3094843Y4316235D01*
X3235191Y4106191D01*
X3296320Y4065346D01*
X3154673Y3923698D01*
X3058000Y3690309D01*
X3058000Y3099750D01*
X3216750Y2941000D01*
X4191000Y2941000D01*
X4191000Y2961000D01*
X4445000Y2961000D01*
X4445000Y2941000D01*
X5419250Y2941000D01*
X5578000Y3099750D01*
X5578000Y3690309D01*
X5481327Y3923698D01*
X5339680Y4065346D01*
X5400809Y4106191D01*
X5541157Y4316235D01*
X5553642Y4379000D01*
X9211874Y4379000D01*
X9599021Y3991178D01*
X10291469Y3703648D01*
X11041241Y3702994D01*
X11734191Y3989314D01*
X12264822Y4519021D01*
X12552352Y5211469D01*
X12553006Y5961241D01*
X12266686Y6654191D01*
X11736979Y7184822D01*
X11044531Y7472352D01*
X10294759Y7473006D01*
X9601809Y7186686D01*
X9071178Y6656979D01*
X8901770Y6249000D01*
X5553642Y6249000D01*
X5541157Y6311765D01*
X5400809Y6521809D01*
X5253000Y6620573D01*
X5253000Y7917467D01*
X5415765Y7949843D01*
X5625809Y8090191D01*
X5766157Y8300235D01*
X5815440Y8548000D01*
X5815440Y8671787D01*
X9867392Y8671787D01*
X9936857Y8429603D01*
X10460302Y8242856D01*
X11015368Y8270638D01*
X11399143Y8429603D01*
X11468608Y8671787D01*
X10668000Y9472395D01*
X9867392Y8671787D01*
X5815440Y8671787D01*
X5815440Y9859698D01*
X9258856Y9859698D01*
X9286638Y9304632D01*
X9445603Y8920857D01*
X9687787Y8851392D01*
X10488395Y9652000D01*
X10847605Y9652000D01*
X11648213Y8851392D01*
X11890397Y8920857D01*
X12077144Y9444302D01*
X12049362Y9999368D01*
X11890397Y10383143D01*
X11648213Y10452608D01*
X10847605Y9652000D01*
X10488395Y9652000D01*
X9687787Y10452608D01*
X9445603Y10383143D01*
X9258856Y9859698D01*
X5815440Y9859698D01*
X5815440Y10248000D01*
X5766157Y10495765D01*
X5625809Y10705809D01*
X5415765Y10846157D01*
X5353223Y10858597D01*
X5397147Y10887946D01*
X5474023Y11003000D01*
X5842000Y11003000D01*
X6199809Y11074173D01*
X6473430Y11257000D01*
X9627435Y11257000D01*
X9875630Y11008371D01*
X10067727Y10928605D01*
X9936857Y10874397D01*
X9867392Y10632213D01*
X10668000Y9831605D01*
X11468608Y10632213D01*
X11399143Y10874397D01*
X11258682Y10924509D01*
X11458303Y11006990D01*
X11708750Y11257000D01*
X13716000Y11257000D01*
X14073809Y11328173D01*
X14377145Y11530855D01*
X15139145Y12292855D01*
X15341827Y12596191D01*
X15413000Y12954000D01*
X15413000Y13556309D01*
X20838000Y13556309D01*
X20838000Y12965750D01*
X20996750Y12807000D01*
X21971000Y12807000D01*
X21971000Y13906250D01*
X22225000Y13906250D01*
X22225000Y12807000D01*
X23199250Y12807000D01*
X23358000Y12965750D01*
X23358000Y13556309D01*
X23261327Y13789698D01*
X23082699Y13968327D01*
X22849310Y14065000D01*
X22383750Y14065000D01*
X22225000Y13906250D01*
X21971000Y13906250D01*
X21812250Y14065000D01*
X21346690Y14065000D01*
X21113301Y13968327D01*
X20934673Y13789698D01*
X20838000Y13556309D01*
X15413000Y13556309D01*
X15413000Y17668250D01*
X16495000Y17668250D01*
X16495000Y17077691D01*
X16591673Y16844302D01*
X16770301Y16665673D01*
X17003690Y16569000D01*
X17494250Y16569000D01*
X17653000Y16727750D01*
X17653000Y17827000D01*
X17907000Y17827000D01*
X17907000Y16727750D01*
X18065750Y16569000D01*
X18556310Y16569000D01*
X18789699Y16665673D01*
X18968327Y16844302D01*
X19065000Y17077691D01*
X19065000Y17668250D01*
X19797000Y17668250D01*
X19797000Y17077691D01*
X19893673Y16844302D01*
X20072301Y16665673D01*
X20305690Y16569000D01*
X20796250Y16569000D01*
X20955000Y16727750D01*
X20955000Y17827000D01*
X21209000Y17827000D01*
X21209000Y16727750D01*
X21367750Y16569000D01*
X21858310Y16569000D01*
X22091699Y16665673D01*
X22270327Y16844302D01*
X22367000Y17077691D01*
X22367000Y17668250D01*
X22208250Y17827000D01*
X21209000Y17827000D01*
X20955000Y17827000D01*
X19955750Y17827000D01*
X19797000Y17668250D01*
X19065000Y17668250D01*
X18906250Y17827000D01*
X17907000Y17827000D01*
X17653000Y17827000D01*
X16653750Y17827000D01*
X16495000Y17668250D01*
X15413000Y17668250D01*
X15413000Y23851435D01*
X15661629Y24099630D01*
X15747949Y24307512D01*
X15832990Y24101697D01*
X16225630Y23708371D01*
X16738900Y23495243D01*
X17294661Y23494758D01*
X17808303Y23706990D01*
X18201629Y24099630D01*
X18287949Y24307512D01*
X18372990Y24101697D01*
X18765630Y23708371D01*
X19278900Y23495243D01*
X19834661Y23494758D01*
X20348303Y23706990D01*
X20741629Y24099630D01*
X20827949Y24307512D01*
X20912990Y24101697D01*
X21163000Y23851250D01*
X21163000Y23407290D01*
X20420855Y22665145D01*
X20218173Y22361809D01*
X20147000Y22004000D01*
X20147000Y21977277D01*
X19974191Y21861809D01*
X19833843Y21651765D01*
X19821358Y21589000D01*
X19040642Y21589000D01*
X19028157Y21651765D01*
X18887809Y21861809D01*
X18677765Y22002157D01*
X18430000Y22051440D01*
X17130000Y22051440D01*
X16882235Y22002157D01*
X16672191Y21861809D01*
X16531843Y21651765D01*
X16482560Y21404000D01*
X16482560Y19904000D01*
X16531843Y19656235D01*
X16672191Y19446191D01*
X16882235Y19305843D01*
X16910209Y19300279D01*
X16770301Y19242327D01*
X16591673Y19063698D01*
X16495000Y18830309D01*
X16495000Y18239750D01*
X16653750Y18081000D01*
X17653000Y18081000D01*
X17653000Y18101000D01*
X17907000Y18101000D01*
X17907000Y18081000D01*
X18906250Y18081000D01*
X19065000Y18239750D01*
X19065000Y18830309D01*
X18968327Y19063698D01*
X18789699Y19242327D01*
X18649791Y19300279D01*
X18677765Y19305843D01*
X18887809Y19446191D01*
X19028157Y19656235D01*
X19040642Y19719000D01*
X19821358Y19719000D01*
X19833843Y19656235D01*
X19974191Y19446191D01*
X20184235Y19305843D01*
X20212209Y19300279D01*
X20072301Y19242327D01*
X19893673Y19063698D01*
X19797000Y18830309D01*
X19797000Y18239750D01*
X19955750Y18081000D01*
X20955000Y18081000D01*
X20955000Y18101000D01*
X21209000Y18101000D01*
X21209000Y18081000D01*
X22208250Y18081000D01*
X22367000Y18239750D01*
X22367000Y18830309D01*
X22270327Y19063698D01*
X22091699Y19242327D01*
X21951791Y19300279D01*
X21979765Y19305843D01*
X22189809Y19446191D01*
X22330157Y19656235D01*
X22379440Y19904000D01*
X22379440Y21404000D01*
X22330157Y21651765D01*
X22218764Y21818474D01*
X22759145Y22358855D01*
X22961827Y22662191D01*
X23033000Y23020000D01*
X23033000Y23851435D01*
X23093457Y23911787D01*
X23837392Y23911787D01*
X23906857Y23669603D01*
X24430302Y23482856D01*
X24985368Y23510638D01*
X25369143Y23669603D01*
X25438608Y23911787D01*
X24638000Y24712395D01*
X23837392Y23911787D01*
X23093457Y23911787D01*
X23281629Y24099630D01*
X23361395Y24291727D01*
X23415603Y24160857D01*
X23657787Y24091392D01*
X24458395Y24892000D01*
X23657787Y25692608D01*
X23415603Y25623143D01*
X23365491Y25482682D01*
X23283010Y25682303D01*
X23093432Y25872213D01*
X23837392Y25872213D01*
X24638000Y25071605D01*
X25438608Y25872213D01*
X25369143Y26114397D01*
X24845698Y26301144D01*
X24290632Y26273362D01*
X23906857Y26114397D01*
X23837392Y25872213D01*
X23093432Y25872213D01*
X23033000Y25932750D01*
X23033000Y27044710D01*
X23501290Y27513000D01*
X32632710Y27513000D01*
X33041722Y27103988D01*
X33098173Y26820191D01*
X33300855Y26516855D01*
X33566747Y26250963D01*
X33490191Y26199809D01*
X33349843Y25989765D01*
X33317467Y25827000D01*
X30758565Y25827000D01*
X30510370Y26075629D01*
X29997100Y26288757D01*
X29441339Y26289242D01*
X28927697Y26077010D01*
X28534371Y25684370D01*
X28448051Y25476488D01*
X28363010Y25682303D01*
X27970370Y26075629D01*
X27457100Y26288757D01*
X26901339Y26289242D01*
X26387697Y26077010D01*
X25994371Y25684370D01*
X25914605Y25492273D01*
X25860397Y25623143D01*
X25618213Y25692608D01*
X24817605Y24892000D01*
X25618213Y24091392D01*
X25860397Y24160857D01*
X25910509Y24301318D01*
X25992990Y24101697D01*
X26067948Y24026608D01*
X24484855Y22443515D01*
X24282173Y22140179D01*
X24211000Y21782370D01*
X24211000Y10841000D01*
X23984290Y10841000D01*
X23984145Y10841145D01*
X23680809Y11043827D01*
X23334080Y11112796D01*
X23321157Y11177765D01*
X23180809Y11387809D01*
X23119680Y11428654D01*
X23261327Y11570302D01*
X23358000Y11803691D01*
X23358000Y12394250D01*
X23199250Y12553000D01*
X22225000Y12553000D01*
X22225000Y12533000D01*
X21971000Y12533000D01*
X21971000Y12553000D01*
X20996750Y12553000D01*
X20838000Y12394250D01*
X20838000Y11803691D01*
X20934673Y11570302D01*
X21076320Y11428654D01*
X21015191Y11387809D01*
X20874843Y11177765D01*
X20825560Y10930000D01*
X20825560Y10229850D01*
X20166855Y9571145D01*
X19964173Y9267809D01*
X19893000Y8910000D01*
X19893000Y7240893D01*
X19761809Y7186686D01*
X19231178Y6656979D01*
X18943648Y5964531D01*
X18942994Y5214759D01*
X19229314Y4521809D01*
X19759021Y3991178D01*
X20451469Y3703648D01*
X21201241Y3702994D01*
X21894191Y3989314D01*
X22424822Y4519021D01*
X22712352Y5211469D01*
X22713006Y5961241D01*
X22426686Y6654191D01*
X21896979Y7184822D01*
X21763000Y7240455D01*
X21763000Y8522710D01*
X22022850Y8782560D01*
X22723000Y8782560D01*
X22970765Y8831843D01*
X23180809Y8972191D01*
X23231157Y9047541D01*
X23239191Y9042173D01*
X23298556Y9030364D01*
X23597000Y8970999D01*
X23597005Y8971000D01*
X25266711Y8971000D01*
X25500853Y8736858D01*
X25500855Y8736855D01*
X25777225Y8552191D01*
X25804191Y8534173D01*
X26162000Y8463000D01*
X27668565Y8463000D01*
X28168900Y8255243D01*
X28724661Y8254758D01*
X29238303Y8466990D01*
X29443457Y8671787D01*
X34251392Y8671787D01*
X34320857Y8429603D01*
X34844302Y8242856D01*
X35399368Y8270638D01*
X35783143Y8429603D01*
X35852608Y8671787D01*
X35052000Y9472395D01*
X34251392Y8671787D01*
X29443457Y8671787D01*
X29631629Y8859630D01*
X29844757Y9372900D01*
X29845242Y9928661D01*
X29633010Y10442303D01*
X29518513Y10557000D01*
X33967392Y10557000D01*
X34071785Y10452607D01*
X33829603Y10383143D01*
X33642856Y9859698D01*
X33670638Y9304632D01*
X33829603Y8920857D01*
X34071787Y8851392D01*
X34872395Y9652000D01*
X35231605Y9652000D01*
X36032213Y8851392D01*
X36274397Y8920857D01*
X36461144Y9444302D01*
X36433362Y9999368D01*
X36274397Y10383143D01*
X36032213Y10452608D01*
X35231605Y9652000D01*
X34872395Y9652000D01*
X34858253Y9666142D01*
X35037858Y9845747D01*
X35052000Y9831605D01*
X35852608Y10632213D01*
X35812623Y10771618D01*
X36208120Y11035880D01*
X36562543Y11566313D01*
X36687000Y12192000D01*
X36562543Y12817687D01*
X36208120Y13348120D01*
X36037686Y13462000D01*
X36208120Y13575880D01*
X36562543Y14106313D01*
X36687000Y14732000D01*
X36562543Y15357687D01*
X36208120Y15888120D01*
X35677687Y16242543D01*
X35052000Y16367000D01*
X31070900Y16367000D01*
X31277890Y16408173D01*
X31581226Y16610855D01*
X35459145Y20488774D01*
X35527438Y20590982D01*
X35647999Y20567001D01*
X36234001Y20567001D01*
X36591810Y20638174D01*
X36895146Y20840856D01*
X38253145Y22198855D01*
X38364712Y22365828D01*
X38455827Y22502191D01*
X38497125Y22709809D01*
X38527001Y22860000D01*
X38527000Y22860005D01*
X38527000Y27432000D01*
X38455827Y27789809D01*
X38253145Y28093145D01*
X35713145Y30633145D01*
X35409809Y30835827D01*
X35052000Y30907000D01*
X8890000Y30907000D01*
X8532191Y30835827D01*
X8228855Y30633145D01*
X6450855Y28855145D01*
X6248173Y28551809D01*
X6177000Y28194000D01*
X6177000Y26601060D01*
X5994173Y26327439D01*
X5923000Y25969630D01*
X5923000Y25932565D01*
X5674371Y25684370D01*
X5461243Y25171100D01*
X5460758Y24615339D01*
X5672990Y24101697D01*
X5923000Y23851250D01*
X5923000Y22100440D01*
X5874000Y22100440D01*
X5626235Y22051157D01*
X5416191Y21910809D01*
X5275843Y21700765D01*
X5226560Y21453000D01*
X5226560Y20203000D01*
X5275843Y19955235D01*
X5416191Y19745191D01*
X5626235Y19604843D01*
X5874000Y19555560D01*
X7374000Y19555560D01*
X7621765Y19604843D01*
X7831809Y19745191D01*
X7872654Y19806320D01*
X8014302Y19664673D01*
X8247691Y19568000D01*
X8838250Y19568000D01*
X8997000Y19726750D01*
X8997000Y20701000D01*
X9251000Y20701000D01*
X9251000Y19726750D01*
X9409750Y19568000D01*
X10000309Y19568000D01*
X10233698Y19664673D01*
X10412327Y19843301D01*
X10509000Y20076690D01*
X10509000Y20542250D01*
X10350250Y20701000D01*
X9251000Y20701000D01*
X8997000Y20701000D01*
X8977000Y20701000D01*
X8977000Y20955000D01*
X8997000Y20955000D01*
X8997000Y21929250D01*
X9251000Y21929250D01*
X9251000Y20955000D01*
X10350250Y20955000D01*
X10509000Y21113750D01*
X10509000Y21579310D01*
X10412327Y21812699D01*
X10233698Y21991327D01*
X10000309Y22088000D01*
X9409750Y22088000D01*
X9251000Y21929250D01*
X8997000Y21929250D01*
X8838250Y22088000D01*
X8247691Y22088000D01*
X8014302Y21991327D01*
X7872654Y21849680D01*
X7831809Y21910809D01*
X7793000Y21936741D01*
X7793000Y23851435D01*
X7853457Y23911787D01*
X8597392Y23911787D01*
X8666857Y23669603D01*
X9190302Y23482856D01*
X9745368Y23510638D01*
X10129143Y23669603D01*
X10198608Y23911787D01*
X9398000Y24712395D01*
X8597392Y23911787D01*
X7853457Y23911787D01*
X8041629Y24099630D01*
X8121395Y24291727D01*
X8175603Y24160857D01*
X8417787Y24091392D01*
X9218395Y24892000D01*
X8417787Y25692608D01*
X8175603Y25623143D01*
X8125491Y25482682D01*
X8043010Y25682303D01*
X7929309Y25796202D01*
X7975827Y25865821D01*
X7977098Y25872213D01*
X8597392Y25872213D01*
X9398000Y25071605D01*
X10198608Y25872213D01*
X10129143Y26114397D01*
X9605698Y26301144D01*
X9050632Y26273362D01*
X8666857Y26114397D01*
X8597392Y25872213D01*
X7977098Y25872213D01*
X8047000Y26223630D01*
X8047000Y27806710D01*
X9277290Y29037000D01*
X22380710Y29037000D01*
X21436855Y28093145D01*
X21234173Y27789809D01*
X21163000Y27432000D01*
X21163000Y25932565D01*
X20914371Y25684370D01*
X20828051Y25476488D01*
X20743010Y25682303D01*
X20350370Y26075629D01*
X19837100Y26288757D01*
X19281339Y26289242D01*
X18767697Y26077010D01*
X18374371Y25684370D01*
X18288051Y25476488D01*
X18203010Y25682303D01*
X17810370Y26075629D01*
X17297100Y26288757D01*
X16741339Y26289242D01*
X16227697Y26077010D01*
X15834371Y25684370D01*
X15748051Y25476488D01*
X15663010Y25682303D01*
X15270370Y26075629D01*
X14757100Y26288757D01*
X14201339Y26289242D01*
X13687697Y26077010D01*
X13294371Y25684370D01*
X13208051Y25476488D01*
X13123010Y25682303D01*
X12730370Y26075629D01*
X12217100Y26288757D01*
X11661339Y26289242D01*
X11147697Y26077010D01*
X10754371Y25684370D01*
X10674605Y25492273D01*
X10620397Y25623143D01*
X10378213Y25692608D01*
X9577605Y24892000D01*
X10378213Y24091392D01*
X10620397Y24160857D01*
X10670509Y24301318D01*
X10752990Y24101697D01*
X11003000Y23851250D01*
X11003000Y19691290D01*
X10006855Y18695145D01*
X9804173Y18391809D01*
X9733000Y18034000D01*
X9733000Y15772565D01*
X9627250Y15667000D01*
X5774081Y15667000D01*
X5416272Y15595827D01*
X5355995Y15555551D01*
X5056447Y15755702D01*
X5199358Y15822817D01*
X5589645Y16251076D01*
X5759476Y16661110D01*
X5638155Y16891000D01*
X4445000Y16891000D01*
X4445000Y16871000D01*
X4191000Y16871000D01*
X4191000Y16891000D01*
X2997845Y16891000D01*
X2876524Y16661110D01*
X3046355Y16251076D01*
X3436642Y15822817D01*
X3579553Y15755702D01*
X3238853Y15528054D01*
X2916946Y15046285D01*
X2803907Y14478000D01*
X238372Y14478000D01*
X260655Y17374890D01*
X2876524Y17374890D01*
X2997845Y17145000D01*
X4191000Y17145000D01*
X4191000Y18338819D01*
X4445000Y18338819D01*
X4445000Y17145000D01*
X5638155Y17145000D01*
X5759476Y17374890D01*
X5589645Y17784924D01*
X5199358Y18213183D01*
X4674892Y18459486D01*
X4445000Y18338819D01*
X4191000Y18338819D01*
X3961108Y18459486D01*
X3436642Y18213183D01*
X3046355Y17784924D01*
X2876524Y17374890D01*
X260655Y17374890D01*
X380027Y32893000D01*
X39497973Y32893000D01*
X39750020Y127000D01*
M02*
