M48
METRIC,TZ
T1C0.762
T2C1.000
%
G90
G05
T1
X18796Y25654
X19812Y12446
X19812Y9906
X19812Y7366
X21336Y25654
X23876Y25654
X26416Y25654
X28956Y25654
X31496Y25654
X34036Y25654
X36576Y25654
X39116Y25654
X41656Y25654
X42672Y12446
X42672Y9906
X42672Y7366
X50546Y12192
X50546Y9652
X50546Y7112
T2
X4826Y13970
X4826Y11430
X4826Y8890
X4826Y6350
X52070Y23368
X52070Y20828
T0
M30
