G04 #@! TF.GenerationSoftware,KiCad,Pcbnew,(5.0.0-rc3-dev)*
G04 #@! TF.CreationDate,2018-07-21T10:19:03+02:00*
G04 #@! TF.ProjectId,Poweronoff,506F7765726F6E6F66662E6B69636164,rev?*
G04 #@! TF.SameCoordinates,PX7a8c120PY53ec600*
G04 #@! TF.FileFunction,Copper,L1,Top,Signal*
G04 #@! TF.FilePolarity,Positive*
%FSLAX46Y46*%
G04 Gerber Fmt 4.6, Leading zero omitted, Abs format (unit mm)*
G04 Created by KiCad (PCBNEW (5.0.0-rc3-dev)) date 07/21/18 10:19:03*
%MOMM*%
%LPD*%
G01*
G04 APERTURE LIST*
G04 #@! TA.AperFunction,ComponentPad*
%ADD10O,1.700000X1.700000*%
G04 #@! TD*
G04 #@! TA.AperFunction,ComponentPad*
%ADD11R,1.700000X1.700000*%
G04 #@! TD*
G04 #@! TA.AperFunction,SMDPad,CuDef*
%ADD12R,2.000000X1.780000*%
G04 #@! TD*
G04 #@! TA.AperFunction,SMDPad,CuDef*
%ADD13R,1.550000X0.600000*%
G04 #@! TD*
G04 #@! TA.AperFunction,Conductor*
%ADD14C,0.100000*%
G04 #@! TD*
G04 #@! TA.AperFunction,SMDPad,CuDef*
%ADD15C,1.150000*%
G04 #@! TD*
G04 #@! TA.AperFunction,Conductor*
%ADD16C,0.600000*%
G04 #@! TD*
G04 #@! TA.AperFunction,Conductor*
%ADD17C,0.254000*%
G04 #@! TD*
%ADD18C,0.254000*%
G04 APERTURE END LIST*
D10*
G04 #@! TO.P,J3,2*
G04 #@! TO.N,VCC*
X19500000Y11460000D03*
D11*
G04 #@! TO.P,J3,1*
G04 #@! TO.N,mcuGND*
X19500000Y14000000D03*
G04 #@! TD*
G04 #@! TO.P,J1,1*
G04 #@! TO.N,GND*
X2500000Y16500000D03*
D10*
G04 #@! TO.P,J1,2*
G04 #@! TO.N,Net-(J1-Pad2)*
X2500000Y13960000D03*
G04 #@! TD*
G04 #@! TO.P,U1,3*
G04 #@! TO.N,VCC*
X2500000Y3460000D03*
G04 #@! TO.P,U1,2*
G04 #@! TO.N,GND*
X2500000Y6000000D03*
D11*
G04 #@! TO.P,U1,1*
G04 #@! TO.N,Net-(J1-Pad2)*
X2500000Y8540000D03*
G04 #@! TD*
G04 #@! TO.P,J2,1*
G04 #@! TO.N,VCC*
X8960000Y3000000D03*
D10*
G04 #@! TO.P,J2,2*
G04 #@! TO.N,gate*
X11500000Y3000000D03*
G04 #@! TO.P,J2,3*
G04 #@! TO.N,Net-(J2-Pad3)*
X14040000Y3000000D03*
G04 #@! TD*
D12*
G04 #@! TO.P,U2,1*
G04 #@! TO.N,Net-(R2-Pad2)*
X15310000Y7730000D03*
G04 #@! TO.P,U2,3*
G04 #@! TO.N,gate*
X7690000Y10270000D03*
G04 #@! TO.P,U2,2*
G04 #@! TO.N,mcuGND*
X15310000Y10270000D03*
G04 #@! TO.P,U2,4*
G04 #@! TO.N,VCC*
X7690000Y7730000D03*
G04 #@! TD*
D13*
G04 #@! TO.P,Q1,1*
G04 #@! TO.N,GND*
X9300000Y17405000D03*
G04 #@! TO.P,Q1,2*
X9300000Y16135000D03*
G04 #@! TO.P,Q1,3*
X9300000Y14865000D03*
G04 #@! TO.P,Q1,4*
G04 #@! TO.N,gate*
X9300000Y13595000D03*
G04 #@! TO.P,Q1,5*
G04 #@! TO.N,mcuGND*
X14700000Y13595000D03*
G04 #@! TO.P,Q1,6*
X14700000Y14865000D03*
G04 #@! TO.P,Q1,7*
X14700000Y16135000D03*
G04 #@! TO.P,Q1,8*
X14700000Y17405000D03*
G04 #@! TD*
D14*
G04 #@! TO.N,Net-(R2-Pad2)*
G04 #@! TO.C,R2*
G36*
X18974505Y6598796D02*
X18998773Y6595196D01*
X19022572Y6589235D01*
X19045671Y6580970D01*
X19067850Y6570480D01*
X19088893Y6557868D01*
X19108599Y6543253D01*
X19126777Y6526777D01*
X19143253Y6508599D01*
X19157868Y6488893D01*
X19170480Y6467850D01*
X19180970Y6445671D01*
X19189235Y6422572D01*
X19195196Y6398773D01*
X19198796Y6374505D01*
X19200000Y6350001D01*
X19200000Y5699999D01*
X19198796Y5675495D01*
X19195196Y5651227D01*
X19189235Y5627428D01*
X19180970Y5604329D01*
X19170480Y5582150D01*
X19157868Y5561107D01*
X19143253Y5541401D01*
X19126777Y5523223D01*
X19108599Y5506747D01*
X19088893Y5492132D01*
X19067850Y5479520D01*
X19045671Y5469030D01*
X19022572Y5460765D01*
X18998773Y5454804D01*
X18974505Y5451204D01*
X18950001Y5450000D01*
X18049999Y5450000D01*
X18025495Y5451204D01*
X18001227Y5454804D01*
X17977428Y5460765D01*
X17954329Y5469030D01*
X17932150Y5479520D01*
X17911107Y5492132D01*
X17891401Y5506747D01*
X17873223Y5523223D01*
X17856747Y5541401D01*
X17842132Y5561107D01*
X17829520Y5582150D01*
X17819030Y5604329D01*
X17810765Y5627428D01*
X17804804Y5651227D01*
X17801204Y5675495D01*
X17800000Y5699999D01*
X17800000Y6350001D01*
X17801204Y6374505D01*
X17804804Y6398773D01*
X17810765Y6422572D01*
X17819030Y6445671D01*
X17829520Y6467850D01*
X17842132Y6488893D01*
X17856747Y6508599D01*
X17873223Y6526777D01*
X17891401Y6543253D01*
X17911107Y6557868D01*
X17932150Y6570480D01*
X17954329Y6580970D01*
X17977428Y6589235D01*
X18001227Y6595196D01*
X18025495Y6598796D01*
X18049999Y6600000D01*
X18950001Y6600000D01*
X18974505Y6598796D01*
X18974505Y6598796D01*
G37*
D15*
G04 #@! TD*
G04 #@! TO.P,R2,2*
G04 #@! TO.N,Net-(R2-Pad2)*
X18500000Y6025000D03*
D14*
G04 #@! TO.N,Net-(J2-Pad3)*
G04 #@! TO.C,R2*
G36*
X18974505Y4548796D02*
X18998773Y4545196D01*
X19022572Y4539235D01*
X19045671Y4530970D01*
X19067850Y4520480D01*
X19088893Y4507868D01*
X19108599Y4493253D01*
X19126777Y4476777D01*
X19143253Y4458599D01*
X19157868Y4438893D01*
X19170480Y4417850D01*
X19180970Y4395671D01*
X19189235Y4372572D01*
X19195196Y4348773D01*
X19198796Y4324505D01*
X19200000Y4300001D01*
X19200000Y3649999D01*
X19198796Y3625495D01*
X19195196Y3601227D01*
X19189235Y3577428D01*
X19180970Y3554329D01*
X19170480Y3532150D01*
X19157868Y3511107D01*
X19143253Y3491401D01*
X19126777Y3473223D01*
X19108599Y3456747D01*
X19088893Y3442132D01*
X19067850Y3429520D01*
X19045671Y3419030D01*
X19022572Y3410765D01*
X18998773Y3404804D01*
X18974505Y3401204D01*
X18950001Y3400000D01*
X18049999Y3400000D01*
X18025495Y3401204D01*
X18001227Y3404804D01*
X17977428Y3410765D01*
X17954329Y3419030D01*
X17932150Y3429520D01*
X17911107Y3442132D01*
X17891401Y3456747D01*
X17873223Y3473223D01*
X17856747Y3491401D01*
X17842132Y3511107D01*
X17829520Y3532150D01*
X17819030Y3554329D01*
X17810765Y3577428D01*
X17804804Y3601227D01*
X17801204Y3625495D01*
X17800000Y3649999D01*
X17800000Y4300001D01*
X17801204Y4324505D01*
X17804804Y4348773D01*
X17810765Y4372572D01*
X17819030Y4395671D01*
X17829520Y4417850D01*
X17842132Y4438893D01*
X17856747Y4458599D01*
X17873223Y4476777D01*
X17891401Y4493253D01*
X17911107Y4507868D01*
X17932150Y4520480D01*
X17954329Y4530970D01*
X17977428Y4539235D01*
X18001227Y4545196D01*
X18025495Y4548796D01*
X18049999Y4550000D01*
X18950001Y4550000D01*
X18974505Y4548796D01*
X18974505Y4548796D01*
G37*
D15*
G04 #@! TD*
G04 #@! TO.P,R2,1*
G04 #@! TO.N,Net-(J2-Pad3)*
X18500000Y3975000D03*
D14*
G04 #@! TO.N,gate*
G04 #@! TO.C,R1*
G36*
X6974505Y14048796D02*
X6998773Y14045196D01*
X7022572Y14039235D01*
X7045671Y14030970D01*
X7067850Y14020480D01*
X7088893Y14007868D01*
X7108599Y13993253D01*
X7126777Y13976777D01*
X7143253Y13958599D01*
X7157868Y13938893D01*
X7170480Y13917850D01*
X7180970Y13895671D01*
X7189235Y13872572D01*
X7195196Y13848773D01*
X7198796Y13824505D01*
X7200000Y13800001D01*
X7200000Y13149999D01*
X7198796Y13125495D01*
X7195196Y13101227D01*
X7189235Y13077428D01*
X7180970Y13054329D01*
X7170480Y13032150D01*
X7157868Y13011107D01*
X7143253Y12991401D01*
X7126777Y12973223D01*
X7108599Y12956747D01*
X7088893Y12942132D01*
X7067850Y12929520D01*
X7045671Y12919030D01*
X7022572Y12910765D01*
X6998773Y12904804D01*
X6974505Y12901204D01*
X6950001Y12900000D01*
X6049999Y12900000D01*
X6025495Y12901204D01*
X6001227Y12904804D01*
X5977428Y12910765D01*
X5954329Y12919030D01*
X5932150Y12929520D01*
X5911107Y12942132D01*
X5891401Y12956747D01*
X5873223Y12973223D01*
X5856747Y12991401D01*
X5842132Y13011107D01*
X5829520Y13032150D01*
X5819030Y13054329D01*
X5810765Y13077428D01*
X5804804Y13101227D01*
X5801204Y13125495D01*
X5800000Y13149999D01*
X5800000Y13800001D01*
X5801204Y13824505D01*
X5804804Y13848773D01*
X5810765Y13872572D01*
X5819030Y13895671D01*
X5829520Y13917850D01*
X5842132Y13938893D01*
X5856747Y13958599D01*
X5873223Y13976777D01*
X5891401Y13993253D01*
X5911107Y14007868D01*
X5932150Y14020480D01*
X5954329Y14030970D01*
X5977428Y14039235D01*
X6001227Y14045196D01*
X6025495Y14048796D01*
X6049999Y14050000D01*
X6950001Y14050000D01*
X6974505Y14048796D01*
X6974505Y14048796D01*
G37*
D15*
G04 #@! TD*
G04 #@! TO.P,R1,1*
G04 #@! TO.N,gate*
X6500000Y13475000D03*
D14*
G04 #@! TO.N,GND*
G04 #@! TO.C,R1*
G36*
X6974505Y16098796D02*
X6998773Y16095196D01*
X7022572Y16089235D01*
X7045671Y16080970D01*
X7067850Y16070480D01*
X7088893Y16057868D01*
X7108599Y16043253D01*
X7126777Y16026777D01*
X7143253Y16008599D01*
X7157868Y15988893D01*
X7170480Y15967850D01*
X7180970Y15945671D01*
X7189235Y15922572D01*
X7195196Y15898773D01*
X7198796Y15874505D01*
X7200000Y15850001D01*
X7200000Y15199999D01*
X7198796Y15175495D01*
X7195196Y15151227D01*
X7189235Y15127428D01*
X7180970Y15104329D01*
X7170480Y15082150D01*
X7157868Y15061107D01*
X7143253Y15041401D01*
X7126777Y15023223D01*
X7108599Y15006747D01*
X7088893Y14992132D01*
X7067850Y14979520D01*
X7045671Y14969030D01*
X7022572Y14960765D01*
X6998773Y14954804D01*
X6974505Y14951204D01*
X6950001Y14950000D01*
X6049999Y14950000D01*
X6025495Y14951204D01*
X6001227Y14954804D01*
X5977428Y14960765D01*
X5954329Y14969030D01*
X5932150Y14979520D01*
X5911107Y14992132D01*
X5891401Y15006747D01*
X5873223Y15023223D01*
X5856747Y15041401D01*
X5842132Y15061107D01*
X5829520Y15082150D01*
X5819030Y15104329D01*
X5810765Y15127428D01*
X5804804Y15151227D01*
X5801204Y15175495D01*
X5800000Y15199999D01*
X5800000Y15850001D01*
X5801204Y15874505D01*
X5804804Y15898773D01*
X5810765Y15922572D01*
X5819030Y15945671D01*
X5829520Y15967850D01*
X5842132Y15988893D01*
X5856747Y16008599D01*
X5873223Y16026777D01*
X5891401Y16043253D01*
X5911107Y16057868D01*
X5932150Y16070480D01*
X5954329Y16080970D01*
X5977428Y16089235D01*
X6001227Y16095196D01*
X6025495Y16098796D01*
X6049999Y16100000D01*
X6950001Y16100000D01*
X6974505Y16098796D01*
X6974505Y16098796D01*
G37*
D15*
G04 #@! TD*
G04 #@! TO.P,R1,2*
G04 #@! TO.N,GND*
X6500000Y15525000D03*
D16*
G04 #@! TO.N,VCC*
X7690000Y4270000D02*
X8960000Y3000000D01*
X7690000Y7730000D02*
X7690000Y4270000D01*
X8500000Y3460000D02*
X8960000Y3000000D01*
X2500000Y3460000D02*
X8500000Y3460000D01*
X19500000Y10257919D02*
X21000000Y8757919D01*
X19500000Y11460000D02*
X19500000Y10257919D01*
X21000000Y8757919D02*
X21000000Y3500000D01*
X21000000Y3500000D02*
X18000000Y500000D01*
X18000000Y500000D02*
X9500000Y500000D01*
X8960000Y1040000D02*
X8960000Y3000000D01*
X9500000Y500000D02*
X8960000Y1040000D01*
G04 #@! TO.N,gate*
X11500000Y3000000D02*
X11500000Y9000000D01*
X10230000Y10270000D02*
X7690000Y10270000D01*
X11500000Y9000000D02*
X10230000Y10270000D01*
X6500000Y11460000D02*
X7690000Y10270000D01*
X6500000Y13475000D02*
X6500000Y11460000D01*
X6620000Y13595000D02*
X6500000Y13475000D01*
X9300000Y13595000D02*
X6620000Y13595000D01*
G04 #@! TO.N,Net-(R2-Pad2)*
X16795000Y7730000D02*
X18500000Y6025000D01*
X15310000Y7730000D02*
X16795000Y7730000D01*
G04 #@! TO.N,Net-(J2-Pad3)*
X17525000Y3000000D02*
X18500000Y3975000D01*
X14040000Y3000000D02*
X17525000Y3000000D01*
G04 #@! TO.N,mcuGND*
X15310000Y12985000D02*
X14700000Y13595000D01*
X15310000Y10270000D02*
X15310000Y12985000D01*
X14700000Y17405000D02*
X14700000Y16135000D01*
X14700000Y14865000D02*
X14700000Y16135000D01*
X15565000Y14000000D02*
X14700000Y14865000D01*
X19500000Y14000000D02*
X15565000Y14000000D01*
X14700000Y13595000D02*
X14700000Y14865000D01*
G04 #@! TO.N,Net-(J1-Pad2)*
X2500000Y8540000D02*
X2500000Y13960000D01*
G04 #@! TD*
D17*
G04 #@! TO.N,GND*
X21790000Y19290000D02*
X710000Y19290000D01*
X21790000Y19048700D02*
X710000Y19048700D01*
X21790000Y18807400D02*
X710000Y18807400D01*
X21790000Y18566100D02*
X710000Y18566100D01*
X8361995Y18324800D02*
X710000Y18324800D01*
X9570550Y18324800D02*
X9029450Y18324800D01*
X13786043Y18324800D02*
X10238006Y18324800D01*
X21790000Y18324800D02*
X15613958Y18324800D01*
X8005475Y18083500D02*
X710000Y18083500D01*
X9427000Y18083500D02*
X9173000Y18083500D01*
X13414199Y18083500D02*
X10594526Y18083500D01*
X21790000Y18083500D02*
X15985802Y18083500D01*
X1244175Y17842200D02*
X710000Y17842200D01*
X2642950Y17842200D02*
X2357050Y17842200D01*
X7894511Y17842200D02*
X3755826Y17842200D01*
X9427000Y17842200D02*
X9173000Y17842200D01*
X13304851Y17842200D02*
X10705490Y17842200D01*
X21790000Y17842200D02*
X16095150Y17842200D01*
X1066607Y17600900D02*
X710000Y17600900D01*
X2627000Y17600900D02*
X2373000Y17600900D01*
X7979850Y17600900D02*
X3933394Y17600900D01*
X9427000Y17600900D02*
X9173000Y17600900D01*
X13277560Y17600900D02*
X10620150Y17600900D01*
X21790000Y17600900D02*
X16122440Y17600900D01*
X1015000Y17359600D02*
X710000Y17359600D01*
X2627000Y17359600D02*
X2373000Y17359600D01*
X13277560Y17359600D02*
X3985000Y17359600D01*
X21790000Y17359600D02*
X16122440Y17359600D01*
X1015000Y17118300D02*
X710000Y17118300D01*
X2627000Y17118300D02*
X2373000Y17118300D01*
X7890000Y17118300D02*
X3985000Y17118300D01*
X9427000Y17118300D02*
X9173000Y17118300D01*
X13277560Y17118300D02*
X10710000Y17118300D01*
X21790000Y17118300D02*
X16122440Y17118300D01*
X1015000Y16877000D02*
X710000Y16877000D01*
X2627000Y16877000D02*
X2373000Y16877000D01*
X7932121Y16877000D02*
X3985000Y16877000D01*
X9427000Y16877000D02*
X9173000Y16877000D01*
X13322911Y16877000D02*
X10667878Y16877000D01*
X21790000Y16877000D02*
X16077088Y16877000D01*
X1165050Y16635700D02*
X710000Y16635700D01*
X2627000Y16635700D02*
X2373000Y16635700D01*
X5437675Y16635700D02*
X3834950Y16635700D01*
X6686450Y16635700D02*
X6313550Y16635700D01*
X7920814Y16635700D02*
X7562326Y16635700D01*
X9427000Y16635700D02*
X9173000Y16635700D01*
X13317482Y16635700D02*
X10679187Y16635700D01*
X21790000Y16635700D02*
X16082519Y16635700D01*
X5234626Y16394400D02*
X710000Y16394400D01*
X6627000Y16394400D02*
X6373000Y16394400D01*
X7916350Y16394400D02*
X7765375Y16394400D01*
X9427000Y16394400D02*
X9173000Y16394400D01*
X13277560Y16394400D02*
X10683650Y16394400D01*
X21790000Y16394400D02*
X16122440Y16394400D01*
X1015000Y16153100D02*
X710000Y16153100D01*
X5165000Y16153100D02*
X3985000Y16153100D01*
X6627000Y16153100D02*
X6373000Y16153100D01*
X13277560Y16153100D02*
X7835000Y16153100D01*
X21790000Y16153100D02*
X16122440Y16153100D01*
X1015000Y15911800D02*
X710000Y15911800D01*
X5165000Y15911800D02*
X3985000Y15911800D01*
X6627000Y15911800D02*
X6373000Y15911800D01*
X7952550Y15911800D02*
X7835000Y15911800D01*
X9427000Y15911800D02*
X9173000Y15911800D01*
X13277560Y15911800D02*
X10647450Y15911800D01*
X21790000Y15911800D02*
X16122440Y15911800D01*
X1015000Y15670500D02*
X710000Y15670500D01*
X5305250Y15670500D02*
X3985000Y15670500D01*
X6627000Y15670500D02*
X6373000Y15670500D01*
X7905818Y15670500D02*
X7694750Y15670500D01*
X9427000Y15670500D02*
X9173000Y15670500D01*
X13310280Y15670500D02*
X10694181Y15670500D01*
X21790000Y15670500D02*
X16089719Y15670500D01*
X1054139Y15429200D02*
X710000Y15429200D01*
X7947116Y15429200D02*
X3945860Y15429200D01*
X9427000Y15429200D02*
X9173000Y15429200D01*
X13337825Y15429200D02*
X10652885Y15429200D01*
X18373865Y15429200D02*
X16062176Y15429200D01*
X21790000Y15429200D02*
X20626136Y15429200D01*
X1214074Y15187900D02*
X710000Y15187900D01*
X5165000Y15187900D02*
X3785925Y15187900D01*
X7890000Y15187900D02*
X7835000Y15187900D01*
X9427000Y15187900D02*
X9173000Y15187900D01*
X13282116Y15187900D02*
X10710000Y15187900D01*
X18112070Y15187900D02*
X16117885Y15187900D01*
X21790000Y15187900D02*
X20887931Y15187900D01*
X1373232Y14946600D02*
X710000Y14946600D01*
X5165000Y14946600D02*
X3626769Y14946600D01*
X13277560Y14946600D02*
X7835000Y14946600D01*
X18021775Y14946600D02*
X16122440Y14946600D01*
X21790000Y14946600D02*
X20978226Y14946600D01*
X1212000Y14705300D02*
X710000Y14705300D01*
X5214039Y14705300D02*
X3788001Y14705300D01*
X8016050Y14705300D02*
X7785960Y14705300D01*
X13277560Y14705300D02*
X10583950Y14705300D01*
X21790000Y14705300D02*
X20997440Y14705300D01*
X1086160Y14464000D02*
X710000Y14464000D01*
X5387974Y14464000D02*
X3913841Y14464000D01*
X13297649Y14464000D02*
X10710000Y14464000D01*
X21790000Y14464000D02*
X20997440Y14464000D01*
X1038163Y14222700D02*
X710000Y14222700D01*
X5273836Y14222700D02*
X3961838Y14222700D01*
X13380255Y14222700D02*
X10620533Y14222700D01*
X21790000Y14222700D02*
X20997440Y14222700D01*
X990165Y13981400D02*
X710000Y13981400D01*
X5188643Y13981400D02*
X4009836Y13981400D01*
X13294746Y13981400D02*
X10705255Y13981400D01*
X21790000Y13981400D02*
X20997440Y13981400D01*
X1029648Y13740100D02*
X710000Y13740100D01*
X5152560Y13740100D02*
X3970351Y13740100D01*
X13277560Y13740100D02*
X10722440Y13740100D01*
X21790000Y13740100D02*
X20997440Y13740100D01*
X1077646Y13498800D02*
X710000Y13498800D01*
X5152560Y13498800D02*
X3922353Y13498800D01*
X13277560Y13498800D02*
X10722440Y13498800D01*
X21790000Y13498800D02*
X20997440Y13498800D01*
X1183401Y13257500D02*
X710000Y13257500D01*
X5152560Y13257500D02*
X3816598Y13257500D01*
X13285019Y13257500D02*
X10714980Y13257500D01*
X21790000Y13257500D02*
X20997440Y13257500D01*
X1344633Y13016200D02*
X710000Y13016200D01*
X5179174Y13016200D02*
X3655366Y13016200D01*
X13347580Y13016200D02*
X10652419Y13016200D01*
X21790000Y13016200D02*
X20970825Y13016200D01*
X1565001Y12774900D02*
X710000Y12774900D01*
X5242030Y12774900D02*
X3435000Y12774900D01*
X13560415Y12774900D02*
X10439584Y12774900D01*
X21790000Y12774900D02*
X20863073Y12774900D01*
X1565001Y12533600D02*
X710000Y12533600D01*
X5403262Y12533600D02*
X3435000Y12533600D01*
X14375001Y12533600D02*
X7596737Y12533600D01*
X21790000Y12533600D02*
X20566173Y12533600D01*
X1565001Y12292300D02*
X710000Y12292300D01*
X5565001Y12292300D02*
X3435000Y12292300D01*
X14375001Y12292300D02*
X7435000Y12292300D01*
X21790000Y12292300D02*
X20729869Y12292300D01*
X1565001Y12051000D02*
X710000Y12051000D01*
X5565001Y12051000D02*
X3435000Y12051000D01*
X14375001Y12051000D02*
X7435000Y12051000D01*
X21790000Y12051000D02*
X20891101Y12051000D01*
X1565001Y11809700D02*
X710000Y11809700D01*
X5565001Y11809700D02*
X3435000Y11809700D01*
X14375001Y11809700D02*
X7472589Y11809700D01*
X21790000Y11809700D02*
X20944533Y11809700D01*
X1565001Y11568400D02*
X710000Y11568400D01*
X5565001Y11568400D02*
X3435000Y11568400D01*
X13819177Y11568400D02*
X9180824Y11568400D01*
X21790000Y11568400D02*
X20992530Y11568400D01*
X1565001Y11327100D02*
X710000Y11327100D01*
X5573118Y11327100D02*
X3435000Y11327100D01*
X13695798Y11327100D02*
X9304203Y11327100D01*
X21790000Y11327100D02*
X20987656Y11327100D01*
X1565001Y11085800D02*
X710000Y11085800D01*
X5625518Y11085800D02*
X3435000Y11085800D01*
X13662560Y11085800D02*
X10692024Y11085800D01*
X21790000Y11085800D02*
X20939659Y11085800D01*
X1565001Y10844500D02*
X710000Y10844500D01*
X5786750Y10844500D02*
X3435000Y10844500D01*
X13662560Y10844500D02*
X10977790Y10844500D01*
X21790000Y10844500D02*
X20874729Y10844500D01*
X1565001Y10603200D02*
X710000Y10603200D01*
X6034511Y10603200D02*
X3435000Y10603200D01*
X13662560Y10603200D02*
X11219090Y10603200D01*
X21790000Y10603200D02*
X20713498Y10603200D01*
X1565001Y10361900D02*
X710000Y10361900D01*
X6042560Y10361900D02*
X3435000Y10361900D01*
X13662560Y10361900D02*
X11460390Y10361900D01*
X21790000Y10361900D02*
X20718309Y10361900D01*
X1565001Y10120600D02*
X710000Y10120600D01*
X6042560Y10120600D02*
X3435000Y10120600D01*
X13662560Y10120600D02*
X11701690Y10120600D01*
X21790000Y10120600D02*
X20959609Y10120600D01*
X1239321Y9879300D02*
X710000Y9879300D01*
X6042560Y9879300D02*
X3760680Y9879300D01*
X13662560Y9879300D02*
X11942990Y9879300D01*
X21790000Y9879300D02*
X21200909Y9879300D01*
X1052001Y9638000D02*
X710000Y9638000D01*
X6042560Y9638000D02*
X3948000Y9638000D01*
X13662560Y9638000D02*
X12198217Y9638000D01*
X21790000Y9638000D02*
X21442209Y9638000D01*
X1003893Y9396700D02*
X710000Y9396700D01*
X6042560Y9396700D02*
X3996108Y9396700D01*
X13662560Y9396700D02*
X12359448Y9396700D01*
X21790000Y9396700D02*
X21697695Y9396700D01*
X1002560Y9155400D02*
X710000Y9155400D01*
X6087235Y9155400D02*
X3997440Y9155400D01*
X13707235Y9155400D02*
X12422407Y9155400D01*
X1002560Y8914100D02*
X710000Y8914100D01*
X6122804Y8914100D02*
X3997440Y8914100D01*
X13742804Y8914100D02*
X12436229Y8914100D01*
X1002560Y8672800D02*
X710000Y8672800D01*
X6053063Y8672800D02*
X3997440Y8672800D01*
X13673063Y8672800D02*
X12435000Y8672800D01*
X1002560Y8431500D02*
X710000Y8431500D01*
X6042560Y8431500D02*
X3997440Y8431500D01*
X13662560Y8431500D02*
X12435000Y8431500D01*
X1002560Y8190200D02*
X710000Y8190200D01*
X6042560Y8190200D02*
X3997440Y8190200D01*
X13662560Y8190200D02*
X12435000Y8190200D01*
X1002560Y7948900D02*
X710000Y7948900D01*
X6042560Y7948900D02*
X3997440Y7948900D01*
X13662560Y7948900D02*
X12435000Y7948900D01*
X1002560Y7707600D02*
X710000Y7707600D01*
X6042560Y7707600D02*
X3997440Y7707600D01*
X13662560Y7707600D02*
X12435000Y7707600D01*
X1047056Y7466300D02*
X710000Y7466300D01*
X6042560Y7466300D02*
X3952943Y7466300D01*
X13662560Y7466300D02*
X12435000Y7466300D01*
X1202953Y7225000D02*
X710000Y7225000D01*
X6042560Y7225000D02*
X3797046Y7225000D01*
X13662560Y7225000D02*
X12435000Y7225000D01*
X1425911Y6983700D02*
X710000Y6983700D01*
X6042560Y6983700D02*
X3574090Y6983700D01*
X13662560Y6983700D02*
X12435000Y6983700D01*
X1218198Y6742400D02*
X710000Y6742400D01*
X6061973Y6742400D02*
X3781803Y6742400D01*
X13681973Y6742400D02*
X12435000Y6742400D01*
X1118254Y6501100D02*
X710000Y6501100D01*
X6152737Y6501100D02*
X3881747Y6501100D01*
X13772737Y6501100D02*
X12435000Y6501100D01*
X1109761Y6259800D02*
X710000Y6259800D01*
X6415360Y6259800D02*
X3890238Y6259800D01*
X14035360Y6259800D02*
X12435000Y6259800D01*
X16942910Y6259800D02*
X16584639Y6259800D01*
X6755000Y6018500D02*
X710000Y6018500D01*
X17152560Y6018500D02*
X12435000Y6018500D01*
X1129288Y5777200D02*
X710000Y5777200D01*
X6755000Y5777200D02*
X3870713Y5777200D01*
X17152560Y5777200D02*
X12435000Y5777200D01*
X1102929Y5535900D02*
X710000Y5535900D01*
X6755000Y5535900D02*
X3897070Y5535900D01*
X17185201Y5535900D02*
X12435000Y5535900D01*
X1202872Y5294600D02*
X710000Y5294600D01*
X6755000Y5294600D02*
X3797127Y5294600D01*
X17262276Y5294600D02*
X12435000Y5294600D01*
X1392190Y5053300D02*
X710000Y5053300D01*
X6755000Y5053300D02*
X3607809Y5053300D01*
X17433543Y5053300D02*
X12435000Y5053300D01*
X1612095Y4812000D02*
X710000Y4812000D01*
X6755000Y4812000D02*
X3387904Y4812000D01*
X17333505Y4812000D02*
X12435000Y4812000D01*
X1489352Y4570700D02*
X710000Y4570700D01*
X6755000Y4570700D02*
X3510649Y4570700D01*
X17206406Y4570700D02*
X12435000Y4570700D01*
X1294921Y4329400D02*
X710000Y4329400D01*
X13356660Y4329400D02*
X12435000Y4329400D01*
X17158408Y4329400D02*
X14723341Y4329400D01*
X1133690Y4088100D02*
X710000Y4088100D01*
X12995529Y4088100D02*
X12544472Y4088100D01*
X17152560Y4088100D02*
X15084472Y4088100D01*
X1062848Y3846800D02*
X710000Y3846800D01*
X12819821Y3846800D02*
X12720180Y3846800D01*
X1014850Y3605500D02*
X710000Y3605500D01*
X1004963Y3364200D02*
X710000Y3364200D01*
X1052961Y3122900D02*
X710000Y3122900D01*
X1100958Y2881600D02*
X710000Y2881600D01*
X1261712Y2640300D02*
X710000Y2640300D01*
X1422943Y2399000D02*
X710000Y2399000D01*
X7462560Y2399000D02*
X3577056Y2399000D01*
X1776101Y2157700D02*
X710000Y2157700D01*
X7462560Y2157700D02*
X3223898Y2157700D01*
X7509025Y1916400D02*
X710000Y1916400D01*
X7677769Y1675100D02*
X710000Y1675100D01*
X8025000Y1433800D02*
X710000Y1433800D01*
X8025000Y1192500D02*
X710000Y1192500D01*
X8024346Y951200D02*
X710000Y951200D01*
X21790001Y9258554D02*
X21790001Y9258554D01*
X21548701Y9531508D02*
X21548701Y19290000D01*
X21307401Y9772808D02*
X21307401Y19290000D01*
X21066101Y10014108D02*
X21066101Y19290000D01*
X20824801Y15282378D02*
X20824801Y19290000D01*
X20824801Y12150223D02*
X20824801Y12717621D01*
X20824801Y10255408D02*
X20824801Y10769776D01*
X20583501Y15450994D02*
X20583501Y19290000D01*
X20583501Y12511354D02*
X20583501Y12549005D01*
X20342201Y15497440D02*
X20342201Y19290000D01*
X20100901Y15497440D02*
X20100901Y19290000D01*
X19859601Y15497440D02*
X19859601Y19290000D01*
X19618301Y15497440D02*
X19618301Y19290000D01*
X19377001Y15497440D02*
X19377001Y19290000D01*
X19135701Y15497440D02*
X19135701Y19290000D01*
X18894401Y15497440D02*
X18894401Y19290000D01*
X18653101Y15497440D02*
X18653101Y19290000D01*
X18411801Y15450060D02*
X18411801Y19290000D01*
X18170501Y15275348D02*
X18170501Y19290000D01*
X17929201Y14935000D02*
X17929201Y19290000D01*
X17687901Y14935000D02*
X17687901Y19290000D01*
X17446601Y14935000D02*
X17446601Y19290000D01*
X17446601Y4955425D02*
X17446601Y5044576D01*
X17205301Y14935000D02*
X17205301Y19290000D01*
X17205301Y4565150D02*
X17205301Y5434851D01*
X16964001Y14935000D02*
X16964001Y19290000D01*
X16964001Y3935000D02*
X16964001Y6238710D01*
X16722701Y14935000D02*
X16722701Y19290000D01*
X16722701Y3935000D02*
X16722701Y6352050D01*
X16481401Y14935000D02*
X16481401Y19290000D01*
X16481401Y3935000D02*
X16481401Y6226653D01*
X16240101Y14935000D02*
X16240101Y19290000D01*
X16240101Y3935000D02*
X16240101Y6192560D01*
X15998801Y18064045D02*
X15998801Y19290000D01*
X15998801Y3935000D02*
X15998801Y6192560D01*
X15757501Y18279946D02*
X15757501Y19290000D01*
X15757501Y3935000D02*
X15757501Y6192560D01*
X15516201Y18344244D02*
X15516201Y19290000D01*
X15516201Y3935000D02*
X15516201Y6192560D01*
X15274901Y18352440D02*
X15274901Y19290000D01*
X15274901Y3935000D02*
X15274901Y6192560D01*
X15033601Y18352440D02*
X15033601Y19290000D01*
X15033601Y4122090D02*
X15033601Y6192560D01*
X14792301Y18352440D02*
X14792301Y19290000D01*
X14792301Y4283322D02*
X14792301Y6192560D01*
X14551001Y18352440D02*
X14551001Y19290000D01*
X14551001Y4412447D02*
X14551001Y6192560D01*
X14309701Y18352440D02*
X14309701Y19290000D01*
X14309701Y11807381D02*
X14309701Y12647560D01*
X14309701Y4460445D02*
X14309701Y6192620D01*
X14068401Y18352440D02*
X14068401Y19290000D01*
X14068401Y11759384D02*
X14068401Y12647560D01*
X14068401Y4485000D02*
X14068401Y6240617D01*
X13827101Y18332967D02*
X13827101Y19290000D01*
X13827101Y11580260D02*
X13827101Y12667034D01*
X13827101Y4471744D02*
X13827101Y6419741D01*
X13585801Y18242063D02*
X13585801Y19290000D01*
X13585801Y4423747D02*
X13585801Y12757938D01*
X13344501Y17979192D02*
X13344501Y19290000D01*
X13344501Y16709192D02*
X13344501Y16830809D01*
X13344501Y15439192D02*
X13344501Y15560809D01*
X13344501Y14169192D02*
X13344501Y14290809D01*
X13344501Y4321277D02*
X13344501Y13020809D01*
X13103201Y4160045D02*
X13103201Y19290000D01*
X12861901Y3909779D02*
X12861901Y19290000D01*
X12620601Y3995830D02*
X12620601Y19290000D01*
X12379301Y9366987D02*
X12379301Y19290000D01*
X12138001Y9698215D02*
X12138001Y19290000D01*
X11896701Y9925588D02*
X11896701Y19290000D01*
X11655401Y10166888D02*
X11655401Y19290000D01*
X11414101Y10408188D02*
X11414101Y19290000D01*
X11172801Y10649488D02*
X11172801Y19290000D01*
X10931501Y10903083D02*
X10931501Y19290000D01*
X10690201Y17879108D02*
X10690201Y19290000D01*
X10690201Y17139049D02*
X10690201Y17670951D01*
X10690201Y16609109D02*
X10690201Y16930890D01*
X10690201Y15869049D02*
X10690201Y16400951D01*
X10690201Y15339109D02*
X10690201Y15660890D01*
X10690201Y14599049D02*
X10690201Y15130951D01*
X10690201Y14057078D02*
X10690201Y14390891D01*
X10690201Y11087017D02*
X10690201Y13132921D01*
X10448901Y18229124D02*
X10448901Y19290000D01*
X10448901Y17278000D02*
X10448901Y17532000D01*
X10448901Y16008000D02*
X10448901Y16262000D01*
X10448901Y14738000D02*
X10448901Y14992000D01*
X10448901Y11179774D02*
X10448901Y12781125D01*
X10207601Y18337393D02*
X10207601Y19290000D01*
X10207601Y17278000D02*
X10207601Y17532000D01*
X10207601Y16008000D02*
X10207601Y16262000D01*
X10207601Y14738000D02*
X10207601Y14992000D01*
X10207601Y11218862D02*
X10207601Y12673935D01*
X9966301Y18340000D02*
X9966301Y19290000D01*
X9966301Y17278000D02*
X9966301Y17532000D01*
X9966301Y16008000D02*
X9966301Y16262000D01*
X9966301Y14738000D02*
X9966301Y14992000D01*
X9966301Y11205000D02*
X9966301Y12647560D01*
X9725001Y18340000D02*
X9725001Y19290000D01*
X9725001Y17278000D02*
X9725001Y17532000D01*
X9725001Y16008000D02*
X9725001Y16262000D01*
X9725001Y14738000D02*
X9725001Y14992000D01*
X9725001Y11205000D02*
X9725001Y12647560D01*
X9483701Y18237951D02*
X9483701Y19290000D01*
X9483701Y17278000D02*
X9483701Y17532000D01*
X9483701Y16008000D02*
X9483701Y16262000D01*
X9483701Y14738000D02*
X9483701Y14992000D01*
X9483701Y11205000D02*
X9483701Y12647560D01*
X9242401Y18181250D02*
X9242401Y19290000D01*
X9242401Y17278000D02*
X9242401Y18181250D01*
X9242401Y16008000D02*
X9242401Y17278000D01*
X9242401Y14718000D02*
X9242401Y16008000D01*
X9242401Y11476243D02*
X9242401Y12647560D01*
X9001101Y18340000D02*
X9001101Y19290000D01*
X9001101Y17278000D02*
X9001101Y17532000D01*
X9001101Y16008000D02*
X9001101Y16262000D01*
X9001101Y14738000D02*
X9001101Y14992000D01*
X9001101Y11715836D02*
X9001101Y12647560D01*
X8759801Y18340000D02*
X8759801Y19290000D01*
X8759801Y17278000D02*
X8759801Y17532000D01*
X8759801Y16008000D02*
X8759801Y16262000D01*
X8759801Y14738000D02*
X8759801Y14992000D01*
X8759801Y11793555D02*
X8759801Y12647560D01*
X8518501Y18340000D02*
X8518501Y19290000D01*
X8518501Y17278000D02*
X8518501Y17532000D01*
X8518501Y16008000D02*
X8518501Y16262000D01*
X8518501Y14738000D02*
X8518501Y14992000D01*
X8518501Y11807440D02*
X8518501Y12648853D01*
X8277201Y18289678D02*
X8277201Y19290000D01*
X8277201Y17278000D02*
X8277201Y17532000D01*
X8277201Y16008000D02*
X8277201Y16262000D01*
X8277201Y14738000D02*
X8277201Y14992000D01*
X8277201Y11807440D02*
X8277201Y12660000D01*
X8035901Y18113927D02*
X8035901Y19290000D01*
X8035901Y17265151D02*
X8035901Y17544849D01*
X8035901Y15995151D02*
X8035901Y16274849D01*
X8035901Y14725151D02*
X8035901Y15004849D01*
X8035901Y11807440D02*
X8035901Y12660000D01*
X8035901Y710000D02*
X8035901Y893112D01*
X7794601Y17831310D02*
X7794601Y19290000D01*
X7794601Y17119250D02*
X7794601Y17831310D01*
X7794601Y16323840D02*
X7794601Y17119250D01*
X7794601Y15279649D02*
X7794601Y15770351D01*
X7794601Y14530000D02*
X7794601Y14726159D01*
X7794601Y11807440D02*
X7794601Y12660000D01*
X7794601Y710000D02*
X7794601Y1597035D01*
X7553301Y17831310D02*
X7553301Y19290000D01*
X7553301Y17119250D02*
X7553301Y17831310D01*
X7553301Y16640977D02*
X7553301Y17119250D01*
X7553301Y15398000D02*
X7553301Y15652000D01*
X7553301Y11807440D02*
X7553301Y12494509D01*
X7553301Y710000D02*
X7553301Y1840190D01*
X7312001Y17831310D02*
X7312001Y19290000D01*
X7312001Y17119250D02*
X7312001Y17831310D01*
X7312001Y16735000D02*
X7312001Y17119250D01*
X7312001Y15398000D02*
X7312001Y15652000D01*
X7312001Y710000D02*
X7312001Y2525000D01*
X7070701Y17831310D02*
X7070701Y19290000D01*
X7070701Y17119250D02*
X7070701Y17831310D01*
X7070701Y16735000D02*
X7070701Y17119250D01*
X7070701Y15398000D02*
X7070701Y15652000D01*
X7070701Y710000D02*
X7070701Y2525000D01*
X6829401Y17831310D02*
X6829401Y19290000D01*
X6829401Y17119250D02*
X6829401Y17831310D01*
X6829401Y16735000D02*
X6829401Y17119250D01*
X6829401Y15398000D02*
X6829401Y15652000D01*
X6829401Y710000D02*
X6829401Y2525000D01*
X6588101Y17831310D02*
X6588101Y19290000D01*
X6588101Y17119250D02*
X6588101Y17831310D01*
X6588101Y16576250D02*
X6588101Y17119250D01*
X6588101Y15378000D02*
X6588101Y16576250D01*
X6588101Y4395000D02*
X6588101Y6212829D01*
X6588101Y710000D02*
X6588101Y2525000D01*
X6346801Y17831310D02*
X6346801Y19290000D01*
X6346801Y17119250D02*
X6346801Y17831310D01*
X6346801Y16602449D02*
X6346801Y17119250D01*
X6346801Y15398000D02*
X6346801Y15652000D01*
X6346801Y4395000D02*
X6346801Y6305611D01*
X6346801Y710000D02*
X6346801Y2525000D01*
X6105501Y17831310D02*
X6105501Y19290000D01*
X6105501Y17119250D02*
X6105501Y17831310D01*
X6105501Y16735000D02*
X6105501Y17119250D01*
X6105501Y15398000D02*
X6105501Y15652000D01*
X6105501Y8888206D02*
X6105501Y9111795D01*
X6105501Y4395000D02*
X6105501Y6571795D01*
X6105501Y710000D02*
X6105501Y2525000D01*
X5864201Y17831310D02*
X5864201Y19290000D01*
X5864201Y17119250D02*
X5864201Y17831310D01*
X5864201Y16735000D02*
X5864201Y17119250D01*
X5864201Y15398000D02*
X5864201Y15652000D01*
X5864201Y4395000D02*
X5864201Y10760314D01*
X5864201Y710000D02*
X5864201Y2525000D01*
X5622901Y17831310D02*
X5622901Y19290000D01*
X5622901Y17119250D02*
X5622901Y17831310D01*
X5622901Y16713963D02*
X5622901Y17119250D01*
X5622901Y15398000D02*
X5622901Y15652000D01*
X5622901Y4395000D02*
X5622901Y11089718D01*
X5622901Y710000D02*
X5622901Y2525000D01*
X5381601Y17831310D02*
X5381601Y19290000D01*
X5381601Y17119250D02*
X5381601Y17831310D01*
X5381601Y16579627D02*
X5381601Y17119250D01*
X5381601Y15398000D02*
X5381601Y15652000D01*
X5381601Y14383982D02*
X5381601Y14470374D01*
X5381601Y4395000D02*
X5381601Y12566019D01*
X5381601Y710000D02*
X5381601Y2525000D01*
X5140301Y17831310D02*
X5140301Y19290000D01*
X5140301Y17119250D02*
X5140301Y17831310D01*
X5140301Y16226309D02*
X5140301Y17119250D01*
X5140301Y4395000D02*
X5140301Y16226309D01*
X5140301Y710000D02*
X5140301Y2525000D01*
X4899001Y17831310D02*
X4899001Y19290000D01*
X4899001Y17119250D02*
X4899001Y17831310D01*
X4899001Y16226309D02*
X4899001Y17119250D01*
X4899001Y4395000D02*
X4899001Y16226309D01*
X4899001Y710000D02*
X4899001Y2525000D01*
X4657701Y17831310D02*
X4657701Y19290000D01*
X4657701Y17119250D02*
X4657701Y17831310D01*
X4657701Y16226309D02*
X4657701Y17119250D01*
X4657701Y4395000D02*
X4657701Y16226309D01*
X4657701Y710000D02*
X4657701Y2525000D01*
X4416401Y17831310D02*
X4416401Y19290000D01*
X4416401Y17119250D02*
X4416401Y17831310D01*
X4416401Y16226309D02*
X4416401Y17119250D01*
X4416401Y4395000D02*
X4416401Y16226309D01*
X4416401Y710000D02*
X4416401Y2525000D01*
X4175101Y17831310D02*
X4175101Y19290000D01*
X4175101Y17119250D02*
X4175101Y17831310D01*
X4175101Y16226309D02*
X4175101Y17119250D01*
X4175101Y4395000D02*
X4175101Y16226309D01*
X4175101Y710000D02*
X4175101Y2525000D01*
X3933801Y17831310D02*
X3933801Y19290000D01*
X3933801Y17599915D02*
X3933801Y17831310D01*
X3933801Y16265449D02*
X3933801Y16734551D01*
X3933801Y14363651D02*
X3933801Y15400084D01*
X3933801Y9659250D02*
X3933801Y13556348D01*
X3933801Y6375420D02*
X3933801Y7420749D01*
X3933801Y5657653D02*
X3933801Y6342346D01*
X3933801Y4395000D02*
X3933801Y5624579D01*
X3933801Y710000D02*
X3933801Y2525000D01*
X3692501Y17895450D02*
X3692501Y19290000D01*
X3692501Y16373000D02*
X3692501Y16627000D01*
X3692501Y14848224D02*
X3692501Y15104549D01*
X3692501Y9924855D02*
X3692501Y13071775D01*
X3692501Y6853768D02*
X3692501Y7155144D01*
X3692501Y5873000D02*
X3692501Y6127000D01*
X3692501Y4395000D02*
X3692501Y5146231D01*
X3692501Y710000D02*
X3692501Y2525000D01*
X3451201Y17985000D02*
X3451201Y19290000D01*
X3451201Y16373000D02*
X3451201Y16627000D01*
X3451201Y10017310D02*
X3451201Y12809578D01*
X3451201Y5873000D02*
X3451201Y6127000D01*
X3451201Y4610421D02*
X3451201Y4881455D01*
X3451201Y710000D02*
X3451201Y2309578D01*
X3209901Y17985000D02*
X3209901Y19290000D01*
X3209901Y16373000D02*
X3209901Y16627000D01*
X3209901Y5873000D02*
X3209901Y6127000D01*
X3209901Y710000D02*
X3209901Y2148346D01*
X2968601Y17985000D02*
X2968601Y19290000D01*
X2968601Y16373000D02*
X2968601Y16627000D01*
X2968601Y5873000D02*
X2968601Y6127000D01*
X2968601Y710000D02*
X2968601Y2039118D01*
X2727301Y17926551D02*
X2727301Y19290000D01*
X2727301Y16373000D02*
X2727301Y16627000D01*
X2727301Y5873000D02*
X2727301Y6127000D01*
X2727301Y710000D02*
X2727301Y1991120D01*
X2486001Y17826250D02*
X2486001Y19290000D01*
X2486001Y16353000D02*
X2486001Y17826250D01*
X2486001Y5853000D02*
X2486001Y6147000D01*
X2486001Y710000D02*
X2486001Y1975000D01*
X2244701Y17954549D02*
X2244701Y19290000D01*
X2244701Y16373000D02*
X2244701Y16627000D01*
X2244701Y5873000D02*
X2244701Y6127000D01*
X2244701Y710000D02*
X2244701Y1996690D01*
X2003401Y17985000D02*
X2003401Y19290000D01*
X2003401Y16373000D02*
X2003401Y16627000D01*
X2003401Y5873000D02*
X2003401Y6127000D01*
X2003401Y710000D02*
X2003401Y2044688D01*
X1762101Y17985000D02*
X1762101Y19290000D01*
X1762101Y16373000D02*
X1762101Y16627000D01*
X1762101Y5873000D02*
X1762101Y6127000D01*
X1762101Y710000D02*
X1762101Y2167055D01*
X1520801Y17983803D02*
X1520801Y19290000D01*
X1520801Y16373000D02*
X1520801Y16627000D01*
X1520801Y10011742D02*
X1520801Y12828287D01*
X1520801Y5873000D02*
X1520801Y6127000D01*
X1520801Y4591714D02*
X1520801Y4912178D01*
X1520801Y710000D02*
X1520801Y2328287D01*
X1279501Y17877527D02*
X1279501Y19290000D01*
X1279501Y16373000D02*
X1279501Y16627000D01*
X1279501Y14806323D02*
X1279501Y15122474D01*
X1279501Y9906149D02*
X1279501Y13113678D01*
X1279501Y6823047D02*
X1279501Y7173852D01*
X1279501Y5873000D02*
X1279501Y6127000D01*
X1279501Y4306323D02*
X1279501Y5176954D01*
X1279501Y710000D02*
X1279501Y2613678D01*
X1038201Y17532323D02*
X1038201Y19290000D01*
X1038201Y16237451D02*
X1038201Y16762549D01*
X1038201Y14222896D02*
X1038201Y15467678D01*
X1038201Y9569182D02*
X1038201Y13697105D01*
X1038201Y3722896D02*
X1038201Y7510819D01*
X1038201Y710000D02*
X1038201Y3197105D01*
X796901Y17476310D02*
X796901Y19290000D01*
X796901Y13960000D02*
X796901Y17476310D01*
X796901Y710000D02*
X796901Y13960000D01*
D18*
X21790001Y9258554D02*
X21674097Y9432016D01*
X21596031Y9484178D01*
X20618774Y10461435D01*
X20898839Y10880582D01*
X21014092Y11460000D01*
X20898839Y12039418D01*
X20570625Y12530625D01*
X20552381Y12542816D01*
X20597765Y12551843D01*
X20807809Y12692191D01*
X20948157Y12902235D01*
X20997440Y13150000D01*
X20997440Y14850000D01*
X20948157Y15097765D01*
X20807809Y15307809D01*
X20597765Y15448157D01*
X20350000Y15497440D01*
X18650000Y15497440D01*
X18402235Y15448157D01*
X18192191Y15307809D01*
X18051843Y15097765D01*
X18019467Y14935000D01*
X16122440Y14935000D01*
X16122440Y15165000D01*
X16073157Y15412765D01*
X16014868Y15500000D01*
X16073157Y15587235D01*
X16122440Y15835000D01*
X16122440Y16435000D01*
X16073157Y16682765D01*
X16014868Y16770000D01*
X16073157Y16857235D01*
X16122440Y17105000D01*
X16122440Y17705000D01*
X16073157Y17952765D01*
X15932809Y18162809D01*
X15722765Y18303157D01*
X15475000Y18352440D01*
X14729546Y18352440D01*
X14700000Y18358317D01*
X14670454Y18352440D01*
X13925000Y18352440D01*
X13677235Y18303157D01*
X13467191Y18162809D01*
X13326843Y17952765D01*
X13277560Y17705000D01*
X13277560Y17105000D01*
X13326843Y16857235D01*
X13385132Y16770000D01*
X13326843Y16682765D01*
X13277560Y16435000D01*
X13277560Y15835000D01*
X13326843Y15587235D01*
X13385132Y15500000D01*
X13326843Y15412765D01*
X13277560Y15165000D01*
X13277560Y14565000D01*
X13326843Y14317235D01*
X13385132Y14230000D01*
X13326843Y14142765D01*
X13277560Y13895000D01*
X13277560Y13295000D01*
X13326843Y13047235D01*
X13467191Y12837191D01*
X13677235Y12696843D01*
X13925000Y12647560D01*
X14325151Y12647560D01*
X14375001Y12597710D01*
X14375001Y11807440D01*
X14310000Y11807440D01*
X14062235Y11758157D01*
X13852191Y11617809D01*
X13711843Y11407765D01*
X13662560Y11160000D01*
X13662560Y9380000D01*
X13711843Y9132235D01*
X13800200Y9000000D01*
X13711843Y8867765D01*
X13662560Y8620000D01*
X13662560Y6840000D01*
X13711843Y6592235D01*
X13852191Y6382191D01*
X14062235Y6241843D01*
X14310000Y6192560D01*
X16310000Y6192560D01*
X16557765Y6241843D01*
X16767809Y6382191D01*
X16788922Y6413789D01*
X17152560Y6050150D01*
X17152560Y5699999D01*
X17220873Y5356564D01*
X17415414Y5065414D01*
X17513313Y5000000D01*
X17415414Y4934586D01*
X17220873Y4643436D01*
X17152560Y4300001D01*
X17152560Y3949849D01*
X17137711Y3935000D01*
X15201247Y3935000D01*
X15110625Y4070625D01*
X14619418Y4398839D01*
X14186256Y4485000D01*
X13893744Y4485000D01*
X13460582Y4398839D01*
X12969375Y4070625D01*
X12770000Y3772239D01*
X12570625Y4070625D01*
X12435000Y4161247D01*
X12435000Y8907919D01*
X12453316Y9000001D01*
X12435000Y9092083D01*
X12435000Y9092086D01*
X12380750Y9364819D01*
X12174097Y9674097D01*
X12096031Y9726259D01*
X10956261Y10866028D01*
X10904097Y10944097D01*
X10594819Y11150750D01*
X10322086Y11205000D01*
X10230000Y11223317D01*
X10137914Y11205000D01*
X9328489Y11205000D01*
X9288157Y11407765D01*
X9147809Y11617809D01*
X8937765Y11758157D01*
X8690000Y11807440D01*
X7474849Y11807440D01*
X7435000Y11847289D01*
X7435000Y12415463D01*
X7584586Y12515414D01*
X7681196Y12660000D01*
X8462459Y12660000D01*
X8525000Y12647560D01*
X10075000Y12647560D01*
X10322765Y12696843D01*
X10532809Y12837191D01*
X10673157Y13047235D01*
X10722440Y13295000D01*
X10722440Y13895000D01*
X10673157Y14142765D01*
X10620232Y14221972D01*
X10710000Y14438690D01*
X10710000Y14579250D01*
X10551250Y14738000D01*
X9427000Y14738000D01*
X9427000Y14718000D01*
X9173000Y14718000D01*
X9173000Y14738000D01*
X8048750Y14738000D01*
X7890000Y14579250D01*
X7890000Y14530000D01*
X7678025Y14530000D01*
X7738327Y14590302D01*
X7835000Y14823691D01*
X7835000Y15239250D01*
X7676250Y15398000D01*
X6627000Y15398000D01*
X6627000Y15378000D01*
X6373000Y15378000D01*
X6373000Y15398000D01*
X5323750Y15398000D01*
X5165000Y15239250D01*
X5165000Y14823691D01*
X5261673Y14590302D01*
X5416597Y14435377D01*
X5415414Y14434586D01*
X5220873Y14143436D01*
X5152560Y13800001D01*
X5152560Y13149999D01*
X5220873Y12806564D01*
X5415414Y12515414D01*
X5565001Y12415463D01*
X5565001Y11552090D01*
X5546683Y11460000D01*
X5619250Y11095182D01*
X5772364Y10866031D01*
X5825904Y10785903D01*
X5903970Y10733741D01*
X6042560Y10595151D01*
X6042560Y9380000D01*
X6091843Y9132235D01*
X6180200Y9000000D01*
X6091843Y8867765D01*
X6042560Y8620000D01*
X6042560Y6840000D01*
X6091843Y6592235D01*
X6232191Y6382191D01*
X6442235Y6241843D01*
X6690000Y6192560D01*
X6755000Y6192560D01*
X6755001Y4395000D01*
X3661247Y4395000D01*
X3570625Y4530625D01*
X3251522Y4743843D01*
X3381358Y4804817D01*
X3771645Y5233076D01*
X3941476Y5643110D01*
X3820155Y5873000D01*
X2627000Y5873000D01*
X2627000Y5853000D01*
X2373000Y5853000D01*
X2373000Y5873000D01*
X1179845Y5873000D01*
X1058524Y5643110D01*
X1228355Y5233076D01*
X1618642Y4804817D01*
X1748478Y4743843D01*
X1429375Y4530625D01*
X1101161Y4039418D01*
X985908Y3460000D01*
X1101161Y2880582D01*
X1429375Y2389375D01*
X1920582Y2061161D01*
X2353744Y1975000D01*
X2646256Y1975000D01*
X3079418Y2061161D01*
X3570625Y2389375D01*
X3661247Y2525000D01*
X7462560Y2525000D01*
X7462560Y2150000D01*
X7511843Y1902235D01*
X7652191Y1692191D01*
X7862235Y1551843D01*
X8025000Y1519467D01*
X8025000Y1132086D01*
X8006683Y1040000D01*
X8025000Y947915D01*
X8072324Y710000D01*
X710000Y710000D01*
X710000Y13960000D01*
X985908Y13960000D01*
X1101161Y13380582D01*
X1429375Y12889375D01*
X1565001Y12798753D01*
X1565000Y10020533D01*
X1402235Y9988157D01*
X1192191Y9847809D01*
X1051843Y9637765D01*
X1002560Y9390000D01*
X1002560Y7690000D01*
X1051843Y7442235D01*
X1192191Y7232191D01*
X1402235Y7091843D01*
X1505708Y7071261D01*
X1228355Y6766924D01*
X1058524Y6356890D01*
X1179845Y6127000D01*
X2373000Y6127000D01*
X2373000Y6147000D01*
X2627000Y6147000D01*
X2627000Y6127000D01*
X3820155Y6127000D01*
X3941476Y6356890D01*
X3771645Y6766924D01*
X3494292Y7071261D01*
X3597765Y7091843D01*
X3807809Y7232191D01*
X3948157Y7442235D01*
X3997440Y7690000D01*
X3997440Y9390000D01*
X3948157Y9637765D01*
X3807809Y9847809D01*
X3597765Y9988157D01*
X3435000Y10020533D01*
X3435000Y12798753D01*
X3570625Y12889375D01*
X3898839Y13380582D01*
X4014092Y13960000D01*
X3898839Y14539418D01*
X3570625Y15030625D01*
X3548967Y15045096D01*
X3709698Y15111673D01*
X3888327Y15290301D01*
X3985000Y15523690D01*
X3985000Y16214250D01*
X3972941Y16226309D01*
X5165000Y16226309D01*
X5165000Y15810750D01*
X5323750Y15652000D01*
X6373000Y15652000D01*
X6373000Y16576250D01*
X6627000Y16576250D01*
X6627000Y15652000D01*
X7676250Y15652000D01*
X7835000Y15810750D01*
X7835000Y15849250D01*
X7890000Y15849250D01*
X7890000Y15708690D01*
X7976442Y15500000D01*
X7890000Y15291310D01*
X7890000Y15150750D01*
X8048750Y14992000D01*
X9173000Y14992000D01*
X9173000Y16008000D01*
X9427000Y16008000D01*
X9427000Y14992000D01*
X10551250Y14992000D01*
X10710000Y15150750D01*
X10710000Y15291310D01*
X10623558Y15500000D01*
X10710000Y15708690D01*
X10710000Y15849250D01*
X10551250Y16008000D01*
X9427000Y16008000D01*
X9173000Y16008000D01*
X8048750Y16008000D01*
X7890000Y15849250D01*
X7835000Y15849250D01*
X7835000Y16226309D01*
X7738327Y16459698D01*
X7559699Y16638327D01*
X7326310Y16735000D01*
X6785750Y16735000D01*
X6627000Y16576250D01*
X6373000Y16576250D01*
X6214250Y16735000D01*
X5673690Y16735000D01*
X5440301Y16638327D01*
X5261673Y16459698D01*
X5165000Y16226309D01*
X3972941Y16226309D01*
X3826250Y16373000D01*
X2627000Y16373000D01*
X2627000Y16353000D01*
X2373000Y16353000D01*
X2373000Y16373000D01*
X1173750Y16373000D01*
X1015000Y16214250D01*
X1015000Y15523690D01*
X1111673Y15290301D01*
X1290302Y15111673D01*
X1451033Y15045096D01*
X1429375Y15030625D01*
X1101161Y14539418D01*
X985908Y13960000D01*
X710000Y13960000D01*
X710000Y17476310D01*
X1015000Y17476310D01*
X1015000Y16785750D01*
X1173750Y16627000D01*
X2373000Y16627000D01*
X2373000Y17826250D01*
X2627000Y17826250D01*
X2627000Y16627000D01*
X3826250Y16627000D01*
X3985000Y16785750D01*
X3985000Y17119250D01*
X7890000Y17119250D01*
X7890000Y16978690D01*
X7976442Y16770000D01*
X7890000Y16561310D01*
X7890000Y16420750D01*
X8048750Y16262000D01*
X9173000Y16262000D01*
X9173000Y17278000D01*
X9427000Y17278000D01*
X9427000Y16262000D01*
X10551250Y16262000D01*
X10710000Y16420750D01*
X10710000Y16561310D01*
X10623558Y16770000D01*
X10710000Y16978690D01*
X10710000Y17119250D01*
X10551250Y17278000D01*
X9427000Y17278000D01*
X9173000Y17278000D01*
X8048750Y17278000D01*
X7890000Y17119250D01*
X3985000Y17119250D01*
X3985000Y17476310D01*
X3888327Y17709699D01*
X3766716Y17831310D01*
X7890000Y17831310D01*
X7890000Y17690750D01*
X8048750Y17532000D01*
X9173000Y17532000D01*
X9173000Y18181250D01*
X9427000Y18181250D01*
X9427000Y17532000D01*
X10551250Y17532000D01*
X10710000Y17690750D01*
X10710000Y17831310D01*
X10613327Y18064699D01*
X10434698Y18243327D01*
X10201309Y18340000D01*
X9585750Y18340000D01*
X9427000Y18181250D01*
X9173000Y18181250D01*
X9014250Y18340000D01*
X8398691Y18340000D01*
X8165302Y18243327D01*
X7986673Y18064699D01*
X7890000Y17831310D01*
X3766716Y17831310D01*
X3709698Y17888327D01*
X3476309Y17985000D01*
X2785750Y17985000D01*
X2627000Y17826250D01*
X2373000Y17826250D01*
X2214250Y17985000D01*
X1523691Y17985000D01*
X1290302Y17888327D01*
X1111673Y17709699D01*
X1015000Y17476310D01*
X710000Y17476310D01*
X710000Y19290000D01*
X21790000Y19290000D01*
X21790001Y9258554D01*
G04 #@! TD*
M02*
